M48
METRIC,LZ,000.000
;FILE_FORMAT=3:3
;TYPE=PLATED
;Layer: PTH_Through
;EasyEDA v6.5.57, 2026-07-26 20:50:06
;f01cf997b2ac4535b0a7ee46c1186d17,c5fbdd24a08247c7b54e1019145e24f9,10
;Gerber Generator version 0.2
;Holesize 1 = 0.200 mm
T01C0.200
;Holesize 2 = 0.250 mm
T02C0.250
;Holesize 3 = 0.301 mm
T03C0.301
;Holesize 4 = 0.310 mm
T04C0.310
;Holesize 5 = 0.351 mm
T05C0.351
;Holesize 6 = 0.501 mm
T06C0.501
;Holesize 7 = 0.600 mm
T07C0.600
;Holesize 8 = 0.701 mm
T08C0.701
;Holesize 9 = 0.901 mm
T09C0.901
;Holesize 10 = 1.000 mm
T10C1.000
;Holesize 11 = 1.050 mm
T11C1.050
;Holesize 12 = 1.101 mm
T12C1.101
;Holesize 13 = 1.200 mm
T13C1.200
;Holesize 14 = 1.501 mm
T14C1.501
%
G05
G90
T01
X019570Y078680
X019570Y080580
X024120Y018120
X022860Y018034
X019812Y014478
X019431Y012954
X021717Y017653
X019812Y017653
X019965Y034990
X019916Y036890
X283739Y008210
X283725Y007112
X074800Y019250
X074100Y018500
X075550Y016950
X073550Y017350
X060750Y017200
X060300Y016650
X059550Y015850
X059300Y015300
X073950Y014750
X073545Y014250
X014050Y059050
X013735Y059963
X105550Y013650
X105045Y014200
X058560Y010080
X059050Y011550
X281299Y035046
X281299Y033776
X061800Y010300
X062050Y011200
X281299Y036316
X281253Y037459
X063650Y011100
X063545Y011800
X278649Y062731
X278649Y064128
X278649Y065271
X278649Y066541
X278649Y067811
X278649Y069081
X278649Y070351
X278649Y071621
X064545Y011350
X065045Y011700
X066045Y011700
X066545Y011350
X067545Y011300
X068150Y011300
X068900Y011700
X069550Y011641
X165608Y027103
X164338Y027050
X071045Y011600
X070350Y011550
X072045Y011500
X072700Y011500
X266800Y006000
X267269Y006460
X271319Y039850
X270850Y040450
X077045Y011700
X077350Y010750
X278800Y060572
X278800Y058159
X080000Y010850
X161798Y055800
X081545Y011750
X250899Y032180
X164584Y048050
X163550Y048000
X082550Y011850
X079300Y021950
X079295Y021300
X288100Y039558
X288100Y037658
X076295Y021500
X075550Y021450
X286500Y063561
X286570Y061661
X073500Y021450
X072550Y021450
X268299Y071600
X268299Y072350
X069550Y022000
X069800Y021400
X265299Y067100
X265320Y067930
X068750Y022100
X068850Y021400
X265750Y062950
X265029Y063071
X067650Y021900
X263949Y059900
X264750Y059950
X065950Y022000
X065900Y021350
X262450Y033600
X263560Y033400
X064400Y022100
X064325Y021400
X259019Y028410
X258979Y029190
X063250Y022000
X062825Y021350
X079825Y023200
X075650Y019200
X076825Y019100
X078325Y019050
X079825Y019000
X082825Y019000
X084325Y019000
X089325Y019000
X096825Y019029
X099825Y019000
X102825Y019000
X104325Y018950
X105825Y018900
X107325Y018850
X110325Y018850
X108825Y018800
X114825Y018850
X116325Y018800
X117825Y018750
X119325Y018750
X119575Y014489
X118075Y014500
X116575Y014500
X115075Y014442
X113575Y014400
X112075Y014339
X110575Y014245
X109075Y014250
X107575Y014200
X106075Y014200
X104550Y014800
X102550Y014850
X099050Y014900
X095100Y014850
X078950Y011150
X077900Y011400
X075950Y011100
X074575Y010950
X073400Y010900
X068600Y010700
X066850Y010350
X065350Y010500
X063800Y010500
X062700Y010750
X060500Y011150
X059575Y010750
X154850Y036200
X155350Y036800
X155850Y036100
X159400Y036700
X160000Y036200
X163850Y036750
X171600Y036450
X174050Y041300
X138150Y047950
X151150Y035500
X150700Y035200
X082950Y021950
X083325Y021300
X045450Y039650
X047750Y039600
X051300Y038500
X053750Y039200
X084050Y014500
X102349Y022901
X129800Y068700
X101850Y023850
X127700Y062650
X101350Y022750
X128200Y064550
X100800Y022050
X110000Y048050
X100350Y022750
X144650Y014500
X142400Y015500
X081850Y019250
X082300Y018700
X146950Y019500
X141650Y018150
X146750Y016500
X146650Y015550
X147900Y015400
X146250Y016800
X148300Y016550
X147200Y016000
X146200Y016050
X146800Y017450
X145850Y020350
X288499Y086150
X299299Y087150
X056600Y011250
X147350Y044850
X253699Y061100
X080850Y022100
X143800Y038750
X151300Y021450
X151400Y022550
X084350Y027300
X085300Y027400
X071000Y022050
X071850Y021250
X291650Y075151
X276549Y079950
X277599Y082750
X280549Y083000
X279824Y081168
X280149Y079850
X284599Y076750
X298599Y079050
X300799Y078800
X300899Y084300
X291973Y079883
X287599Y079900
X292091Y066421
X291449Y062600
X286599Y062600
X284845Y060452
X283899Y066600
X292091Y049911
X287649Y054200
X286949Y054200
X067750Y022750
X072600Y019450
X111850Y018850
X113350Y019200
X089100Y014900
X082050Y014400
X080550Y014450
X070050Y014250
X057500Y011350
X287899Y069600
X287199Y069600
X079600Y011700
X013100Y062575
X019350Y061950
X141250Y080150
X135550Y083450
X130350Y089120
X052550Y075999
T02
X286758Y010400
X287910Y010360
X280750Y013000
X280750Y013800
X059800Y021900
X058650Y021950
X043000Y053680
X047150Y054900
X046725Y046050
X044125Y046050
X052575Y046100
X049975Y054450
X050650Y046050
X094750Y019000
X049950Y042550
X094150Y017900
X048050Y044250
X047450Y045300
X048700Y046300
T03
X050150Y049200
X047750Y050400
X048950Y049200
X047750Y049200
X047750Y051600
X046550Y049200
X046550Y050400
X046550Y051600
X048950Y050400
X050128Y050400
X048950Y051600
X050150Y051600
X162350Y036650
X179300Y046850
X082250Y011350
X067340Y021280
X137650Y078900
X139850Y088900
X142200Y071800
X142350Y066400
X134800Y074500
X127450Y065300
X128900Y065250
X131800Y068800
X130800Y071650
X128400Y073300
X130500Y073200
X132600Y073150
X132550Y075000
X130550Y075100
X128450Y075150
X132800Y076700
X141750Y076200
X126350Y068250
X144450Y064550
X143700Y075200
X132800Y068800
X131300Y068250
X236850Y071750
X240250Y063950
X234050Y062100
X237500Y059550
X017100Y013400
X058600Y078800
X267949Y073250
X271149Y071650
X271049Y069750
X267699Y068350
X267449Y066700
X271199Y064950
X271099Y064000
X271249Y061900
X271049Y061000
X270599Y058000
X263799Y056150
X270899Y053750
X269949Y024800
X269599Y025850
X270249Y026350
X269499Y026850
X269799Y033350
X270099Y031950
X270599Y044300
X269649Y043850
X269849Y042350
X270349Y041150
X271349Y038850
X270949Y038150
X270749Y036050
X270649Y029950
X270599Y055750
X271799Y054600
X270649Y054750
X270349Y027350
X003800Y003450
X013500Y009800
X013400Y012850
X003800Y021900
X012450Y032450
X019900Y035950
X009750Y052150
X009750Y053600
X009750Y055150
X009750Y056600
X009800Y058150
X009800Y059200
X009800Y060600
X012550Y075050
X017850Y079600
X057100Y021550
X060850Y022300
X061850Y021800
X064700Y023150
X066450Y022700
X292599Y013800
X293599Y010800
X285399Y016550
X286499Y003500
X282984Y003450
X293099Y033650
X295899Y045000
X022200Y018100
X264149Y034850
X074250Y022100
X070850Y023250
X055800Y022700
X128800Y047050
X052750Y027900
X021200Y011650
X230000Y071650
X241700Y064650
X235100Y078850
X235350Y072000
X151050Y019800
X144350Y015750
X083600Y015150
T04
X013843Y016764
X022479Y011684
X292100Y011795
X292100Y009795
X287937Y002307
X287683Y004400
X300863Y080014
X300863Y081034
X300863Y082034
X300863Y083054
X253150Y045500
X255249Y075050
X156210Y052959
X078700Y034050
X079300Y033550
X099350Y023050
X097400Y022700
X098350Y023700
X052550Y079650
X041200Y020450
X051600Y012850
T05
X177050Y036650
X211250Y033350
X225600Y033350
X144549Y017851
X270149Y045450
X144750Y024950
X139500Y014650
X247100Y061150
X019700Y059550
X054550Y057150
X071550Y015450
X139550Y073600
X158000Y014750
X152550Y018250
X136000Y079750
X063350Y017300
X016750Y009850
X153750Y038900
T06
X307046Y085854G85X306146Y085854
X307046Y077214G85X306146Y077214
X303346Y085854G85X302446Y085854
X303346Y077214G85X302446Y077214
X296999Y056500
X289049Y007750
X289149Y038600
X294149Y050600
X296849Y068300
X287399Y075850
X294049Y065150
X251699Y065000
X121000Y014500
X128435Y013164
X130700Y037900
T07
X296199Y004400G85X294799Y004400
X296199Y017200G85X294799Y017200
X010897Y019227G85X012297Y019227
X010897Y006427G85X012297Y006427
X279799Y048750
X227000Y061550
X233800Y070650
X232700Y068950
X240800Y066700
X236350Y066600
T08
X008575Y048900G85X009575Y048900
X008575Y065400G85X009575Y065400
X002045Y065400G85X002545Y065400
X002045Y048900G85X002545Y048900
T09
X007558Y028165G85X008558Y028165
X007558Y043715G85X008558Y043715
X002058Y043715G85X003058Y043715
X002058Y028165G85X003057Y028165
X299652Y070386G85X298652Y070386
X299652Y054836G85X298652Y054836
X305152Y054836G85X304152Y054836
X305152Y070386G85X304152Y070386
X007098Y072035G85X008098Y072035
X007098Y087585G85X008098Y087585
X001598Y087585G85X002598Y087585
X001598Y072035G85X002598Y072035
X299652Y046383G85X298652Y046383
X299652Y030833G85X298652Y030833
X305152Y030833G85X304152Y030833
X305152Y046383G85X304152Y046383
T10
X014750Y084000
X015300Y038750
X015450Y017450
X303299Y001450
X303349Y020350
T11
X130556Y051816
X133096Y051816
X135636Y051816
X138176Y051816
T12
X060020Y060550
X057480Y060550
X040350Y056220
X040350Y053680
X252580Y087900
X255120Y087900
X146200Y068480
X146200Y071020
X146200Y075130
X146200Y077670
X162720Y077650
X160180Y077650
T13
X027392Y077724
X047792Y077724
T14
X057800Y043750
M30
