G04 Layer: TopSilkscreenLayer*
G04 EasyEDA v6.5.57, 2026-07-26 20:50:06*
G04 f01cf997b2ac4535b0a7ee46c1186d17,c5fbdd24a08247c7b54e1019145e24f9,10*
G04 Gerber Generator version 0.2*
G04 Scale: 100 percent, Rotated: No, Reflected: No *
G04 Dimensions in millimeters *
G04 leading zeros omitted , absolute positions ,4 integer and 5 decimal *
%FSLAX45Y45*%
%MOMM*%

%ADD10C,0.1524*%
%ADD11C,0.1500*%
%ADD12C,0.2500*%
%ADD13C,0.2540*%
%ADD14C,0.1520*%
%ADD15C,0.0101*%
%ADD16C,0.1520*%
%ADD17C,0.1540*%
%ADD18C,0.2000*%
%ADD19C,0.4000*%
%ADD20C,0.3000*%
%ADD21C,0.2600*%

%LPD*%
D10*
X5712945Y5624400D02*
G01*
X5707611Y5634814D01*
X5697197Y5645228D01*
X5687037Y5650308D01*
X5666209Y5650308D01*
X5655795Y5645228D01*
X5645381Y5634814D01*
X5640047Y5624400D01*
X5634967Y5608652D01*
X5634967Y5582744D01*
X5640047Y5567250D01*
X5645381Y5556836D01*
X5655795Y5546422D01*
X5666209Y5541342D01*
X5687037Y5541342D01*
X5697197Y5546422D01*
X5707611Y5556836D01*
X5712945Y5567250D01*
X5819879Y5650308D02*
G01*
X5768063Y5541342D01*
X5747235Y5650308D02*
G01*
X5819879Y5650308D01*
X5916653Y5634814D02*
G01*
X5911319Y5645228D01*
X5895825Y5650308D01*
X5885411Y5650308D01*
X5869917Y5645228D01*
X5859503Y5629480D01*
X5854169Y5603572D01*
X5854169Y5577664D01*
X5859503Y5556836D01*
X5869917Y5546422D01*
X5885411Y5541342D01*
X5890491Y5541342D01*
X5906239Y5546422D01*
X5916653Y5556836D01*
X5921733Y5572330D01*
X5921733Y5577664D01*
X5916653Y5593158D01*
X5906239Y5603572D01*
X5890491Y5608652D01*
X5885411Y5608652D01*
X5869917Y5603572D01*
X5859503Y5593158D01*
X5854169Y5577664D01*
X30004486Y8152396D02*
G01*
X30082464Y8152396D01*
X30097958Y8157476D01*
X30108372Y8167890D01*
X30113452Y8183638D01*
X30113452Y8194052D01*
X30108372Y8209546D01*
X30097958Y8219960D01*
X30082464Y8225040D01*
X30004486Y8225040D01*
X30019980Y8332228D02*
G01*
X30009566Y8321814D01*
X30004486Y8306066D01*
X30004486Y8285492D01*
X30009566Y8269744D01*
X30019980Y8259330D01*
X30030394Y8259330D01*
X30040808Y8264664D01*
X30046142Y8269744D01*
X30051222Y8280158D01*
X30061636Y8311400D01*
X30066716Y8321814D01*
X30072050Y8326894D01*
X30082464Y8332228D01*
X30097958Y8332228D01*
X30108372Y8321814D01*
X30113452Y8306066D01*
X30113452Y8285492D01*
X30108372Y8269744D01*
X30097958Y8259330D01*
X30004486Y8366518D02*
G01*
X30113452Y8366518D01*
X30004486Y8366518D02*
G01*
X30004486Y8413254D01*
X30009566Y8428748D01*
X30014900Y8434082D01*
X30025314Y8439162D01*
X30035728Y8439162D01*
X30046142Y8434082D01*
X30051222Y8428748D01*
X30056302Y8413254D01*
X30056302Y8366518D02*
G01*
X30056302Y8413254D01*
X30061636Y8428748D01*
X30066716Y8434082D01*
X30077130Y8439162D01*
X30092878Y8439162D01*
X30103292Y8434082D01*
X30108372Y8428748D01*
X30113452Y8413254D01*
X30113452Y8366518D01*
X30004486Y8499360D02*
G01*
X30009566Y8483866D01*
X30019980Y8478786D01*
X30030394Y8478786D01*
X30040808Y8483866D01*
X30046142Y8494280D01*
X30051222Y8515108D01*
X30056302Y8530602D01*
X30066716Y8541016D01*
X30077130Y8546096D01*
X30092878Y8546096D01*
X30103292Y8541016D01*
X30108372Y8535936D01*
X30113452Y8520188D01*
X30113452Y8499360D01*
X30108372Y8483866D01*
X30103292Y8478786D01*
X30092878Y8473452D01*
X30077130Y8473452D01*
X30066716Y8478786D01*
X30056302Y8488946D01*
X30051222Y8504694D01*
X30046142Y8525522D01*
X30040808Y8535936D01*
X30030394Y8541016D01*
X30019980Y8541016D01*
X30009566Y8535936D01*
X30004486Y8520188D01*
X30004486Y8499360D01*
X8949961Y3806454D02*
G01*
X8944627Y3816868D01*
X8934213Y3827282D01*
X8924053Y3832362D01*
X8903225Y3832362D01*
X8892811Y3827282D01*
X8882397Y3816868D01*
X8877063Y3806454D01*
X8871983Y3790706D01*
X8871983Y3764798D01*
X8877063Y3749304D01*
X8882397Y3738890D01*
X8892811Y3728476D01*
X8903225Y3723396D01*
X8924053Y3723396D01*
X8934213Y3728476D01*
X8944627Y3738890D01*
X8949961Y3749304D01*
X8984251Y3832362D02*
G01*
X8984251Y3723396D01*
X8984251Y3832362D02*
G01*
X9056895Y3723396D01*
X9056895Y3832362D02*
G01*
X9056895Y3723396D01*
X9091185Y3811534D02*
G01*
X9101599Y3816868D01*
X9117093Y3832362D01*
X9117093Y3723396D01*
X16338288Y3546584D02*
G01*
X16343622Y3536170D01*
X16354036Y3525756D01*
X16364196Y3520676D01*
X16385024Y3520676D01*
X16395438Y3525756D01*
X16405852Y3536170D01*
X16411186Y3546584D01*
X16416266Y3562332D01*
X16416266Y3588240D01*
X16411186Y3603734D01*
X16405852Y3614148D01*
X16395438Y3624562D01*
X16385024Y3629642D01*
X16364196Y3629642D01*
X16354036Y3624562D01*
X16343622Y3614148D01*
X16338288Y3603734D01*
X16303998Y3520676D02*
G01*
X16303998Y3629642D01*
X16303998Y3520676D02*
G01*
X16231354Y3629642D01*
X16231354Y3520676D02*
G01*
X16231354Y3629642D01*
X16144994Y3520676D02*
G01*
X16197064Y3593320D01*
X16119086Y3593320D01*
X16144994Y3520676D02*
G01*
X16144994Y3629642D01*
X27209757Y6341104D02*
G01*
X27220171Y6346438D01*
X27230585Y6356852D01*
X27235665Y6367012D01*
X27235665Y6387840D01*
X27230585Y6398254D01*
X27220171Y6408668D01*
X27209757Y6414002D01*
X27194009Y6419082D01*
X27168101Y6419082D01*
X27152607Y6414002D01*
X27142193Y6408668D01*
X27131779Y6398254D01*
X27126699Y6387840D01*
X27126699Y6367012D01*
X27131779Y6356852D01*
X27142193Y6346438D01*
X27152607Y6341104D01*
X27235665Y6306814D02*
G01*
X27126699Y6306814D01*
X27235665Y6306814D02*
G01*
X27126699Y6234170D01*
X27235665Y6234170D02*
G01*
X27126699Y6234170D01*
X27209757Y6194546D02*
G01*
X27214837Y6194546D01*
X27225251Y6189466D01*
X27230585Y6184132D01*
X27235665Y6173972D01*
X27235665Y6153144D01*
X27230585Y6142730D01*
X27225251Y6137396D01*
X27214837Y6132316D01*
X27204423Y6132316D01*
X27194009Y6137396D01*
X27178515Y6147810D01*
X27126699Y6199880D01*
X27126699Y6126982D01*
X27093354Y3451014D02*
G01*
X27103768Y3456348D01*
X27114182Y3466762D01*
X27119262Y3476922D01*
X27119262Y3497750D01*
X27114182Y3508164D01*
X27103768Y3518578D01*
X27093354Y3523912D01*
X27077606Y3528992D01*
X27051698Y3528992D01*
X27036204Y3523912D01*
X27025790Y3518578D01*
X27015376Y3508164D01*
X27010296Y3497750D01*
X27010296Y3476922D01*
X27015376Y3466762D01*
X27025790Y3456348D01*
X27036204Y3451014D01*
X27119262Y3416724D02*
G01*
X27010296Y3416724D01*
X27119262Y3416724D02*
G01*
X27010296Y3344080D01*
X27119262Y3344080D02*
G01*
X27010296Y3344080D01*
X27119262Y3299376D02*
G01*
X27119262Y3242226D01*
X27077606Y3273468D01*
X27077606Y3257720D01*
X27072526Y3247306D01*
X27067446Y3242226D01*
X27051698Y3236892D01*
X27041284Y3236892D01*
X27025790Y3242226D01*
X27015376Y3252640D01*
X27010296Y3268134D01*
X27010296Y3283882D01*
X27015376Y3299376D01*
X27020456Y3304456D01*
X27030870Y3309790D01*
X28548075Y613918D02*
G01*
X28544774Y620776D01*
X28537915Y627634D01*
X28531058Y630936D01*
X28517595Y630936D01*
X28510738Y627634D01*
X28503879Y620776D01*
X28500324Y613918D01*
X28497022Y603757D01*
X28497022Y586486D01*
X28500324Y576326D01*
X28503879Y569468D01*
X28510738Y562863D01*
X28517595Y559307D01*
X28531058Y559307D01*
X28537915Y562863D01*
X28544774Y569468D01*
X28548075Y576326D01*
X28570682Y617220D02*
G01*
X28577540Y620776D01*
X28587700Y630936D01*
X28587700Y559307D01*
X28448254Y934973D02*
G01*
X28444952Y941831D01*
X28438093Y948689D01*
X28431236Y951992D01*
X28417774Y951992D01*
X28410915Y948689D01*
X28404058Y941831D01*
X28400502Y934973D01*
X28397200Y924813D01*
X28397200Y907542D01*
X28400502Y897381D01*
X28404058Y890523D01*
X28410915Y883920D01*
X28417774Y880363D01*
X28431236Y880363D01*
X28438093Y883920D01*
X28444952Y890523D01*
X28448254Y897381D01*
X28474161Y934973D02*
G01*
X28474161Y938276D01*
X28477718Y945134D01*
X28481020Y948689D01*
X28487877Y951992D01*
X28501593Y951992D01*
X28508452Y948689D01*
X28511754Y945134D01*
X28515056Y938276D01*
X28515056Y931418D01*
X28511754Y924813D01*
X28504895Y914400D01*
X28470859Y880363D01*
X28518611Y880363D01*
X27887404Y7182657D02*
G01*
X27884102Y7189515D01*
X27877244Y7196373D01*
X27870386Y7199675D01*
X27856924Y7199675D01*
X27850066Y7196373D01*
X27843208Y7189515D01*
X27839652Y7182657D01*
X27836350Y7172497D01*
X27836350Y7155225D01*
X27839652Y7145065D01*
X27843208Y7138207D01*
X27850066Y7131603D01*
X27856924Y7128047D01*
X27870386Y7128047D01*
X27877244Y7131603D01*
X27884102Y7138207D01*
X27887404Y7145065D01*
X27916868Y7199675D02*
G01*
X27954206Y7199675D01*
X27933886Y7172497D01*
X27944046Y7172497D01*
X27950904Y7168941D01*
X27954206Y7165639D01*
X27957762Y7155225D01*
X27957762Y7148621D01*
X27954206Y7138207D01*
X27947602Y7131603D01*
X27937188Y7128047D01*
X27927028Y7128047D01*
X27916868Y7131603D01*
X27913312Y7134905D01*
X27910010Y7141763D01*
X27887404Y7055657D02*
G01*
X27884102Y7062515D01*
X27877244Y7069373D01*
X27870386Y7072675D01*
X27856924Y7072675D01*
X27850066Y7069373D01*
X27843208Y7062515D01*
X27839652Y7055657D01*
X27836350Y7045497D01*
X27836350Y7028225D01*
X27839652Y7018065D01*
X27843208Y7011207D01*
X27850066Y7004603D01*
X27856924Y7001047D01*
X27870386Y7001047D01*
X27877244Y7004603D01*
X27884102Y7011207D01*
X27887404Y7018065D01*
X27944046Y7072675D02*
G01*
X27910010Y7024923D01*
X27961064Y7024923D01*
X27944046Y7072675D02*
G01*
X27944046Y7001047D01*
X2489454Y1506473D02*
G01*
X2486152Y1513331D01*
X2479293Y1520189D01*
X2472436Y1523492D01*
X2458974Y1523492D01*
X2452115Y1520189D01*
X2445258Y1513331D01*
X2441702Y1506473D01*
X2438400Y1496313D01*
X2438400Y1479042D01*
X2441702Y1468881D01*
X2445258Y1462023D01*
X2452115Y1455420D01*
X2458974Y1451863D01*
X2472436Y1451863D01*
X2479293Y1455420D01*
X2486152Y1462023D01*
X2489454Y1468881D01*
X2552954Y1523492D02*
G01*
X2518918Y1523492D01*
X2515361Y1492757D01*
X2518918Y1496313D01*
X2529077Y1499615D01*
X2539238Y1499615D01*
X2549652Y1496313D01*
X2556256Y1489455D01*
X2559811Y1479042D01*
X2559811Y1472437D01*
X2556256Y1462023D01*
X2549652Y1455420D01*
X2539238Y1451863D01*
X2529077Y1451863D01*
X2518918Y1455420D01*
X2515361Y1458721D01*
X2512059Y1465579D01*
X2006854Y1620773D02*
G01*
X2003552Y1627631D01*
X1996693Y1634489D01*
X1989836Y1637792D01*
X1976374Y1637792D01*
X1969515Y1634489D01*
X1962658Y1627631D01*
X1959102Y1620773D01*
X1955800Y1610613D01*
X1955800Y1593342D01*
X1959102Y1583181D01*
X1962658Y1576323D01*
X1969515Y1569720D01*
X1976374Y1566163D01*
X1989836Y1566163D01*
X1996693Y1569720D01*
X2003552Y1576323D01*
X2006854Y1583181D01*
X2070354Y1627631D02*
G01*
X2067052Y1634489D01*
X2056638Y1637792D01*
X2049779Y1637792D01*
X2039620Y1634489D01*
X2032761Y1624076D01*
X2029459Y1607057D01*
X2029459Y1590039D01*
X2032761Y1576323D01*
X2039620Y1569720D01*
X2049779Y1566163D01*
X2053336Y1566163D01*
X2063495Y1569720D01*
X2070354Y1576323D01*
X2073656Y1586737D01*
X2073656Y1590039D01*
X2070354Y1600200D01*
X2063495Y1607057D01*
X2053336Y1610613D01*
X2049779Y1610613D01*
X2039620Y1607057D01*
X2032761Y1600200D01*
X2029459Y1590039D01*
X25347404Y7335057D02*
G01*
X25344102Y7341915D01*
X25337244Y7348773D01*
X25330386Y7352075D01*
X25316924Y7352075D01*
X25310066Y7348773D01*
X25303208Y7341915D01*
X25299652Y7335057D01*
X25296350Y7324897D01*
X25296350Y7307625D01*
X25299652Y7297465D01*
X25303208Y7290607D01*
X25310066Y7284003D01*
X25316924Y7280447D01*
X25330386Y7280447D01*
X25337244Y7284003D01*
X25344102Y7290607D01*
X25347404Y7297465D01*
X25417762Y7352075D02*
G01*
X25383726Y7280447D01*
X25370010Y7352075D02*
G01*
X25417762Y7352075D01*
X25347409Y7182657D02*
G01*
X25344107Y7189515D01*
X25337249Y7196373D01*
X25330391Y7199675D01*
X25316929Y7199675D01*
X25310071Y7196373D01*
X25303213Y7189515D01*
X25299657Y7182657D01*
X25296355Y7172497D01*
X25296355Y7155225D01*
X25299657Y7145065D01*
X25303213Y7138207D01*
X25310071Y7131603D01*
X25316929Y7128047D01*
X25330391Y7128047D01*
X25337249Y7131603D01*
X25344107Y7138207D01*
X25347409Y7145065D01*
X25387033Y7199675D02*
G01*
X25376873Y7196373D01*
X25373317Y7189515D01*
X25373317Y7182657D01*
X25376873Y7175799D01*
X25383731Y7172497D01*
X25397193Y7168941D01*
X25407607Y7165639D01*
X25414211Y7158781D01*
X25417767Y7151923D01*
X25417767Y7141763D01*
X25414211Y7134905D01*
X25410909Y7131603D01*
X25400749Y7128047D01*
X25387033Y7128047D01*
X25376873Y7131603D01*
X25373317Y7134905D01*
X25370015Y7141763D01*
X25370015Y7151923D01*
X25373317Y7158781D01*
X25380175Y7165639D01*
X25390335Y7168941D01*
X25404051Y7172497D01*
X25410909Y7175799D01*
X25414211Y7182657D01*
X25414211Y7189515D01*
X25410909Y7196373D01*
X25400749Y7199675D01*
X25387033Y7199675D01*
X25347409Y7042957D02*
G01*
X25344107Y7049815D01*
X25337249Y7056673D01*
X25330391Y7059975D01*
X25316929Y7059975D01*
X25310071Y7056673D01*
X25303213Y7049815D01*
X25299657Y7042957D01*
X25296355Y7032797D01*
X25296355Y7015525D01*
X25299657Y7005365D01*
X25303213Y6998507D01*
X25310071Y6991903D01*
X25316929Y6988347D01*
X25330391Y6988347D01*
X25337249Y6991903D01*
X25344107Y6998507D01*
X25347409Y7005365D01*
X25414211Y7036099D02*
G01*
X25410909Y7025939D01*
X25404051Y7019081D01*
X25393891Y7015525D01*
X25390335Y7015525D01*
X25380175Y7019081D01*
X25373317Y7025939D01*
X25370015Y7036099D01*
X25370015Y7039401D01*
X25373317Y7049815D01*
X25380175Y7056673D01*
X25390335Y7059975D01*
X25393891Y7059975D01*
X25404051Y7056673D01*
X25410909Y7049815D01*
X25414211Y7036099D01*
X25414211Y7019081D01*
X25410909Y7002063D01*
X25404051Y6991903D01*
X25393891Y6988347D01*
X25387033Y6988347D01*
X25376873Y6991903D01*
X25373317Y6998507D01*
X25347409Y6903257D02*
G01*
X25344107Y6910115D01*
X25337249Y6916973D01*
X25330391Y6920275D01*
X25316929Y6920275D01*
X25310071Y6916973D01*
X25303213Y6910115D01*
X25299657Y6903257D01*
X25296355Y6893097D01*
X25296355Y6875825D01*
X25299657Y6865665D01*
X25303213Y6858807D01*
X25310071Y6852203D01*
X25316929Y6848647D01*
X25330391Y6848647D01*
X25337249Y6852203D01*
X25344107Y6858807D01*
X25347409Y6865665D01*
X25370015Y6906559D02*
G01*
X25376873Y6910115D01*
X25387033Y6920275D01*
X25387033Y6848647D01*
X25429959Y6920275D02*
G01*
X25419799Y6916973D01*
X25412941Y6906559D01*
X25409639Y6889541D01*
X25409639Y6879381D01*
X25412941Y6862363D01*
X25419799Y6852203D01*
X25429959Y6848647D01*
X25436817Y6848647D01*
X25446977Y6852203D01*
X25453835Y6862363D01*
X25457137Y6879381D01*
X25457137Y6889541D01*
X25453835Y6906559D01*
X25446977Y6916973D01*
X25436817Y6920275D01*
X25429959Y6920275D01*
X27887404Y6928657D02*
G01*
X27884102Y6935515D01*
X27877244Y6942373D01*
X27870386Y6945675D01*
X27856924Y6945675D01*
X27850066Y6942373D01*
X27843208Y6935515D01*
X27839652Y6928657D01*
X27836350Y6918497D01*
X27836350Y6901225D01*
X27839652Y6891065D01*
X27843208Y6884207D01*
X27850066Y6877603D01*
X27856924Y6874047D01*
X27870386Y6874047D01*
X27877244Y6877603D01*
X27884102Y6884207D01*
X27887404Y6891065D01*
X27910010Y6931959D02*
G01*
X27916868Y6935515D01*
X27927028Y6945675D01*
X27927028Y6874047D01*
X27949634Y6931959D02*
G01*
X27956238Y6935515D01*
X27966652Y6945675D01*
X27966652Y6874047D01*
X27887404Y6801657D02*
G01*
X27884102Y6808515D01*
X27877244Y6815373D01*
X27870386Y6818675D01*
X27856924Y6818675D01*
X27850066Y6815373D01*
X27843208Y6808515D01*
X27839652Y6801657D01*
X27836350Y6791497D01*
X27836350Y6774225D01*
X27839652Y6764065D01*
X27843208Y6757207D01*
X27850066Y6750603D01*
X27856924Y6747047D01*
X27870386Y6747047D01*
X27877244Y6750603D01*
X27884102Y6757207D01*
X27887404Y6764065D01*
X27910010Y6804959D02*
G01*
X27916868Y6808515D01*
X27927028Y6818675D01*
X27927028Y6747047D01*
X27952936Y6801657D02*
G01*
X27952936Y6804959D01*
X27956238Y6811817D01*
X27959794Y6815373D01*
X27966652Y6818675D01*
X27980114Y6818675D01*
X27986972Y6815373D01*
X27990528Y6811817D01*
X27993830Y6804959D01*
X27993830Y6798101D01*
X27990528Y6791497D01*
X27983670Y6781083D01*
X27949634Y6747047D01*
X27997132Y6747047D01*
X27887404Y6674657D02*
G01*
X27884102Y6681515D01*
X27877244Y6688373D01*
X27870386Y6691675D01*
X27856924Y6691675D01*
X27850066Y6688373D01*
X27843208Y6681515D01*
X27839652Y6674657D01*
X27836350Y6664497D01*
X27836350Y6647225D01*
X27839652Y6637065D01*
X27843208Y6630207D01*
X27850066Y6623603D01*
X27856924Y6620047D01*
X27870386Y6620047D01*
X27877244Y6623603D01*
X27884102Y6630207D01*
X27887404Y6637065D01*
X27910010Y6677959D02*
G01*
X27916868Y6681515D01*
X27927028Y6691675D01*
X27927028Y6620047D01*
X27956238Y6691675D02*
G01*
X27993830Y6691675D01*
X27973510Y6664497D01*
X27983670Y6664497D01*
X27990528Y6660941D01*
X27993830Y6657639D01*
X27997132Y6647225D01*
X27997132Y6640621D01*
X27993830Y6630207D01*
X27986972Y6623603D01*
X27976812Y6620047D01*
X27966652Y6620047D01*
X27956238Y6623603D01*
X27952936Y6626905D01*
X27949634Y6633763D01*
X27887404Y6547657D02*
G01*
X27884102Y6554515D01*
X27877244Y6561373D01*
X27870386Y6564675D01*
X27856924Y6564675D01*
X27850066Y6561373D01*
X27843208Y6554515D01*
X27839652Y6547657D01*
X27836350Y6537497D01*
X27836350Y6520225D01*
X27839652Y6510065D01*
X27843208Y6503207D01*
X27850066Y6496603D01*
X27856924Y6493047D01*
X27870386Y6493047D01*
X27877244Y6496603D01*
X27884102Y6503207D01*
X27887404Y6510065D01*
X27910010Y6550959D02*
G01*
X27916868Y6554515D01*
X27927028Y6564675D01*
X27927028Y6493047D01*
X27983670Y6564675D02*
G01*
X27949634Y6516923D01*
X28000688Y6516923D01*
X27983670Y6564675D02*
G01*
X27983670Y6493047D01*
X27887404Y6293657D02*
G01*
X27884102Y6300515D01*
X27877244Y6307373D01*
X27870386Y6310675D01*
X27856924Y6310675D01*
X27850066Y6307373D01*
X27843208Y6300515D01*
X27839652Y6293657D01*
X27836350Y6283497D01*
X27836350Y6266225D01*
X27839652Y6256065D01*
X27843208Y6249207D01*
X27850066Y6242603D01*
X27856924Y6239047D01*
X27870386Y6239047D01*
X27877244Y6242603D01*
X27884102Y6249207D01*
X27887404Y6256065D01*
X27910010Y6296959D02*
G01*
X27916868Y6300515D01*
X27927028Y6310675D01*
X27927028Y6239047D01*
X27990528Y6310675D02*
G01*
X27956238Y6310675D01*
X27952936Y6279941D01*
X27956238Y6283497D01*
X27966652Y6286799D01*
X27976812Y6286799D01*
X27986972Y6283497D01*
X27993830Y6276639D01*
X27997132Y6266225D01*
X27997132Y6259621D01*
X27993830Y6249207D01*
X27986972Y6242603D01*
X27976812Y6239047D01*
X27966652Y6239047D01*
X27956238Y6242603D01*
X27952936Y6245905D01*
X27949634Y6252763D01*
X27887404Y6433357D02*
G01*
X27884102Y6440215D01*
X27877244Y6447073D01*
X27870386Y6450375D01*
X27856924Y6450375D01*
X27850066Y6447073D01*
X27843208Y6440215D01*
X27839652Y6433357D01*
X27836350Y6423197D01*
X27836350Y6405925D01*
X27839652Y6395765D01*
X27843208Y6388907D01*
X27850066Y6382303D01*
X27856924Y6378747D01*
X27870386Y6378747D01*
X27877244Y6382303D01*
X27884102Y6388907D01*
X27887404Y6395765D01*
X27910010Y6436659D02*
G01*
X27916868Y6440215D01*
X27927028Y6450375D01*
X27927028Y6378747D01*
X27990528Y6440215D02*
G01*
X27986972Y6447073D01*
X27976812Y6450375D01*
X27969954Y6450375D01*
X27959794Y6447073D01*
X27952936Y6436659D01*
X27949634Y6419641D01*
X27949634Y6402623D01*
X27952936Y6388907D01*
X27959794Y6382303D01*
X27969954Y6378747D01*
X27973510Y6378747D01*
X27983670Y6382303D01*
X27990528Y6388907D01*
X27993830Y6399321D01*
X27993830Y6402623D01*
X27990528Y6412783D01*
X27983670Y6419641D01*
X27973510Y6423197D01*
X27969954Y6423197D01*
X27959794Y6419641D01*
X27952936Y6412783D01*
X27949634Y6402623D01*
X27944102Y3512466D02*
G01*
X27940800Y3519324D01*
X27933942Y3526182D01*
X27927084Y3529484D01*
X27913622Y3529484D01*
X27906764Y3526182D01*
X27899906Y3519324D01*
X27896350Y3512466D01*
X27893048Y3502306D01*
X27893048Y3485034D01*
X27896350Y3474874D01*
X27899906Y3468016D01*
X27906764Y3461412D01*
X27913622Y3457856D01*
X27927084Y3457856D01*
X27933942Y3461412D01*
X27940800Y3468016D01*
X27944102Y3474874D01*
X27966708Y3515768D02*
G01*
X27973566Y3519324D01*
X27983726Y3529484D01*
X27983726Y3457856D01*
X28053830Y3529484D02*
G01*
X28019794Y3457856D01*
X28006332Y3529484D02*
G01*
X28053830Y3529484D01*
X27944102Y3398166D02*
G01*
X27940800Y3405024D01*
X27933942Y3411882D01*
X27927084Y3415184D01*
X27913622Y3415184D01*
X27906764Y3411882D01*
X27899906Y3405024D01*
X27896350Y3398166D01*
X27893048Y3388006D01*
X27893048Y3370734D01*
X27896350Y3360574D01*
X27899906Y3353716D01*
X27906764Y3347112D01*
X27913622Y3343556D01*
X27927084Y3343556D01*
X27933942Y3347112D01*
X27940800Y3353716D01*
X27944102Y3360574D01*
X27966708Y3401468D02*
G01*
X27973566Y3405024D01*
X27983726Y3415184D01*
X27983726Y3343556D01*
X28023350Y3415184D02*
G01*
X28012936Y3411882D01*
X28009634Y3405024D01*
X28009634Y3398166D01*
X28012936Y3391308D01*
X28019794Y3388006D01*
X28033510Y3384450D01*
X28043670Y3381148D01*
X28050528Y3374290D01*
X28053830Y3367432D01*
X28053830Y3357272D01*
X28050528Y3350414D01*
X28047226Y3347112D01*
X28036812Y3343556D01*
X28023350Y3343556D01*
X28012936Y3347112D01*
X28009634Y3350414D01*
X28006332Y3357272D01*
X28006332Y3367432D01*
X28009634Y3374290D01*
X28016492Y3381148D01*
X28026652Y3384450D01*
X28040368Y3388006D01*
X28047226Y3391308D01*
X28050528Y3398166D01*
X28050528Y3405024D01*
X28047226Y3411882D01*
X28036812Y3415184D01*
X28023350Y3415184D01*
X25090513Y4419714D02*
G01*
X25087211Y4426572D01*
X25080353Y4433430D01*
X25073495Y4436732D01*
X25060033Y4436732D01*
X25053175Y4433430D01*
X25046317Y4426572D01*
X25042761Y4419714D01*
X25039459Y4409554D01*
X25039459Y4392282D01*
X25042761Y4382122D01*
X25046317Y4375264D01*
X25053175Y4368660D01*
X25060033Y4365104D01*
X25073495Y4365104D01*
X25080353Y4368660D01*
X25087211Y4375264D01*
X25090513Y4382122D01*
X25113119Y4423016D02*
G01*
X25119977Y4426572D01*
X25130137Y4436732D01*
X25130137Y4365104D01*
X25196939Y4412856D02*
G01*
X25193637Y4402696D01*
X25186779Y4395838D01*
X25176619Y4392282D01*
X25173063Y4392282D01*
X25162903Y4395838D01*
X25156045Y4402696D01*
X25152743Y4412856D01*
X25152743Y4416158D01*
X25156045Y4426572D01*
X25162903Y4433430D01*
X25173063Y4436732D01*
X25176619Y4436732D01*
X25186779Y4433430D01*
X25193637Y4426572D01*
X25196939Y4412856D01*
X25196939Y4395838D01*
X25193637Y4378820D01*
X25186779Y4368660D01*
X25176619Y4365104D01*
X25169761Y4365104D01*
X25159347Y4368660D01*
X25156045Y4375264D01*
X27944107Y3639466D02*
G01*
X27940805Y3646324D01*
X27933947Y3653182D01*
X27927089Y3656484D01*
X27913627Y3656484D01*
X27906769Y3653182D01*
X27899911Y3646324D01*
X27896355Y3639466D01*
X27893053Y3629306D01*
X27893053Y3612034D01*
X27896355Y3601874D01*
X27899911Y3595016D01*
X27906769Y3588412D01*
X27913627Y3584856D01*
X27927089Y3584856D01*
X27933947Y3588412D01*
X27940805Y3595016D01*
X27944107Y3601874D01*
X27970015Y3639466D02*
G01*
X27970015Y3642768D01*
X27973571Y3649626D01*
X27976873Y3653182D01*
X27983731Y3656484D01*
X27997447Y3656484D01*
X28004305Y3653182D01*
X28007607Y3649626D01*
X28010909Y3642768D01*
X28010909Y3635910D01*
X28007607Y3629306D01*
X28000749Y3618892D01*
X27966713Y3584856D01*
X28014465Y3584856D01*
X28057391Y3656484D02*
G01*
X28047231Y3653182D01*
X28040373Y3642768D01*
X28036817Y3625750D01*
X28036817Y3615590D01*
X28040373Y3598572D01*
X28047231Y3588412D01*
X28057391Y3584856D01*
X28064249Y3584856D01*
X28074409Y3588412D01*
X28081267Y3598572D01*
X28084569Y3615590D01*
X28084569Y3625750D01*
X28081267Y3642768D01*
X28074409Y3653182D01*
X28064249Y3656484D01*
X28057391Y3656484D01*
X27956802Y3766466D02*
G01*
X27953500Y3773324D01*
X27946642Y3780182D01*
X27939784Y3783484D01*
X27926322Y3783484D01*
X27919464Y3780182D01*
X27912606Y3773324D01*
X27909050Y3766466D01*
X27905748Y3756306D01*
X27905748Y3739034D01*
X27909050Y3728874D01*
X27912606Y3722016D01*
X27919464Y3715412D01*
X27926322Y3711856D01*
X27939784Y3711856D01*
X27946642Y3715412D01*
X27953500Y3722016D01*
X27956802Y3728874D01*
X27982710Y3766466D02*
G01*
X27982710Y3769768D01*
X27986266Y3776626D01*
X27989568Y3780182D01*
X27996426Y3783484D01*
X28010142Y3783484D01*
X28017000Y3780182D01*
X28020302Y3776626D01*
X28023604Y3769768D01*
X28023604Y3762910D01*
X28020302Y3756306D01*
X28013444Y3745892D01*
X27979408Y3711856D01*
X28027160Y3711856D01*
X28049512Y3769768D02*
G01*
X28056370Y3773324D01*
X28066530Y3783484D01*
X28066530Y3711856D01*
X25090513Y4280014D02*
G01*
X25087211Y4286872D01*
X25080353Y4293730D01*
X25073495Y4297032D01*
X25060033Y4297032D01*
X25053175Y4293730D01*
X25046317Y4286872D01*
X25042761Y4280014D01*
X25039459Y4269854D01*
X25039459Y4252582D01*
X25042761Y4242422D01*
X25046317Y4235564D01*
X25053175Y4228960D01*
X25060033Y4225404D01*
X25073495Y4225404D01*
X25080353Y4228960D01*
X25087211Y4235564D01*
X25090513Y4242422D01*
X25116421Y4280014D02*
G01*
X25116421Y4283316D01*
X25119977Y4290174D01*
X25123279Y4293730D01*
X25130137Y4297032D01*
X25143853Y4297032D01*
X25150711Y4293730D01*
X25154013Y4290174D01*
X25157315Y4283316D01*
X25157315Y4276458D01*
X25154013Y4269854D01*
X25147155Y4259440D01*
X25113119Y4225404D01*
X25160871Y4225404D01*
X25186779Y4280014D02*
G01*
X25186779Y4283316D01*
X25190081Y4290174D01*
X25193637Y4293730D01*
X25200241Y4297032D01*
X25213957Y4297032D01*
X25220815Y4293730D01*
X25224117Y4290174D01*
X25227673Y4283316D01*
X25227673Y4276458D01*
X25224117Y4269854D01*
X25217513Y4259440D01*
X25183223Y4225404D01*
X25230975Y4225404D01*
X25090518Y4127614D02*
G01*
X25087216Y4134472D01*
X25080358Y4141330D01*
X25073500Y4144632D01*
X25060038Y4144632D01*
X25053180Y4141330D01*
X25046322Y4134472D01*
X25042766Y4127614D01*
X25039464Y4117454D01*
X25039464Y4100182D01*
X25042766Y4090022D01*
X25046322Y4083164D01*
X25053180Y4076560D01*
X25060038Y4073004D01*
X25073500Y4073004D01*
X25080358Y4076560D01*
X25087216Y4083164D01*
X25090518Y4090022D01*
X25116426Y4127614D02*
G01*
X25116426Y4130916D01*
X25119982Y4137774D01*
X25123284Y4141330D01*
X25130142Y4144632D01*
X25143858Y4144632D01*
X25150716Y4141330D01*
X25154018Y4137774D01*
X25157320Y4130916D01*
X25157320Y4124058D01*
X25154018Y4117454D01*
X25147160Y4107040D01*
X25113124Y4073004D01*
X25160876Y4073004D01*
X25190086Y4144632D02*
G01*
X25227678Y4144632D01*
X25207104Y4117454D01*
X25217518Y4117454D01*
X25224122Y4113898D01*
X25227678Y4110596D01*
X25230980Y4100182D01*
X25230980Y4093578D01*
X25227678Y4083164D01*
X25220820Y4076560D01*
X25210660Y4073004D01*
X25200246Y4073004D01*
X25190086Y4076560D01*
X25186784Y4079862D01*
X25183228Y4086720D01*
X25090518Y4000614D02*
G01*
X25087216Y4007472D01*
X25080358Y4014330D01*
X25073500Y4017632D01*
X25060038Y4017632D01*
X25053180Y4014330D01*
X25046322Y4007472D01*
X25042766Y4000614D01*
X25039464Y3990454D01*
X25039464Y3973182D01*
X25042766Y3963022D01*
X25046322Y3956164D01*
X25053180Y3949560D01*
X25060038Y3946004D01*
X25073500Y3946004D01*
X25080358Y3949560D01*
X25087216Y3956164D01*
X25090518Y3963022D01*
X25116426Y4000614D02*
G01*
X25116426Y4003916D01*
X25119982Y4010774D01*
X25123284Y4014330D01*
X25130142Y4017632D01*
X25143858Y4017632D01*
X25150716Y4014330D01*
X25154018Y4010774D01*
X25157320Y4003916D01*
X25157320Y3997058D01*
X25154018Y3990454D01*
X25147160Y3980040D01*
X25113124Y3946004D01*
X25160876Y3946004D01*
X25217518Y4017632D02*
G01*
X25183228Y3969880D01*
X25234536Y3969880D01*
X25217518Y4017632D02*
G01*
X25217518Y3946004D01*
X18125699Y4555489D02*
G01*
X18122905Y4560823D01*
X18117571Y4566412D01*
X18111983Y4568952D01*
X18101061Y4568952D01*
X18095727Y4566412D01*
X18090139Y4560823D01*
X18087599Y4555489D01*
X18084805Y4547107D01*
X18084805Y4533645D01*
X18087599Y4525518D01*
X18090139Y4519929D01*
X18095727Y4514595D01*
X18101061Y4511802D01*
X18111983Y4511802D01*
X18117571Y4514595D01*
X18122905Y4519929D01*
X18125699Y4525518D01*
X18146527Y4555489D02*
G01*
X18146527Y4558029D01*
X18149067Y4563618D01*
X18151861Y4566412D01*
X18157449Y4568952D01*
X18168371Y4568952D01*
X18173705Y4566412D01*
X18176499Y4563618D01*
X18179039Y4558029D01*
X18179039Y4552695D01*
X18176499Y4547107D01*
X18170911Y4538979D01*
X18143733Y4511802D01*
X18181833Y4511802D01*
X18232633Y4568952D02*
G01*
X18205455Y4568952D01*
X18202661Y4544568D01*
X18205455Y4547107D01*
X18213583Y4549902D01*
X18221711Y4549902D01*
X18229839Y4547107D01*
X18235427Y4541773D01*
X18237967Y4533645D01*
X18237967Y4528057D01*
X18235427Y4519929D01*
X18229839Y4514595D01*
X18221711Y4511802D01*
X18213583Y4511802D01*
X18205455Y4514595D01*
X18202661Y4517136D01*
X18199867Y4522723D01*
X18125699Y4415789D02*
G01*
X18122905Y4421123D01*
X18117571Y4426712D01*
X18111983Y4429252D01*
X18101061Y4429252D01*
X18095727Y4426712D01*
X18090139Y4421123D01*
X18087599Y4415789D01*
X18084805Y4407407D01*
X18084805Y4393945D01*
X18087599Y4385818D01*
X18090139Y4380229D01*
X18095727Y4374895D01*
X18101061Y4372102D01*
X18111983Y4372102D01*
X18117571Y4374895D01*
X18122905Y4380229D01*
X18125699Y4385818D01*
X18146527Y4415789D02*
G01*
X18146527Y4418329D01*
X18149067Y4423918D01*
X18151861Y4426712D01*
X18157449Y4429252D01*
X18168371Y4429252D01*
X18173705Y4426712D01*
X18176499Y4423918D01*
X18179039Y4418329D01*
X18179039Y4412995D01*
X18176499Y4407407D01*
X18170911Y4399279D01*
X18143733Y4372102D01*
X18181833Y4372102D01*
X18232633Y4421123D02*
G01*
X18229839Y4426712D01*
X18221711Y4429252D01*
X18216377Y4429252D01*
X18207995Y4426712D01*
X18202661Y4418329D01*
X18199867Y4404868D01*
X18199867Y4391152D01*
X18202661Y4380229D01*
X18207995Y4374895D01*
X18216377Y4372102D01*
X18218917Y4372102D01*
X18227045Y4374895D01*
X18232633Y4380229D01*
X18235427Y4388357D01*
X18235427Y4391152D01*
X18232633Y4399279D01*
X18227045Y4404868D01*
X18218917Y4407407D01*
X18216377Y4407407D01*
X18207995Y4404868D01*
X18202661Y4399279D01*
X18199867Y4391152D01*
X18125699Y4288789D02*
G01*
X18122905Y4294123D01*
X18117571Y4299712D01*
X18111983Y4302252D01*
X18101061Y4302252D01*
X18095727Y4299712D01*
X18090139Y4294123D01*
X18087599Y4288789D01*
X18084805Y4280407D01*
X18084805Y4266945D01*
X18087599Y4258818D01*
X18090139Y4253229D01*
X18095727Y4247895D01*
X18101061Y4245102D01*
X18111983Y4245102D01*
X18117571Y4247895D01*
X18122905Y4253229D01*
X18125699Y4258818D01*
X18146527Y4288789D02*
G01*
X18146527Y4291329D01*
X18149067Y4296918D01*
X18151861Y4299712D01*
X18157449Y4302252D01*
X18168371Y4302252D01*
X18173705Y4299712D01*
X18176499Y4296918D01*
X18179039Y4291329D01*
X18179039Y4285995D01*
X18176499Y4280407D01*
X18170911Y4272279D01*
X18143733Y4245102D01*
X18181833Y4245102D01*
X18237967Y4302252D02*
G01*
X18210789Y4245102D01*
X18199867Y4302252D02*
G01*
X18237967Y4302252D01*
X18125699Y4161789D02*
G01*
X18122905Y4167123D01*
X18117571Y4172712D01*
X18111983Y4175252D01*
X18101061Y4175252D01*
X18095727Y4172712D01*
X18090139Y4167123D01*
X18087599Y4161789D01*
X18084805Y4153407D01*
X18084805Y4139945D01*
X18087599Y4131818D01*
X18090139Y4126229D01*
X18095727Y4120895D01*
X18101061Y4118102D01*
X18111983Y4118102D01*
X18117571Y4120895D01*
X18122905Y4126229D01*
X18125699Y4131818D01*
X18146527Y4161789D02*
G01*
X18146527Y4164329D01*
X18149067Y4169918D01*
X18151861Y4172712D01*
X18157449Y4175252D01*
X18168371Y4175252D01*
X18173705Y4172712D01*
X18176499Y4169918D01*
X18179039Y4164329D01*
X18179039Y4158995D01*
X18176499Y4153407D01*
X18170911Y4145279D01*
X18143733Y4118102D01*
X18181833Y4118102D01*
X18213583Y4175252D02*
G01*
X18205455Y4172712D01*
X18202661Y4167123D01*
X18202661Y4161789D01*
X18205455Y4156202D01*
X18210789Y4153407D01*
X18221711Y4150868D01*
X18229839Y4148073D01*
X18235427Y4142739D01*
X18237967Y4137152D01*
X18237967Y4129023D01*
X18235427Y4123436D01*
X18232633Y4120895D01*
X18224505Y4118102D01*
X18213583Y4118102D01*
X18205455Y4120895D01*
X18202661Y4123436D01*
X18199867Y4129023D01*
X18199867Y4137152D01*
X18202661Y4142739D01*
X18207995Y4148073D01*
X18216377Y4150868D01*
X18227045Y4153407D01*
X18232633Y4156202D01*
X18235427Y4161789D01*
X18235427Y4167123D01*
X18232633Y4172712D01*
X18224505Y4175252D01*
X18213583Y4175252D01*
X16700754Y3005073D02*
G01*
X16697452Y3011931D01*
X16690593Y3018789D01*
X16683736Y3022092D01*
X16670274Y3022092D01*
X16663416Y3018789D01*
X16656558Y3011931D01*
X16653002Y3005073D01*
X16649700Y2994913D01*
X16649700Y2977642D01*
X16653002Y2967481D01*
X16656558Y2960623D01*
X16663416Y2954020D01*
X16670274Y2950463D01*
X16683736Y2950463D01*
X16690593Y2954020D01*
X16697452Y2960623D01*
X16700754Y2967481D01*
X16726661Y3005073D02*
G01*
X16726661Y3008376D01*
X16730218Y3015234D01*
X16733520Y3018789D01*
X16740377Y3022092D01*
X16754093Y3022092D01*
X16760952Y3018789D01*
X16764254Y3015234D01*
X16767556Y3008376D01*
X16767556Y3001518D01*
X16764254Y2994913D01*
X16757395Y2984500D01*
X16723359Y2950463D01*
X16771111Y2950463D01*
X16837913Y2998215D02*
G01*
X16834358Y2988055D01*
X16827754Y2981197D01*
X16817340Y2977642D01*
X16814038Y2977642D01*
X16803877Y2981197D01*
X16797020Y2988055D01*
X16793463Y2998215D01*
X16793463Y3001518D01*
X16797020Y3011931D01*
X16803877Y3018789D01*
X16814038Y3022092D01*
X16817340Y3022092D01*
X16827754Y3018789D01*
X16834358Y3011931D01*
X16837913Y2998215D01*
X16837913Y2981197D01*
X16834358Y2964179D01*
X16827754Y2954020D01*
X16817340Y2950463D01*
X16810481Y2950463D01*
X16800322Y2954020D01*
X16797020Y2960623D01*
X16376027Y2863667D02*
G01*
X16372725Y2870525D01*
X16365867Y2877383D01*
X16359009Y2880685D01*
X16345547Y2880685D01*
X16338689Y2877383D01*
X16331831Y2870525D01*
X16328275Y2863667D01*
X16324973Y2853507D01*
X16324973Y2836235D01*
X16328275Y2826075D01*
X16331831Y2819217D01*
X16338689Y2812613D01*
X16345547Y2809057D01*
X16359009Y2809057D01*
X16365867Y2812613D01*
X16372725Y2819217D01*
X16376027Y2826075D01*
X16405491Y2880685D02*
G01*
X16442829Y2880685D01*
X16422509Y2853507D01*
X16432669Y2853507D01*
X16439527Y2849951D01*
X16442829Y2846649D01*
X16446385Y2836235D01*
X16446385Y2829631D01*
X16442829Y2819217D01*
X16436225Y2812613D01*
X16425811Y2809057D01*
X16415651Y2809057D01*
X16405491Y2812613D01*
X16401935Y2815915D01*
X16398633Y2822773D01*
X16489311Y2880685D02*
G01*
X16479151Y2877383D01*
X16472293Y2866969D01*
X16468737Y2849951D01*
X16468737Y2839791D01*
X16472293Y2822773D01*
X16479151Y2812613D01*
X16489311Y2809057D01*
X16496169Y2809057D01*
X16506329Y2812613D01*
X16513187Y2822773D01*
X16516489Y2839791D01*
X16516489Y2849951D01*
X16513187Y2866969D01*
X16506329Y2877383D01*
X16496169Y2880685D01*
X16489311Y2880685D01*
X14792563Y2190587D02*
G01*
X14789769Y2195921D01*
X14784435Y2201509D01*
X14778847Y2204049D01*
X14767925Y2204049D01*
X14762591Y2201509D01*
X14757003Y2195921D01*
X14754463Y2190587D01*
X14751669Y2182205D01*
X14751669Y2168743D01*
X14754463Y2160615D01*
X14757003Y2155027D01*
X14762591Y2149693D01*
X14767925Y2146899D01*
X14778847Y2146899D01*
X14784435Y2149693D01*
X14789769Y2155027D01*
X14792563Y2160615D01*
X14837775Y2204049D02*
G01*
X14810597Y2165949D01*
X14851491Y2165949D01*
X14837775Y2204049D02*
G01*
X14837775Y2146899D01*
X14902291Y2195921D02*
G01*
X14899497Y2201509D01*
X14891369Y2204049D01*
X14885781Y2204049D01*
X14877653Y2201509D01*
X14872319Y2193127D01*
X14869525Y2179665D01*
X14869525Y2165949D01*
X14872319Y2155027D01*
X14877653Y2149693D01*
X14885781Y2146899D01*
X14888575Y2146899D01*
X14896703Y2149693D01*
X14902291Y2155027D01*
X14904831Y2163155D01*
X14904831Y2165949D01*
X14902291Y2174077D01*
X14896703Y2179665D01*
X14888575Y2182205D01*
X14885781Y2182205D01*
X14877653Y2179665D01*
X14872319Y2174077D01*
X14869525Y2165949D01*
X13799423Y1833976D02*
G01*
X13796121Y1840834D01*
X13789263Y1847692D01*
X13782405Y1850994D01*
X13768943Y1850994D01*
X13762085Y1847692D01*
X13755227Y1840834D01*
X13751671Y1833976D01*
X13748369Y1823816D01*
X13748369Y1806544D01*
X13751671Y1796384D01*
X13755227Y1789526D01*
X13762085Y1782922D01*
X13768943Y1779366D01*
X13782405Y1779366D01*
X13789263Y1782922D01*
X13796121Y1789526D01*
X13799423Y1796384D01*
X13856065Y1850994D02*
G01*
X13822029Y1803242D01*
X13873083Y1803242D01*
X13856065Y1850994D02*
G01*
X13856065Y1779366D01*
X13943441Y1850994D02*
G01*
X13909151Y1779366D01*
X13895689Y1850994D02*
G01*
X13943441Y1850994D01*
X13789268Y1631787D02*
G01*
X13786474Y1637121D01*
X13781140Y1642709D01*
X13775552Y1645249D01*
X13764630Y1645249D01*
X13759296Y1642709D01*
X13753708Y1637121D01*
X13751168Y1631787D01*
X13748374Y1623405D01*
X13748374Y1609943D01*
X13751168Y1601815D01*
X13753708Y1596227D01*
X13759296Y1590893D01*
X13764630Y1588099D01*
X13775552Y1588099D01*
X13781140Y1590893D01*
X13786474Y1596227D01*
X13789268Y1601815D01*
X13834480Y1645249D02*
G01*
X13807302Y1607149D01*
X13848196Y1607149D01*
X13834480Y1645249D02*
G01*
X13834480Y1588099D01*
X13879946Y1645249D02*
G01*
X13871564Y1642709D01*
X13869024Y1637121D01*
X13869024Y1631787D01*
X13871564Y1626199D01*
X13877152Y1623405D01*
X13888074Y1620865D01*
X13896202Y1618071D01*
X13901536Y1612737D01*
X13904330Y1607149D01*
X13904330Y1599021D01*
X13901536Y1593433D01*
X13898996Y1590893D01*
X13890614Y1588099D01*
X13879946Y1588099D01*
X13871564Y1590893D01*
X13869024Y1593433D01*
X13866230Y1599021D01*
X13866230Y1607149D01*
X13869024Y1612737D01*
X13874358Y1618071D01*
X13882486Y1620865D01*
X13893408Y1623405D01*
X13898996Y1626199D01*
X13901536Y1631787D01*
X13901536Y1637121D01*
X13898996Y1642709D01*
X13890614Y1645249D01*
X13879946Y1645249D01*
X1740169Y5075173D02*
G01*
X1736867Y5082031D01*
X1730009Y5088889D01*
X1723151Y5092192D01*
X1709435Y5092192D01*
X1702831Y5088889D01*
X1695973Y5082031D01*
X1692417Y5075173D01*
X1689115Y5065013D01*
X1689115Y5047742D01*
X1692417Y5037581D01*
X1695973Y5030723D01*
X1702831Y5024120D01*
X1709435Y5020563D01*
X1723151Y5020563D01*
X1730009Y5024120D01*
X1736867Y5030723D01*
X1740169Y5037581D01*
X1796811Y5092192D02*
G01*
X1762775Y5044439D01*
X1813829Y5044439D01*
X1796811Y5092192D02*
G01*
X1796811Y5020563D01*
X1880631Y5068315D02*
G01*
X1877329Y5058155D01*
X1870471Y5051297D01*
X1860311Y5047742D01*
X1856755Y5047742D01*
X1846595Y5051297D01*
X1839737Y5058155D01*
X1836435Y5068315D01*
X1836435Y5071618D01*
X1839737Y5082031D01*
X1846595Y5088889D01*
X1856755Y5092192D01*
X1860311Y5092192D01*
X1870471Y5088889D01*
X1877329Y5082031D01*
X1880631Y5068315D01*
X1880631Y5051297D01*
X1877329Y5034279D01*
X1870471Y5024120D01*
X1860311Y5020563D01*
X1853453Y5020563D01*
X1843293Y5024120D01*
X1839737Y5030723D01*
X1740164Y5202173D02*
G01*
X1736862Y5209031D01*
X1730004Y5215889D01*
X1723146Y5219192D01*
X1709430Y5219192D01*
X1702826Y5215889D01*
X1695968Y5209031D01*
X1692412Y5202173D01*
X1689110Y5192013D01*
X1689110Y5174742D01*
X1692412Y5164581D01*
X1695968Y5157723D01*
X1702826Y5151120D01*
X1709430Y5147563D01*
X1723146Y5147563D01*
X1730004Y5151120D01*
X1736862Y5157723D01*
X1740164Y5164581D01*
X1803664Y5219192D02*
G01*
X1769628Y5219192D01*
X1766072Y5188457D01*
X1769628Y5192013D01*
X1779788Y5195315D01*
X1789948Y5195315D01*
X1800362Y5192013D01*
X1806966Y5185155D01*
X1810522Y5174742D01*
X1810522Y5168137D01*
X1806966Y5157723D01*
X1800362Y5151120D01*
X1789948Y5147563D01*
X1779788Y5147563D01*
X1769628Y5151120D01*
X1766072Y5154421D01*
X1762770Y5161279D01*
X1853448Y5219192D02*
G01*
X1843288Y5215889D01*
X1836430Y5205476D01*
X1832874Y5188457D01*
X1832874Y5178297D01*
X1836430Y5161279D01*
X1843288Y5151120D01*
X1853448Y5147563D01*
X1860306Y5147563D01*
X1870466Y5151120D01*
X1877324Y5161279D01*
X1880626Y5178297D01*
X1880626Y5188457D01*
X1877324Y5205476D01*
X1870466Y5215889D01*
X1860306Y5219192D01*
X1853448Y5219192D01*
X2527559Y5659373D02*
G01*
X2524257Y5666231D01*
X2517399Y5673089D01*
X2510541Y5676392D01*
X2497079Y5676392D01*
X2490221Y5673089D01*
X2483363Y5666231D01*
X2479807Y5659373D01*
X2476505Y5649213D01*
X2476505Y5631942D01*
X2479807Y5621781D01*
X2483363Y5614923D01*
X2490221Y5608320D01*
X2497079Y5604763D01*
X2510541Y5604763D01*
X2517399Y5608320D01*
X2524257Y5614923D01*
X2527559Y5621781D01*
X2591059Y5676392D02*
G01*
X2557023Y5676392D01*
X2553467Y5645657D01*
X2557023Y5649213D01*
X2567183Y5652515D01*
X2577343Y5652515D01*
X2587757Y5649213D01*
X2594361Y5642355D01*
X2597917Y5631942D01*
X2597917Y5625337D01*
X2594361Y5614923D01*
X2587757Y5608320D01*
X2577343Y5604763D01*
X2567183Y5604763D01*
X2557023Y5608320D01*
X2553467Y5611621D01*
X2550165Y5618479D01*
X2620269Y5662676D02*
G01*
X2627127Y5666231D01*
X2637287Y5676392D01*
X2637287Y5604763D01*
X1740154Y5341873D02*
G01*
X1736852Y5348731D01*
X1729994Y5355589D01*
X1723136Y5358892D01*
X1709673Y5358892D01*
X1702815Y5355589D01*
X1695957Y5348731D01*
X1692402Y5341873D01*
X1689100Y5331713D01*
X1689100Y5314442D01*
X1692402Y5304281D01*
X1695957Y5297423D01*
X1702815Y5290820D01*
X1709673Y5287263D01*
X1723136Y5287263D01*
X1729994Y5290820D01*
X1736852Y5297423D01*
X1740154Y5304281D01*
X1803654Y5358892D02*
G01*
X1769618Y5358892D01*
X1766062Y5328157D01*
X1769618Y5331713D01*
X1779778Y5335015D01*
X1789937Y5335015D01*
X1800352Y5331713D01*
X1806955Y5324855D01*
X1810512Y5314442D01*
X1810512Y5307837D01*
X1806955Y5297423D01*
X1800352Y5290820D01*
X1789937Y5287263D01*
X1779778Y5287263D01*
X1769618Y5290820D01*
X1766062Y5294121D01*
X1762760Y5300979D01*
X1836420Y5341873D02*
G01*
X1836420Y5345176D01*
X1839721Y5352034D01*
X1843278Y5355589D01*
X1849881Y5358892D01*
X1863597Y5358892D01*
X1870455Y5355589D01*
X1873757Y5352034D01*
X1877313Y5345176D01*
X1877313Y5338318D01*
X1873757Y5331713D01*
X1867154Y5321300D01*
X1832863Y5287263D01*
X1880615Y5287263D01*
X2551435Y5912357D02*
G01*
X2548133Y5919215D01*
X2541275Y5926073D01*
X2534417Y5929376D01*
X2520955Y5929376D01*
X2514097Y5926073D01*
X2507239Y5919215D01*
X2503683Y5912357D01*
X2500381Y5902197D01*
X2500381Y5884926D01*
X2503683Y5874765D01*
X2507239Y5867907D01*
X2514097Y5861304D01*
X2520955Y5857747D01*
X2534417Y5857747D01*
X2541275Y5861304D01*
X2548133Y5867907D01*
X2551435Y5874765D01*
X2614935Y5929376D02*
G01*
X2580899Y5929376D01*
X2577343Y5898642D01*
X2580899Y5902197D01*
X2591059Y5905500D01*
X2601219Y5905500D01*
X2611633Y5902197D01*
X2618237Y5895339D01*
X2621793Y5884926D01*
X2621793Y5878321D01*
X2618237Y5867907D01*
X2611633Y5861304D01*
X2601219Y5857747D01*
X2591059Y5857747D01*
X2580899Y5861304D01*
X2577343Y5864605D01*
X2574041Y5871463D01*
X2651003Y5929376D02*
G01*
X2688595Y5929376D01*
X2668021Y5902197D01*
X2678435Y5902197D01*
X2685039Y5898642D01*
X2688595Y5895339D01*
X2691897Y5884926D01*
X2691897Y5878321D01*
X2688595Y5867907D01*
X2681737Y5861304D01*
X2671577Y5857747D01*
X2661163Y5857747D01*
X2651003Y5861304D01*
X2647701Y5864605D01*
X2644145Y5871463D01*
X2527554Y5786373D02*
G01*
X2524252Y5793231D01*
X2517393Y5800089D01*
X2510536Y5803392D01*
X2497074Y5803392D01*
X2490215Y5800089D01*
X2483358Y5793231D01*
X2479802Y5786373D01*
X2476500Y5776213D01*
X2476500Y5758942D01*
X2479802Y5748781D01*
X2483358Y5741923D01*
X2490215Y5735320D01*
X2497074Y5731763D01*
X2510536Y5731763D01*
X2517393Y5735320D01*
X2524252Y5741923D01*
X2527554Y5748781D01*
X2591054Y5803392D02*
G01*
X2557018Y5803392D01*
X2553461Y5772657D01*
X2557018Y5776213D01*
X2567177Y5779515D01*
X2577338Y5779515D01*
X2587752Y5776213D01*
X2594356Y5769355D01*
X2597911Y5758942D01*
X2597911Y5752337D01*
X2594356Y5741923D01*
X2587752Y5735320D01*
X2577338Y5731763D01*
X2567177Y5731763D01*
X2557018Y5735320D01*
X2553461Y5738621D01*
X2550159Y5745479D01*
X2654554Y5803392D02*
G01*
X2620263Y5755639D01*
X2671572Y5755639D01*
X2654554Y5803392D02*
G01*
X2654554Y5731763D01*
X1740159Y5456173D02*
G01*
X1736857Y5463031D01*
X1729999Y5469889D01*
X1723141Y5473192D01*
X1709679Y5473192D01*
X1702821Y5469889D01*
X1695963Y5463031D01*
X1692407Y5456173D01*
X1689105Y5446013D01*
X1689105Y5428742D01*
X1692407Y5418581D01*
X1695963Y5411723D01*
X1702821Y5405120D01*
X1709679Y5401563D01*
X1723141Y5401563D01*
X1729999Y5405120D01*
X1736857Y5411723D01*
X1740159Y5418581D01*
X1803659Y5473192D02*
G01*
X1769623Y5473192D01*
X1766067Y5442457D01*
X1769623Y5446013D01*
X1779783Y5449315D01*
X1789943Y5449315D01*
X1800357Y5446013D01*
X1806961Y5439155D01*
X1810517Y5428742D01*
X1810517Y5422137D01*
X1806961Y5411723D01*
X1800357Y5405120D01*
X1789943Y5401563D01*
X1779783Y5401563D01*
X1769623Y5405120D01*
X1766067Y5408421D01*
X1762765Y5415279D01*
X1873763Y5473192D02*
G01*
X1839727Y5473192D01*
X1836425Y5442457D01*
X1839727Y5446013D01*
X1849887Y5449315D01*
X1860301Y5449315D01*
X1870461Y5446013D01*
X1877319Y5439155D01*
X1880621Y5428742D01*
X1880621Y5422137D01*
X1877319Y5411723D01*
X1870461Y5405120D01*
X1860301Y5401563D01*
X1849887Y5401563D01*
X1839727Y5405120D01*
X1836425Y5408421D01*
X1832869Y5415279D01*
X2540053Y6065662D02*
G01*
X2536751Y6072520D01*
X2529893Y6079378D01*
X2523035Y6082680D01*
X2509573Y6082680D01*
X2502715Y6079378D01*
X2495857Y6072520D01*
X2492301Y6065662D01*
X2488999Y6055502D01*
X2488999Y6038230D01*
X2492301Y6028070D01*
X2495857Y6021212D01*
X2502715Y6014608D01*
X2509573Y6011052D01*
X2523035Y6011052D01*
X2529893Y6014608D01*
X2536751Y6021212D01*
X2540053Y6028070D01*
X2603553Y6082680D02*
G01*
X2569517Y6082680D01*
X2565961Y6051946D01*
X2569517Y6055502D01*
X2579677Y6058804D01*
X2589837Y6058804D01*
X2600251Y6055502D01*
X2606855Y6048644D01*
X2610411Y6038230D01*
X2610411Y6031626D01*
X2606855Y6021212D01*
X2600251Y6014608D01*
X2589837Y6011052D01*
X2579677Y6011052D01*
X2569517Y6014608D01*
X2565961Y6017910D01*
X2562659Y6024768D01*
X2673657Y6072520D02*
G01*
X2670355Y6079378D01*
X2660195Y6082680D01*
X2653337Y6082680D01*
X2643177Y6079378D01*
X2636319Y6068964D01*
X2632763Y6051946D01*
X2632763Y6034928D01*
X2636319Y6021212D01*
X2643177Y6014608D01*
X2653337Y6011052D01*
X2656639Y6011052D01*
X2667053Y6014608D01*
X2673657Y6021212D01*
X2677213Y6031626D01*
X2677213Y6034928D01*
X2673657Y6045088D01*
X2667053Y6051946D01*
X2656639Y6055502D01*
X2653337Y6055502D01*
X2643177Y6051946D01*
X2636319Y6045088D01*
X2632763Y6034928D01*
X1790959Y5964173D02*
G01*
X1787657Y5971031D01*
X1780799Y5977889D01*
X1773941Y5981192D01*
X1760479Y5981192D01*
X1753621Y5977889D01*
X1746763Y5971031D01*
X1743207Y5964173D01*
X1739905Y5954013D01*
X1739905Y5936742D01*
X1743207Y5926581D01*
X1746763Y5919723D01*
X1753621Y5913120D01*
X1760479Y5909563D01*
X1773941Y5909563D01*
X1780799Y5913120D01*
X1787657Y5919723D01*
X1790959Y5926581D01*
X1854459Y5981192D02*
G01*
X1820423Y5981192D01*
X1816867Y5950457D01*
X1820423Y5954013D01*
X1830583Y5957315D01*
X1840743Y5957315D01*
X1851157Y5954013D01*
X1857761Y5947155D01*
X1861317Y5936742D01*
X1861317Y5930137D01*
X1857761Y5919723D01*
X1851157Y5913120D01*
X1840743Y5909563D01*
X1830583Y5909563D01*
X1820423Y5913120D01*
X1816867Y5916421D01*
X1813565Y5923279D01*
X1931421Y5981192D02*
G01*
X1897385Y5909563D01*
X1883669Y5981192D02*
G01*
X1931421Y5981192D01*
X1790959Y6103873D02*
G01*
X1787657Y6110731D01*
X1780799Y6117589D01*
X1773941Y6120892D01*
X1760479Y6120892D01*
X1753621Y6117589D01*
X1746763Y6110731D01*
X1743207Y6103873D01*
X1739905Y6093713D01*
X1739905Y6076442D01*
X1743207Y6066281D01*
X1746763Y6059423D01*
X1753621Y6052820D01*
X1760479Y6049263D01*
X1773941Y6049263D01*
X1780799Y6052820D01*
X1787657Y6059423D01*
X1790959Y6066281D01*
X1854459Y6120892D02*
G01*
X1820423Y6120892D01*
X1816867Y6090157D01*
X1820423Y6093713D01*
X1830583Y6097015D01*
X1840743Y6097015D01*
X1851157Y6093713D01*
X1857761Y6086855D01*
X1861317Y6076442D01*
X1861317Y6069837D01*
X1857761Y6059423D01*
X1851157Y6052820D01*
X1840743Y6049263D01*
X1830583Y6049263D01*
X1820423Y6052820D01*
X1816867Y6056121D01*
X1813565Y6062979D01*
X1900687Y6120892D02*
G01*
X1890527Y6117589D01*
X1887225Y6110731D01*
X1887225Y6103873D01*
X1890527Y6097015D01*
X1897385Y6093713D01*
X1911101Y6090157D01*
X1921261Y6086855D01*
X1928119Y6079997D01*
X1931421Y6073139D01*
X1931421Y6062979D01*
X1928119Y6056121D01*
X1924563Y6052820D01*
X1914403Y6049263D01*
X1900687Y6049263D01*
X1890527Y6052820D01*
X1887225Y6056121D01*
X1883669Y6062979D01*
X1883669Y6073139D01*
X1887225Y6079997D01*
X1894083Y6086855D01*
X1904243Y6090157D01*
X1917959Y6093713D01*
X1924563Y6097015D01*
X1928119Y6103873D01*
X1928119Y6110731D01*
X1924563Y6117589D01*
X1914403Y6120892D01*
X1900687Y6120892D01*
X4900985Y4201921D02*
G01*
X4898191Y4207255D01*
X4892603Y4212844D01*
X4887269Y4215637D01*
X4876347Y4215637D01*
X4871013Y4212844D01*
X4865425Y4207255D01*
X4862631Y4201921D01*
X4860091Y4193794D01*
X4860091Y4180078D01*
X4862631Y4171950D01*
X4865425Y4166362D01*
X4871013Y4161028D01*
X4876347Y4158234D01*
X4887269Y4158234D01*
X4892603Y4161028D01*
X4898191Y4166362D01*
X4900985Y4171950D01*
X4951531Y4215637D02*
G01*
X4924353Y4215637D01*
X4921559Y4191000D01*
X4924353Y4193794D01*
X4932481Y4196334D01*
X4940609Y4196334D01*
X4948991Y4193794D01*
X4954325Y4188205D01*
X4957119Y4180078D01*
X4957119Y4174744D01*
X4954325Y4166362D01*
X4948991Y4161028D01*
X4940609Y4158234D01*
X4932481Y4158234D01*
X4924353Y4161028D01*
X4921559Y4163821D01*
X4919019Y4169155D01*
X5010459Y4196334D02*
G01*
X5007919Y4188205D01*
X5002331Y4182871D01*
X4994203Y4180078D01*
X4991409Y4180078D01*
X4983281Y4182871D01*
X4977693Y4188205D01*
X4975153Y4196334D01*
X4975153Y4199128D01*
X4977693Y4207255D01*
X4983281Y4212844D01*
X4991409Y4215637D01*
X4994203Y4215637D01*
X5002331Y4212844D01*
X5007919Y4207255D01*
X5010459Y4196334D01*
X5010459Y4182871D01*
X5007919Y4169155D01*
X5002331Y4161028D01*
X4994203Y4158234D01*
X4988615Y4158234D01*
X4980487Y4161028D01*
X4977693Y4166362D01*
X5091000Y5842000D02*
G01*
X5088206Y5847334D01*
X5082618Y5852921D01*
X5077284Y5855462D01*
X5066362Y5855462D01*
X5060774Y5852921D01*
X5055440Y5847334D01*
X5052646Y5842000D01*
X5050106Y5833618D01*
X5050106Y5820155D01*
X5052646Y5811773D01*
X5055440Y5806439D01*
X5060774Y5801105D01*
X5066362Y5798312D01*
X5077284Y5798312D01*
X5082618Y5801105D01*
X5088206Y5806439D01*
X5091000Y5811773D01*
X5141546Y5847334D02*
G01*
X5139006Y5852921D01*
X5130624Y5855462D01*
X5125290Y5855462D01*
X5117162Y5852921D01*
X5111574Y5844539D01*
X5108780Y5831078D01*
X5108780Y5817362D01*
X5111574Y5806439D01*
X5117162Y5801105D01*
X5125290Y5798312D01*
X5128084Y5798312D01*
X5136212Y5801105D01*
X5141546Y5806439D01*
X5144340Y5814568D01*
X5144340Y5817362D01*
X5141546Y5825489D01*
X5136212Y5831078D01*
X5128084Y5833618D01*
X5125290Y5833618D01*
X5117162Y5831078D01*
X5111574Y5825489D01*
X5108780Y5817362D01*
X5162374Y5844539D02*
G01*
X5167708Y5847334D01*
X5176090Y5855462D01*
X5176090Y5798312D01*
X5391005Y5721987D02*
G01*
X5388211Y5727321D01*
X5382623Y5732909D01*
X5377289Y5735449D01*
X5366367Y5735449D01*
X5360779Y5732909D01*
X5355445Y5727321D01*
X5352651Y5721987D01*
X5350111Y5713605D01*
X5350111Y5700143D01*
X5352651Y5692015D01*
X5355445Y5686427D01*
X5360779Y5681093D01*
X5366367Y5678299D01*
X5377289Y5678299D01*
X5382623Y5681093D01*
X5388211Y5686427D01*
X5391005Y5692015D01*
X5441551Y5727321D02*
G01*
X5439011Y5732909D01*
X5430629Y5735449D01*
X5425295Y5735449D01*
X5417167Y5732909D01*
X5411579Y5724527D01*
X5408785Y5711065D01*
X5408785Y5697349D01*
X5411579Y5686427D01*
X5417167Y5681093D01*
X5425295Y5678299D01*
X5428089Y5678299D01*
X5436217Y5681093D01*
X5441551Y5686427D01*
X5444345Y5694555D01*
X5444345Y5697349D01*
X5441551Y5705477D01*
X5436217Y5711065D01*
X5428089Y5713605D01*
X5425295Y5713605D01*
X5417167Y5711065D01*
X5411579Y5705477D01*
X5408785Y5697349D01*
X5465173Y5721987D02*
G01*
X5465173Y5724527D01*
X5467713Y5730115D01*
X5470507Y5732909D01*
X5476095Y5735449D01*
X5487017Y5735449D01*
X5492351Y5732909D01*
X5495145Y5730115D01*
X5497685Y5724527D01*
X5497685Y5719193D01*
X5495145Y5713605D01*
X5489557Y5705477D01*
X5462379Y5678299D01*
X5500479Y5678299D01*
X4521032Y5778588D02*
G01*
X4517730Y5785446D01*
X4510872Y5792304D01*
X4504014Y5795606D01*
X4490552Y5795606D01*
X4483694Y5792304D01*
X4476836Y5785446D01*
X4473280Y5778588D01*
X4469978Y5768428D01*
X4469978Y5751410D01*
X4473280Y5741250D01*
X4476836Y5734392D01*
X4483694Y5727534D01*
X4490552Y5723978D01*
X4504014Y5723978D01*
X4510872Y5727534D01*
X4517730Y5734392D01*
X4521032Y5741250D01*
X4584532Y5785446D02*
G01*
X4581230Y5792304D01*
X4570816Y5795606D01*
X4563958Y5795606D01*
X4553798Y5792304D01*
X4546940Y5782144D01*
X4543638Y5764872D01*
X4543638Y5747854D01*
X4546940Y5734392D01*
X4553798Y5727534D01*
X4563958Y5723978D01*
X4567514Y5723978D01*
X4577674Y5727534D01*
X4584532Y5734392D01*
X4587834Y5744552D01*
X4587834Y5747854D01*
X4584532Y5758268D01*
X4577674Y5764872D01*
X4567514Y5768428D01*
X4563958Y5768428D01*
X4553798Y5764872D01*
X4546940Y5758268D01*
X4543638Y5747854D01*
X4617298Y5795606D02*
G01*
X4654890Y5795606D01*
X4634316Y5768428D01*
X4644476Y5768428D01*
X4651334Y5764872D01*
X4654890Y5761570D01*
X4658192Y5751410D01*
X4658192Y5744552D01*
X4654890Y5734392D01*
X4648032Y5727534D01*
X4637618Y5723978D01*
X4627458Y5723978D01*
X4617298Y5727534D01*
X4613742Y5730836D01*
X4610440Y5737694D01*
X4755923Y5771829D02*
G01*
X4753129Y5777417D01*
X4747795Y5782751D01*
X4742207Y5785545D01*
X4731285Y5785545D01*
X4725951Y5782751D01*
X4720363Y5777417D01*
X4717823Y5771829D01*
X4715029Y5763701D01*
X4715029Y5749985D01*
X4717823Y5741857D01*
X4720363Y5736523D01*
X4725951Y5730935D01*
X4731285Y5728141D01*
X4742207Y5728141D01*
X4747795Y5730935D01*
X4753129Y5736523D01*
X4755923Y5741857D01*
X4806723Y5777417D02*
G01*
X4803929Y5782751D01*
X4795801Y5785545D01*
X4790213Y5785545D01*
X4782085Y5782751D01*
X4776751Y5774623D01*
X4773957Y5760907D01*
X4773957Y5747445D01*
X4776751Y5736523D01*
X4782085Y5730935D01*
X4790213Y5728141D01*
X4793007Y5728141D01*
X4801135Y5730935D01*
X4806723Y5736523D01*
X4809263Y5744651D01*
X4809263Y5747445D01*
X4806723Y5755573D01*
X4801135Y5760907D01*
X4793007Y5763701D01*
X4790213Y5763701D01*
X4782085Y5760907D01*
X4776751Y5755573D01*
X4773957Y5747445D01*
X4854729Y5785545D02*
G01*
X4827297Y5747445D01*
X4868191Y5747445D01*
X4854729Y5785545D02*
G01*
X4854729Y5728141D01*
X12516040Y6738686D02*
G01*
X12512738Y6745544D01*
X12505880Y6752148D01*
X12499022Y6755704D01*
X12485306Y6755704D01*
X12478702Y6752148D01*
X12471844Y6745544D01*
X12468288Y6738686D01*
X12464986Y6728272D01*
X12464986Y6711254D01*
X12468288Y6701094D01*
X12471844Y6694236D01*
X12478702Y6687378D01*
X12485306Y6684076D01*
X12499022Y6684076D01*
X12505880Y6687378D01*
X12512738Y6694236D01*
X12516040Y6701094D01*
X12579540Y6745544D02*
G01*
X12576238Y6752148D01*
X12565824Y6755704D01*
X12558966Y6755704D01*
X12548806Y6752148D01*
X12541948Y6741988D01*
X12538646Y6724970D01*
X12538646Y6707952D01*
X12541948Y6694236D01*
X12548806Y6687378D01*
X12558966Y6684076D01*
X12562522Y6684076D01*
X12572682Y6687378D01*
X12579540Y6694236D01*
X12582842Y6704650D01*
X12582842Y6707952D01*
X12579540Y6718112D01*
X12572682Y6724970D01*
X12562522Y6728272D01*
X12558966Y6728272D01*
X12548806Y6724970D01*
X12541948Y6718112D01*
X12538646Y6707952D01*
X12646342Y6755704D02*
G01*
X12612306Y6755704D01*
X12608750Y6724970D01*
X12612306Y6728272D01*
X12622466Y6731828D01*
X12632626Y6731828D01*
X12643040Y6728272D01*
X12649644Y6721668D01*
X12653200Y6711254D01*
X12653200Y6704650D01*
X12649644Y6694236D01*
X12643040Y6687378D01*
X12632626Y6684076D01*
X12622466Y6684076D01*
X12612306Y6687378D01*
X12608750Y6690934D01*
X12605448Y6697792D01*
X13996103Y7258558D02*
G01*
X13992801Y7265415D01*
X13985943Y7272273D01*
X13979085Y7275576D01*
X13965369Y7275576D01*
X13958511Y7272273D01*
X13951907Y7265415D01*
X13948351Y7258558D01*
X13945049Y7248397D01*
X13945049Y7231379D01*
X13948351Y7221220D01*
X13951907Y7214362D01*
X13958511Y7207504D01*
X13965369Y7204202D01*
X13979085Y7204202D01*
X13985943Y7207504D01*
X13992801Y7214362D01*
X13996103Y7221220D01*
X14059603Y7265415D02*
G01*
X14056047Y7272273D01*
X14045887Y7275576D01*
X14039029Y7275576D01*
X14028869Y7272273D01*
X14022011Y7262113D01*
X14018709Y7245095D01*
X14018709Y7227823D01*
X14022011Y7214362D01*
X14028869Y7207504D01*
X14039029Y7204202D01*
X14042585Y7204202D01*
X14052745Y7207504D01*
X14059603Y7214362D01*
X14062905Y7224521D01*
X14062905Y7227823D01*
X14059603Y7238237D01*
X14052745Y7245095D01*
X14042585Y7248397D01*
X14039029Y7248397D01*
X14028869Y7245095D01*
X14022011Y7238237D01*
X14018709Y7227823D01*
X14126405Y7265415D02*
G01*
X14122849Y7272273D01*
X14112689Y7275576D01*
X14105831Y7275576D01*
X14095671Y7272273D01*
X14088813Y7262113D01*
X14085511Y7245095D01*
X14085511Y7227823D01*
X14088813Y7214362D01*
X14095671Y7207504D01*
X14105831Y7204202D01*
X14109387Y7204202D01*
X14119547Y7207504D01*
X14126405Y7214362D01*
X14129707Y7224521D01*
X14129707Y7227823D01*
X14126405Y7238237D01*
X14119547Y7245095D01*
X14109387Y7248397D01*
X14105831Y7248397D01*
X14095671Y7245095D01*
X14088813Y7238237D01*
X14085511Y7227823D01*
X13125980Y8951945D02*
G01*
X13123186Y8957279D01*
X13117598Y8962867D01*
X13112264Y8965407D01*
X13101342Y8965407D01*
X13096008Y8962867D01*
X13090420Y8957279D01*
X13087626Y8951945D01*
X13085086Y8943817D01*
X13085086Y8930101D01*
X13087626Y8921973D01*
X13090420Y8916385D01*
X13096008Y8911051D01*
X13101342Y8908257D01*
X13112264Y8908257D01*
X13117598Y8911051D01*
X13123186Y8916385D01*
X13125980Y8921973D01*
X13176526Y8957279D02*
G01*
X13173986Y8962867D01*
X13165604Y8965407D01*
X13160270Y8965407D01*
X13152142Y8962867D01*
X13146554Y8954739D01*
X13143760Y8941023D01*
X13143760Y8927307D01*
X13146554Y8916385D01*
X13152142Y8911051D01*
X13160270Y8908257D01*
X13163064Y8908257D01*
X13171192Y8911051D01*
X13176526Y8916385D01*
X13179320Y8924513D01*
X13179320Y8927307D01*
X13176526Y8935435D01*
X13171192Y8941023D01*
X13163064Y8943817D01*
X13160270Y8943817D01*
X13152142Y8941023D01*
X13146554Y8935435D01*
X13143760Y8927307D01*
X13235454Y8965407D02*
G01*
X13208276Y8908257D01*
X13197354Y8965407D02*
G01*
X13235454Y8965407D01*
X13066910Y6729509D02*
G01*
X13063354Y6736367D01*
X13056496Y6743225D01*
X13049638Y6746781D01*
X13035668Y6746781D01*
X13028810Y6743225D01*
X13021952Y6736367D01*
X13018396Y6729509D01*
X13015094Y6719095D01*
X13015094Y6701823D01*
X13018396Y6691409D01*
X13021952Y6684551D01*
X13028810Y6677693D01*
X13035668Y6674137D01*
X13049638Y6674137D01*
X13056496Y6677693D01*
X13063354Y6684551D01*
X13066910Y6691409D01*
X13131172Y6736367D02*
G01*
X13127616Y6743225D01*
X13117202Y6746781D01*
X13110344Y6746781D01*
X13099930Y6743225D01*
X13093072Y6732811D01*
X13089516Y6715539D01*
X13089516Y6698267D01*
X13093072Y6684551D01*
X13099930Y6677693D01*
X13110344Y6674137D01*
X13113900Y6674137D01*
X13124060Y6677693D01*
X13131172Y6684551D01*
X13134474Y6694965D01*
X13134474Y6698267D01*
X13131172Y6708681D01*
X13124060Y6715539D01*
X13113900Y6719095D01*
X13110344Y6719095D01*
X13099930Y6715539D01*
X13093072Y6708681D01*
X13089516Y6698267D01*
X13202292Y6722397D02*
G01*
X13198736Y6712237D01*
X13191878Y6705125D01*
X13181464Y6701823D01*
X13177908Y6701823D01*
X13167748Y6705125D01*
X13160636Y6712237D01*
X13157334Y6722397D01*
X13157334Y6725953D01*
X13160636Y6736367D01*
X13167748Y6743225D01*
X13177908Y6746781D01*
X13181464Y6746781D01*
X13191878Y6743225D01*
X13198736Y6736367D01*
X13202292Y6722397D01*
X13202292Y6705125D01*
X13198736Y6687853D01*
X13191878Y6677693D01*
X13181464Y6674137D01*
X13174606Y6674137D01*
X13164192Y6677693D01*
X13160636Y6684551D01*
X13997749Y7384699D02*
G01*
X13994447Y7391049D01*
X13988097Y7397399D01*
X13981747Y7400701D01*
X13969047Y7400701D01*
X13962697Y7397399D01*
X13956347Y7391049D01*
X13953045Y7384699D01*
X13949997Y7375047D01*
X13949997Y7359299D01*
X13953045Y7349647D01*
X13956347Y7343297D01*
X13962697Y7336947D01*
X13969047Y7333899D01*
X13981747Y7333899D01*
X13988097Y7336947D01*
X13994447Y7343297D01*
X13997749Y7349647D01*
X14063281Y7400701D02*
G01*
X14031531Y7333899D01*
X14018577Y7400701D02*
G01*
X14063281Y7400701D01*
X14103413Y7400701D02*
G01*
X14093761Y7397399D01*
X14087411Y7388001D01*
X14084363Y7371999D01*
X14084363Y7362347D01*
X14087411Y7346599D01*
X14093761Y7336947D01*
X14103413Y7333899D01*
X14109763Y7333899D01*
X14119161Y7336947D01*
X14125511Y7346599D01*
X14128813Y7362347D01*
X14128813Y7371999D01*
X14125511Y7388001D01*
X14119161Y7397399D01*
X14109763Y7400701D01*
X14103413Y7400701D01*
X13342752Y8219696D02*
G01*
X13339450Y8226046D01*
X13333100Y8232396D01*
X13326750Y8235698D01*
X13314050Y8235698D01*
X13307700Y8232396D01*
X13301350Y8226046D01*
X13298048Y8219696D01*
X13295000Y8210044D01*
X13295000Y8194296D01*
X13298048Y8184644D01*
X13301350Y8178294D01*
X13307700Y8171944D01*
X13314050Y8168896D01*
X13326750Y8168896D01*
X13333100Y8171944D01*
X13339450Y8178294D01*
X13342752Y8184644D01*
X13408284Y8235698D02*
G01*
X13376534Y8168896D01*
X13363580Y8235698D02*
G01*
X13408284Y8235698D01*
X13429366Y8222998D02*
G01*
X13435716Y8226046D01*
X13445114Y8235698D01*
X13445114Y8168896D01*
X13562751Y8354695D02*
G01*
X13559449Y8361045D01*
X13553099Y8367395D01*
X13546749Y8370696D01*
X13534049Y8370696D01*
X13527699Y8367395D01*
X13521349Y8361045D01*
X13518047Y8354695D01*
X13514999Y8345043D01*
X13514999Y8329295D01*
X13518047Y8319643D01*
X13521349Y8313293D01*
X13527699Y8306943D01*
X13534049Y8303895D01*
X13546749Y8303895D01*
X13553099Y8306943D01*
X13559449Y8313293D01*
X13562751Y8319643D01*
X13628283Y8370696D02*
G01*
X13596533Y8303895D01*
X13583579Y8370696D02*
G01*
X13628283Y8370696D01*
X13652413Y8354695D02*
G01*
X13652413Y8357996D01*
X13655715Y8364346D01*
X13658763Y8367395D01*
X13665113Y8370696D01*
X13677813Y8370696D01*
X13684163Y8367395D01*
X13687465Y8364346D01*
X13690513Y8357996D01*
X13690513Y8351646D01*
X13687465Y8345043D01*
X13681115Y8335645D01*
X13649365Y8303895D01*
X13693815Y8303895D01*
X13977749Y7644696D02*
G01*
X13974447Y7651046D01*
X13968097Y7657396D01*
X13961747Y7660698D01*
X13949047Y7660698D01*
X13942697Y7657396D01*
X13936347Y7651046D01*
X13933045Y7644696D01*
X13929997Y7635044D01*
X13929997Y7619296D01*
X13933045Y7609644D01*
X13936347Y7603294D01*
X13942697Y7596944D01*
X13949047Y7593896D01*
X13961747Y7593896D01*
X13968097Y7596944D01*
X13974447Y7603294D01*
X13977749Y7609644D01*
X14043281Y7660698D02*
G01*
X14011531Y7593896D01*
X13998577Y7660698D02*
G01*
X14043281Y7660698D01*
X14070713Y7660698D02*
G01*
X14105511Y7660698D01*
X14086461Y7635044D01*
X14096113Y7635044D01*
X14102463Y7631996D01*
X14105511Y7628694D01*
X14108813Y7619296D01*
X14108813Y7612946D01*
X14105511Y7603294D01*
X14099161Y7596944D01*
X14089763Y7593896D01*
X14080111Y7593896D01*
X14070713Y7596944D01*
X14067411Y7600246D01*
X14064363Y7606596D01*
X13977645Y7779651D02*
G01*
X13974597Y7786001D01*
X13968247Y7792351D01*
X13961897Y7795653D01*
X13948943Y7795653D01*
X13942593Y7792351D01*
X13936243Y7786001D01*
X13933195Y7779651D01*
X13929893Y7770253D01*
X13929893Y7754251D01*
X13933195Y7744599D01*
X13936243Y7738249D01*
X13942593Y7731899D01*
X13948943Y7728851D01*
X13961897Y7728851D01*
X13968247Y7731899D01*
X13974597Y7738249D01*
X13977645Y7744599D01*
X14043177Y7795653D02*
G01*
X14011427Y7728851D01*
X13998727Y7795653D02*
G01*
X14043177Y7795653D01*
X14096009Y7795653D02*
G01*
X14064259Y7750949D01*
X14112011Y7750949D01*
X14096009Y7795653D02*
G01*
X14096009Y7728851D01*
X2908554Y6561073D02*
G01*
X2905252Y6567931D01*
X2898393Y6574789D01*
X2891536Y6578092D01*
X2878074Y6578092D01*
X2871215Y6574789D01*
X2864358Y6567931D01*
X2860802Y6561073D01*
X2857500Y6550913D01*
X2857500Y6533642D01*
X2860802Y6523481D01*
X2864358Y6516623D01*
X2871215Y6510020D01*
X2878074Y6506463D01*
X2891536Y6506463D01*
X2898393Y6510020D01*
X2905252Y6516623D01*
X2908554Y6523481D01*
X2978911Y6578092D02*
G01*
X2944875Y6506463D01*
X2931159Y6578092D02*
G01*
X2978911Y6578092D01*
X3042158Y6578092D02*
G01*
X3008122Y6578092D01*
X3004820Y6547357D01*
X3008122Y6550913D01*
X3018281Y6554215D01*
X3028695Y6554215D01*
X3038856Y6550913D01*
X3045713Y6544055D01*
X3049015Y6533642D01*
X3049015Y6527037D01*
X3045713Y6516623D01*
X3038856Y6510020D01*
X3028695Y6506463D01*
X3018281Y6506463D01*
X3008122Y6510020D01*
X3004820Y6513321D01*
X3001263Y6520179D01*
X14612216Y2710271D02*
G01*
X14608914Y2717129D01*
X14602056Y2723987D01*
X14595198Y2727289D01*
X14581736Y2727289D01*
X14574878Y2723987D01*
X14568020Y2717129D01*
X14564464Y2710271D01*
X14561162Y2700111D01*
X14561162Y2682839D01*
X14564464Y2672679D01*
X14568020Y2665821D01*
X14574878Y2659217D01*
X14581736Y2655661D01*
X14595198Y2655661D01*
X14602056Y2659217D01*
X14608914Y2665821D01*
X14612216Y2672679D01*
X14668858Y2727289D02*
G01*
X14634822Y2679537D01*
X14685876Y2679537D01*
X14668858Y2727289D02*
G01*
X14668858Y2655661D01*
X14749376Y2727289D02*
G01*
X14715340Y2727289D01*
X14711784Y2696555D01*
X14715340Y2700111D01*
X14725500Y2703413D01*
X14735660Y2703413D01*
X14745820Y2700111D01*
X14752678Y2693253D01*
X14756234Y2682839D01*
X14756234Y2676235D01*
X14752678Y2665821D01*
X14745820Y2659217D01*
X14735660Y2655661D01*
X14725500Y2655661D01*
X14715340Y2659217D01*
X14711784Y2662519D01*
X14708482Y2669377D01*
X14199461Y6792488D02*
G01*
X14195905Y6799854D01*
X14188539Y6806966D01*
X14181427Y6810776D01*
X14166695Y6810776D01*
X14159583Y6806966D01*
X14152217Y6799854D01*
X14148661Y6792488D01*
X14144851Y6781566D01*
X14144851Y6763532D01*
X14148661Y6752610D01*
X14152217Y6745244D01*
X14159583Y6737878D01*
X14166695Y6734322D01*
X14181427Y6734322D01*
X14188539Y6737878D01*
X14195905Y6745244D01*
X14199461Y6752610D01*
X14267025Y6799854D02*
G01*
X14263469Y6806966D01*
X14252547Y6810776D01*
X14245435Y6810776D01*
X14234513Y6806966D01*
X14227147Y6796044D01*
X14223591Y6778010D01*
X14223591Y6759722D01*
X14227147Y6745244D01*
X14234513Y6737878D01*
X14245435Y6734322D01*
X14248991Y6734322D01*
X14259913Y6737878D01*
X14267025Y6745244D01*
X14270835Y6756166D01*
X14270835Y6759722D01*
X14267025Y6770644D01*
X14259913Y6778010D01*
X14248991Y6781566D01*
X14245435Y6781566D01*
X14234513Y6778010D01*
X14227147Y6770644D01*
X14223591Y6759722D01*
X14312999Y6810776D02*
G01*
X14302077Y6806966D01*
X14298521Y6799854D01*
X14298521Y6792488D01*
X14302077Y6785376D01*
X14309443Y6781566D01*
X14323921Y6778010D01*
X14334843Y6774454D01*
X14341955Y6767088D01*
X14345765Y6759722D01*
X14345765Y6748800D01*
X14341955Y6741688D01*
X14338399Y6737878D01*
X14327477Y6734322D01*
X14312999Y6734322D01*
X14302077Y6737878D01*
X14298521Y6741688D01*
X14294711Y6748800D01*
X14294711Y6759722D01*
X14298521Y6767088D01*
X14305633Y6774454D01*
X14316555Y6778010D01*
X14331033Y6781566D01*
X14338399Y6785376D01*
X14341955Y6792488D01*
X14341955Y6799854D01*
X14338399Y6806966D01*
X14327477Y6810776D01*
X14312999Y6810776D01*
X13371322Y4952492D02*
G01*
X13376656Y4942078D01*
X13387070Y4931663D01*
X13397229Y4926584D01*
X13418058Y4926584D01*
X13428472Y4931663D01*
X13438886Y4942078D01*
X13444220Y4952492D01*
X13449300Y4968239D01*
X13449300Y4994147D01*
X13444220Y5009642D01*
X13438886Y5020055D01*
X13428472Y5030470D01*
X13418058Y5035550D01*
X13397229Y5035550D01*
X13387070Y5030470D01*
X13376656Y5020055D01*
X13371322Y5009642D01*
X13337031Y4926584D02*
G01*
X13337031Y5035550D01*
X13337031Y4926584D02*
G01*
X13264388Y5035550D01*
X13264388Y4926584D02*
G01*
X13264388Y5035550D01*
X13167613Y4926584D02*
G01*
X13219684Y4926584D01*
X13224763Y4973320D01*
X13219684Y4968239D01*
X13204190Y4962905D01*
X13188441Y4962905D01*
X13172947Y4968239D01*
X13162534Y4978400D01*
X13157200Y4994147D01*
X13157200Y5004562D01*
X13162534Y5020055D01*
X13172947Y5030470D01*
X13188441Y5035550D01*
X13204190Y5035550D01*
X13219684Y5030470D01*
X13224763Y5025389D01*
X13230097Y5014976D01*
X1709117Y3913779D02*
G01*
X1709117Y3818275D01*
X1709117Y3913779D02*
G01*
X1740867Y3913779D01*
X1754583Y3909207D01*
X1763727Y3900317D01*
X1768299Y3891173D01*
X1772871Y3877457D01*
X1772871Y3854851D01*
X1768299Y3841135D01*
X1763727Y3831991D01*
X1754583Y3822847D01*
X1740867Y3818275D01*
X1709117Y3818275D01*
X1802843Y3895745D02*
G01*
X1811733Y3900317D01*
X1825449Y3913779D01*
X1825449Y3818275D01*
X27964762Y614532D02*
G01*
X27964762Y519028D01*
X27964762Y614532D02*
G01*
X27996512Y614532D01*
X28010228Y609960D01*
X28019372Y601070D01*
X28023944Y591926D01*
X28028516Y578210D01*
X28028516Y555604D01*
X28023944Y541888D01*
X28019372Y532744D01*
X28010228Y523600D01*
X27996512Y519028D01*
X27964762Y519028D01*
X28067378Y614532D02*
G01*
X28117416Y614532D01*
X28090238Y578210D01*
X28103954Y578210D01*
X28112844Y573638D01*
X28117416Y569066D01*
X28121988Y555604D01*
X28121988Y546460D01*
X28117416Y532744D01*
X28108272Y523600D01*
X28094810Y519028D01*
X28081094Y519028D01*
X28067378Y523600D01*
X28063060Y528172D01*
X28058488Y537316D01*
X1630171Y1575307D02*
G01*
X1630171Y1503679D01*
X1630171Y1575307D02*
G01*
X1654047Y1575307D01*
X1664207Y1572005D01*
X1671065Y1565147D01*
X1674368Y1558289D01*
X1677923Y1548129D01*
X1677923Y1530857D01*
X1674368Y1520697D01*
X1671065Y1513839D01*
X1664207Y1507236D01*
X1654047Y1503679D01*
X1630171Y1503679D01*
X1734565Y1575307D02*
G01*
X1700276Y1527555D01*
X1751584Y1527555D01*
X1734565Y1575307D02*
G01*
X1734565Y1503679D01*
X28795218Y6580631D02*
G01*
X28795218Y6471665D01*
X28795218Y6580631D02*
G01*
X28831540Y6580631D01*
X28847288Y6575552D01*
X28857448Y6565137D01*
X28862782Y6554723D01*
X28867861Y6538976D01*
X28867861Y6513068D01*
X28862782Y6497573D01*
X28857448Y6487160D01*
X28847288Y6476745D01*
X28831540Y6471665D01*
X28795218Y6471665D01*
X28964636Y6565137D02*
G01*
X28959302Y6575552D01*
X28943808Y6580631D01*
X28933393Y6580631D01*
X28917900Y6575552D01*
X28907486Y6559804D01*
X28902152Y6533895D01*
X28902152Y6507987D01*
X28907486Y6487160D01*
X28917900Y6476745D01*
X28933393Y6471665D01*
X28938727Y6471665D01*
X28954222Y6476745D01*
X28964636Y6487160D01*
X28969715Y6502654D01*
X28969715Y6507987D01*
X28964636Y6523481D01*
X28954222Y6533895D01*
X28938727Y6538976D01*
X28933393Y6538976D01*
X28917900Y6533895D01*
X28907486Y6523481D01*
X28902152Y6507987D01*
X1869112Y7988388D02*
G01*
X1760146Y7988388D01*
X1869112Y7988388D02*
G01*
X1869112Y7952066D01*
X1864032Y7936318D01*
X1853618Y7926158D01*
X1843204Y7920824D01*
X1827456Y7915744D01*
X1801548Y7915744D01*
X1786054Y7920824D01*
X1775640Y7926158D01*
X1765226Y7936318D01*
X1760146Y7952066D01*
X1760146Y7988388D01*
X1869112Y7808556D02*
G01*
X1760146Y7860626D01*
X1869112Y7881454D02*
G01*
X1869112Y7808556D01*
X28713684Y3835400D02*
G01*
X28822650Y3835400D01*
X28713684Y3835400D02*
G01*
X28713684Y3871721D01*
X28718763Y3887470D01*
X28729177Y3897629D01*
X28739591Y3902963D01*
X28755340Y3908044D01*
X28781248Y3908044D01*
X28796741Y3902963D01*
X28807156Y3897629D01*
X28817570Y3887470D01*
X28822650Y3871721D01*
X28822650Y3835400D01*
X28750006Y4009897D02*
G01*
X28765500Y4004818D01*
X28775913Y3994404D01*
X28781248Y3978910D01*
X28781248Y3973576D01*
X28775913Y3958081D01*
X28765500Y3947668D01*
X28750006Y3942334D01*
X28744925Y3942334D01*
X28729177Y3947668D01*
X28718763Y3958081D01*
X28713684Y3973576D01*
X28713684Y3978910D01*
X28718763Y3994404D01*
X28729177Y4004818D01*
X28750006Y4009897D01*
X28775913Y4009897D01*
X28802075Y4004818D01*
X28817570Y3994404D01*
X28822650Y3978910D01*
X28822650Y3968495D01*
X28817570Y3952747D01*
X28807156Y3947668D01*
X28359734Y1206627D02*
G01*
X28455238Y1206627D01*
X28359734Y1206627D02*
G01*
X28359734Y1238377D01*
X28364307Y1251838D01*
X28373450Y1260982D01*
X28382595Y1265554D01*
X28396057Y1270127D01*
X28418916Y1270127D01*
X28432633Y1265554D01*
X28441523Y1260982D01*
X28450666Y1251838D01*
X28455238Y1238377D01*
X28455238Y1206627D01*
X28382595Y1304670D02*
G01*
X28378023Y1304670D01*
X28368879Y1309243D01*
X28364307Y1313814D01*
X28359734Y1322959D01*
X28359734Y1340993D01*
X28364307Y1350137D01*
X28368879Y1354709D01*
X28378023Y1359280D01*
X28387166Y1359280D01*
X28396057Y1354709D01*
X28409773Y1345564D01*
X28455238Y1300098D01*
X28455238Y1363853D01*
X2311400Y1371092D02*
G01*
X2311400Y1299463D01*
X2311400Y1371092D02*
G01*
X2335275Y1371092D01*
X2345436Y1367789D01*
X2352293Y1360931D01*
X2355595Y1354073D01*
X2359152Y1343913D01*
X2359152Y1326642D01*
X2355595Y1316481D01*
X2352293Y1309623D01*
X2345436Y1303020D01*
X2335275Y1299463D01*
X2311400Y1299463D01*
X2422652Y1371092D02*
G01*
X2388361Y1371092D01*
X2385059Y1340357D01*
X2388361Y1343913D01*
X2398775Y1347215D01*
X2408936Y1347215D01*
X2419095Y1343913D01*
X2425954Y1337055D01*
X2429256Y1326642D01*
X2429256Y1320037D01*
X2425954Y1309623D01*
X2419095Y1303020D01*
X2408936Y1299463D01*
X2398775Y1299463D01*
X2388361Y1303020D01*
X2385059Y1306321D01*
X2381504Y1313179D01*
X5454977Y8215299D02*
G01*
X5454977Y8106333D01*
X5454977Y8215299D02*
G01*
X5491299Y8215299D01*
X5507047Y8210219D01*
X5517207Y8199805D01*
X5522541Y8189391D01*
X5527621Y8173643D01*
X5527621Y8147735D01*
X5522541Y8132241D01*
X5517207Y8121827D01*
X5507047Y8111413D01*
X5491299Y8106333D01*
X5454977Y8106333D01*
X5588073Y8215299D02*
G01*
X5572325Y8210219D01*
X5567245Y8199805D01*
X5567245Y8189391D01*
X5572325Y8178977D01*
X5582739Y8173643D01*
X5603567Y8168563D01*
X5619061Y8163483D01*
X5629475Y8153069D01*
X5634809Y8142655D01*
X5634809Y8126907D01*
X5629475Y8116493D01*
X5624395Y8111413D01*
X5608647Y8106333D01*
X5588073Y8106333D01*
X5572325Y8111413D01*
X5567245Y8116493D01*
X5561911Y8126907D01*
X5561911Y8142655D01*
X5567245Y8153069D01*
X5577659Y8163483D01*
X5593153Y8168563D01*
X5613981Y8173643D01*
X5624395Y8178977D01*
X5629475Y8189391D01*
X5629475Y8199805D01*
X5624395Y8210219D01*
X5608647Y8215299D01*
X5588073Y8215299D01*
X13785329Y4598415D02*
G01*
X13774915Y4593336D01*
X13764501Y4582921D01*
X13759167Y4572507D01*
X13754087Y4556760D01*
X13754087Y4530852D01*
X13759167Y4515357D01*
X13764501Y4504944D01*
X13774915Y4494529D01*
X13785329Y4489450D01*
X13806157Y4489450D01*
X13816317Y4494529D01*
X13826731Y4504944D01*
X13832065Y4515357D01*
X13837145Y4530852D01*
X13837145Y4556760D01*
X13832065Y4572507D01*
X13826731Y4582921D01*
X13816317Y4593336D01*
X13806157Y4598415D01*
X13785329Y4598415D01*
X13800823Y4510023D02*
G01*
X13832065Y4479036D01*
X13881849Y4598415D02*
G01*
X13938999Y4598415D01*
X13907757Y4556760D01*
X13923505Y4556760D01*
X13933919Y4551679D01*
X13938999Y4546600D01*
X13944333Y4530852D01*
X13944333Y4520437D01*
X13938999Y4504944D01*
X13928585Y4494529D01*
X13913091Y4489450D01*
X13897597Y4489450D01*
X13881849Y4494529D01*
X13876769Y4499610D01*
X13871435Y4510023D01*
X5874989Y5812670D02*
G01*
X5874989Y5921636D01*
X5802345Y5812670D02*
G01*
X5802345Y5921636D01*
X5874989Y5864486D02*
G01*
X5802345Y5864486D01*
X5768055Y5833498D02*
G01*
X5757641Y5828164D01*
X5741893Y5812670D01*
X5741893Y5921636D01*
X4277306Y5494987D02*
G01*
X4168340Y5494987D01*
X4277306Y5422343D02*
G01*
X4168340Y5422343D01*
X4225490Y5494987D02*
G01*
X4225490Y5422343D01*
X4251398Y5382719D02*
G01*
X4256478Y5382719D01*
X4266892Y5377639D01*
X4272226Y5372305D01*
X4277306Y5361891D01*
X4277306Y5341317D01*
X4272226Y5330903D01*
X4266892Y5325569D01*
X4256478Y5320489D01*
X4246064Y5320489D01*
X4235650Y5325569D01*
X4220156Y5335983D01*
X4168340Y5388053D01*
X4168340Y5315155D01*
X25384950Y9032298D02*
G01*
X25384950Y8923332D01*
X25457594Y9032298D02*
G01*
X25457594Y8923332D01*
X25384950Y8980482D02*
G01*
X25457594Y8980482D01*
X25502298Y9032298D02*
G01*
X25559448Y9032298D01*
X25528460Y8990642D01*
X25543954Y8990642D01*
X25554368Y8985562D01*
X25559448Y8980482D01*
X25564782Y8964734D01*
X25564782Y8954320D01*
X25559448Y8938826D01*
X25549034Y8928412D01*
X25533540Y8923332D01*
X25518046Y8923332D01*
X25502298Y8928412D01*
X25497218Y8933492D01*
X25491884Y8943906D01*
X14377654Y6974984D02*
G01*
X14486620Y6974984D01*
X14377654Y7047628D02*
G01*
X14486620Y7047628D01*
X14429470Y6974984D02*
G01*
X14429470Y7047628D01*
X14377654Y7133988D02*
G01*
X14450298Y7081918D01*
X14450298Y7159896D01*
X14377654Y7133988D02*
G01*
X14486620Y7133988D01*
X14377654Y7639984D02*
G01*
X14486620Y7639984D01*
X14377654Y7712628D02*
G01*
X14486620Y7712628D01*
X14429470Y7639984D02*
G01*
X14429470Y7712628D01*
X14377654Y7809402D02*
G01*
X14377654Y7757332D01*
X14424390Y7752252D01*
X14419310Y7757332D01*
X14413976Y7773080D01*
X14413976Y7788574D01*
X14419310Y7804068D01*
X14429470Y7814482D01*
X14445218Y7819816D01*
X14455632Y7819816D01*
X14471126Y7814482D01*
X14481540Y7804068D01*
X14486620Y7788574D01*
X14486620Y7773080D01*
X14481540Y7757332D01*
X14476460Y7752252D01*
X14466046Y7746918D01*
X16144968Y7522667D02*
G01*
X16144968Y7631633D01*
X16072324Y7522667D02*
G01*
X16072324Y7631633D01*
X16144968Y7574483D02*
G01*
X16072324Y7574483D01*
X15975550Y7538161D02*
G01*
X15980884Y7527747D01*
X15996378Y7522667D01*
X16006792Y7522667D01*
X16022286Y7527747D01*
X16032700Y7543495D01*
X16038034Y7569403D01*
X16038034Y7595311D01*
X16032700Y7616139D01*
X16022286Y7626553D01*
X16006792Y7631633D01*
X16001458Y7631633D01*
X15985964Y7626553D01*
X15975550Y7616139D01*
X15970470Y7600645D01*
X15970470Y7595311D01*
X15975550Y7579817D01*
X15985964Y7569403D01*
X16001458Y7564323D01*
X16006792Y7564323D01*
X16022286Y7569403D01*
X16032700Y7579817D01*
X16038034Y7595311D01*
X5475036Y4225457D02*
G01*
X5475036Y4168307D01*
X5475036Y4168307D02*
G01*
X5507802Y4168307D01*
X5528376Y4211995D02*
G01*
X5528376Y4214535D01*
X5531170Y4220123D01*
X5533964Y4222917D01*
X5539298Y4225457D01*
X5550220Y4225457D01*
X5555808Y4222917D01*
X5558348Y4220123D01*
X5561142Y4214535D01*
X5561142Y4209201D01*
X5558348Y4203613D01*
X5553014Y4195485D01*
X5525836Y4168307D01*
X5563936Y4168307D01*
X29603700Y8916415D02*
G01*
X29603700Y8807450D01*
X29603700Y8807450D02*
G01*
X29665929Y8807450D01*
X29700220Y8916415D02*
G01*
X29700220Y8807450D01*
X29700220Y8916415D02*
G01*
X29767784Y8916415D01*
X29700220Y8864600D02*
G01*
X29741875Y8864600D01*
X29700220Y8807450D02*
G01*
X29767784Y8807450D01*
X29802074Y8916415D02*
G01*
X29802074Y8807450D01*
X29802074Y8916415D02*
G01*
X29838650Y8916415D01*
X29854143Y8911336D01*
X29864558Y8900921D01*
X29869638Y8890508D01*
X29874972Y8874760D01*
X29874972Y8848852D01*
X29869638Y8833358D01*
X29864558Y8822944D01*
X29854143Y8812529D01*
X29838650Y8807450D01*
X29802074Y8807450D01*
X29909261Y8895587D02*
G01*
X29919675Y8900921D01*
X29935170Y8916415D01*
X29935170Y8807450D01*
X13308444Y4567681D02*
G01*
X13298030Y4562602D01*
X13287616Y4552187D01*
X13282282Y4541773D01*
X13277202Y4526026D01*
X13277202Y4500118D01*
X13282282Y4484623D01*
X13287616Y4474210D01*
X13298030Y4463795D01*
X13308444Y4458715D01*
X13329272Y4458715D01*
X13339432Y4463795D01*
X13349846Y4474210D01*
X13355180Y4484623D01*
X13360260Y4500118D01*
X13360260Y4526026D01*
X13355180Y4541773D01*
X13349846Y4552187D01*
X13339432Y4562602D01*
X13329272Y4567681D01*
X13308444Y4567681D01*
X13323938Y4479289D02*
G01*
X13355180Y4448302D01*
X13446620Y4567681D02*
G01*
X13394550Y4495037D01*
X13472528Y4495037D01*
X13446620Y4567681D02*
G01*
X13446620Y4458715D01*
X25474150Y6145575D02*
G01*
X25474150Y6073947D01*
X25474150Y6145575D02*
G01*
X25504884Y6145575D01*
X25515044Y6142273D01*
X25518346Y6138717D01*
X25521902Y6131859D01*
X25521902Y6125001D01*
X25518346Y6118397D01*
X25515044Y6114841D01*
X25504884Y6111539D01*
X25474150Y6111539D01*
X25498026Y6111539D02*
G01*
X25521902Y6073947D01*
X25544254Y6131859D02*
G01*
X25551112Y6135415D01*
X25561526Y6145575D01*
X25561526Y6073947D01*
X25448750Y5967775D02*
G01*
X25448750Y5896147D01*
X25448750Y5967775D02*
G01*
X25479484Y5967775D01*
X25489644Y5964473D01*
X25492946Y5960917D01*
X25496502Y5954059D01*
X25496502Y5947201D01*
X25492946Y5940597D01*
X25489644Y5937041D01*
X25479484Y5933739D01*
X25448750Y5933739D01*
X25472626Y5933739D02*
G01*
X25496502Y5896147D01*
X25525712Y5967775D02*
G01*
X25563304Y5967775D01*
X25542730Y5940597D01*
X25553144Y5940597D01*
X25560002Y5937041D01*
X25563304Y5933739D01*
X25566606Y5923325D01*
X25566606Y5916721D01*
X25563304Y5906307D01*
X25556446Y5899703D01*
X25546286Y5896147D01*
X25536126Y5896147D01*
X25525712Y5899703D01*
X25522410Y5903005D01*
X25518854Y5909863D01*
X25026759Y3077832D02*
G01*
X25026759Y3006204D01*
X25026759Y3077832D02*
G01*
X25057493Y3077832D01*
X25067653Y3074530D01*
X25070955Y3070974D01*
X25074511Y3064116D01*
X25074511Y3057258D01*
X25070955Y3050654D01*
X25067653Y3047098D01*
X25057493Y3043796D01*
X25026759Y3043796D01*
X25050635Y3043796D02*
G01*
X25074511Y3006204D01*
X25138011Y3067672D02*
G01*
X25134455Y3074530D01*
X25124295Y3077832D01*
X25117437Y3077832D01*
X25107277Y3074530D01*
X25100419Y3064116D01*
X25096863Y3047098D01*
X25096863Y3030080D01*
X25100419Y3016364D01*
X25107277Y3009760D01*
X25117437Y3006204D01*
X25120739Y3006204D01*
X25131153Y3009760D01*
X25138011Y3016364D01*
X25141313Y3026778D01*
X25141313Y3030080D01*
X25138011Y3040240D01*
X25131153Y3047098D01*
X25120739Y3050654D01*
X25117437Y3050654D01*
X25107277Y3047098D01*
X25100419Y3040240D01*
X25096863Y3030080D01*
X25026762Y3255632D02*
G01*
X25026762Y3184004D01*
X25026762Y3255632D02*
G01*
X25057496Y3255632D01*
X25067656Y3252330D01*
X25070958Y3248774D01*
X25074514Y3241916D01*
X25074514Y3235058D01*
X25070958Y3228454D01*
X25067656Y3224898D01*
X25057496Y3221596D01*
X25026762Y3221596D01*
X25050638Y3221596D02*
G01*
X25074514Y3184004D01*
X25114138Y3255632D02*
G01*
X25103724Y3252330D01*
X25100422Y3245472D01*
X25100422Y3238614D01*
X25103724Y3231756D01*
X25110582Y3228454D01*
X25124298Y3224898D01*
X25134458Y3221596D01*
X25141316Y3214738D01*
X25144618Y3207880D01*
X25144618Y3197720D01*
X25141316Y3190862D01*
X25138014Y3187560D01*
X25127600Y3184004D01*
X25114138Y3184004D01*
X25103724Y3187560D01*
X25100422Y3190862D01*
X25096866Y3197720D01*
X25096866Y3207880D01*
X25100422Y3214738D01*
X25107280Y3221596D01*
X25117440Y3224898D01*
X25131156Y3228454D01*
X25138014Y3231756D01*
X25141316Y3238614D01*
X25141316Y3245472D01*
X25138014Y3252330D01*
X25127600Y3255632D01*
X25114138Y3255632D01*
X15963900Y5445252D02*
G01*
X15963900Y5388102D01*
X15963900Y5445252D02*
G01*
X15988538Y5445252D01*
X15996666Y5442712D01*
X15999459Y5439918D01*
X16002000Y5434329D01*
X16002000Y5428995D01*
X15999459Y5423407D01*
X15996666Y5420868D01*
X15988538Y5418073D01*
X15963900Y5418073D01*
X15982950Y5418073D02*
G01*
X16002000Y5388102D01*
X16020034Y5434329D02*
G01*
X16025622Y5437123D01*
X16033750Y5445252D01*
X16033750Y5388102D01*
X16051784Y5434329D02*
G01*
X16057118Y5437123D01*
X16065245Y5445252D01*
X16065245Y5388102D01*
X16116300Y5445252D02*
G01*
X16116300Y5388102D01*
X16116300Y5445252D02*
G01*
X16140938Y5445252D01*
X16149066Y5442712D01*
X16151859Y5439918D01*
X16154400Y5434329D01*
X16154400Y5428995D01*
X16151859Y5423407D01*
X16149066Y5420868D01*
X16140938Y5418073D01*
X16116300Y5418073D01*
X16135350Y5418073D02*
G01*
X16154400Y5388102D01*
X16172434Y5434329D02*
G01*
X16178022Y5437123D01*
X16186150Y5445252D01*
X16186150Y5388102D01*
X16206724Y5431789D02*
G01*
X16206724Y5434329D01*
X16209518Y5439918D01*
X16212311Y5442712D01*
X16217645Y5445252D01*
X16228568Y5445252D01*
X16234156Y5442712D01*
X16236950Y5439918D01*
X16239490Y5434329D01*
X16239490Y5428995D01*
X16236950Y5423407D01*
X16231361Y5415279D01*
X16204184Y5388102D01*
X16242284Y5388102D01*
X15786100Y5445252D02*
G01*
X15786100Y5388102D01*
X15786100Y5445252D02*
G01*
X15810738Y5445252D01*
X15818866Y5442712D01*
X15821659Y5439918D01*
X15824200Y5434329D01*
X15824200Y5428995D01*
X15821659Y5423407D01*
X15818866Y5420868D01*
X15810738Y5418073D01*
X15786100Y5418073D01*
X15805150Y5418073D02*
G01*
X15824200Y5388102D01*
X15842234Y5434329D02*
G01*
X15847822Y5437123D01*
X15855950Y5445252D01*
X15855950Y5388102D01*
X15879318Y5445252D02*
G01*
X15909290Y5445252D01*
X15893034Y5423407D01*
X15901161Y5423407D01*
X15906750Y5420868D01*
X15909290Y5418073D01*
X15912084Y5409945D01*
X15912084Y5404357D01*
X15909290Y5396229D01*
X15903956Y5390895D01*
X15895827Y5388102D01*
X15887445Y5388102D01*
X15879318Y5390895D01*
X15876524Y5393436D01*
X15873984Y5399023D01*
X13512797Y3898392D02*
G01*
X13512797Y3826763D01*
X13512797Y3898392D02*
G01*
X13543531Y3898392D01*
X13553691Y3895089D01*
X13556993Y3891534D01*
X13560549Y3884676D01*
X13560549Y3877818D01*
X13556993Y3871213D01*
X13553691Y3867657D01*
X13543531Y3864355D01*
X13512797Y3864355D01*
X13536673Y3864355D02*
G01*
X13560549Y3826763D01*
X13586457Y3881373D02*
G01*
X13586457Y3884676D01*
X13589759Y3891534D01*
X13593315Y3895089D01*
X13600173Y3898392D01*
X13613635Y3898392D01*
X13620493Y3895089D01*
X13624049Y3891534D01*
X13627351Y3884676D01*
X13627351Y3877818D01*
X13624049Y3871213D01*
X13617191Y3860800D01*
X13582901Y3826763D01*
X13630653Y3826763D01*
X13701011Y3898392D02*
G01*
X13666975Y3826763D01*
X13653259Y3898392D02*
G01*
X13701011Y3898392D01*
X1892302Y5828792D02*
G01*
X1892302Y5757163D01*
X1892302Y5828792D02*
G01*
X1923036Y5828792D01*
X1933196Y5825489D01*
X1936498Y5821934D01*
X1940054Y5815076D01*
X1940054Y5808218D01*
X1936498Y5801613D01*
X1933196Y5798057D01*
X1923036Y5794755D01*
X1892302Y5794755D01*
X1916178Y5794755D02*
G01*
X1940054Y5757163D01*
X1969264Y5828792D02*
G01*
X2006856Y5828792D01*
X1986282Y5801613D01*
X1996696Y5801613D01*
X2003554Y5798057D01*
X2006856Y5794755D01*
X2010158Y5784342D01*
X2010158Y5777737D01*
X2006856Y5767323D01*
X1999998Y5760720D01*
X1989838Y5757163D01*
X1979678Y5757163D01*
X1969264Y5760720D01*
X1965962Y5764021D01*
X1962406Y5770879D01*
X2032764Y5815076D02*
G01*
X2039622Y5818631D01*
X2049782Y5828792D01*
X2049782Y5757163D01*
X1869998Y6290678D02*
G01*
X1869998Y6219050D01*
X1869998Y6290678D02*
G01*
X1900732Y6290678D01*
X1910892Y6287376D01*
X1914194Y6283820D01*
X1917750Y6276962D01*
X1917750Y6270104D01*
X1914194Y6263500D01*
X1910892Y6259944D01*
X1900732Y6256642D01*
X1869998Y6256642D01*
X1893874Y6256642D02*
G01*
X1917750Y6219050D01*
X1946960Y6290678D02*
G01*
X1984552Y6290678D01*
X1963978Y6263500D01*
X1974392Y6263500D01*
X1981250Y6259944D01*
X1984552Y6256642D01*
X1987854Y6246228D01*
X1987854Y6239624D01*
X1984552Y6229210D01*
X1977694Y6222606D01*
X1967534Y6219050D01*
X1957374Y6219050D01*
X1946960Y6222606D01*
X1943658Y6225908D01*
X1940102Y6232766D01*
X2013762Y6273660D02*
G01*
X2013762Y6276962D01*
X2017318Y6283820D01*
X2020620Y6287376D01*
X2027478Y6290678D01*
X2041194Y6290678D01*
X2048052Y6287376D01*
X2051354Y6283820D01*
X2054656Y6276962D01*
X2054656Y6270104D01*
X2051354Y6263500D01*
X2044496Y6253086D01*
X2010460Y6219050D01*
X2058212Y6219050D01*
X5055041Y3995574D02*
G01*
X5055041Y3924200D01*
X5055041Y3995574D02*
G01*
X5085775Y3995574D01*
X5095935Y3992272D01*
X5099237Y3988970D01*
X5102793Y3982112D01*
X5102793Y3975254D01*
X5099237Y3968396D01*
X5095935Y3965094D01*
X5085775Y3961538D01*
X5055041Y3961538D01*
X5078917Y3961538D02*
G01*
X5102793Y3924200D01*
X5132003Y3995574D02*
G01*
X5169595Y3995574D01*
X5149021Y3968396D01*
X5159435Y3968396D01*
X5166039Y3965094D01*
X5169595Y3961538D01*
X5172897Y3951378D01*
X5172897Y3944520D01*
X5169595Y3934360D01*
X5162737Y3927502D01*
X5152577Y3924200D01*
X5142163Y3924200D01*
X5132003Y3927502D01*
X5128701Y3930804D01*
X5125145Y3937662D01*
X5202361Y3995574D02*
G01*
X5239699Y3995574D01*
X5219379Y3968396D01*
X5229539Y3968396D01*
X5236397Y3965094D01*
X5239699Y3961538D01*
X5243255Y3951378D01*
X5243255Y3944520D01*
X5239699Y3934360D01*
X5232841Y3927502D01*
X5222681Y3924200D01*
X5212521Y3924200D01*
X5202361Y3927502D01*
X5198805Y3930804D01*
X5195503Y3937662D01*
X4145025Y4300728D02*
G01*
X4145025Y4229100D01*
X4145025Y4300728D02*
G01*
X4175759Y4300728D01*
X4185920Y4297171D01*
X4189222Y4293870D01*
X4192777Y4287012D01*
X4192777Y4280154D01*
X4189222Y4273295D01*
X4185920Y4269994D01*
X4175759Y4266692D01*
X4145025Y4266692D01*
X4168902Y4266692D02*
G01*
X4192777Y4229100D01*
X4221988Y4300728D02*
G01*
X4259579Y4300728D01*
X4239006Y4273295D01*
X4249420Y4273295D01*
X4256024Y4269994D01*
X4259579Y4266692D01*
X4262881Y4256278D01*
X4262881Y4249420D01*
X4259579Y4239260D01*
X4252722Y4232402D01*
X4242561Y4229100D01*
X4232147Y4229100D01*
X4221988Y4232402D01*
X4218686Y4235957D01*
X4215129Y4242815D01*
X4319524Y4300728D02*
G01*
X4285488Y4252976D01*
X4336541Y4252976D01*
X4319524Y4300728D02*
G01*
X4319524Y4229100D01*
X27861750Y6082075D02*
G01*
X27861750Y6010447D01*
X27861750Y6082075D02*
G01*
X27892484Y6082075D01*
X27902644Y6078773D01*
X27905946Y6075217D01*
X27909502Y6068359D01*
X27909502Y6061501D01*
X27905946Y6054897D01*
X27902644Y6051341D01*
X27892484Y6048039D01*
X27861750Y6048039D01*
X27885626Y6048039D02*
G01*
X27909502Y6010447D01*
X27935410Y6065057D02*
G01*
X27935410Y6068359D01*
X27938712Y6075217D01*
X27942268Y6078773D01*
X27949126Y6082075D01*
X27962588Y6082075D01*
X27969446Y6078773D01*
X27973002Y6075217D01*
X27976304Y6068359D01*
X27976304Y6061501D01*
X27973002Y6054897D01*
X27966144Y6044483D01*
X27931854Y6010447D01*
X27979606Y6010447D01*
X27861750Y5866175D02*
G01*
X27861750Y5794547D01*
X27861750Y5866175D02*
G01*
X27892484Y5866175D01*
X27902644Y5862873D01*
X27905946Y5859317D01*
X27909502Y5852459D01*
X27909502Y5845601D01*
X27905946Y5838997D01*
X27902644Y5835441D01*
X27892484Y5832139D01*
X27861750Y5832139D01*
X27885626Y5832139D02*
G01*
X27909502Y5794547D01*
X27966144Y5866175D02*
G01*
X27931854Y5818423D01*
X27983162Y5818423D01*
X27966144Y5866175D02*
G01*
X27966144Y5794547D01*
X28058148Y2996084D02*
G01*
X28058148Y2924456D01*
X28058148Y2996084D02*
G01*
X28088882Y2996084D01*
X28099042Y2992782D01*
X28102344Y2989226D01*
X28105900Y2982368D01*
X28105900Y2975510D01*
X28102344Y2968906D01*
X28099042Y2965350D01*
X28088882Y2962048D01*
X28058148Y2962048D01*
X28082024Y2962048D02*
G01*
X28105900Y2924456D01*
X28169400Y2996084D02*
G01*
X28135110Y2996084D01*
X28131808Y2965350D01*
X28135110Y2968906D01*
X28145524Y2972208D01*
X28155684Y2972208D01*
X28165844Y2968906D01*
X28172702Y2962048D01*
X28176004Y2951634D01*
X28176004Y2945030D01*
X28172702Y2934616D01*
X28165844Y2928012D01*
X28155684Y2924456D01*
X28145524Y2924456D01*
X28135110Y2928012D01*
X28131808Y2931314D01*
X28128252Y2938172D01*
X28058148Y3199284D02*
G01*
X28058148Y3127656D01*
X28058148Y3199284D02*
G01*
X28088882Y3199284D01*
X28099042Y3195982D01*
X28102344Y3192426D01*
X28105900Y3185568D01*
X28105900Y3178710D01*
X28102344Y3172106D01*
X28099042Y3168550D01*
X28088882Y3165248D01*
X28058148Y3165248D01*
X28082024Y3165248D02*
G01*
X28105900Y3127656D01*
X28176004Y3199284D02*
G01*
X28141968Y3127656D01*
X28128252Y3199284D02*
G01*
X28176004Y3199284D01*
X16065500Y2844281D02*
G01*
X16065500Y2772653D01*
X16065500Y2844281D02*
G01*
X16096234Y2844281D01*
X16106393Y2840979D01*
X16109695Y2837423D01*
X16113252Y2830565D01*
X16113252Y2823707D01*
X16109695Y2817103D01*
X16106393Y2813547D01*
X16096234Y2810245D01*
X16065500Y2810245D01*
X16089375Y2810245D02*
G01*
X16113252Y2772653D01*
X16180054Y2820405D02*
G01*
X16176752Y2810245D01*
X16169893Y2803387D01*
X16159479Y2800085D01*
X16156177Y2800085D01*
X16146018Y2803387D01*
X16139159Y2810245D01*
X16135604Y2820405D01*
X16135604Y2823707D01*
X16139159Y2834121D01*
X16146018Y2840979D01*
X16156177Y2844281D01*
X16159479Y2844281D01*
X16169893Y2840979D01*
X16176752Y2834121D01*
X16180054Y2820405D01*
X16180054Y2803387D01*
X16176752Y2786369D01*
X16169893Y2776209D01*
X16159479Y2772653D01*
X16152875Y2772653D01*
X16142461Y2776209D01*
X16139159Y2782813D01*
X15836849Y2844292D02*
G01*
X15836849Y2772663D01*
X15836849Y2844292D02*
G01*
X15867583Y2844292D01*
X15877743Y2840989D01*
X15881299Y2837434D01*
X15884601Y2830576D01*
X15884601Y2823718D01*
X15881299Y2817113D01*
X15877743Y2813557D01*
X15867583Y2810255D01*
X15836849Y2810255D01*
X15860725Y2810255D02*
G01*
X15884601Y2772663D01*
X15907207Y2830576D02*
G01*
X15914065Y2834131D01*
X15924225Y2844292D01*
X15924225Y2772663D01*
X15967151Y2844292D02*
G01*
X15956991Y2840989D01*
X15950133Y2830576D01*
X15946577Y2813557D01*
X15946577Y2803397D01*
X15950133Y2786379D01*
X15956991Y2776220D01*
X15967151Y2772663D01*
X15974009Y2772663D01*
X15984169Y2776220D01*
X15991027Y2786379D01*
X15994329Y2803397D01*
X15994329Y2813557D01*
X15991027Y2830576D01*
X15984169Y2840989D01*
X15974009Y2844292D01*
X15967151Y2844292D01*
X18148300Y3936492D02*
G01*
X18148300Y3864863D01*
X18148300Y3936492D02*
G01*
X18179034Y3936492D01*
X18189193Y3933189D01*
X18192495Y3929634D01*
X18196052Y3922776D01*
X18196052Y3915918D01*
X18192495Y3909313D01*
X18189193Y3905757D01*
X18179034Y3902455D01*
X18148300Y3902455D01*
X18172175Y3902455D02*
G01*
X18196052Y3864863D01*
X18225261Y3936492D02*
G01*
X18262854Y3936492D01*
X18242279Y3909313D01*
X18252693Y3909313D01*
X18259552Y3905757D01*
X18262854Y3902455D01*
X18266156Y3892042D01*
X18266156Y3885437D01*
X18262854Y3875023D01*
X18255995Y3868420D01*
X18245836Y3864863D01*
X18235675Y3864863D01*
X18225261Y3868420D01*
X18221959Y3871721D01*
X18218404Y3878579D01*
X18305779Y3936492D02*
G01*
X18295620Y3933189D01*
X18292063Y3926331D01*
X18292063Y3919473D01*
X18295620Y3912615D01*
X18302477Y3909313D01*
X18315940Y3905757D01*
X18326354Y3902455D01*
X18332958Y3895597D01*
X18336513Y3888739D01*
X18336513Y3878579D01*
X18332958Y3871721D01*
X18329656Y3868420D01*
X18319495Y3864863D01*
X18305779Y3864863D01*
X18295620Y3868420D01*
X18292063Y3871721D01*
X18288761Y3878579D01*
X18288761Y3888739D01*
X18292063Y3895597D01*
X18298922Y3902455D01*
X18309081Y3905757D01*
X18322798Y3909313D01*
X18329656Y3912615D01*
X18332958Y3919473D01*
X18332958Y3926331D01*
X18329656Y3933189D01*
X18319495Y3936492D01*
X18305779Y3936492D01*
X24874349Y3712832D02*
G01*
X24874349Y3641204D01*
X24874349Y3712832D02*
G01*
X24905083Y3712832D01*
X24915243Y3709530D01*
X24918799Y3705974D01*
X24922101Y3699116D01*
X24922101Y3692258D01*
X24918799Y3685654D01*
X24915243Y3682098D01*
X24905083Y3678796D01*
X24874349Y3678796D01*
X24898225Y3678796D02*
G01*
X24922101Y3641204D01*
X24951311Y3712832D02*
G01*
X24988903Y3712832D01*
X24968329Y3685654D01*
X24978743Y3685654D01*
X24985601Y3682098D01*
X24988903Y3678796D01*
X24992205Y3668382D01*
X24992205Y3661778D01*
X24988903Y3651364D01*
X24982045Y3644760D01*
X24971885Y3641204D01*
X24961725Y3641204D01*
X24951311Y3644760D01*
X24948009Y3648062D01*
X24944707Y3654920D01*
X25059007Y3688956D02*
G01*
X25055705Y3678796D01*
X25048847Y3671938D01*
X25038687Y3668382D01*
X25035385Y3668382D01*
X25024971Y3671938D01*
X25018113Y3678796D01*
X25014811Y3688956D01*
X25014811Y3692258D01*
X25018113Y3702672D01*
X25024971Y3709530D01*
X25035385Y3712832D01*
X25038687Y3712832D01*
X25048847Y3709530D01*
X25055705Y3702672D01*
X25059007Y3688956D01*
X25059007Y3671938D01*
X25055705Y3654920D01*
X25048847Y3644760D01*
X25038687Y3641204D01*
X25031829Y3641204D01*
X25021669Y3644760D01*
X25018113Y3651364D01*
X25093150Y6691675D02*
G01*
X25093150Y6620047D01*
X25093150Y6691675D02*
G01*
X25123884Y6691675D01*
X25134044Y6688373D01*
X25137346Y6684817D01*
X25140902Y6677959D01*
X25140902Y6671101D01*
X25137346Y6664497D01*
X25134044Y6660941D01*
X25123884Y6657639D01*
X25093150Y6657639D01*
X25117026Y6657639D02*
G01*
X25140902Y6620047D01*
X25197544Y6691675D02*
G01*
X25163254Y6643923D01*
X25214562Y6643923D01*
X25197544Y6691675D02*
G01*
X25197544Y6620047D01*
X25257488Y6691675D02*
G01*
X25247328Y6688373D01*
X25240470Y6677959D01*
X25236914Y6660941D01*
X25236914Y6650781D01*
X25240470Y6633763D01*
X25247328Y6623603D01*
X25257488Y6620047D01*
X25264346Y6620047D01*
X25274506Y6623603D01*
X25281364Y6633763D01*
X25284666Y6650781D01*
X25284666Y6660941D01*
X25281364Y6677959D01*
X25274506Y6688373D01*
X25264346Y6691675D01*
X25257488Y6691675D01*
X12814300Y4835664D02*
G01*
X12814300Y4778514D01*
X12814300Y4835664D02*
G01*
X12838938Y4835664D01*
X12847065Y4833124D01*
X12849859Y4830330D01*
X12852400Y4824742D01*
X12852400Y4819408D01*
X12849859Y4813820D01*
X12847065Y4811280D01*
X12838938Y4808486D01*
X12814300Y4808486D01*
X12833350Y4808486D02*
G01*
X12852400Y4778514D01*
X12873227Y4822202D02*
G01*
X12873227Y4824742D01*
X12876022Y4830330D01*
X12878561Y4833124D01*
X12884150Y4835664D01*
X12895072Y4835664D01*
X12900406Y4833124D01*
X12903200Y4830330D01*
X12905993Y4824742D01*
X12905993Y4819408D01*
X12903200Y4813820D01*
X12897865Y4805692D01*
X12870434Y4778514D01*
X12908788Y4778514D01*
X12940284Y4835664D02*
G01*
X12932156Y4833124D01*
X12929361Y4827536D01*
X12929361Y4822202D01*
X12932156Y4816614D01*
X12937490Y4813820D01*
X12948411Y4811280D01*
X12956540Y4808486D01*
X12962127Y4802898D01*
X12964922Y4797564D01*
X12964922Y4789436D01*
X12962127Y4783848D01*
X12959334Y4781308D01*
X12951206Y4778514D01*
X12940284Y4778514D01*
X12932156Y4781308D01*
X12929361Y4783848D01*
X12926568Y4789436D01*
X12926568Y4797564D01*
X12929361Y4802898D01*
X12934950Y4808486D01*
X12943077Y4811280D01*
X12954000Y4813820D01*
X12959334Y4816614D01*
X12962127Y4822202D01*
X12962127Y4827536D01*
X12959334Y4833124D01*
X12951206Y4835664D01*
X12940284Y4835664D01*
X15348582Y1508089D02*
G01*
X15348582Y1436461D01*
X15348582Y1508089D02*
G01*
X15379316Y1508089D01*
X15389476Y1504787D01*
X15392778Y1501231D01*
X15396334Y1494373D01*
X15396334Y1487515D01*
X15392778Y1480911D01*
X15389476Y1477355D01*
X15379316Y1474053D01*
X15348582Y1474053D01*
X15372458Y1474053D02*
G01*
X15396334Y1436461D01*
X15422242Y1491071D02*
G01*
X15422242Y1494373D01*
X15425544Y1501231D01*
X15429100Y1504787D01*
X15435958Y1508089D01*
X15449420Y1508089D01*
X15456278Y1504787D01*
X15459580Y1501231D01*
X15463136Y1494373D01*
X15463136Y1487515D01*
X15459580Y1480911D01*
X15452976Y1470497D01*
X15418686Y1436461D01*
X15466438Y1436461D01*
X15533240Y1484213D02*
G01*
X15529938Y1474053D01*
X15523080Y1467195D01*
X15512920Y1463639D01*
X15509364Y1463639D01*
X15499204Y1467195D01*
X15492346Y1474053D01*
X15489044Y1484213D01*
X15489044Y1487515D01*
X15492346Y1497929D01*
X15499204Y1504787D01*
X15509364Y1508089D01*
X15512920Y1508089D01*
X15523080Y1504787D01*
X15529938Y1497929D01*
X15533240Y1484213D01*
X15533240Y1467195D01*
X15529938Y1450177D01*
X15523080Y1440017D01*
X15512920Y1436461D01*
X15506062Y1436461D01*
X15495902Y1440017D01*
X15492346Y1446621D01*
X15348582Y1698589D02*
G01*
X15348582Y1626961D01*
X15348582Y1698589D02*
G01*
X15379316Y1698589D01*
X15389476Y1695287D01*
X15392778Y1691731D01*
X15396334Y1684873D01*
X15396334Y1678015D01*
X15392778Y1671411D01*
X15389476Y1667855D01*
X15379316Y1664553D01*
X15348582Y1664553D01*
X15372458Y1664553D02*
G01*
X15396334Y1626961D01*
X15425544Y1698589D02*
G01*
X15463136Y1698589D01*
X15442562Y1671411D01*
X15452976Y1671411D01*
X15459580Y1667855D01*
X15463136Y1664553D01*
X15466438Y1654139D01*
X15466438Y1647535D01*
X15463136Y1637121D01*
X15456278Y1630517D01*
X15446118Y1626961D01*
X15435958Y1626961D01*
X15425544Y1630517D01*
X15422242Y1633819D01*
X15418686Y1640677D01*
X15509364Y1698589D02*
G01*
X15499204Y1695287D01*
X15492346Y1684873D01*
X15489044Y1667855D01*
X15489044Y1657695D01*
X15492346Y1640677D01*
X15499204Y1630517D01*
X15509364Y1626961D01*
X15516222Y1626961D01*
X15526636Y1630517D01*
X15533240Y1640677D01*
X15536796Y1657695D01*
X15536796Y1667855D01*
X15533240Y1684873D01*
X15526636Y1695287D01*
X15516222Y1698589D01*
X15509364Y1698589D01*
X13535050Y8540696D02*
G01*
X13535050Y8473894D01*
X13535050Y8540696D02*
G01*
X13563498Y8540696D01*
X13573150Y8537394D01*
X13576452Y8534346D01*
X13579500Y8527996D01*
X13579500Y8521646D01*
X13576452Y8515042D01*
X13573150Y8511994D01*
X13563498Y8508692D01*
X13535050Y8508692D01*
X13557148Y8508692D02*
G01*
X13579500Y8473894D01*
X13606932Y8540696D02*
G01*
X13641984Y8540696D01*
X13622680Y8515042D01*
X13632332Y8515042D01*
X13638682Y8511994D01*
X13641984Y8508692D01*
X13645032Y8499294D01*
X13645032Y8492944D01*
X13641984Y8483292D01*
X13635634Y8476942D01*
X13625982Y8473894D01*
X13616330Y8473894D01*
X13606932Y8476942D01*
X13603630Y8480244D01*
X13600582Y8486594D01*
X13704214Y8540696D02*
G01*
X13672464Y8540696D01*
X13669162Y8511994D01*
X13672464Y8515042D01*
X13681862Y8518344D01*
X13691514Y8518344D01*
X13701166Y8515042D01*
X13707516Y8508692D01*
X13710564Y8499294D01*
X13710564Y8492944D01*
X13707516Y8483292D01*
X13701166Y8476942D01*
X13691514Y8473894D01*
X13681862Y8473894D01*
X13672464Y8476942D01*
X13669162Y8480244D01*
X13666114Y8486594D01*
X13010012Y8530554D02*
G01*
X13010012Y8473150D01*
X13010012Y8530554D02*
G01*
X13034396Y8530554D01*
X13042778Y8527760D01*
X13045318Y8524966D01*
X13048112Y8519632D01*
X13048112Y8514044D01*
X13045318Y8508710D01*
X13042778Y8505916D01*
X13034396Y8503376D01*
X13010012Y8503376D01*
X13029062Y8503376D02*
G01*
X13048112Y8473150D01*
X13071734Y8530554D02*
G01*
X13101706Y8530554D01*
X13085196Y8508710D01*
X13093324Y8508710D01*
X13098912Y8505916D01*
X13101706Y8503376D01*
X13104246Y8494994D01*
X13104246Y8489660D01*
X13101706Y8481532D01*
X13096118Y8475944D01*
X13087990Y8473150D01*
X13079862Y8473150D01*
X13071734Y8475944D01*
X13068940Y8478738D01*
X13066146Y8484072D01*
X13155046Y8522426D02*
G01*
X13152252Y8527760D01*
X13144124Y8530554D01*
X13138790Y8530554D01*
X13130408Y8527760D01*
X13125074Y8519632D01*
X13122280Y8505916D01*
X13122280Y8492454D01*
X13125074Y8481532D01*
X13130408Y8475944D01*
X13138790Y8473150D01*
X13141330Y8473150D01*
X13149712Y8475944D01*
X13155046Y8481532D01*
X13157840Y8489660D01*
X13157840Y8492454D01*
X13155046Y8500582D01*
X13149712Y8505916D01*
X13141330Y8508710D01*
X13138790Y8508710D01*
X13130408Y8505916D01*
X13125074Y8500582D01*
X13122280Y8492454D01*
X29133800Y8800337D02*
G01*
X29133800Y8704834D01*
X29133800Y8800337D02*
G01*
X29174693Y8800337D01*
X29188409Y8795765D01*
X29192982Y8791194D01*
X29197554Y8782304D01*
X29197554Y8773160D01*
X29192982Y8764015D01*
X29188409Y8759444D01*
X29174693Y8754871D01*
X29133800Y8754871D01*
X29165550Y8754871D02*
G01*
X29197554Y8704834D01*
X29236415Y8800337D02*
G01*
X29286454Y8800337D01*
X29259275Y8764015D01*
X29272991Y8764015D01*
X29281882Y8759444D01*
X29286454Y8754871D01*
X29291025Y8741410D01*
X29291025Y8732265D01*
X29286454Y8718550D01*
X29277309Y8709405D01*
X29263848Y8704834D01*
X29250132Y8704834D01*
X29236415Y8709405D01*
X29232098Y8713978D01*
X29227525Y8723121D01*
X29384752Y8800337D02*
G01*
X29339286Y8704834D01*
X29320998Y8800337D02*
G01*
X29384752Y8800337D01*
X3898544Y1492412D02*
G01*
X3888130Y1481998D01*
X3883050Y1466504D01*
X3883050Y1445676D01*
X3888130Y1430182D01*
X3898544Y1419768D01*
X3908958Y1419768D01*
X3919372Y1424848D01*
X3924706Y1430182D01*
X3929786Y1440596D01*
X3940200Y1471838D01*
X3945280Y1481998D01*
X3950614Y1487332D01*
X3961028Y1492412D01*
X3976522Y1492412D01*
X3986936Y1481998D01*
X3992016Y1466504D01*
X3992016Y1445676D01*
X3986936Y1430182D01*
X3976522Y1419768D01*
X3883050Y1526702D02*
G01*
X3992016Y1552864D01*
X3883050Y1578772D02*
G01*
X3992016Y1552864D01*
X3883050Y1578772D02*
G01*
X3992016Y1604680D01*
X3883050Y1630588D02*
G01*
X3992016Y1604680D01*
X3903878Y1664878D02*
G01*
X3898544Y1675292D01*
X3883050Y1691040D01*
X3992016Y1691040D01*
X14154769Y2562189D02*
G01*
X14154769Y2511135D01*
X14158071Y2500721D01*
X14164929Y2494117D01*
X14175343Y2490561D01*
X14181947Y2490561D01*
X14192361Y2494117D01*
X14198965Y2500721D01*
X14202521Y2511135D01*
X14202521Y2562189D01*
X14224873Y2548473D02*
G01*
X14231731Y2552029D01*
X14242145Y2562189D01*
X14242145Y2490561D01*
X14285071Y2562189D02*
G01*
X14274657Y2558887D01*
X14268053Y2548473D01*
X14264497Y2531455D01*
X14264497Y2521295D01*
X14268053Y2504277D01*
X14274657Y2494117D01*
X14285071Y2490561D01*
X14291929Y2490561D01*
X14302089Y2494117D01*
X14308947Y2504277D01*
X14312249Y2521295D01*
X14312249Y2531455D01*
X14308947Y2548473D01*
X14302089Y2558887D01*
X14291929Y2562189D01*
X14285071Y2562189D01*
X14319869Y2003135D02*
G01*
X14319869Y1935063D01*
X14324441Y1921347D01*
X14333585Y1912203D01*
X14347047Y1907631D01*
X14356191Y1907631D01*
X14369907Y1912203D01*
X14379051Y1921347D01*
X14383623Y1935063D01*
X14383623Y2003135D01*
X14472523Y1971385D02*
G01*
X14467951Y1957669D01*
X14459061Y1948779D01*
X14445345Y1944207D01*
X14440773Y1944207D01*
X14427057Y1948779D01*
X14418167Y1957669D01*
X14413595Y1971385D01*
X14413595Y1975957D01*
X14418167Y1989673D01*
X14427057Y1998563D01*
X14440773Y2003135D01*
X14445345Y2003135D01*
X14459061Y1998563D01*
X14467951Y1989673D01*
X14472523Y1971385D01*
X14472523Y1948779D01*
X14467951Y1925919D01*
X14459061Y1912203D01*
X14445345Y1907631D01*
X14436201Y1907631D01*
X14422485Y1912203D01*
X14418167Y1921347D01*
X4854978Y5555315D02*
G01*
X4854978Y5477337D01*
X4860058Y5461843D01*
X4870472Y5451429D01*
X4886220Y5446349D01*
X4896634Y5446349D01*
X4912128Y5451429D01*
X4922542Y5461843D01*
X4927622Y5477337D01*
X4927622Y5555315D01*
X4961912Y5534487D02*
G01*
X4972326Y5539821D01*
X4988074Y5555315D01*
X4988074Y5446349D01*
X5022364Y5534487D02*
G01*
X5032778Y5539821D01*
X5048272Y5555315D01*
X5048272Y5446349D01*
X12934980Y7470310D02*
G01*
X12934980Y7392332D01*
X12940060Y7376838D01*
X12950474Y7366424D01*
X12966222Y7361344D01*
X12976636Y7361344D01*
X12992130Y7366424D01*
X13002544Y7376838D01*
X13007624Y7392332D01*
X13007624Y7470310D01*
X13041914Y7449482D02*
G01*
X13052328Y7454816D01*
X13068076Y7470310D01*
X13068076Y7361344D01*
X13107446Y7444402D02*
G01*
X13107446Y7449482D01*
X13112780Y7459896D01*
X13117860Y7465230D01*
X13128274Y7470310D01*
X13149102Y7470310D01*
X13159516Y7465230D01*
X13164596Y7459896D01*
X13169930Y7449482D01*
X13169930Y7439068D01*
X13164596Y7428654D01*
X13154182Y7413160D01*
X13102366Y7361344D01*
X13175010Y7361344D01*
X3679812Y9030715D02*
G01*
X3679812Y8952737D01*
X3684892Y8937244D01*
X3695306Y8926829D01*
X3711054Y8921750D01*
X3721468Y8921750D01*
X3736962Y8926829D01*
X3747376Y8937244D01*
X3752456Y8952737D01*
X3752456Y9030715D01*
X3786746Y9009887D02*
G01*
X3797160Y9015221D01*
X3812908Y9030715D01*
X3812908Y8921750D01*
X3857612Y9030715D02*
G01*
X3914762Y9030715D01*
X3883520Y8989060D01*
X3899014Y8989060D01*
X3909428Y8983979D01*
X3914762Y8978900D01*
X3919842Y8963152D01*
X3919842Y8952737D01*
X3914762Y8937244D01*
X3904348Y8926829D01*
X3888600Y8921750D01*
X3873106Y8921750D01*
X3857612Y8926829D01*
X3852278Y8931910D01*
X3847198Y8942324D01*
X29282242Y1072299D02*
G01*
X29360220Y1072299D01*
X29375714Y1077379D01*
X29386128Y1087793D01*
X29391208Y1103541D01*
X29391208Y1113955D01*
X29386128Y1129449D01*
X29375714Y1139863D01*
X29360220Y1144943D01*
X29282242Y1144943D01*
X29297736Y1252131D02*
G01*
X29287322Y1241717D01*
X29282242Y1225969D01*
X29282242Y1205395D01*
X29287322Y1189647D01*
X29297736Y1179233D01*
X29308150Y1179233D01*
X29318564Y1184567D01*
X29323898Y1189647D01*
X29328978Y1200061D01*
X29339392Y1231303D01*
X29344472Y1241717D01*
X29349806Y1246797D01*
X29360220Y1252131D01*
X29375714Y1252131D01*
X29386128Y1241717D01*
X29391208Y1225969D01*
X29391208Y1205395D01*
X29386128Y1189647D01*
X29375714Y1179233D01*
X29282242Y1286421D02*
G01*
X29391208Y1286421D01*
X29282242Y1286421D02*
G01*
X29282242Y1333157D01*
X29287322Y1348651D01*
X29292656Y1353985D01*
X29303070Y1359065D01*
X29313484Y1359065D01*
X29323898Y1353985D01*
X29328978Y1348651D01*
X29334058Y1333157D01*
X29334058Y1286421D02*
G01*
X29334058Y1333157D01*
X29339392Y1348651D01*
X29344472Y1353985D01*
X29354886Y1359065D01*
X29370634Y1359065D01*
X29381048Y1353985D01*
X29386128Y1348651D01*
X29391208Y1333157D01*
X29391208Y1286421D01*
X29303070Y1393355D02*
G01*
X29297736Y1403769D01*
X29282242Y1419263D01*
X29391208Y1419263D01*
X1427398Y1290398D02*
G01*
X1349420Y1290398D01*
X1333926Y1285318D01*
X1323512Y1274904D01*
X1318432Y1259156D01*
X1318432Y1248742D01*
X1323512Y1233248D01*
X1333926Y1222834D01*
X1349420Y1217754D01*
X1427398Y1217754D01*
X1411904Y1110566D02*
G01*
X1422318Y1120980D01*
X1427398Y1136728D01*
X1427398Y1157302D01*
X1422318Y1173050D01*
X1411904Y1183464D01*
X1401490Y1183464D01*
X1391076Y1178130D01*
X1385742Y1173050D01*
X1380662Y1162636D01*
X1370248Y1131394D01*
X1365168Y1120980D01*
X1359834Y1115900D01*
X1349420Y1110566D01*
X1333926Y1110566D01*
X1323512Y1120980D01*
X1318432Y1136728D01*
X1318432Y1157302D01*
X1323512Y1173050D01*
X1333926Y1183464D01*
X1427398Y1076276D02*
G01*
X1318432Y1076276D01*
X1427398Y1076276D02*
G01*
X1427398Y1029540D01*
X1422318Y1014046D01*
X1416984Y1008712D01*
X1406570Y1003632D01*
X1396156Y1003632D01*
X1385742Y1008712D01*
X1380662Y1014046D01*
X1375582Y1029540D01*
X1375582Y1076276D02*
G01*
X1375582Y1029540D01*
X1370248Y1014046D01*
X1365168Y1008712D01*
X1354754Y1003632D01*
X1339006Y1003632D01*
X1328592Y1008712D01*
X1323512Y1014046D01*
X1318432Y1029540D01*
X1318432Y1076276D01*
X1401490Y964008D02*
G01*
X1406570Y964008D01*
X1416984Y958928D01*
X1422318Y953848D01*
X1427398Y943434D01*
X1427398Y922606D01*
X1422318Y912192D01*
X1416984Y906858D01*
X1406570Y901778D01*
X1396156Y901778D01*
X1385742Y906858D01*
X1370248Y917272D01*
X1318432Y969342D01*
X1318432Y896698D01*
X1002997Y3048896D02*
G01*
X1002997Y2970918D01*
X1008077Y2955424D01*
X1018491Y2945010D01*
X1034239Y2939930D01*
X1044653Y2939930D01*
X1060147Y2945010D01*
X1070561Y2955424D01*
X1075641Y2970918D01*
X1075641Y3048896D01*
X1182829Y3033402D02*
G01*
X1172415Y3043816D01*
X1156667Y3048896D01*
X1136093Y3048896D01*
X1120345Y3043816D01*
X1109931Y3033402D01*
X1109931Y3022988D01*
X1115265Y3012574D01*
X1120345Y3007240D01*
X1130759Y3002160D01*
X1162001Y2991746D01*
X1172415Y2986666D01*
X1177495Y2981332D01*
X1182829Y2970918D01*
X1182829Y2955424D01*
X1172415Y2945010D01*
X1156667Y2939930D01*
X1136093Y2939930D01*
X1120345Y2945010D01*
X1109931Y2955424D01*
X1217119Y3048896D02*
G01*
X1217119Y2939930D01*
X1217119Y3048896D02*
G01*
X1263855Y3048896D01*
X1279349Y3043816D01*
X1284683Y3038482D01*
X1289763Y3028068D01*
X1289763Y3017654D01*
X1284683Y3007240D01*
X1279349Y3002160D01*
X1263855Y2997080D01*
X1217119Y2997080D02*
G01*
X1263855Y2997080D01*
X1279349Y2991746D01*
X1284683Y2986666D01*
X1289763Y2976252D01*
X1289763Y2960504D01*
X1284683Y2950090D01*
X1279349Y2945010D01*
X1263855Y2939930D01*
X1217119Y2939930D01*
X1334467Y3048896D02*
G01*
X1391617Y3048896D01*
X1360375Y3007240D01*
X1376123Y3007240D01*
X1386537Y3002160D01*
X1391617Y2997080D01*
X1396697Y2981332D01*
X1396697Y2970918D01*
X1391617Y2955424D01*
X1381203Y2945010D01*
X1365709Y2939930D01*
X1349961Y2939930D01*
X1334467Y2945010D01*
X1329387Y2950090D01*
X1324053Y2960504D01*
X29399242Y6261100D02*
G01*
X29477220Y6261100D01*
X29492714Y6266179D01*
X29503128Y6276594D01*
X29508208Y6292342D01*
X29508208Y6302755D01*
X29503128Y6318250D01*
X29492714Y6328663D01*
X29477220Y6333744D01*
X29399242Y6333744D01*
X29414736Y6440931D02*
G01*
X29404322Y6430518D01*
X29399242Y6414770D01*
X29399242Y6394195D01*
X29404322Y6378447D01*
X29414736Y6368034D01*
X29425150Y6368034D01*
X29435564Y6373368D01*
X29440898Y6378447D01*
X29445978Y6388862D01*
X29456392Y6420104D01*
X29461472Y6430518D01*
X29466806Y6435597D01*
X29477220Y6440931D01*
X29492714Y6440931D01*
X29503128Y6430518D01*
X29508208Y6414770D01*
X29508208Y6394195D01*
X29503128Y6378447D01*
X29492714Y6368034D01*
X29399242Y6475221D02*
G01*
X29508208Y6475221D01*
X29399242Y6475221D02*
G01*
X29399242Y6521957D01*
X29404322Y6537452D01*
X29409656Y6542786D01*
X29420070Y6547865D01*
X29430484Y6547865D01*
X29440898Y6542786D01*
X29445978Y6537452D01*
X29451058Y6521957D01*
X29451058Y6475221D02*
G01*
X29451058Y6521957D01*
X29456392Y6537452D01*
X29461472Y6542786D01*
X29471886Y6547865D01*
X29487634Y6547865D01*
X29498048Y6542786D01*
X29503128Y6537452D01*
X29508208Y6521957D01*
X29508208Y6475221D01*
X29399242Y6634226D02*
G01*
X29471886Y6582155D01*
X29471886Y6660134D01*
X29399242Y6634226D02*
G01*
X29508208Y6634226D01*
X1275755Y7980984D02*
G01*
X1197777Y7980984D01*
X1182283Y7975904D01*
X1171869Y7965490D01*
X1166789Y7949742D01*
X1166789Y7939328D01*
X1171869Y7923834D01*
X1182283Y7913420D01*
X1197777Y7908340D01*
X1275755Y7908340D01*
X1260261Y7801152D02*
G01*
X1270675Y7811566D01*
X1275755Y7827314D01*
X1275755Y7847888D01*
X1270675Y7863636D01*
X1260261Y7874050D01*
X1249847Y7874050D01*
X1239433Y7868716D01*
X1234099Y7863636D01*
X1229019Y7853222D01*
X1218605Y7821980D01*
X1213525Y7811566D01*
X1208191Y7806486D01*
X1197777Y7801152D01*
X1182283Y7801152D01*
X1171869Y7811566D01*
X1166789Y7827314D01*
X1166789Y7847888D01*
X1171869Y7863636D01*
X1182283Y7874050D01*
X1275755Y7766862D02*
G01*
X1166789Y7766862D01*
X1275755Y7766862D02*
G01*
X1275755Y7720126D01*
X1270675Y7704632D01*
X1265341Y7699298D01*
X1254927Y7694218D01*
X1244513Y7694218D01*
X1234099Y7699298D01*
X1229019Y7704632D01*
X1223939Y7720126D01*
X1223939Y7766862D02*
G01*
X1223939Y7720126D01*
X1218605Y7704632D01*
X1213525Y7699298D01*
X1203111Y7694218D01*
X1187363Y7694218D01*
X1176949Y7699298D01*
X1171869Y7704632D01*
X1166789Y7720126D01*
X1166789Y7766862D01*
X1275755Y7597444D02*
G01*
X1275755Y7649514D01*
X1229019Y7654594D01*
X1234099Y7649514D01*
X1239433Y7634020D01*
X1239433Y7618272D01*
X1234099Y7602778D01*
X1223939Y7592364D01*
X1208191Y7587284D01*
X1197777Y7587284D01*
X1182283Y7592364D01*
X1171869Y7602778D01*
X1166789Y7618272D01*
X1166789Y7634020D01*
X1171869Y7649514D01*
X1176949Y7654594D01*
X1187363Y7659928D01*
X29399242Y3860800D02*
G01*
X29477220Y3860800D01*
X29492714Y3865879D01*
X29503128Y3876294D01*
X29508208Y3892042D01*
X29508208Y3902455D01*
X29503128Y3917950D01*
X29492714Y3928363D01*
X29477220Y3933444D01*
X29399242Y3933444D01*
X29414736Y4040631D02*
G01*
X29404322Y4030218D01*
X29399242Y4014470D01*
X29399242Y3993895D01*
X29404322Y3978147D01*
X29414736Y3967734D01*
X29425150Y3967734D01*
X29435564Y3973068D01*
X29440898Y3978147D01*
X29445978Y3988562D01*
X29456392Y4019804D01*
X29461472Y4030218D01*
X29466806Y4035297D01*
X29477220Y4040631D01*
X29492714Y4040631D01*
X29503128Y4030218D01*
X29508208Y4014470D01*
X29508208Y3993895D01*
X29503128Y3978147D01*
X29492714Y3967734D01*
X29399242Y4074921D02*
G01*
X29508208Y4074921D01*
X29399242Y4074921D02*
G01*
X29399242Y4121657D01*
X29404322Y4137152D01*
X29409656Y4142486D01*
X29420070Y4147565D01*
X29430484Y4147565D01*
X29440898Y4142486D01*
X29445978Y4137152D01*
X29451058Y4121657D01*
X29451058Y4074921D02*
G01*
X29451058Y4121657D01*
X29456392Y4137152D01*
X29461472Y4142486D01*
X29471886Y4147565D01*
X29487634Y4147565D01*
X29498048Y4142486D01*
X29503128Y4137152D01*
X29508208Y4121657D01*
X29508208Y4074921D01*
X29399242Y4254500D02*
G01*
X29508208Y4202684D01*
X29399242Y4181855D02*
G01*
X29399242Y4254500D01*
X368287Y6846303D02*
G01*
X368287Y6768325D01*
X373367Y6752831D01*
X383781Y6742417D01*
X399529Y6737337D01*
X409943Y6737337D01*
X425437Y6742417D01*
X435851Y6752831D01*
X440931Y6768325D01*
X440931Y6846303D01*
X548119Y6830809D02*
G01*
X537705Y6841223D01*
X521957Y6846303D01*
X501383Y6846303D01*
X485635Y6841223D01*
X475221Y6830809D01*
X475221Y6820395D01*
X480555Y6809981D01*
X485635Y6804647D01*
X496049Y6799567D01*
X527291Y6789153D01*
X537705Y6784073D01*
X542785Y6778739D01*
X548119Y6768325D01*
X548119Y6752831D01*
X537705Y6742417D01*
X521957Y6737337D01*
X501383Y6737337D01*
X485635Y6742417D01*
X475221Y6752831D01*
X582409Y6846303D02*
G01*
X582409Y6737337D01*
X582409Y6846303D02*
G01*
X629145Y6846303D01*
X644639Y6841223D01*
X649973Y6835889D01*
X655053Y6825475D01*
X655053Y6815061D01*
X649973Y6804647D01*
X644639Y6799567D01*
X629145Y6794487D01*
X582409Y6794487D02*
G01*
X629145Y6794487D01*
X644639Y6789153D01*
X649973Y6784073D01*
X655053Y6773659D01*
X655053Y6757911D01*
X649973Y6747497D01*
X644639Y6742417D01*
X629145Y6737337D01*
X582409Y6737337D01*
X751827Y6830809D02*
G01*
X746493Y6841223D01*
X730999Y6846303D01*
X720585Y6846303D01*
X704837Y6841223D01*
X694677Y6825475D01*
X689343Y6799567D01*
X689343Y6773659D01*
X694677Y6752831D01*
X704837Y6742417D01*
X720585Y6737337D01*
X725665Y6737337D01*
X741413Y6742417D01*
X751827Y6752831D01*
X756907Y6768325D01*
X756907Y6773659D01*
X751827Y6789153D01*
X741413Y6799567D01*
X725665Y6804647D01*
X720585Y6804647D01*
X704837Y6799567D01*
X694677Y6789153D01*
X689343Y6773659D01*
X14140045Y7075825D02*
G01*
X14140045Y6999371D01*
X14140045Y7075825D02*
G01*
X14172811Y7075825D01*
X14183733Y7072015D01*
X14187289Y7068459D01*
X14190845Y7061093D01*
X14190845Y7053981D01*
X14187289Y7046615D01*
X14183733Y7043059D01*
X14172811Y7039249D01*
X14140045Y7039249D01*
X14165445Y7039249D02*
G01*
X14190845Y6999371D01*
X14251297Y7075825D02*
G01*
X14214975Y7024771D01*
X14269331Y7024771D01*
X14251297Y7075825D02*
G01*
X14251297Y6999371D01*
X14329783Y7075825D02*
G01*
X14293461Y7024771D01*
X14348071Y7024771D01*
X14329783Y7075825D02*
G01*
X14329783Y6999371D01*
X13670033Y8795783D02*
G01*
X13670033Y8700533D01*
X13670033Y8795783D02*
G01*
X13710927Y8795783D01*
X13724643Y8791465D01*
X13728961Y8786893D01*
X13733533Y8777749D01*
X13733533Y8768605D01*
X13728961Y8759461D01*
X13724643Y8754889D01*
X13710927Y8750317D01*
X13670033Y8750317D01*
X13701783Y8750317D02*
G01*
X13733533Y8700533D01*
X13808971Y8795783D02*
G01*
X13763505Y8732283D01*
X13831831Y8732283D01*
X13808971Y8795783D02*
G01*
X13808971Y8700533D01*
X13916413Y8795783D02*
G01*
X13870947Y8795783D01*
X13866375Y8754889D01*
X13870947Y8759461D01*
X13884409Y8764033D01*
X13898125Y8764033D01*
X13911841Y8759461D01*
X13920985Y8750317D01*
X13925303Y8736855D01*
X13925303Y8727711D01*
X13920985Y8713995D01*
X13911841Y8705105D01*
X13898125Y8700533D01*
X13884409Y8700533D01*
X13870947Y8705105D01*
X13866375Y8709423D01*
X13861803Y8718567D01*
X14210057Y8205619D02*
G01*
X14210057Y8129419D01*
X14210057Y8205619D02*
G01*
X14242823Y8205619D01*
X14253491Y8202063D01*
X14257301Y8198507D01*
X14260857Y8191141D01*
X14260857Y8183775D01*
X14257301Y8176663D01*
X14253491Y8173107D01*
X14242823Y8169297D01*
X14210057Y8169297D01*
X14235457Y8169297D02*
G01*
X14260857Y8129419D01*
X14321309Y8205619D02*
G01*
X14284987Y8154819D01*
X14339343Y8154819D01*
X14321309Y8205619D02*
G01*
X14321309Y8129419D01*
X14407161Y8194697D02*
G01*
X14403351Y8202063D01*
X14392429Y8205619D01*
X14385317Y8205619D01*
X14374395Y8202063D01*
X14367029Y8191141D01*
X14363473Y8173107D01*
X14363473Y8154819D01*
X14367029Y8140341D01*
X14374395Y8132975D01*
X14385317Y8129419D01*
X14388873Y8129419D01*
X14399795Y8132975D01*
X14407161Y8140341D01*
X14410717Y8151263D01*
X14410717Y8154819D01*
X14407161Y8165741D01*
X14399795Y8173107D01*
X14388873Y8176663D01*
X14385317Y8176663D01*
X14374395Y8173107D01*
X14367029Y8165741D01*
X14363473Y8154819D01*
G36*
X29816044Y8578342D02*
G01*
X29816044Y8527542D01*
X29828744Y8527542D01*
X29828744Y8578342D01*
G37*
G36*
X29796994Y8559292D02*
G01*
X29796994Y8546592D01*
X29847794Y8546592D01*
X29847794Y8559292D01*
G37*
G36*
X29798721Y8737854D02*
G01*
X29798721Y8725154D01*
X29849521Y8725154D01*
X29849521Y8737854D01*
G37*
G36*
X2645206Y7950200D02*
G01*
X2645206Y7912100D01*
X2861106Y7912100D01*
X2861106Y7950200D01*
G37*
G36*
X4626406Y8001000D02*
G01*
X4626406Y7962900D01*
X4842306Y7962900D01*
X4842306Y8001000D01*
G37*
G36*
X4715306Y8089900D02*
G01*
X4715306Y7874000D01*
X4753406Y7874000D01*
X4753406Y8089900D01*
G37*
D11*
X5576788Y5391243D02*
G01*
X5551388Y5391243D01*
X5551388Y4629243D01*
X5564088Y4629243D01*
X5983188Y4629243D02*
G01*
X6008588Y4629243D01*
X6008588Y5391243D01*
X5983188Y5391243D01*
D10*
X5557367Y5229920D02*
G01*
X6002609Y5229920D01*
D12*
X30205601Y8496312D02*
G01*
X30205601Y8518514D01*
X30205601Y7788285D02*
G01*
X30205601Y7810487D01*
X30538955Y8603396D02*
G01*
X30410249Y8603396D01*
X30909602Y8603396D02*
G01*
X30780250Y8603396D01*
X30538955Y7703400D02*
G01*
X30410249Y7703400D01*
X30909602Y7703400D02*
G01*
X30780250Y7703400D01*
X30909602Y7703400D02*
G01*
X30909602Y8603396D01*
X30349601Y8113397D02*
G01*
X30329601Y8113397D01*
X30389601Y8253397D02*
G01*
X30349601Y8253397D01*
X30349601Y8193397D01*
X30329601Y8193397D01*
X30389601Y8053397D02*
G01*
X30349601Y8053397D01*
X30349601Y8113397D01*
X30389601Y8052396D02*
G01*
X30389601Y8254398D01*
D13*
X30772925Y7871632D02*
G01*
X30522735Y7921416D01*
X30522735Y8051464D01*
X30772925Y8101502D01*
X30772925Y8051972D01*
X30562867Y8012094D01*
X30562867Y7959262D01*
X30772925Y7919130D01*
X30772925Y7871632D01*
X30642877Y7901604D02*
G01*
X30642877Y7941482D01*
X30642847Y8031540D02*
G01*
X30642847Y8071540D01*
X30642339Y8359218D02*
G01*
X30642339Y8399218D01*
X30642369Y8229282D02*
G01*
X30642369Y8269160D01*
X30772417Y8199310D02*
G01*
X30522227Y8249094D01*
X30522227Y8379142D01*
X30772417Y8429180D01*
X30772417Y8379650D01*
X30562359Y8339772D01*
X30562359Y8286940D01*
X30772417Y8246808D01*
X30772417Y8199310D01*
X12270546Y2108172D02*
G01*
X12364976Y2068741D01*
X12359977Y2018741D01*
X12270620Y2018741D01*
X12320033Y2543058D02*
G01*
X12320033Y2463810D01*
X12020059Y2348748D01*
X12020059Y2173742D01*
X12242055Y2136658D01*
X5549991Y3048739D02*
G01*
X5549991Y3233740D01*
X5624990Y3233740D01*
X5624990Y3418738D01*
X5659991Y3418738D01*
X5659991Y3673739D01*
X5379991Y3673739D01*
X5379991Y3049361D01*
X5625101Y2143770D02*
G01*
X5769881Y2178822D01*
X5769881Y2363734D01*
X5724923Y2363734D01*
X5469907Y2468636D01*
X5469907Y2543058D01*
X5544393Y2018741D02*
G01*
X5429991Y2018741D01*
X5429991Y2033744D01*
X5459989Y2063742D01*
X5539991Y2093742D01*
X5379991Y2543134D02*
G01*
X5379991Y2018741D01*
X5234990Y2018741D01*
X5234990Y1543743D01*
X9344385Y2018741D02*
G01*
X9170601Y2018741D01*
X12409977Y3049361D02*
G01*
X12409977Y3673739D01*
X12129978Y3673739D01*
X12129978Y3423739D01*
X12164976Y3423739D01*
X12164976Y3233740D01*
X12239978Y3233740D01*
X12239978Y3049361D01*
X12245599Y1298742D02*
G01*
X12554976Y1298742D01*
X12554976Y2023742D01*
X12409977Y2023742D01*
X12409977Y2543134D01*
X9145607Y1298742D02*
G01*
X9319392Y1298742D01*
X5234990Y1548742D02*
G01*
X5234990Y1298742D01*
X5519374Y1298742D01*
X16771843Y4593996D02*
G01*
X16598074Y4593996D01*
X16746842Y3806596D02*
G01*
X16573073Y3806596D01*
X15471843Y4593996D02*
G01*
X15289060Y4593996D01*
X15289060Y3806596D01*
X15291846Y3806596D01*
X17536960Y3806596D02*
G01*
X17536960Y4593996D01*
X17348073Y4593996D01*
X17528072Y3806596D02*
G01*
X17536960Y3806596D01*
X26162345Y5688203D02*
G01*
X26162345Y5861959D01*
X26949745Y5886960D02*
G01*
X26949745Y5713194D01*
X26162345Y5461960D02*
G01*
X26162345Y5279176D01*
X26949745Y5279176D01*
X26949745Y5281963D01*
X26949745Y7527076D02*
G01*
X26162345Y7527076D01*
X26162345Y7338189D01*
X26949745Y7518189D02*
G01*
X26949745Y7527076D01*
X26045942Y2798112D02*
G01*
X26045942Y2971868D01*
X26833342Y2996869D02*
G01*
X26833342Y2823103D01*
X26045942Y2571869D02*
G01*
X26045942Y2389085D01*
X26833342Y2389085D01*
X26833342Y2391872D01*
X26833342Y4636985D02*
G01*
X26045942Y4636985D01*
X26045942Y4448098D01*
X26833342Y4628098D02*
G01*
X26833342Y4636985D01*
D10*
X28609038Y661446D02*
G01*
X28559038Y661446D01*
X28624281Y745924D02*
G01*
X28624281Y676683D01*
X28559038Y761164D02*
G01*
X28609038Y761164D01*
X28464761Y760950D02*
G01*
X28514761Y760950D01*
X28514761Y661238D02*
G01*
X28464761Y661238D01*
X28449518Y676473D02*
G01*
X28449518Y745716D01*
X28388561Y1078453D02*
G01*
X28438561Y1078453D01*
X28373318Y993975D02*
G01*
X28373318Y1063216D01*
X28438561Y978735D02*
G01*
X28388561Y978735D01*
X28532838Y978949D02*
G01*
X28482838Y978949D01*
X28482838Y1078661D02*
G01*
X28532838Y1078661D01*
X28548081Y1063426D02*
G01*
X28548081Y994183D01*
X27611811Y7211837D02*
G01*
X27661811Y7211837D01*
X27596569Y7127359D02*
G01*
X27596569Y7196599D01*
X27661811Y7112119D02*
G01*
X27611811Y7112119D01*
X27756088Y7112332D02*
G01*
X27706088Y7112332D01*
X27706088Y7212045D02*
G01*
X27756088Y7212045D01*
X27771331Y7196810D02*
G01*
X27771331Y7127567D01*
X27611811Y7084837D02*
G01*
X27661811Y7084837D01*
X27596569Y7000359D02*
G01*
X27596569Y7069599D01*
X27661811Y6985119D02*
G01*
X27611811Y6985119D01*
X27756088Y6985332D02*
G01*
X27706088Y6985332D01*
X27706088Y7085045D02*
G01*
X27756088Y7085045D01*
X27771331Y7069810D02*
G01*
X27771331Y7000567D01*
X2523238Y1563146D02*
G01*
X2473238Y1563146D01*
X2538481Y1647624D02*
G01*
X2538481Y1578383D01*
X2473238Y1662864D02*
G01*
X2523238Y1662864D01*
X2378961Y1662650D02*
G01*
X2428961Y1662650D01*
X2428961Y1562938D02*
G01*
X2378961Y1562938D01*
X2363718Y1578173D02*
G01*
X2363718Y1647416D01*
X2137661Y1662653D02*
G01*
X2187661Y1662653D01*
X2122418Y1578175D02*
G01*
X2122418Y1647416D01*
X2187661Y1562935D02*
G01*
X2137661Y1562935D01*
X2281938Y1563149D02*
G01*
X2231938Y1563149D01*
X2231938Y1662861D02*
G01*
X2281938Y1662861D01*
X2297181Y1647626D02*
G01*
X2297181Y1578383D01*
X25516311Y7351537D02*
G01*
X25566311Y7351537D01*
X25501069Y7267059D02*
G01*
X25501069Y7336299D01*
X25566311Y7251819D02*
G01*
X25516311Y7251819D01*
X25660588Y7252032D02*
G01*
X25610588Y7252032D01*
X25610588Y7351745D02*
G01*
X25660588Y7351745D01*
X25675831Y7336510D02*
G01*
X25675831Y7267267D01*
X25516311Y7211837D02*
G01*
X25566311Y7211837D01*
X25501069Y7127359D02*
G01*
X25501069Y7196599D01*
X25566311Y7112119D02*
G01*
X25516311Y7112119D01*
X25660588Y7112332D02*
G01*
X25610588Y7112332D01*
X25610588Y7212045D02*
G01*
X25660588Y7212045D01*
X25675831Y7196810D02*
G01*
X25675831Y7127567D01*
X25516311Y7072137D02*
G01*
X25566311Y7072137D01*
X25501069Y6987659D02*
G01*
X25501069Y7056899D01*
X25566311Y6972419D02*
G01*
X25516311Y6972419D01*
X25660588Y6972632D02*
G01*
X25610588Y6972632D01*
X25610588Y7072345D02*
G01*
X25660588Y7072345D01*
X25675831Y7057110D02*
G01*
X25675831Y6987867D01*
X25516311Y6932437D02*
G01*
X25566311Y6932437D01*
X25501069Y6847959D02*
G01*
X25501069Y6917199D01*
X25566311Y6832719D02*
G01*
X25516311Y6832719D01*
X25660588Y6832932D02*
G01*
X25610588Y6832932D01*
X25610588Y6932645D02*
G01*
X25660588Y6932645D01*
X25675831Y6917410D02*
G01*
X25675831Y6848167D01*
X27611811Y6957837D02*
G01*
X27661811Y6957837D01*
X27596569Y6873359D02*
G01*
X27596569Y6942599D01*
X27661811Y6858119D02*
G01*
X27611811Y6858119D01*
X27756088Y6858332D02*
G01*
X27706088Y6858332D01*
X27706088Y6958045D02*
G01*
X27756088Y6958045D01*
X27771331Y6942810D02*
G01*
X27771331Y6873567D01*
X27611811Y6830837D02*
G01*
X27661811Y6830837D01*
X27596569Y6746359D02*
G01*
X27596569Y6815599D01*
X27661811Y6731119D02*
G01*
X27611811Y6731119D01*
X27756088Y6731332D02*
G01*
X27706088Y6731332D01*
X27706088Y6831045D02*
G01*
X27756088Y6831045D01*
X27771331Y6815810D02*
G01*
X27771331Y6746567D01*
X27611811Y6703837D02*
G01*
X27661811Y6703837D01*
X27596569Y6619359D02*
G01*
X27596569Y6688599D01*
X27661811Y6604119D02*
G01*
X27611811Y6604119D01*
X27756088Y6604332D02*
G01*
X27706088Y6604332D01*
X27706088Y6704045D02*
G01*
X27756088Y6704045D01*
X27771331Y6688810D02*
G01*
X27771331Y6619567D01*
X27611811Y6576837D02*
G01*
X27661811Y6576837D01*
X27596569Y6492359D02*
G01*
X27596569Y6561599D01*
X27661811Y6477119D02*
G01*
X27611811Y6477119D01*
X27756088Y6477332D02*
G01*
X27706088Y6477332D01*
X27706088Y6577045D02*
G01*
X27756088Y6577045D01*
X27771331Y6561810D02*
G01*
X27771331Y6492567D01*
X27611811Y6322837D02*
G01*
X27661811Y6322837D01*
X27596569Y6238359D02*
G01*
X27596569Y6307599D01*
X27661811Y6223119D02*
G01*
X27611811Y6223119D01*
X27756088Y6223332D02*
G01*
X27706088Y6223332D01*
X27706088Y6323045D02*
G01*
X27756088Y6323045D01*
X27771331Y6307810D02*
G01*
X27771331Y6238567D01*
X27611811Y6462537D02*
G01*
X27661811Y6462537D01*
X27596569Y6378059D02*
G01*
X27596569Y6447299D01*
X27661811Y6362819D02*
G01*
X27611811Y6362819D01*
X27756088Y6363032D02*
G01*
X27706088Y6363032D01*
X27706088Y6462745D02*
G01*
X27756088Y6462745D01*
X27771331Y6447510D02*
G01*
X27771331Y6378267D01*
X27681209Y3554346D02*
G01*
X27731209Y3554346D01*
X27665967Y3469868D02*
G01*
X27665967Y3539109D01*
X27731209Y3454628D02*
G01*
X27681209Y3454628D01*
X27825486Y3454841D02*
G01*
X27775486Y3454841D01*
X27775486Y3554554D02*
G01*
X27825486Y3554554D01*
X27840729Y3539319D02*
G01*
X27840729Y3470076D01*
X27681209Y3427346D02*
G01*
X27731209Y3427346D01*
X27665967Y3342868D02*
G01*
X27665967Y3412109D01*
X27731209Y3327628D02*
G01*
X27681209Y3327628D01*
X27825486Y3327841D02*
G01*
X27775486Y3327841D01*
X27775486Y3427554D02*
G01*
X27825486Y3427554D01*
X27840729Y3412319D02*
G01*
X27840729Y3343076D01*
X25284821Y4448893D02*
G01*
X25334821Y4448893D01*
X25269578Y4364415D02*
G01*
X25269578Y4433656D01*
X25334821Y4349175D02*
G01*
X25284821Y4349175D01*
X25429098Y4349389D02*
G01*
X25379098Y4349389D01*
X25379098Y4449102D02*
G01*
X25429098Y4449102D01*
X25444340Y4433867D02*
G01*
X25444340Y4364624D01*
X27681209Y3681346D02*
G01*
X27731209Y3681346D01*
X27665967Y3596868D02*
G01*
X27665967Y3666109D01*
X27731209Y3581628D02*
G01*
X27681209Y3581628D01*
X27825486Y3581841D02*
G01*
X27775486Y3581841D01*
X27775486Y3681554D02*
G01*
X27825486Y3681554D01*
X27840729Y3666319D02*
G01*
X27840729Y3597076D01*
X27681209Y3795646D02*
G01*
X27731209Y3795646D01*
X27665967Y3711168D02*
G01*
X27665967Y3780409D01*
X27731209Y3695928D02*
G01*
X27681209Y3695928D01*
X27825486Y3696141D02*
G01*
X27775486Y3696141D01*
X27775486Y3795854D02*
G01*
X27825486Y3795854D01*
X27840729Y3780619D02*
G01*
X27840729Y3711376D01*
X25284821Y4309193D02*
G01*
X25334821Y4309193D01*
X25269578Y4224715D02*
G01*
X25269578Y4293956D01*
X25334821Y4209475D02*
G01*
X25284821Y4209475D01*
X25429098Y4209689D02*
G01*
X25379098Y4209689D01*
X25379098Y4309402D02*
G01*
X25429098Y4309402D01*
X25444340Y4294167D02*
G01*
X25444340Y4224924D01*
X25284821Y4169493D02*
G01*
X25334821Y4169493D01*
X25269578Y4085015D02*
G01*
X25269578Y4154256D01*
X25334821Y4069775D02*
G01*
X25284821Y4069775D01*
X25429098Y4069989D02*
G01*
X25379098Y4069989D01*
X25379098Y4169702D02*
G01*
X25429098Y4169702D01*
X25444340Y4154467D02*
G01*
X25444340Y4085224D01*
X25284821Y4029793D02*
G01*
X25334821Y4029793D01*
X25269578Y3945315D02*
G01*
X25269578Y4014556D01*
X25334821Y3930075D02*
G01*
X25284821Y3930075D01*
X25429098Y3930289D02*
G01*
X25379098Y3930289D01*
X25379098Y4030002D02*
G01*
X25429098Y4030002D01*
X25444340Y4014767D02*
G01*
X25444340Y3945524D01*
X17885661Y4596353D02*
G01*
X17935661Y4596353D01*
X17870418Y4511875D02*
G01*
X17870418Y4581116D01*
X17935661Y4496635D02*
G01*
X17885661Y4496635D01*
X18029938Y4496849D02*
G01*
X17979938Y4496849D01*
X17979938Y4596561D02*
G01*
X18029938Y4596561D01*
X18045181Y4581326D02*
G01*
X18045181Y4512083D01*
X17885661Y4456653D02*
G01*
X17935661Y4456653D01*
X17870418Y4372175D02*
G01*
X17870418Y4441416D01*
X17935661Y4356935D02*
G01*
X17885661Y4356935D01*
X18029938Y4357149D02*
G01*
X17979938Y4357149D01*
X17979938Y4456861D02*
G01*
X18029938Y4456861D01*
X18045181Y4441626D02*
G01*
X18045181Y4372383D01*
X17885661Y4329653D02*
G01*
X17935661Y4329653D01*
X17870418Y4245175D02*
G01*
X17870418Y4314416D01*
X17935661Y4229935D02*
G01*
X17885661Y4229935D01*
X18029938Y4230149D02*
G01*
X17979938Y4230149D01*
X17979938Y4329861D02*
G01*
X18029938Y4329861D01*
X18045181Y4314626D02*
G01*
X18045181Y4245383D01*
X17885661Y4202653D02*
G01*
X17935661Y4202653D01*
X17870418Y4118175D02*
G01*
X17870418Y4187416D01*
X17935661Y4102935D02*
G01*
X17885661Y4102935D01*
X18029938Y4103149D02*
G01*
X17979938Y4103149D01*
X17979938Y4202861D02*
G01*
X18029938Y4202861D01*
X18045181Y4187626D02*
G01*
X18045181Y4118383D01*
X16511046Y2925061D02*
G01*
X16511046Y2975061D01*
X16595524Y2909818D02*
G01*
X16526283Y2909818D01*
X16610764Y2975061D02*
G01*
X16610764Y2925061D01*
X16610550Y3069338D02*
G01*
X16610550Y3019338D01*
X16510838Y3019338D02*
G01*
X16510838Y3069338D01*
X16526073Y3084581D02*
G01*
X16595316Y3084581D01*
X16384046Y2925061D02*
G01*
X16384046Y2975061D01*
X16468524Y2909818D02*
G01*
X16399283Y2909818D01*
X16483764Y2975061D02*
G01*
X16483764Y2925061D01*
X16483550Y3069338D02*
G01*
X16483550Y3019338D01*
X16383838Y3019338D02*
G01*
X16383838Y3069338D01*
X16399073Y3084581D02*
G01*
X16468316Y3084581D01*
X14900008Y2017643D02*
G01*
X14850008Y2017643D01*
X14915250Y2102121D02*
G01*
X14915250Y2032881D01*
X14850008Y2117361D02*
G01*
X14900008Y2117361D01*
X14755731Y2117148D02*
G01*
X14805731Y2117148D01*
X14805731Y2017435D02*
G01*
X14755731Y2017435D01*
X14740488Y2032670D02*
G01*
X14740488Y2101913D01*
X14003416Y1703158D02*
G01*
X14003416Y1753158D01*
X14087894Y1687916D02*
G01*
X14018653Y1687916D01*
X14103134Y1753158D02*
G01*
X14103134Y1703158D01*
X14102920Y1847435D02*
G01*
X14102920Y1797436D01*
X14003207Y1797436D02*
G01*
X14003207Y1847435D01*
X14018442Y1862678D02*
G01*
X14087685Y1862678D01*
X14099908Y1560443D02*
G01*
X14049908Y1560443D01*
X14115150Y1644921D02*
G01*
X14115150Y1575681D01*
X14049908Y1660161D02*
G01*
X14099908Y1660161D01*
X13955631Y1659948D02*
G01*
X14005631Y1659948D01*
X14005631Y1560235D02*
G01*
X13955631Y1560235D01*
X13940388Y1575470D02*
G01*
X13940388Y1644713D01*
X1634238Y5004846D02*
G01*
X1584238Y5004846D01*
X1649481Y5089324D02*
G01*
X1649481Y5020083D01*
X1584238Y5104564D02*
G01*
X1634238Y5104564D01*
X1489961Y5104350D02*
G01*
X1539961Y5104350D01*
X1539961Y5004638D02*
G01*
X1489961Y5004638D01*
X1474718Y5019873D02*
G01*
X1474718Y5089116D01*
X1634238Y5131846D02*
G01*
X1584238Y5131846D01*
X1649481Y5216324D02*
G01*
X1649481Y5147083D01*
X1584238Y5231564D02*
G01*
X1634238Y5231564D01*
X1489961Y5231350D02*
G01*
X1539961Y5231350D01*
X1539961Y5131638D02*
G01*
X1489961Y5131638D01*
X1474718Y5146873D02*
G01*
X1474718Y5216116D01*
X2421638Y5589046D02*
G01*
X2371638Y5589046D01*
X2436881Y5673524D02*
G01*
X2436881Y5604283D01*
X2371638Y5688764D02*
G01*
X2421638Y5688764D01*
X2277361Y5688550D02*
G01*
X2327361Y5688550D01*
X2327361Y5588838D02*
G01*
X2277361Y5588838D01*
X2262118Y5604073D02*
G01*
X2262118Y5673316D01*
X1634238Y5258846D02*
G01*
X1584238Y5258846D01*
X1649481Y5343324D02*
G01*
X1649481Y5274083D01*
X1584238Y5358564D02*
G01*
X1634238Y5358564D01*
X1489961Y5358350D02*
G01*
X1539961Y5358350D01*
X1539961Y5258638D02*
G01*
X1489961Y5258638D01*
X1474718Y5273873D02*
G01*
X1474718Y5343116D01*
X2421638Y5843046D02*
G01*
X2371638Y5843046D01*
X2436881Y5927524D02*
G01*
X2436881Y5858283D01*
X2371638Y5942764D02*
G01*
X2421638Y5942764D01*
X2277361Y5942550D02*
G01*
X2327361Y5942550D01*
X2327361Y5842838D02*
G01*
X2277361Y5842838D01*
X2262118Y5858073D02*
G01*
X2262118Y5927316D01*
X2421638Y5716046D02*
G01*
X2371638Y5716046D01*
X2436881Y5800524D02*
G01*
X2436881Y5731283D01*
X2371638Y5815764D02*
G01*
X2421638Y5815764D01*
X2277361Y5815550D02*
G01*
X2327361Y5815550D01*
X2327361Y5715838D02*
G01*
X2277361Y5715838D01*
X2262118Y5731073D02*
G01*
X2262118Y5800316D01*
X1634238Y5385846D02*
G01*
X1584238Y5385846D01*
X1649481Y5470324D02*
G01*
X1649481Y5401083D01*
X1584238Y5485564D02*
G01*
X1634238Y5485564D01*
X1489961Y5485350D02*
G01*
X1539961Y5485350D01*
X1539961Y5385638D02*
G01*
X1489961Y5385638D01*
X1474718Y5400873D02*
G01*
X1474718Y5470116D01*
X2421638Y5982746D02*
G01*
X2371638Y5982746D01*
X2436881Y6067224D02*
G01*
X2436881Y5997983D01*
X2371638Y6082464D02*
G01*
X2421638Y6082464D01*
X2277361Y6082250D02*
G01*
X2327361Y6082250D01*
X2327361Y5982538D02*
G01*
X2277361Y5982538D01*
X2262118Y5997773D02*
G01*
X2262118Y6067016D01*
X1672338Y5893846D02*
G01*
X1622338Y5893846D01*
X1687581Y5978324D02*
G01*
X1687581Y5909083D01*
X1622338Y5993564D02*
G01*
X1672338Y5993564D01*
X1528061Y5993350D02*
G01*
X1578061Y5993350D01*
X1578061Y5893638D02*
G01*
X1528061Y5893638D01*
X1512818Y5908873D02*
G01*
X1512818Y5978116D01*
X1672338Y6033546D02*
G01*
X1622338Y6033546D01*
X1687581Y6118024D02*
G01*
X1687581Y6048783D01*
X1622338Y6133264D02*
G01*
X1672338Y6133264D01*
X1528061Y6133050D02*
G01*
X1578061Y6133050D01*
X1578061Y6033338D02*
G01*
X1528061Y6033338D01*
X1512818Y6048573D02*
G01*
X1512818Y6117816D01*
X4824745Y4242130D02*
G01*
X4824745Y4192130D01*
X4740267Y4257372D02*
G01*
X4809507Y4257372D01*
X4725027Y4192130D02*
G01*
X4725027Y4242130D01*
X4725240Y4097853D02*
G01*
X4725240Y4147853D01*
X4824953Y4147853D02*
G01*
X4824953Y4097853D01*
X4809718Y4082610D02*
G01*
X4740475Y4082610D01*
X5164744Y5757125D02*
G01*
X5164744Y5707126D01*
X5080266Y5772368D02*
G01*
X5149507Y5772368D01*
X5065026Y5707126D02*
G01*
X5065026Y5757125D01*
X5065240Y5612848D02*
G01*
X5065240Y5662848D01*
X5164952Y5662848D02*
G01*
X5164952Y5612848D01*
X5149717Y5597606D02*
G01*
X5080474Y5597606D01*
X5309743Y5757125D02*
G01*
X5309743Y5707126D01*
X5225265Y5772368D02*
G01*
X5294505Y5772368D01*
X5210025Y5707126D02*
G01*
X5210025Y5757125D01*
X5210238Y5612848D02*
G01*
X5210238Y5662848D01*
X5309951Y5662848D02*
G01*
X5309951Y5612848D01*
X5294716Y5597606D02*
G01*
X5225473Y5597606D01*
X4642129Y5595233D02*
G01*
X4592129Y5595233D01*
X4657371Y5679711D02*
G01*
X4657371Y5610471D01*
X4592129Y5694951D02*
G01*
X4642129Y5694951D01*
X4497852Y5694738D02*
G01*
X4547852Y5694738D01*
X4547852Y5595025D02*
G01*
X4497852Y5595025D01*
X4482609Y5610260D02*
G01*
X4482609Y5679503D01*
X4862128Y5590235D02*
G01*
X4812129Y5590235D01*
X4877371Y5674713D02*
G01*
X4877371Y5605472D01*
X4812129Y5689953D02*
G01*
X4862128Y5689953D01*
X4717851Y5689739D02*
G01*
X4767851Y5689739D01*
X4767851Y5590026D02*
G01*
X4717851Y5590026D01*
X4702609Y5605261D02*
G01*
X4702609Y5674504D01*
X12794729Y6747126D02*
G01*
X12794729Y6697126D01*
X12710251Y6762369D02*
G01*
X12779491Y6762369D01*
X12695011Y6697126D02*
G01*
X12695011Y6747126D01*
X12695224Y6602849D02*
G01*
X12695224Y6652849D01*
X12794937Y6652849D02*
G01*
X12794937Y6602849D01*
X12779702Y6587606D02*
G01*
X12710459Y6587606D01*
X13882110Y7185230D02*
G01*
X13832111Y7185230D01*
X13897353Y7269708D02*
G01*
X13897353Y7200468D01*
X13832111Y7284948D02*
G01*
X13882110Y7284948D01*
X13737833Y7284735D02*
G01*
X13787833Y7284735D01*
X13787833Y7185022D02*
G01*
X13737833Y7185022D01*
X13722591Y7200257D02*
G01*
X13722591Y7269500D01*
X13164728Y8862120D02*
G01*
X13164728Y8812121D01*
X13080250Y8877363D02*
G01*
X13149491Y8877363D01*
X13065010Y8812121D02*
G01*
X13065010Y8862120D01*
X13065224Y8717843D02*
G01*
X13065224Y8767843D01*
X13164936Y8767843D02*
G01*
X13164936Y8717843D01*
X13149701Y8702601D02*
G01*
X13080458Y8702601D01*
X12929727Y6747123D02*
G01*
X12929727Y6697124D01*
X12845249Y6762366D02*
G01*
X12914490Y6762366D01*
X12830009Y6697124D02*
G01*
X12830009Y6747123D01*
X12830223Y6602846D02*
G01*
X12830223Y6652846D01*
X12929936Y6652846D02*
G01*
X12929936Y6602846D01*
X12914701Y6587604D02*
G01*
X12845458Y6587604D01*
X13882110Y7315233D02*
G01*
X13832111Y7315233D01*
X13897353Y7399710D02*
G01*
X13897353Y7330470D01*
X13832111Y7414950D02*
G01*
X13882110Y7414950D01*
X13737833Y7414737D02*
G01*
X13787833Y7414737D01*
X13787833Y7315024D02*
G01*
X13737833Y7315024D01*
X13722591Y7330259D02*
G01*
X13722591Y7399502D01*
X13447113Y8010230D02*
G01*
X13397113Y8010230D01*
X13462355Y8094708D02*
G01*
X13462355Y8025467D01*
X13397113Y8109948D02*
G01*
X13447113Y8109948D01*
X13302835Y8109734D02*
G01*
X13352835Y8109734D01*
X13352835Y8010022D02*
G01*
X13302835Y8010022D01*
X13287593Y8025256D02*
G01*
X13287593Y8094499D01*
X13455309Y8296864D02*
G01*
X13405309Y8296864D01*
X13470552Y8381342D02*
G01*
X13470552Y8312101D01*
X13405309Y8396582D02*
G01*
X13455309Y8396582D01*
X13311032Y8396368D02*
G01*
X13361032Y8396368D01*
X13361032Y8296655D02*
G01*
X13311032Y8296655D01*
X13295790Y8311890D02*
G01*
X13295790Y8381133D01*
X13727833Y7669738D02*
G01*
X13777833Y7669738D01*
X13712591Y7585260D02*
G01*
X13712591Y7654500D01*
X13777833Y7570020D02*
G01*
X13727833Y7570020D01*
X13872110Y7570233D02*
G01*
X13822111Y7570233D01*
X13822111Y7669946D02*
G01*
X13872110Y7669946D01*
X13887353Y7654711D02*
G01*
X13887353Y7585468D01*
X13732835Y7814739D02*
G01*
X13782835Y7814739D01*
X13717592Y7730261D02*
G01*
X13717592Y7799501D01*
X13782835Y7715021D02*
G01*
X13732835Y7715021D01*
X13877112Y7715234D02*
G01*
X13827112Y7715234D01*
X13827112Y7814947D02*
G01*
X13877112Y7814947D01*
X13892354Y7799712D02*
G01*
X13892354Y7730469D01*
X2818353Y6650738D02*
G01*
X2818353Y6600738D01*
X2733875Y6665981D02*
G01*
X2803116Y6665981D01*
X2718635Y6600738D02*
G01*
X2718635Y6650738D01*
X2718849Y6506461D02*
G01*
X2718849Y6556461D01*
X2818561Y6556461D02*
G01*
X2818561Y6506461D01*
X2803326Y6491218D02*
G01*
X2734083Y6491218D01*
X14559709Y2578717D02*
G01*
X14559709Y2437716D01*
X14740430Y2437716D02*
G01*
X14740430Y2578717D01*
X14725190Y2593957D02*
G01*
X14574949Y2593957D01*
X14559709Y2216477D02*
G01*
X14559709Y2357478D01*
X14740430Y2357478D02*
G01*
X14740430Y2216477D01*
X14725190Y2201237D02*
G01*
X14574949Y2201237D01*
X13688852Y6684624D02*
G01*
X13829852Y6684624D01*
X13829852Y6865345D02*
G01*
X13688852Y6865345D01*
X13673612Y6850105D02*
G01*
X13673612Y6699864D01*
X14051092Y6684624D02*
G01*
X13910091Y6684624D01*
X13910091Y6865345D02*
G01*
X14051092Y6865345D01*
X14066332Y6850105D02*
G01*
X14066332Y6699864D01*
D13*
X12928600Y5412597D02*
G01*
X12928600Y5196789D01*
X12933428Y5196789D01*
X13826190Y6530616D02*
G01*
X13794198Y6562603D01*
X13826190Y6530616D02*
G01*
X13826190Y6411592D01*
X13047007Y6530616D02*
G01*
X13047007Y6420192D01*
X13087210Y6562603D02*
G01*
X13087210Y6562219D01*
X13047007Y6522016D01*
X13794198Y6562603D02*
G01*
X13087210Y6562603D01*
X13042900Y6411589D02*
G01*
X13038366Y6411589D01*
X13822083Y6411589D02*
G01*
X13819479Y6411589D01*
X13766073Y5744088D02*
G01*
X13766073Y5711598D01*
X13771229Y5711598D01*
X13614400Y5744088D02*
G01*
X13614400Y5711598D01*
X13624844Y5711598D01*
X13512073Y5744088D02*
G01*
X13512073Y5711598D01*
X13509876Y5711598D01*
X13360400Y5744088D02*
G01*
X13360400Y5711598D01*
X13362155Y5711598D01*
X13258073Y5744088D02*
G01*
X13258073Y5711598D01*
X13256544Y5711598D01*
X13106400Y5744088D02*
G01*
X13106400Y5711598D01*
X13106148Y5711598D01*
X13004038Y5756940D02*
G01*
X13004038Y5711598D01*
X12999201Y5711598D01*
X13106400Y5744088D02*
G01*
X13106400Y6379293D01*
X13074103Y6411587D01*
X13004038Y5744143D02*
G01*
X13004038Y6221912D01*
X13004038Y6377363D01*
X13038330Y6411650D01*
X13614400Y5744088D02*
G01*
X13614400Y6379293D01*
X13582103Y6411587D01*
X13512073Y5744088D02*
G01*
X13512073Y6377294D01*
X13546361Y6411587D01*
X13360400Y5744088D02*
G01*
X13360400Y6379293D01*
X13328103Y6411587D01*
X13258073Y5744088D02*
G01*
X13258073Y6377294D01*
X13292361Y6411587D01*
X13766073Y5744088D02*
G01*
X13766073Y6377294D01*
X13800366Y6411587D01*
X13868400Y5744088D02*
G01*
X13868400Y6379293D01*
X13836103Y6411587D01*
X13766073Y6280878D02*
G01*
X13614400Y6280878D01*
X13766073Y6232857D02*
G01*
X13614400Y6232857D01*
X13512800Y6274704D02*
G01*
X13361126Y6274704D01*
X13512800Y6226688D02*
G01*
X13361126Y6226688D01*
X13258800Y6274704D02*
G01*
X13107126Y6274704D01*
X13258800Y6226688D02*
G01*
X13107126Y6226688D01*
X13766800Y6046104D02*
G01*
X13615126Y6046104D01*
X13766800Y5998088D02*
G01*
X13615126Y5998088D01*
X13513526Y6039939D02*
G01*
X13361850Y6039939D01*
X13513526Y5991918D02*
G01*
X13361850Y5991918D01*
X13259526Y6039939D02*
G01*
X13107850Y6039939D01*
X13259526Y5991918D02*
G01*
X13107850Y5991918D01*
X13328103Y6411589D02*
G01*
X13292361Y6411589D01*
X13868400Y5831789D02*
G01*
X13868400Y5711598D01*
X13866787Y5711598D01*
X13944600Y5501589D02*
G01*
X13944600Y5711598D01*
X12976600Y5711598D01*
X12928600Y5412597D02*
G01*
X12928600Y5711598D01*
X12976600Y5711598D01*
X12928600Y5412597D02*
G01*
X13944600Y5412597D01*
X13836103Y6411589D02*
G01*
X13800366Y6411589D01*
X13582103Y6411589D02*
G01*
X13546361Y6411589D01*
X13074103Y6411589D02*
G01*
X13038366Y6411589D01*
X13944600Y5501589D02*
G01*
X13944600Y5196789D01*
X13939768Y5196789D01*
X13695431Y5196789D02*
G01*
X13685768Y5196789D01*
X13441431Y5196789D02*
G01*
X13431768Y5196789D01*
X13187431Y5196789D02*
G01*
X13177768Y5196789D01*
D10*
X1688777Y3440074D02*
G01*
X1866618Y3440074D01*
X1688777Y3747912D02*
G01*
X1866618Y3747912D01*
X28387339Y498914D02*
G01*
X28209499Y498914D01*
X28387339Y191076D02*
G01*
X28209499Y191076D01*
X1600179Y1141481D02*
G01*
X1778020Y1141481D01*
X1600179Y1449318D02*
G01*
X1778020Y1449318D01*
X28968720Y6415018D02*
G01*
X28790879Y6415018D01*
X28968720Y6107181D02*
G01*
X28790879Y6107181D01*
X1461676Y7809069D02*
G01*
X1639516Y7809069D01*
X1461676Y8116907D02*
G01*
X1639516Y8116907D01*
X29121120Y4014718D02*
G01*
X28943279Y4014718D01*
X29121120Y3706881D02*
G01*
X28943279Y3706881D01*
X28758418Y1340322D02*
G01*
X28758418Y1225077D01*
X28493181Y1225077D02*
G01*
X28493181Y1340322D01*
X1988281Y1263177D02*
G01*
X1988281Y1378422D01*
X2253518Y1378422D02*
G01*
X2253518Y1263177D01*
X5467367Y7717363D02*
G01*
X5612610Y7717363D01*
X5612610Y7820525D01*
X5467367Y8022605D02*
G01*
X5612610Y8022605D01*
X5612610Y7919443D01*
X5467367Y7824444D02*
G01*
X5467367Y7915523D01*
X13808478Y4114579D02*
G01*
X13953721Y4114579D01*
X13953721Y4217741D01*
X13808478Y4419820D02*
G01*
X13953721Y4419820D01*
X13953721Y4316658D01*
X13808478Y4221660D02*
G01*
X13808478Y4312739D01*
D13*
X5785078Y6494985D02*
G01*
X5785078Y7054616D01*
X5744707Y7094984D01*
X5600989Y6240985D02*
G01*
X5600989Y6494985D01*
X6148989Y6240985D02*
G01*
X5600989Y6240985D01*
X5698987Y6494985D02*
G01*
X5698987Y7056884D01*
X5737087Y7094984D01*
X6045080Y6494985D02*
G01*
X6045080Y7054616D01*
X5958989Y6494985D02*
G01*
X5958989Y7056884D01*
X6045080Y6494985D02*
G01*
X6045080Y7054616D01*
X6004712Y7094984D01*
X5958989Y6494985D02*
G01*
X5958989Y7056884D01*
X5997089Y7094984D01*
X6148989Y6494985D02*
G01*
X5600989Y6494985D01*
X6148989Y6494985D02*
G01*
X6148989Y6240985D01*
X3594991Y5405076D02*
G01*
X3035360Y5405076D01*
X2994992Y5364706D01*
X3848991Y5220987D02*
G01*
X3594991Y5220987D01*
X3848991Y5768987D02*
G01*
X3848991Y5220987D01*
X3594991Y5318986D02*
G01*
X3033092Y5318986D01*
X2994992Y5357086D01*
X3594991Y5665078D02*
G01*
X3035360Y5665078D01*
X3594991Y5578988D02*
G01*
X3033092Y5578988D01*
X3594991Y5665078D02*
G01*
X3035360Y5665078D01*
X2994992Y5624710D01*
X3594991Y5578988D02*
G01*
X3033092Y5578988D01*
X2994992Y5617088D01*
X3594991Y5768987D02*
G01*
X3594991Y5220987D01*
X3594991Y5768987D02*
G01*
X3848991Y5768987D01*
X25474861Y8349983D02*
G01*
X25474861Y7790352D01*
X25515232Y7749984D01*
X25658950Y8603983D02*
G01*
X25658950Y8349983D01*
X25110950Y8603983D02*
G01*
X25658950Y8603983D01*
X25560952Y8349983D02*
G01*
X25560952Y7788084D01*
X25522852Y7749984D01*
X25214859Y8349983D02*
G01*
X25214859Y7790352D01*
X25300950Y8349983D02*
G01*
X25300950Y7788084D01*
X25214859Y8349983D02*
G01*
X25214859Y7790352D01*
X25255227Y7749984D01*
X25300950Y8349983D02*
G01*
X25300950Y7788084D01*
X25262850Y7749984D01*
X25110950Y8349983D02*
G01*
X25658950Y8349983D01*
X25110950Y8349983D02*
G01*
X25110950Y8603983D01*
X15059969Y7064895D02*
G01*
X15619600Y7064895D01*
X15659968Y7105266D01*
X14805969Y7248984D02*
G01*
X15059969Y7248984D01*
X14805969Y6700984D02*
G01*
X14805969Y7248984D01*
X15059969Y7150986D02*
G01*
X15621868Y7150986D01*
X15659968Y7112886D01*
X15059969Y6804893D02*
G01*
X15619600Y6804893D01*
X15059969Y6890984D02*
G01*
X15621868Y6890984D01*
X15059969Y6804893D02*
G01*
X15619600Y6804893D01*
X15659968Y6845261D01*
X15059969Y6890984D02*
G01*
X15621868Y6890984D01*
X15659968Y6852884D01*
X15059969Y6700984D02*
G01*
X15059969Y7248984D01*
X15059969Y6700984D02*
G01*
X14805969Y6700984D01*
X15059969Y7729895D02*
G01*
X15619600Y7729895D01*
X15659968Y7770266D01*
X14805969Y7913984D02*
G01*
X15059969Y7913984D01*
X14805969Y7365984D02*
G01*
X14805969Y7913984D01*
X15059969Y7815986D02*
G01*
X15621868Y7815986D01*
X15659968Y7777886D01*
X15059969Y7469893D02*
G01*
X15619600Y7469893D01*
X15059969Y7555984D02*
G01*
X15621868Y7555984D01*
X15059969Y7469893D02*
G01*
X15619600Y7469893D01*
X15659968Y7510261D01*
X15059969Y7555984D02*
G01*
X15621868Y7555984D01*
X15659968Y7517884D01*
X15059969Y7365984D02*
G01*
X15059969Y7913984D01*
X15059969Y7365984D02*
G01*
X14805969Y7365984D01*
X16055058Y8204982D02*
G01*
X16055058Y8764612D01*
X16014687Y8804981D01*
X15870969Y7950982D02*
G01*
X15870969Y8204982D01*
X16418968Y7950982D02*
G01*
X15870969Y7950982D01*
X15968967Y8204982D02*
G01*
X15968967Y8766881D01*
X16007067Y8804981D01*
X16315060Y8204982D02*
G01*
X16315060Y8764612D01*
X16228969Y8204982D02*
G01*
X16228969Y8766881D01*
X16315060Y8204982D02*
G01*
X16315060Y8764612D01*
X16274691Y8804981D01*
X16228969Y8204982D02*
G01*
X16228969Y8766881D01*
X16267069Y8804981D01*
X16418968Y8204982D02*
G01*
X15870969Y8204982D01*
X16418968Y8204982D02*
G01*
X16418968Y7950982D01*
D10*
X5440126Y4067990D02*
G01*
X5424891Y4052580D01*
X5323248Y4052580D01*
X5309991Y4067990D01*
X5309991Y4321990D02*
G01*
X5325092Y4337405D01*
X5426735Y4337405D01*
X5439991Y4321990D01*
D14*
X5309991Y4067789D02*
G01*
X5309991Y4143989D01*
X5439991Y4322196D02*
G01*
X5439991Y4245996D01*
X5439991Y4067789D02*
G01*
X5439991Y4143989D01*
X5309991Y4322196D02*
G01*
X5309991Y4245996D01*
D16*
X29597350Y8767546D02*
G01*
X29787850Y8767546D01*
X29787850Y8526246D01*
X29597350Y8526246D01*
X29597350Y8767546D01*
D13*
X13214202Y4330793D02*
G01*
X13214202Y4417194D01*
X13214202Y4417194D02*
G01*
X13314205Y4417194D01*
X13354202Y4235797D02*
G01*
X13354202Y4298591D01*
X13214202Y4117195D02*
G01*
X13214202Y4203595D01*
X13214202Y4117195D02*
G01*
X13314205Y4117195D01*
D10*
X25821571Y6041923D02*
G01*
X25917458Y6041923D01*
X25917458Y6174044D01*
X25821571Y6174044D01*
X25736329Y6041923D02*
G01*
X25640441Y6041923D01*
X25640441Y6174044D01*
X25736329Y6174044D01*
X25821571Y5876823D02*
G01*
X25917458Y5876823D01*
X25917458Y6008944D01*
X25821571Y6008944D01*
X25736329Y5876823D02*
G01*
X25640441Y5876823D01*
X25640441Y6008944D01*
X25736329Y6008944D01*
X25361480Y2974179D02*
G01*
X25457368Y2974179D01*
X25457368Y3106300D01*
X25361480Y3106300D01*
X25276238Y2974179D02*
G01*
X25180350Y2974179D01*
X25180350Y3106300D01*
X25276238Y3106300D01*
X25361480Y3151979D02*
G01*
X25457368Y3151979D01*
X25457368Y3284100D01*
X25361480Y3284100D01*
X25276238Y3151979D02*
G01*
X25180350Y3151979D01*
X25180350Y3284100D01*
X25276238Y3284100D01*
X16080760Y5262321D02*
G01*
X16080760Y5358208D01*
X15948639Y5358208D01*
X15948639Y5262321D01*
X16080760Y5177078D02*
G01*
X16080760Y5081191D01*
X15948639Y5081191D01*
X15948639Y5177078D01*
X16245860Y5262321D02*
G01*
X16245860Y5358208D01*
X16113739Y5358208D01*
X16113739Y5262321D01*
X16245860Y5177078D02*
G01*
X16245860Y5081191D01*
X16113739Y5081191D01*
X16113739Y5177078D01*
X15915660Y5262321D02*
G01*
X15915660Y5358208D01*
X15783539Y5358208D01*
X15783539Y5262321D01*
X15915660Y5177078D02*
G01*
X15915660Y5081191D01*
X15783539Y5081191D01*
X15783539Y5177078D01*
X13279678Y3926860D02*
G01*
X13183791Y3926860D01*
X13183791Y3794739D01*
X13279678Y3794739D01*
X13364921Y3926860D02*
G01*
X13460808Y3926860D01*
X13460808Y3794739D01*
X13364921Y3794739D01*
X1684578Y5857260D02*
G01*
X1588691Y5857260D01*
X1588691Y5725139D01*
X1684578Y5725139D01*
X1769821Y5857260D02*
G01*
X1865708Y5857260D01*
X1865708Y5725139D01*
X1769821Y5725139D01*
X1671878Y6314460D02*
G01*
X1575991Y6314460D01*
X1575991Y6182339D01*
X1671878Y6182339D01*
X1757121Y6314460D02*
G01*
X1853008Y6314460D01*
X1853008Y6182339D01*
X1757121Y6182339D01*
X5063929Y4172369D02*
G01*
X5063929Y4076481D01*
X5196050Y4076481D01*
X5196050Y4172369D01*
X5063929Y4257611D02*
G01*
X5063929Y4353499D01*
X5196050Y4353499D01*
X5196050Y4257611D01*
X4478931Y4152369D02*
G01*
X4478931Y4056481D01*
X4611052Y4056481D01*
X4611052Y4152369D01*
X4478931Y4237611D02*
G01*
X4478931Y4333499D01*
X4611052Y4333499D01*
X4611052Y4237611D01*
X27668070Y5965474D02*
G01*
X27796563Y5965474D01*
X27796563Y6148892D01*
X27668070Y6148892D01*
X27572830Y5965474D02*
G01*
X27444336Y5965474D01*
X27444336Y6148892D01*
X27572830Y6148892D01*
X27668070Y5724174D02*
G01*
X27796563Y5724174D01*
X27796563Y5907592D01*
X27668070Y5907592D01*
X27572830Y5724174D02*
G01*
X27444336Y5724174D01*
X27444336Y5907592D01*
X27572830Y5907592D01*
X27877168Y2879483D02*
G01*
X28005661Y2879483D01*
X28005661Y3062902D01*
X27877168Y3062902D01*
X27781928Y2879483D02*
G01*
X27653434Y2879483D01*
X27653434Y3062902D01*
X27781928Y3062902D01*
X27877168Y3082683D02*
G01*
X28005661Y3082683D01*
X28005661Y3266102D01*
X27877168Y3266102D01*
X27781928Y3082683D02*
G01*
X27653434Y3082683D01*
X27653434Y3266102D01*
X27781928Y3266102D01*
X16220709Y3108319D02*
G01*
X16220709Y3236813D01*
X16037290Y3236813D01*
X16037290Y3108319D01*
X16220709Y3013080D02*
G01*
X16220709Y2884586D01*
X16037290Y2884586D01*
X16037290Y3013080D01*
X16017509Y3108319D02*
G01*
X16017509Y3236813D01*
X15834090Y3236813D01*
X15834090Y3108319D01*
X16017509Y3013080D02*
G01*
X16017509Y2884586D01*
X15834090Y2884586D01*
X15834090Y3013080D01*
X17954619Y3807190D02*
G01*
X18083113Y3807190D01*
X18083113Y3990609D01*
X17954619Y3990609D01*
X17859380Y3807190D02*
G01*
X17730886Y3807190D01*
X17730886Y3990609D01*
X17859380Y3990609D01*
X25353779Y3583531D02*
G01*
X25482273Y3583531D01*
X25482273Y3766949D01*
X25353779Y3766949D01*
X25258539Y3583531D02*
G01*
X25130046Y3583531D01*
X25130046Y3766949D01*
X25258539Y3766949D01*
X25585270Y6549674D02*
G01*
X25713763Y6549674D01*
X25713763Y6733092D01*
X25585270Y6733092D01*
X25490030Y6549674D02*
G01*
X25361536Y6549674D01*
X25361536Y6733092D01*
X25490030Y6733092D01*
X13105460Y4739878D02*
G01*
X13105460Y4668075D01*
X13005739Y4668075D01*
X13005739Y4739878D01*
X13105460Y4785121D02*
G01*
X13105460Y4856924D01*
X13005739Y4856924D01*
X13005739Y4785121D01*
X15186248Y1420637D02*
G01*
X15114445Y1420637D01*
X15114445Y1520357D01*
X15186248Y1520357D01*
X15231491Y1420637D02*
G01*
X15303294Y1420637D01*
X15303294Y1520357D01*
X15231491Y1520357D01*
X15186248Y1611137D02*
G01*
X15114445Y1611137D01*
X15114445Y1710857D01*
X15186248Y1710857D01*
X15231491Y1611137D02*
G01*
X15303294Y1611137D01*
X15303294Y1710857D01*
X15231491Y1710857D01*
X13410793Y8556477D02*
G01*
X13482596Y8556477D01*
X13482596Y8456757D01*
X13410793Y8456757D01*
X13365551Y8556477D02*
G01*
X13293747Y8556477D01*
X13293747Y8456757D01*
X13365551Y8456757D01*
X13030113Y8367605D02*
G01*
X13030113Y8439409D01*
X13129834Y8439409D01*
X13129834Y8367605D01*
X13030113Y8322363D02*
G01*
X13030113Y8250560D01*
X13129834Y8250560D01*
X13129834Y8322363D01*
X29245321Y8660460D02*
G01*
X29317124Y8660460D01*
X29317124Y8560739D01*
X29245321Y8560739D01*
X29200078Y8660460D02*
G01*
X29128275Y8660460D01*
X29128275Y8560739D01*
X29200078Y8560739D01*
D13*
X4179999Y1679996D02*
G01*
X4421868Y1679996D01*
X4179999Y1159997D02*
G01*
X4421868Y1159997D01*
X4107959Y1617954D02*
G01*
X4039989Y1550001D01*
X4492035Y1222034D02*
G01*
X4559993Y1289992D01*
X4559993Y1550001D01*
X4492035Y1617954D01*
X4039989Y1550001D02*
G01*
X4039989Y1289992D01*
X4107959Y1222034D01*
D14*
X14142069Y2156297D02*
G01*
X13976969Y2156297D01*
X13951569Y2181697D01*
X13951569Y2410297D01*
X13976969Y2435697D01*
X14142069Y2435697D01*
X14294469Y2435697D02*
G01*
X14459569Y2435697D01*
X14484969Y2410297D01*
X14484969Y2181697D01*
X14459569Y2156297D01*
X14294469Y2156297D01*
D17*
X14538970Y1851611D02*
G01*
X14538970Y1860895D01*
X14565850Y1463502D02*
G01*
X14538970Y1463502D01*
X14538970Y1475379D01*
X14938768Y1475374D02*
G01*
X14938768Y1463502D01*
X14912086Y1463502D01*
X14907082Y1863483D02*
G01*
X14938768Y1863483D01*
X14938768Y1851581D01*
X14538970Y1863483D02*
G01*
X14570854Y1863483D01*
D10*
X4342371Y4862863D02*
G01*
X4342371Y5217142D01*
X5327611Y5217142D01*
X5327611Y4862863D01*
X4342371Y4862863D01*
D18*
X12765415Y7758996D02*
G01*
X13385175Y7758996D01*
X13385175Y7093516D01*
X12722235Y7093516D01*
X12722235Y7758996D01*
X12798435Y7758996D01*
D13*
X4575992Y8152345D02*
G01*
X4979205Y8152345D01*
X4979205Y7391400D01*
X4575609Y7391400D01*
X29465041Y1538109D02*
G01*
X29465041Y1639315D01*
X29465041Y520674D02*
G01*
X29465041Y621883D01*
X29680941Y317997D02*
G01*
X29465041Y317997D01*
X29465041Y359308D01*
X30231829Y1845909D02*
G01*
X29465041Y1845909D01*
X29465041Y1800682D01*
X30900141Y1845909D02*
G01*
X30428057Y1845909D01*
X30428057Y317997D02*
G01*
X30900141Y317997D01*
X30900141Y1845909D01*
X29680941Y317997D02*
G01*
X30231829Y317997D01*
X1244600Y824588D02*
G01*
X1244600Y723381D01*
X1244600Y1842023D02*
G01*
X1244600Y1740814D01*
X1028700Y2044700D02*
G01*
X1244600Y2044700D01*
X1244600Y2003389D01*
X477812Y516788D02*
G01*
X1244600Y516788D01*
X1244600Y562015D01*
X-190500Y516788D02*
G01*
X281584Y516788D01*
X281584Y2044700D02*
G01*
X-190500Y2044700D01*
X-190500Y516788D01*
X1028700Y2044700D02*
G01*
X477812Y2044700D01*
X-218800Y2938993D02*
G01*
X880297Y2938993D01*
X886198Y3158365D02*
G01*
X886198Y2938993D01*
X886198Y3408380D02*
G01*
X886198Y3329594D01*
X886198Y3608377D02*
G01*
X886198Y3579606D01*
X886198Y3858364D02*
G01*
X886198Y3779606D01*
X-218800Y2938993D02*
G01*
X-218800Y4248990D01*
X886198Y4248990D01*
X886198Y4029593D01*
X30939798Y6916099D02*
G01*
X29840699Y6916099D01*
X29834799Y6696727D02*
G01*
X29834799Y6916099D01*
X29834799Y6446713D02*
G01*
X29834799Y6525498D01*
X29834799Y6246715D02*
G01*
X29834799Y6275486D01*
X29834799Y5996729D02*
G01*
X29834799Y6075486D01*
X30939798Y6916099D02*
G01*
X30939798Y5606102D01*
X29834799Y5606102D01*
X29834799Y5825500D01*
X-264800Y7325984D02*
G01*
X834298Y7325984D01*
X840198Y7545357D02*
G01*
X840198Y7325984D01*
X840198Y7795371D02*
G01*
X840198Y7716586D01*
X840198Y7995368D02*
G01*
X840198Y7966598D01*
X840198Y8245355D02*
G01*
X840198Y8166597D01*
X-264800Y7325984D02*
G01*
X-264800Y8635982D01*
X840198Y8635982D01*
X840198Y8416584D01*
X30939798Y4515799D02*
G01*
X29840699Y4515799D01*
X29834799Y4296427D02*
G01*
X29834799Y4515799D01*
X29834799Y4046413D02*
G01*
X29834799Y4125198D01*
X29834799Y3846415D02*
G01*
X29834799Y3875186D01*
X29834799Y3596429D02*
G01*
X29834799Y3675186D01*
X30939798Y4515799D02*
G01*
X30939798Y3205802D01*
X29834799Y3205802D01*
X29834799Y3425200D01*
X-301500Y6615000D02*
G01*
X-301500Y4822758D01*
X-215331Y4890020D02*
G01*
X-226479Y4890020D01*
X-301500Y4814999D01*
X-215331Y6540022D02*
G01*
X-226522Y6540022D01*
X-301500Y6615000D01*
X-215331Y4890020D02*
G01*
X98501Y4890020D01*
X-215331Y6540022D02*
G01*
X98501Y6540022D01*
X-215331Y6540022D02*
G01*
X-215331Y4890020D01*
X1148506Y6165011D02*
G01*
X1148506Y6540022D01*
X1050620Y4890020D02*
G01*
X1148506Y4890020D01*
X1148506Y5115016D01*
X352623Y4890020D02*
G01*
X764392Y4890020D01*
X1050620Y6540022D02*
G01*
X1148506Y6540022D01*
X352623Y6540022D02*
G01*
X764392Y6540022D01*
D10*
X13822352Y7121695D02*
G01*
X13693858Y7121695D01*
X13693858Y6938276D01*
X13822352Y6938276D01*
X13917592Y7121695D02*
G01*
X14046085Y7121695D01*
X14046085Y6938276D01*
X13917592Y6938276D01*
X13487593Y8658273D02*
G01*
X13616086Y8658273D01*
X13616086Y8841691D01*
X13487593Y8841691D01*
X13392353Y8658273D02*
G01*
X13263859Y8658273D01*
X13263859Y8841691D01*
X13392353Y8841691D01*
X13897353Y8261692D02*
G01*
X13768859Y8261692D01*
X13768859Y8078274D01*
X13897353Y8078274D01*
X13992593Y8261692D02*
G01*
X14121086Y8261692D01*
X14121086Y8078274D01*
X13992593Y8078274D01*
G75*
G01*
X28464761Y661236D02*
G02*
X28449521Y676476I0J15240D01*
G75*
G01*
X28449521Y745716D02*
G02*
X28464761Y760956I15240J0D01*
G75*
G01*
X28609039Y761164D02*
G02*
X28624279Y745924I0J-15240D01*
G75*
G01*
X28624279Y676684D02*
G02*
X28609039Y661444I-15240J0D01*
G75*
G01*
X28532839Y1078664D02*
G02*
X28548079Y1063424I0J-15240D01*
G75*
G01*
X28548079Y994184D02*
G02*
X28532839Y978944I-15240J0D01*
G75*
G01*
X28388561Y978736D02*
G02*
X28373321Y993976I0J15240D01*
G75*
G01*
X28373321Y1063216D02*
G02*
X28388561Y1078456I15240J0D01*
G75*
G01*
X27756089Y7212048D02*
G02*
X27771329Y7196808I0J-15240D01*
G75*
G01*
X27771329Y7127568D02*
G02*
X27756089Y7112328I-15240J0D01*
G75*
G01*
X27611812Y7112119D02*
G02*
X27596572Y7127359I0J15240D01*
G75*
G01*
X27596572Y7196600D02*
G02*
X27611812Y7211840I15240J0D01*
G75*
G01*
X27756089Y7085048D02*
G02*
X27771329Y7069808I0J-15240D01*
G75*
G01*
X27771329Y7000568D02*
G02*
X27756089Y6985328I-15240J0D01*
G75*
G01*
X27611812Y6985119D02*
G02*
X27596572Y7000359I0J15240D01*
G75*
G01*
X27596572Y7069600D02*
G02*
X27611812Y7084840I15240J0D01*
G75*
G01*
X2378961Y1562936D02*
G02*
X2363721Y1578176I0J15240D01*
G75*
G01*
X2363721Y1647416D02*
G02*
X2378961Y1662656I15240J0D01*
G75*
G01*
X2523239Y1662864D02*
G02*
X2538479Y1647624I0J-15240D01*
G75*
G01*
X2538479Y1578384D02*
G02*
X2523239Y1563144I-15240J0D01*
G75*
G01*
X2281939Y1662864D02*
G02*
X2297179Y1647624I0J-15240D01*
G75*
G01*
X2297179Y1578384D02*
G02*
X2281939Y1563144I-15240J0D01*
G75*
G01*
X2137661Y1562936D02*
G02*
X2122421Y1578176I0J15240D01*
G75*
G01*
X2122421Y1647416D02*
G02*
X2137661Y1662656I15240J0D01*
G75*
G01*
X25660589Y7351748D02*
G02*
X25675829Y7336508I0J-15240D01*
G75*
G01*
X25675829Y7267268D02*
G02*
X25660589Y7252028I-15240J0D01*
G75*
G01*
X25516312Y7251819D02*
G02*
X25501072Y7267059I0J15240D01*
G75*
G01*
X25501072Y7336300D02*
G02*
X25516312Y7351540I15240J0D01*
G75*
G01*
X25660589Y7212048D02*
G02*
X25675829Y7196808I0J-15240D01*
G75*
G01*
X25675829Y7127568D02*
G02*
X25660589Y7112328I-15240J0D01*
G75*
G01*
X25516312Y7112119D02*
G02*
X25501072Y7127359I0J15240D01*
G75*
G01*
X25501072Y7196600D02*
G02*
X25516312Y7211840I15240J0D01*
G75*
G01*
X25660589Y7072348D02*
G02*
X25675829Y7057108I0J-15240D01*
G75*
G01*
X25675829Y6987868D02*
G02*
X25660589Y6972628I-15240J0D01*
G75*
G01*
X25516312Y6972419D02*
G02*
X25501072Y6987659I0J15240D01*
G75*
G01*
X25501072Y7056900D02*
G02*
X25516312Y7072140I15240J0D01*
G75*
G01*
X25660589Y6932648D02*
G02*
X25675829Y6917408I0J-15240D01*
G75*
G01*
X25675829Y6848168D02*
G02*
X25660589Y6832928I-15240J0D01*
G75*
G01*
X25516312Y6832719D02*
G02*
X25501072Y6847959I0J15240D01*
G75*
G01*
X25501072Y6917200D02*
G02*
X25516312Y6932440I15240J0D01*
G75*
G01*
X27756089Y6958048D02*
G02*
X27771329Y6942808I0J-15240D01*
G75*
G01*
X27771329Y6873568D02*
G02*
X27756089Y6858328I-15240J0D01*
G75*
G01*
X27611812Y6858119D02*
G02*
X27596572Y6873359I0J15240D01*
G75*
G01*
X27596572Y6942600D02*
G02*
X27611812Y6957840I15240J0D01*
G75*
G01*
X27756089Y6831048D02*
G02*
X27771329Y6815808I0J-15240D01*
G75*
G01*
X27771329Y6746568D02*
G02*
X27756089Y6731328I-15240J0D01*
G75*
G01*
X27611812Y6731119D02*
G02*
X27596572Y6746359I0J15240D01*
G75*
G01*
X27596572Y6815600D02*
G02*
X27611812Y6830840I15240J0D01*
G75*
G01*
X27756089Y6704048D02*
G02*
X27771329Y6688808I0J-15240D01*
G75*
G01*
X27771329Y6619568D02*
G02*
X27756089Y6604328I-15240J0D01*
G75*
G01*
X27611812Y6604119D02*
G02*
X27596572Y6619359I0J15240D01*
G75*
G01*
X27596572Y6688600D02*
G02*
X27611812Y6703840I15240J0D01*
G75*
G01*
X27756089Y6577048D02*
G02*
X27771329Y6561808I0J-15240D01*
G75*
G01*
X27771329Y6492568D02*
G02*
X27756089Y6477328I-15240J0D01*
G75*
G01*
X27611812Y6477119D02*
G02*
X27596572Y6492359I0J15240D01*
G75*
G01*
X27596572Y6561600D02*
G02*
X27611812Y6576840I15240J0D01*
G75*
G01*
X27756089Y6323048D02*
G02*
X27771329Y6307808I0J-15240D01*
G75*
G01*
X27771329Y6238568D02*
G02*
X27756089Y6223328I-15240J0D01*
G75*
G01*
X27611812Y6223119D02*
G02*
X27596572Y6238359I0J15240D01*
G75*
G01*
X27596572Y6307600D02*
G02*
X27611812Y6322840I15240J0D01*
G75*
G01*
X27756089Y6462748D02*
G02*
X27771329Y6447508I0J-15240D01*
G75*
G01*
X27771329Y6378268D02*
G02*
X27756089Y6363028I-15240J0D01*
G75*
G01*
X27611812Y6362819D02*
G02*
X27596572Y6378059I0J15240D01*
G75*
G01*
X27596572Y6447300D02*
G02*
X27611812Y6462540I15240J0D01*
G75*
G01*
X27825487Y3554557D02*
G02*
X27840727Y3539317I0J-15240D01*
G75*
G01*
X27840727Y3470077D02*
G02*
X27825487Y3454837I-15240J0D01*
G75*
G01*
X27681210Y3454629D02*
G02*
X27665970Y3469869I0J15240D01*
G75*
G01*
X27665970Y3539109D02*
G02*
X27681210Y3554349I15240J0D01*
G75*
G01*
X27825487Y3427557D02*
G02*
X27840727Y3412317I0J-15240D01*
G75*
G01*
X27840727Y3343077D02*
G02*
X27825487Y3327837I-15240J0D01*
G75*
G01*
X27681210Y3327629D02*
G02*
X27665970Y3342869I0J15240D01*
G75*
G01*
X27665970Y3412109D02*
G02*
X27681210Y3427349I15240J0D01*
G75*
G01*
X25429098Y4449105D02*
G02*
X25444338Y4433865I0J-15240D01*
G75*
G01*
X25444338Y4364624D02*
G02*
X25429098Y4349384I-15240J0D01*
G75*
G01*
X25284821Y4349176D02*
G02*
X25269581Y4364416I0J15240D01*
G75*
G01*
X25269581Y4433656D02*
G02*
X25284821Y4448896I15240J0D01*
G75*
G01*
X27825487Y3681557D02*
G02*
X27840727Y3666317I0J-15240D01*
G75*
G01*
X27840727Y3597077D02*
G02*
X27825487Y3581837I-15240J0D01*
G75*
G01*
X27681210Y3581629D02*
G02*
X27665970Y3596869I0J15240D01*
G75*
G01*
X27665970Y3666109D02*
G02*
X27681210Y3681349I15240J0D01*
G75*
G01*
X27825487Y3795857D02*
G02*
X27840727Y3780617I0J-15240D01*
G75*
G01*
X27840727Y3711377D02*
G02*
X27825487Y3696137I-15240J0D01*
G75*
G01*
X27681210Y3695929D02*
G02*
X27665970Y3711169I0J15240D01*
G75*
G01*
X27665970Y3780409D02*
G02*
X27681210Y3795649I15240J0D01*
G75*
G01*
X25429098Y4309405D02*
G02*
X25444338Y4294165I0J-15240D01*
G75*
G01*
X25444338Y4224924D02*
G02*
X25429098Y4209684I-15240J0D01*
G75*
G01*
X25284821Y4209476D02*
G02*
X25269581Y4224716I0J15240D01*
G75*
G01*
X25269581Y4293956D02*
G02*
X25284821Y4309196I15240J0D01*
G75*
G01*
X25429098Y4169705D02*
G02*
X25444338Y4154465I0J-15240D01*
G75*
G01*
X25444338Y4085224D02*
G02*
X25429098Y4069984I-15240J0D01*
G75*
G01*
X25284821Y4069776D02*
G02*
X25269581Y4085016I0J15240D01*
G75*
G01*
X25269581Y4154256D02*
G02*
X25284821Y4169496I15240J0D01*
G75*
G01*
X25429098Y4030005D02*
G02*
X25444338Y4014765I0J-15240D01*
G75*
G01*
X25444338Y3945524D02*
G02*
X25429098Y3930284I-15240J0D01*
G75*
G01*
X25284821Y3930076D02*
G02*
X25269581Y3945316I0J15240D01*
G75*
G01*
X25269581Y4014556D02*
G02*
X25284821Y4029796I15240J0D01*
G75*
G01*
X18029939Y4596564D02*
G02*
X18045179Y4581324I0J-15240D01*
G75*
G01*
X18045179Y4512084D02*
G02*
X18029939Y4496844I-15240J0D01*
G75*
G01*
X17885661Y4496636D02*
G02*
X17870421Y4511876I0J15240D01*
G75*
G01*
X17870421Y4581116D02*
G02*
X17885661Y4596356I15240J0D01*
G75*
G01*
X18029939Y4456864D02*
G02*
X18045179Y4441624I0J-15240D01*
G75*
G01*
X18045179Y4372384D02*
G02*
X18029939Y4357144I-15240J0D01*
G75*
G01*
X17885661Y4356936D02*
G02*
X17870421Y4372176I0J15240D01*
G75*
G01*
X17870421Y4441416D02*
G02*
X17885661Y4456656I15240J0D01*
G75*
G01*
X18029939Y4329864D02*
G02*
X18045179Y4314624I0J-15240D01*
G75*
G01*
X18045179Y4245384D02*
G02*
X18029939Y4230144I-15240J0D01*
G75*
G01*
X17885661Y4229936D02*
G02*
X17870421Y4245176I0J15240D01*
G75*
G01*
X17870421Y4314416D02*
G02*
X17885661Y4329656I15240J0D01*
G75*
G01*
X18029939Y4202864D02*
G02*
X18045179Y4187624I0J-15240D01*
G75*
G01*
X18045179Y4118384D02*
G02*
X18029939Y4103144I-15240J0D01*
G75*
G01*
X17885661Y4102936D02*
G02*
X17870421Y4118176I0J15240D01*
G75*
G01*
X17870421Y4187416D02*
G02*
X17885661Y4202656I15240J0D01*
G75*
G01*
X16510836Y3069339D02*
G02*
X16526076Y3084579I15240J0D01*
G75*
G01*
X16595316Y3084579D02*
G02*
X16610556Y3069339I0J-15240D01*
G75*
G01*
X16610764Y2925061D02*
G02*
X16595524Y2909821I-15240J0D01*
G75*
G01*
X16526284Y2909821D02*
G02*
X16511044Y2925061I0J15240D01*
G75*
G01*
X16383836Y3069339D02*
G02*
X16399076Y3084579I15240J0D01*
G75*
G01*
X16468316Y3084579D02*
G02*
X16483556Y3069339I0J-15240D01*
G75*
G01*
X16483764Y2925061D02*
G02*
X16468524Y2909821I-15240J0D01*
G75*
G01*
X16399284Y2909821D02*
G02*
X16384044Y2925061I0J15240D01*
G75*
G01*
X14755731Y2017433D02*
G02*
X14740491Y2032673I0J15240D01*
G75*
G01*
X14740491Y2101914D02*
G02*
X14755731Y2117153I15240J-1D01*
G75*
G01*
X14900008Y2117362D02*
G02*
X14915248Y2102122I0J-15240D01*
G75*
G01*
X14915248Y2032881D02*
G02*
X14900008Y2017641I-15240J0D01*
G75*
G01*
X14003205Y1847436D02*
G02*
X14018445Y1862676I15240J0D01*
G75*
G01*
X14087686Y1862676D02*
G02*
X14102926Y1847436I0J-15240D01*
G75*
G01*
X14103134Y1703159D02*
G02*
X14087894Y1687919I-15240J0D01*
G75*
G01*
X14018654Y1687919D02*
G02*
X14003414Y1703159I0J15240D01*
G75*
G01*
X13955631Y1560233D02*
G02*
X13940391Y1575473I0J15240D01*
G75*
G01*
X13940391Y1644714D02*
G02*
X13955631Y1659953I15240J-1D01*
G75*
G01*
X14099908Y1660162D02*
G02*
X14115148Y1644922I0J-15240D01*
G75*
G01*
X14115148Y1575681D02*
G02*
X14099908Y1560441I-15240J0D01*
G75*
G01*
X1489961Y5004636D02*
G02*
X1474721Y5019876I0J15240D01*
G75*
G01*
X1474721Y5089116D02*
G02*
X1489961Y5104356I15240J0D01*
G75*
G01*
X1634239Y5104564D02*
G02*
X1649479Y5089324I0J-15240D01*
G75*
G01*
X1649479Y5020084D02*
G02*
X1634239Y5004844I-15240J0D01*
G75*
G01*
X1489961Y5131636D02*
G02*
X1474721Y5146876I0J15240D01*
G75*
G01*
X1474721Y5216116D02*
G02*
X1489961Y5231356I15240J0D01*
G75*
G01*
X1634239Y5231564D02*
G02*
X1649479Y5216324I0J-15240D01*
G75*
G01*
X1649479Y5147084D02*
G02*
X1634239Y5131844I-15240J0D01*
G75*
G01*
X2277361Y5588836D02*
G02*
X2262121Y5604076I0J15240D01*
G75*
G01*
X2262121Y5673316D02*
G02*
X2277361Y5688556I15240J0D01*
G75*
G01*
X2421639Y5688764D02*
G02*
X2436879Y5673524I0J-15240D01*
G75*
G01*
X2436879Y5604284D02*
G02*
X2421639Y5589044I-15240J0D01*
G75*
G01*
X1489961Y5258636D02*
G02*
X1474721Y5273876I0J15240D01*
G75*
G01*
X1474721Y5343116D02*
G02*
X1489961Y5358356I15240J0D01*
G75*
G01*
X1634239Y5358564D02*
G02*
X1649479Y5343324I0J-15240D01*
G75*
G01*
X1649479Y5274084D02*
G02*
X1634239Y5258844I-15240J0D01*
G75*
G01*
X2277361Y5842836D02*
G02*
X2262121Y5858076I0J15240D01*
G75*
G01*
X2262121Y5927316D02*
G02*
X2277361Y5942556I15240J0D01*
G75*
G01*
X2421639Y5942764D02*
G02*
X2436879Y5927524I0J-15240D01*
G75*
G01*
X2436879Y5858284D02*
G02*
X2421639Y5843044I-15240J0D01*
G75*
G01*
X2277361Y5715836D02*
G02*
X2262121Y5731076I0J15240D01*
G75*
G01*
X2262121Y5800316D02*
G02*
X2277361Y5815556I15240J0D01*
G75*
G01*
X2421639Y5815764D02*
G02*
X2436879Y5800524I0J-15240D01*
G75*
G01*
X2436879Y5731284D02*
G02*
X2421639Y5716044I-15240J0D01*
G75*
G01*
X1489961Y5385636D02*
G02*
X1474721Y5400876I0J15240D01*
G75*
G01*
X1474721Y5470116D02*
G02*
X1489961Y5485356I15240J0D01*
G75*
G01*
X1634239Y5485564D02*
G02*
X1649479Y5470324I0J-15240D01*
G75*
G01*
X1649479Y5401084D02*
G02*
X1634239Y5385844I-15240J0D01*
G75*
G01*
X2277361Y5982536D02*
G02*
X2262121Y5997776I0J15240D01*
G75*
G01*
X2262121Y6067016D02*
G02*
X2277361Y6082256I15240J0D01*
G75*
G01*
X2421639Y6082464D02*
G02*
X2436879Y6067224I0J-15240D01*
G75*
G01*
X2436879Y5997984D02*
G02*
X2421639Y5982744I-15240J0D01*
G75*
G01*
X1528061Y5893636D02*
G02*
X1512821Y5908876I0J15240D01*
G75*
G01*
X1512821Y5978116D02*
G02*
X1528061Y5993356I15240J0D01*
G75*
G01*
X1672339Y5993564D02*
G02*
X1687579Y5978324I0J-15240D01*
G75*
G01*
X1687579Y5909084D02*
G02*
X1672339Y5893844I-15240J0D01*
G75*
G01*
X1528061Y6033336D02*
G02*
X1512821Y6048576I0J15240D01*
G75*
G01*
X1512821Y6117816D02*
G02*
X1528061Y6133056I15240J0D01*
G75*
G01*
X1672339Y6133264D02*
G02*
X1687579Y6118024I0J-15240D01*
G75*
G01*
X1687579Y6048784D02*
G02*
X1672339Y6033544I-15240J0D01*
G75*
G01*
X4824956Y4097853D02*
G02*
X4809716Y4082613I-15240J0D01*
G75*
G01*
X4740476Y4082613D02*
G02*
X4725236Y4097853I0J15240D01*
G75*
G01*
X4725027Y4242130D02*
G02*
X4740267Y4257370I15240J0D01*
G75*
G01*
X4809508Y4257370D02*
G02*
X4824748Y4242130I0J-15240D01*
G75*
G01*
X5164955Y5612849D02*
G02*
X5149715Y5597609I-15240J0D01*
G75*
G01*
X5080475Y5597609D02*
G02*
X5065235Y5612849I0J15240D01*
G75*
G01*
X5065027Y5757126D02*
G02*
X5080267Y5772366I15240J0D01*
G75*
G01*
X5149507Y5772366D02*
G02*
X5164747Y5757126I0J-15240D01*
G75*
G01*
X5309954Y5612849D02*
G02*
X5294714Y5597609I-15240J0D01*
G75*
G01*
X5225473Y5597609D02*
G02*
X5210233Y5612849I0J15240D01*
G75*
G01*
X5210025Y5757126D02*
G02*
X5225265Y5772366I15240J0D01*
G75*
G01*
X5294506Y5772366D02*
G02*
X5309746Y5757126I0J-15240D01*
G75*
G01*
X4497852Y5595023D02*
G02*
X4482612Y5610263I0J15240D01*
G75*
G01*
X4482612Y5679503D02*
G02*
X4497852Y5694743I15240J0D01*
G75*
G01*
X4642129Y5694952D02*
G02*
X4657369Y5679712I0J-15240D01*
G75*
G01*
X4657369Y5610471D02*
G02*
X4642129Y5595231I-15240J0D01*
G75*
G01*
X4717852Y5590024D02*
G02*
X4702612Y5605264I0J15240D01*
G75*
G01*
X4702612Y5674505D02*
G02*
X4717852Y5689745I15240J0D01*
G75*
G01*
X4862129Y5689953D02*
G02*
X4877369Y5674713I0J-15240D01*
G75*
G01*
X4877369Y5605473D02*
G02*
X4862129Y5590233I-15240J0D01*
G75*
G01*
X12794940Y6602849D02*
G02*
X12779700Y6587609I-15240J0D01*
G75*
G01*
X12710460Y6587609D02*
G02*
X12695220Y6602849I0J15240D01*
G75*
G01*
X12695011Y6747126D02*
G02*
X12710251Y6762366I15240J0D01*
G75*
G01*
X12779492Y6762366D02*
G02*
X12794732Y6747126I0J-15240D01*
G75*
G01*
X13737834Y7185020D02*
G02*
X13722594Y7200260I0J15240D01*
G75*
G01*
X13722594Y7269500D02*
G02*
X13737834Y7284740I15240J0D01*
G75*
G01*
X13882111Y7284949D02*
G02*
X13897351Y7269709I0J-15240D01*
G75*
G01*
X13897351Y7200468D02*
G02*
X13882111Y7185228I-15240J0D01*
G75*
G01*
X13164939Y8717844D02*
G02*
X13149699Y8702604I-15240J0D01*
G75*
G01*
X13080459Y8702604D02*
G02*
X13065219Y8717844I0J15240D01*
G75*
G01*
X13065011Y8862121D02*
G02*
X13080251Y8877361I15240J0D01*
G75*
G01*
X13149491Y8877361D02*
G02*
X13164731Y8862121I0J-15240D01*
G75*
G01*
X12929939Y6602847D02*
G02*
X12914699Y6587607I-15240J0D01*
G75*
G01*
X12845458Y6587607D02*
G02*
X12830218Y6602847I0J15240D01*
G75*
G01*
X12830010Y6747124D02*
G02*
X12845250Y6762364I15240J0D01*
G75*
G01*
X12914490Y6762364D02*
G02*
X12929730Y6747124I0J-15240D01*
G75*
G01*
X13737834Y7315022D02*
G02*
X13722594Y7330262I0J15240D01*
G75*
G01*
X13722594Y7399503D02*
G02*
X13737834Y7414743I15240J0D01*
G75*
G01*
X13882111Y7414951D02*
G02*
X13897351Y7399711I0J-15240D01*
G75*
G01*
X13897351Y7330470D02*
G02*
X13882111Y7315230I-15240J0D01*
G75*
G01*
X13302836Y8010020D02*
G02*
X13287596Y8025260I0J15240D01*
G75*
G01*
X13287596Y8094500D02*
G02*
X13302836Y8109740I15240J0D01*
G75*
G01*
X13447113Y8109948D02*
G02*
X13462353Y8094708I0J-15240D01*
G75*
G01*
X13462353Y8025468D02*
G02*
X13447113Y8010228I-15240J0D01*
G75*
G01*
X13311033Y8296653D02*
G02*
X13295793Y8311893I0J15240D01*
G75*
G01*
X13295793Y8381134D02*
G02*
X13311033Y8396374I15240J0D01*
G75*
G01*
X13455310Y8396582D02*
G02*
X13470550Y8381342I0J-15240D01*
G75*
G01*
X13470550Y8312102D02*
G02*
X13455310Y8296862I-15240J0D01*
G75*
G01*
X13872111Y7669949D02*
G02*
X13887351Y7654709I0J-15240D01*
G75*
G01*
X13887351Y7585469D02*
G02*
X13872111Y7570229I-15240J0D01*
G75*
G01*
X13727834Y7570020D02*
G02*
X13712594Y7585260I0J15240D01*
G75*
G01*
X13712594Y7654501D02*
G02*
X13727834Y7669741I15240J0D01*
G75*
G01*
X13877112Y7814950D02*
G02*
X13892352Y7799710I0J-15240D01*
G75*
G01*
X13892352Y7730470D02*
G02*
X13877112Y7715230I-15240J0D01*
G75*
G01*
X13732835Y7715021D02*
G02*
X13717595Y7730261I0J15240D01*
G75*
G01*
X13717595Y7799502D02*
G02*
X13732835Y7814742I15240J0D01*
G75*
G01*
X2818564Y6506461D02*
G02*
X2803324Y6491221I-15240J0D01*
G75*
G01*
X2734084Y6491221D02*
G02*
X2718844Y6506461I0J15240D01*
G75*
G01*
X2718636Y6650739D02*
G02*
X2733876Y6665979I15240J0D01*
G75*
G01*
X2803116Y6665979D02*
G02*
X2818356Y6650739I0J-15240D01*
G75*
G01*
X14740430Y2578717D02*
G03*
X14725190Y2593957I-15240J0D01*
G75*
G01*
X14574949Y2593957D02*
G03*
X14559709Y2578717I0J-15240D01*
G75*
G01*
X14740430Y2216478D02*
G02*
X14725190Y2201238I-15240J0D01*
G75*
G01*
X14574949Y2201238D02*
G02*
X14559709Y2216478I0J15240D01*
G75*
G01*
X13688852Y6865346D02*
G03*
X13673612Y6850106I0J-15240D01*
G75*
G01*
X13673612Y6699865D02*
G03*
X13688852Y6684625I15240J0D01*
G75*
G01*
X14051092Y6865346D02*
G02*
X14066332Y6850106I0J-15240D01*
G75*
G01*
X14066332Y6699865D02*
G02*
X14051092Y6684625I-15240J0D01*
D19*
G75*
G01*
X12715977Y7018988D02*
G03*
X12716231Y7018988I127J-20000D01*
D13*
G75*
G01*
X4572320Y8151007D02*
G03*
X4572983Y7395621I-1038113J-378604D01*
G75*
G01
X5509997Y1238702D02*
G03X5509997Y1238702I-24994J0D01*
D20*
G75*
G01
X17352086Y3694684D02*
G03X17352086Y3694684I-15011J0D01*
G75*
G01
X27076654Y7327189D02*
G03X27076654Y7327189I-15011J0D01*
G75*
G01
X26960271Y4437080D02*
G03X26960271Y4437080I-15011J0D01*
G75*
G01
X1662557Y3760826D02*
G03X1662557Y3760826I-15011J0D01*
G75*
G01
X28443580Y178156D02*
G03X28443580Y178156I-15011J0D01*
G75*
G01
X1573962Y1462227D02*
G03X1573962Y1462227I-15011J0D01*
G75*
G01
X29024961Y6094273D02*
G03X29024961Y6094273I-15011J0D01*
G75*
G01
X1435456Y8129803D02*
G03X1435456Y8129803I-15011J0D01*
G75*
G01
X29177361Y3693973D02*
G03X29177361Y3693973I-15011J0D01*
D18*
G75*
G01
X28735807Y1384605D02*
G03X28735807Y1384605I-10008J0D01*
G75*
G01
X2030908Y1218895D02*
G03X2030908Y1218895I-10008J0D01*
D13*
G75*
G01
X4503191Y1419962D02*
G03X4503191Y1419962I-203200J0D01*
G75*
G01
X4439691Y1419962D02*
G03X4439691Y1419962I-139700J0D01*
D21*
G75*
G01
X14491183Y1860321D02*
G03X14491183Y1860321I-13005J0D01*
D20*
G75*
G01
X4427525Y4938090D02*
G03X4427525Y4938090I-15011J0D01*
G75*
G01
X4365142Y4753407D02*
G03X4365142Y4753407I-15011J0D01*
D13*
G75*
G01
X12810012Y7141972D02*
G03X12810012Y7141972I-17043J0D01*
G75*
G01
X1079017Y4074008D02*
G03X1079017Y4074008I-19990J0D01*
G75*
G01
X29681983Y5781091D02*
G03X29681983Y5781091I-19990J0D01*
G75*
G01
X1033018Y8460994D02*
G03X1033018Y8460994I-19990J0D01*
G75*
G01
X29681983Y3380791D02*
G03X29681983Y3380791I-19990J0D01*
D18*
G75*
G01
X1268501Y4915002D02*
G03X1268501Y4915002I-19990J0D01*
M02*
