G04 Layer: TopPasteMaskLayer*
G04 EasyEDA v6.5.57, 2026-07-26 20:50:06*
G04 f01cf997b2ac4535b0a7ee46c1186d17,c5fbdd24a08247c7b54e1019145e24f9,10*
G04 Gerber Generator version 0.2*
G04 Scale: 100 percent, Rotated: No, Reflected: No *
G04 Dimensions in millimeters *
G04 leading zeros omitted , absolute positions ,4 integer and 5 decimal *
%FSLAX45Y45*%
%MOMM*%

%AMMACRO1*21,1,$1,$2,0,0,$3*%
%AMMACRO2*4,1,10,0.45,0.35,-0.2499,0.35,-0.4499,0.35,-0.45,0.35,-0.45,0.1499,-0.4499,0.1499,-0.4499,-0.35,-0.2499,-0.35,-0.2499,0.1499,0.45,0.1499,0.45,0.35,0*%
%AMMACRO3*4,1,10,0.45,0.35,0.4499,0.35,0.2499,0.35,-0.45,0.35,-0.45,0.1499,0.2499,0.1499,0.2499,-0.35,0.4499,-0.35,0.4499,0.1499,0.45,0.1499,0.45,0.35,0*%
%AMMACRO4*4,1,7,-0.275,0.35,-0.475,0.35,-0.475,-0.1501,-0.475,-0.35,0.475,-0.35,0.475,-0.1501,-0.275,-0.1501,-0.275,0.35,0*%
%AMMACRO5*4,1,8,0.475,0.35,0.2749,0.35,0.2749,-0.15,-0.475,-0.15,-0.475,-0.35,0.475,-0.35,0.475,-0.15,0.475,-0.15,0.475,0.35,0*%
%ADD10MACRO1,3.78X2.185X0.0000*%
%ADD11R,0.3000X1.3000*%
%ADD12R,3.5000X4.6000*%
%ADD13R,1.2000X2.7500*%
%ADD14R,0.3000X1.5500*%
%ADD15R,2.7500X1.2000*%
%ADD16R,1.5500X0.3000*%
%ADD17R,0.5000X0.5400*%
%ADD18R,0.5400X0.5000*%
%ADD19R,0.0120X0.5000*%
%ADD20R,1.0720X0.5320*%
%ADD21R,0.2000X0.5650*%
%ADD22R,0.4000X0.5650*%
%ADD23R,1.0000X0.6500*%
%ADD24R,1.5000X1.1000*%
%ADD25MACRO1,0.5X1.5X-90.0000*%
%ADD26R,1.0000X0.8000*%
%ADD27R,0.8000X1.5800*%
%ADD28R,1.2000X2.0000*%
%ADD29MACRO2*%
%ADD30MACRO3*%
%ADD31MACRO4*%
%ADD32MACRO5*%
%ADD33R,0.6000X0.2000*%
%ADD34R,0.2000X0.6000*%
%ADD35R,0.2200X1.0000*%
%ADD36R,0.2200X0.9500*%
%ADD37R,0.6800X0.2000*%
%ADD38R,0.6500X0.2000*%
%ADD39R,0.7000X0.2000*%
%ADD40O,0.343002X1.731493*%
%ADD41R,5.6000X3.1000*%
%ADD42O,0.270002X1.499997*%
%ADD43O,1.499997X0.270002*%

%LPD*%
G36*
X30239614Y7771384D02*
G01*
X30234636Y7771180D01*
X30229708Y7770418D01*
X30224882Y7769199D01*
X30220158Y7767472D01*
X30215687Y7765338D01*
X30211420Y7762748D01*
X30207458Y7759700D01*
X30203800Y7756347D01*
X30200498Y7752588D01*
X30197602Y7748524D01*
X30195113Y7744206D01*
X30193081Y7739684D01*
X30191456Y7734960D01*
X30190338Y7730083D01*
X30189728Y7725156D01*
X30189627Y7720177D01*
X30189982Y7715199D01*
X30190846Y7710271D01*
X30192218Y7705496D01*
X30194046Y7700822D01*
X30196282Y7696403D01*
X30199025Y7692237D01*
X30202124Y7688325D01*
X30205578Y7684770D01*
X30209388Y7681569D01*
X30213553Y7678724D01*
X30217922Y7676337D01*
X30222494Y7674406D01*
X30227270Y7672933D01*
X30232146Y7671968D01*
X30237125Y7671460D01*
X30339588Y7671409D01*
X30344567Y7671663D01*
X30349494Y7672425D01*
X30354320Y7673644D01*
X30359045Y7675321D01*
X30363515Y7677505D01*
X30367782Y7680096D01*
X30371745Y7683093D01*
X30375402Y7686497D01*
X30378704Y7690256D01*
X30381600Y7694269D01*
X30384089Y7698587D01*
X30386121Y7703159D01*
X30387747Y7707884D01*
X30388864Y7712709D01*
X30389474Y7717688D01*
X30389576Y7722666D01*
X30389220Y7727645D01*
X30388356Y7732522D01*
X30386985Y7737348D01*
X30385156Y7741970D01*
X30382921Y7746390D01*
X30380177Y7750606D01*
X30377079Y7754518D01*
X30373624Y7758074D01*
X30369814Y7761274D01*
X30365649Y7764068D01*
X30361280Y7766456D01*
X30356708Y7768386D01*
X30351933Y7769859D01*
X30347056Y7770825D01*
X30342077Y7771333D01*
G37*
G36*
X30609590Y7771384D02*
G01*
X30604612Y7771180D01*
X30599684Y7770418D01*
X30594858Y7769199D01*
X30590185Y7767472D01*
X30585714Y7765338D01*
X30581447Y7762748D01*
X30577485Y7759700D01*
X30573827Y7756347D01*
X30570525Y7752588D01*
X30567579Y7748524D01*
X30565089Y7744206D01*
X30563058Y7739684D01*
X30561483Y7734960D01*
X30560365Y7730083D01*
X30559756Y7725156D01*
X30559603Y7720177D01*
X30560010Y7715199D01*
X30560873Y7710271D01*
X30562194Y7705496D01*
X30564023Y7700822D01*
X30566309Y7696403D01*
X30569001Y7692237D01*
X30572100Y7688325D01*
X30575605Y7684770D01*
X30579415Y7681569D01*
X30583530Y7678724D01*
X30587899Y7676337D01*
X30592522Y7674406D01*
X30597246Y7672933D01*
X30602174Y7671968D01*
X30607101Y7671460D01*
X30709615Y7671409D01*
X30714594Y7671663D01*
X30719522Y7672425D01*
X30724348Y7673644D01*
X30729021Y7675321D01*
X30733492Y7677505D01*
X30737759Y7680096D01*
X30741721Y7683093D01*
X30745379Y7686497D01*
X30748681Y7690256D01*
X30751627Y7694269D01*
X30754116Y7698587D01*
X30756148Y7703159D01*
X30757723Y7707884D01*
X30758841Y7712709D01*
X30759450Y7717688D01*
X30759603Y7722666D01*
X30759196Y7727645D01*
X30758333Y7732522D01*
X30757012Y7737348D01*
X30755183Y7741970D01*
X30752897Y7746390D01*
X30750205Y7750606D01*
X30747106Y7754518D01*
X30743601Y7758074D01*
X30739791Y7761274D01*
X30735676Y7764068D01*
X30731307Y7766456D01*
X30726684Y7768386D01*
X30721960Y7769859D01*
X30717032Y7770825D01*
X30712105Y7771333D01*
G37*
G36*
X30609590Y8635390D02*
G01*
X30604612Y8635136D01*
X30599684Y8634374D01*
X30594858Y8633155D01*
X30590185Y8631478D01*
X30585714Y8629294D01*
X30581447Y8626703D01*
X30577485Y8623706D01*
X30573827Y8620302D01*
X30570525Y8616543D01*
X30567579Y8612530D01*
X30565089Y8608212D01*
X30563058Y8603640D01*
X30561483Y8598916D01*
X30560365Y8594090D01*
X30559756Y8589111D01*
X30559603Y8584133D01*
X30560010Y8579154D01*
X30560873Y8574278D01*
X30562194Y8569452D01*
X30564023Y8564829D01*
X30566309Y8560409D01*
X30569001Y8556193D01*
X30572100Y8552281D01*
X30575605Y8548725D01*
X30579415Y8545525D01*
X30583530Y8542731D01*
X30587899Y8540343D01*
X30592522Y8538413D01*
X30597246Y8536940D01*
X30602174Y8535974D01*
X30607101Y8535466D01*
X30709615Y8535416D01*
X30714594Y8535619D01*
X30719522Y8536381D01*
X30724348Y8537600D01*
X30729021Y8539327D01*
X30733492Y8541461D01*
X30737759Y8544052D01*
X30741721Y8547100D01*
X30745379Y8550452D01*
X30748681Y8554212D01*
X30751627Y8558276D01*
X30754116Y8562594D01*
X30756148Y8567115D01*
X30757723Y8571839D01*
X30758841Y8576716D01*
X30759450Y8581644D01*
X30759603Y8586622D01*
X30759196Y8591600D01*
X30758333Y8596528D01*
X30757012Y8601303D01*
X30755183Y8605977D01*
X30752897Y8610396D01*
X30750205Y8614562D01*
X30747106Y8618474D01*
X30743601Y8622030D01*
X30739791Y8625230D01*
X30735676Y8628075D01*
X30731307Y8630462D01*
X30726684Y8632393D01*
X30721960Y8633866D01*
X30717032Y8634831D01*
X30712105Y8635339D01*
G37*
G36*
X30239614Y8635390D02*
G01*
X30234636Y8635136D01*
X30229708Y8634374D01*
X30224882Y8633155D01*
X30220158Y8631478D01*
X30215687Y8629294D01*
X30211420Y8626703D01*
X30207458Y8623706D01*
X30203800Y8620302D01*
X30200498Y8616543D01*
X30197602Y8612530D01*
X30195113Y8608212D01*
X30193081Y8603640D01*
X30191456Y8598916D01*
X30190338Y8594090D01*
X30189728Y8589111D01*
X30189627Y8584133D01*
X30189982Y8579154D01*
X30190846Y8574278D01*
X30192218Y8569452D01*
X30194046Y8564829D01*
X30196282Y8560409D01*
X30199025Y8556193D01*
X30202124Y8552281D01*
X30205578Y8548725D01*
X30209388Y8545525D01*
X30213553Y8542731D01*
X30217922Y8540343D01*
X30222494Y8538413D01*
X30227270Y8536940D01*
X30232146Y8535974D01*
X30237125Y8535466D01*
X30339588Y8535416D01*
X30344567Y8535619D01*
X30349494Y8536381D01*
X30354320Y8537600D01*
X30359045Y8539327D01*
X30363515Y8541461D01*
X30367782Y8544052D01*
X30371745Y8547100D01*
X30375402Y8550452D01*
X30378704Y8554212D01*
X30381600Y8558276D01*
X30384089Y8562594D01*
X30386121Y8567115D01*
X30387747Y8571839D01*
X30388864Y8576716D01*
X30389474Y8581644D01*
X30389576Y8586622D01*
X30389220Y8591600D01*
X30388356Y8596528D01*
X30386985Y8601303D01*
X30385156Y8605977D01*
X30382921Y8610396D01*
X30380177Y8614562D01*
X30377079Y8618474D01*
X30373624Y8622030D01*
X30369814Y8625230D01*
X30365649Y8628075D01*
X30361280Y8630462D01*
X30356708Y8632393D01*
X30351933Y8633866D01*
X30347056Y8634831D01*
X30342077Y8635339D01*
G37*
G36*
X30209591Y7913420D02*
G01*
X30209591Y7843418D01*
X30309565Y7843418D01*
X30309565Y7913420D01*
G37*
G36*
X30209591Y8031378D02*
G01*
X30209591Y7971383D01*
X30309565Y7971383D01*
X30309565Y8031378D01*
G37*
G36*
X30209591Y8128406D02*
G01*
X30209591Y8078419D01*
X30309565Y8078419D01*
X30309565Y8128406D01*
G37*
G36*
X30209591Y8228380D02*
G01*
X30209591Y8178393D01*
X30309565Y8178393D01*
X30309565Y8228380D01*
G37*
G36*
X30209591Y8463381D02*
G01*
X30209591Y8393379D01*
X30309565Y8393379D01*
X30309565Y8463381D01*
G37*
G36*
X30209591Y8335416D02*
G01*
X30209591Y8275421D01*
X30309565Y8275421D01*
X30309565Y8335416D01*
G37*
G36*
X14627098Y2352598D02*
G01*
X14586051Y2352090D01*
X14581073Y2347112D01*
X14581073Y2232101D01*
X14586051Y2227122D01*
X14714067Y2227122D01*
X14719096Y2232101D01*
X14719096Y2347112D01*
X14714067Y2352090D01*
X14672056Y2351582D01*
X14672056Y2307590D01*
X14627098Y2307590D01*
G37*
G36*
X14586051Y2568092D02*
G01*
X14581073Y2563114D01*
X14581073Y2448102D01*
X14586051Y2443073D01*
X14628063Y2443581D01*
X14628063Y2487574D01*
X14673072Y2487574D01*
X14673072Y2442565D01*
X14714067Y2443073D01*
X14719046Y2448102D01*
X14719046Y2563114D01*
X14714067Y2568092D01*
G37*
G36*
X13920469Y6843979D02*
G01*
X13915491Y6839000D01*
X13915948Y6796989D01*
X13959941Y6796989D01*
X13959941Y6751980D01*
X13914983Y6751980D01*
X13915491Y6710984D01*
X13920469Y6706006D01*
X14035481Y6706006D01*
X14040459Y6710984D01*
X14040459Y6839000D01*
X14035481Y6843979D01*
G37*
G36*
X13704468Y6843979D02*
G01*
X13699490Y6839000D01*
X13699490Y6710984D01*
X13704468Y6706006D01*
X13819479Y6706006D01*
X13824457Y6710984D01*
X13824000Y6752996D01*
X13779957Y6752996D01*
X13779957Y6798005D01*
X13824966Y6798005D01*
X13824457Y6839000D01*
X13819479Y6843979D01*
G37*
G36*
X5360670Y4169816D02*
G01*
X5331307Y4142435D01*
X5331307Y4092092D01*
X5337708Y4085691D01*
X5411317Y4085691D01*
X5417718Y4092092D01*
X5417718Y4142435D01*
X5388356Y4169816D01*
G37*
G36*
X5336590Y4305554D02*
G01*
X5330190Y4299153D01*
X5330190Y4248810D01*
X5359552Y4221378D01*
X5387238Y4221378D01*
X5416600Y4248810D01*
X5416600Y4299153D01*
X5410200Y4305554D01*
G37*
G36*
X25818439Y6152997D02*
G01*
X25813461Y6147968D01*
X25813461Y6125159D01*
X25850443Y6125159D01*
X25850443Y6092190D01*
X25813461Y6092190D01*
X25813461Y6067958D01*
X25818439Y6062980D01*
X25898449Y6062980D01*
X25903428Y6067958D01*
X25903428Y6147968D01*
X25898449Y6152997D01*
G37*
G36*
X25659435Y6152997D02*
G01*
X25654457Y6147968D01*
X25654457Y6068009D01*
X25659435Y6062980D01*
X25739445Y6062980D01*
X25744424Y6068009D01*
X25744424Y6090767D01*
X25707441Y6090767D01*
X25707441Y6123787D01*
X25744424Y6123787D01*
X25744424Y6147968D01*
X25739445Y6152997D01*
G37*
G36*
X25818439Y5987897D02*
G01*
X25813461Y5982868D01*
X25813461Y5960059D01*
X25850443Y5960059D01*
X25850443Y5927090D01*
X25813461Y5927090D01*
X25813461Y5902858D01*
X25818439Y5897880D01*
X25898449Y5897880D01*
X25903428Y5902858D01*
X25903428Y5982868D01*
X25898449Y5987897D01*
G37*
G36*
X25659435Y5987897D02*
G01*
X25654457Y5982868D01*
X25654457Y5902909D01*
X25659435Y5897880D01*
X25739445Y5897880D01*
X25744424Y5902909D01*
X25744424Y5925667D01*
X25707441Y5925667D01*
X25707441Y5958687D01*
X25744424Y5958687D01*
X25744424Y5982868D01*
X25739445Y5987897D01*
G37*
G36*
X25358344Y3085236D02*
G01*
X25353365Y3080258D01*
X25353365Y3057448D01*
X25390348Y3057448D01*
X25390348Y3024428D01*
X25353365Y3024428D01*
X25353365Y3000248D01*
X25358344Y2995218D01*
X25438354Y2995218D01*
X25443383Y3000248D01*
X25443383Y3080258D01*
X25438354Y3085236D01*
G37*
G36*
X25199340Y3085236D02*
G01*
X25194361Y3080258D01*
X25194361Y3000248D01*
X25199340Y2995218D01*
X25279350Y2995218D01*
X25284379Y3000248D01*
X25284379Y3023057D01*
X25247346Y3023057D01*
X25247346Y3056026D01*
X25284379Y3056026D01*
X25284379Y3080258D01*
X25279350Y3085236D01*
G37*
G36*
X25358344Y3263036D02*
G01*
X25353365Y3258058D01*
X25353365Y3235248D01*
X25390348Y3235248D01*
X25390348Y3202228D01*
X25353365Y3202228D01*
X25353365Y3178048D01*
X25358344Y3173018D01*
X25438354Y3173018D01*
X25443383Y3178048D01*
X25443383Y3258058D01*
X25438354Y3263036D01*
G37*
G36*
X25199340Y3263036D02*
G01*
X25194361Y3258058D01*
X25194361Y3178048D01*
X25199340Y3173018D01*
X25279350Y3173018D01*
X25284379Y3178048D01*
X25284379Y3200857D01*
X25247346Y3200857D01*
X25247346Y3233826D01*
X25284379Y3233826D01*
X25284379Y3258058D01*
X25279350Y3263036D01*
G37*
G36*
X15974720Y5344210D02*
G01*
X15969691Y5339181D01*
X15969691Y5259222D01*
X15974720Y5254193D01*
X15997478Y5254193D01*
X15997478Y5291226D01*
X16030498Y5291226D01*
X16030498Y5254193D01*
X16054679Y5254193D01*
X16059708Y5259222D01*
X16059708Y5339181D01*
X16054679Y5344210D01*
G37*
G36*
X15974720Y5185206D02*
G01*
X15969691Y5180177D01*
X15969691Y5100218D01*
X15974720Y5095189D01*
X16054679Y5095189D01*
X16059708Y5100218D01*
X16059708Y5180177D01*
X16054679Y5185206D01*
X16031921Y5185206D01*
X16031921Y5148173D01*
X15998901Y5148173D01*
X15998901Y5185206D01*
G37*
G36*
X16139820Y5344210D02*
G01*
X16134791Y5339181D01*
X16134791Y5259222D01*
X16139820Y5254193D01*
X16162578Y5254193D01*
X16162578Y5291226D01*
X16195598Y5291226D01*
X16195598Y5254193D01*
X16219779Y5254193D01*
X16224808Y5259222D01*
X16224808Y5339181D01*
X16219779Y5344210D01*
G37*
G36*
X16139820Y5185206D02*
G01*
X16134791Y5180177D01*
X16134791Y5100218D01*
X16139820Y5095189D01*
X16219779Y5095189D01*
X16224808Y5100218D01*
X16224808Y5180177D01*
X16219779Y5185206D01*
X16197021Y5185206D01*
X16197021Y5148173D01*
X16164001Y5148173D01*
X16164001Y5185206D01*
G37*
G36*
X15809620Y5344210D02*
G01*
X15804591Y5339181D01*
X15804591Y5259222D01*
X15809620Y5254193D01*
X15832378Y5254193D01*
X15832378Y5291226D01*
X15865398Y5291226D01*
X15865398Y5254193D01*
X15889579Y5254193D01*
X15894608Y5259222D01*
X15894608Y5339181D01*
X15889579Y5344210D01*
G37*
G36*
X15809620Y5185206D02*
G01*
X15804591Y5180177D01*
X15804591Y5100218D01*
X15809620Y5095189D01*
X15889579Y5095189D01*
X15894608Y5100218D01*
X15894608Y5180177D01*
X15889579Y5185206D01*
X15866821Y5185206D01*
X15866821Y5148173D01*
X15833801Y5148173D01*
X15833801Y5185206D01*
G37*
G36*
X13202818Y3905808D02*
G01*
X13197789Y3900779D01*
X13197789Y3820820D01*
X13202818Y3815791D01*
X13282777Y3815791D01*
X13287806Y3820820D01*
X13287806Y3843578D01*
X13250824Y3843578D01*
X13250824Y3876598D01*
X13287806Y3876598D01*
X13287806Y3900779D01*
X13282777Y3905808D01*
G37*
G36*
X13361822Y3905808D02*
G01*
X13356793Y3900779D01*
X13356793Y3878021D01*
X13393775Y3878021D01*
X13393775Y3845001D01*
X13356793Y3845001D01*
X13356793Y3820820D01*
X13361822Y3815791D01*
X13441781Y3815791D01*
X13446810Y3820820D01*
X13446810Y3900779D01*
X13441781Y3905808D01*
G37*
G36*
X1607718Y5836208D02*
G01*
X1602689Y5831179D01*
X1602689Y5751220D01*
X1607718Y5746191D01*
X1687677Y5746191D01*
X1692706Y5751220D01*
X1692706Y5773978D01*
X1655673Y5773978D01*
X1655673Y5806998D01*
X1692706Y5806998D01*
X1692706Y5831179D01*
X1687677Y5836208D01*
G37*
G36*
X1766722Y5836208D02*
G01*
X1761693Y5831179D01*
X1761693Y5808421D01*
X1798726Y5808421D01*
X1798726Y5775401D01*
X1761693Y5775401D01*
X1761693Y5751220D01*
X1766722Y5746191D01*
X1846681Y5746191D01*
X1851710Y5751220D01*
X1851710Y5831179D01*
X1846681Y5836208D01*
G37*
G36*
X1595018Y6293408D02*
G01*
X1589989Y6288379D01*
X1589989Y6208420D01*
X1595018Y6203391D01*
X1674977Y6203391D01*
X1680006Y6208420D01*
X1680006Y6231178D01*
X1642973Y6231178D01*
X1642973Y6264198D01*
X1680006Y6264198D01*
X1680006Y6288379D01*
X1674977Y6293408D01*
G37*
G36*
X1754022Y6293408D02*
G01*
X1748993Y6288379D01*
X1748993Y6265621D01*
X1786026Y6265621D01*
X1786026Y6232601D01*
X1748993Y6232601D01*
X1748993Y6208420D01*
X1754022Y6203391D01*
X1833981Y6203391D01*
X1839010Y6208420D01*
X1839010Y6288379D01*
X1833981Y6293408D01*
G37*
G36*
X5090007Y4180484D02*
G01*
X5084978Y4175506D01*
X5084978Y4095496D01*
X5090007Y4090466D01*
X5169966Y4090466D01*
X5174996Y4095496D01*
X5174996Y4175506D01*
X5169966Y4180484D01*
X5147208Y4180484D01*
X5147208Y4143501D01*
X5114188Y4143501D01*
X5114188Y4180484D01*
G37*
G36*
X5090007Y4339488D02*
G01*
X5084978Y4334510D01*
X5084978Y4254500D01*
X5090007Y4249470D01*
X5112766Y4249470D01*
X5112766Y4286504D01*
X5145786Y4286504D01*
X5145786Y4249470D01*
X5169966Y4249470D01*
X5174996Y4254500D01*
X5174996Y4334510D01*
X5169966Y4339488D01*
G37*
G36*
X4504994Y4160469D02*
G01*
X4499965Y4155490D01*
X4499965Y4075480D01*
X4504994Y4070502D01*
X4585004Y4070502D01*
X4589983Y4075480D01*
X4589983Y4155490D01*
X4585004Y4160469D01*
X4562195Y4160469D01*
X4562195Y4123486D01*
X4529175Y4123486D01*
X4529175Y4160469D01*
G37*
G36*
X4504994Y4319473D02*
G01*
X4500016Y4314494D01*
X4500016Y4234484D01*
X4504994Y4229506D01*
X4527804Y4229506D01*
X4527804Y4266488D01*
X4560773Y4266488D01*
X4560773Y4229506D01*
X4585004Y4229506D01*
X4589983Y4234484D01*
X4589983Y4314494D01*
X4585004Y4319473D01*
G37*
G36*
X27455469Y6126175D02*
G01*
X27450440Y6121196D01*
X27450440Y5993180D01*
X27455469Y5988202D01*
X27570430Y5988202D01*
X27575459Y5993180D01*
X27574951Y6035192D01*
X27530958Y6035192D01*
X27530958Y6080201D01*
X27575967Y6080201D01*
X27575459Y6121196D01*
X27570430Y6126175D01*
G37*
G36*
X27670455Y6126175D02*
G01*
X27665426Y6121196D01*
X27665934Y6080201D01*
X27709926Y6080201D01*
X27709926Y6035192D01*
X27665426Y6035192D01*
X27665426Y5993180D01*
X27670455Y5988202D01*
X27785466Y5988202D01*
X27790444Y5993180D01*
X27790444Y6121196D01*
X27785466Y6126175D01*
G37*
G36*
X27455469Y5884875D02*
G01*
X27450440Y5879896D01*
X27450440Y5751880D01*
X27455469Y5746902D01*
X27570430Y5746902D01*
X27575459Y5751880D01*
X27574951Y5793892D01*
X27530958Y5793892D01*
X27530958Y5838901D01*
X27575967Y5838901D01*
X27575459Y5879896D01*
X27570430Y5884875D01*
G37*
G36*
X27670455Y5884875D02*
G01*
X27665426Y5879896D01*
X27665934Y5838901D01*
X27709926Y5838901D01*
X27709926Y5793892D01*
X27665426Y5793892D01*
X27665426Y5751880D01*
X27670455Y5746902D01*
X27785466Y5746902D01*
X27790444Y5751880D01*
X27790444Y5879896D01*
X27785466Y5884875D01*
G37*
G36*
X27664562Y3040176D02*
G01*
X27659533Y3035198D01*
X27659533Y2907182D01*
X27664562Y2902204D01*
X27779573Y2902204D01*
X27784552Y2907182D01*
X27784044Y2949194D01*
X27740051Y2949194D01*
X27740051Y2994202D01*
X27785060Y2994202D01*
X27784552Y3035198D01*
X27779573Y3040176D01*
G37*
G36*
X27879548Y3040176D02*
G01*
X27874569Y3035198D01*
X27875026Y2994202D01*
X27919070Y2994202D01*
X27919070Y2949194D01*
X27874569Y2949194D01*
X27874569Y2907182D01*
X27879548Y2902204D01*
X27994559Y2902204D01*
X27999537Y2907182D01*
X27999537Y3035198D01*
X27994559Y3040176D01*
G37*
G36*
X27664562Y3243376D02*
G01*
X27659533Y3238398D01*
X27659533Y3110382D01*
X27664562Y3105404D01*
X27779573Y3105404D01*
X27784552Y3110382D01*
X27784044Y3152394D01*
X27740051Y3152394D01*
X27740051Y3197402D01*
X27785060Y3197402D01*
X27784552Y3238398D01*
X27779573Y3243376D01*
G37*
G36*
X27879548Y3243376D02*
G01*
X27874569Y3238398D01*
X27875026Y3197402D01*
X27919070Y3197402D01*
X27919070Y3152394D01*
X27874569Y3152394D01*
X27874569Y3110382D01*
X27879548Y3105404D01*
X27994559Y3105404D01*
X27999537Y3110382D01*
X27999537Y3238398D01*
X27994559Y3243376D01*
G37*
G36*
X16105987Y3016199D02*
G01*
X16064992Y3015691D01*
X16060013Y3010712D01*
X16060013Y2895701D01*
X16064992Y2890672D01*
X16193007Y2890672D01*
X16197986Y2895701D01*
X16197986Y3010712D01*
X16193007Y3015691D01*
X16150996Y3015183D01*
X16150996Y2971190D01*
X16105987Y2971190D01*
G37*
G36*
X16064992Y3230676D02*
G01*
X16060013Y3225698D01*
X16060013Y3110687D01*
X16064992Y3105708D01*
X16105987Y3106216D01*
X16105987Y3150209D01*
X16150996Y3150209D01*
X16150996Y3105708D01*
X16193007Y3105708D01*
X16197986Y3110687D01*
X16197986Y3225698D01*
X16193007Y3230676D01*
G37*
G36*
X15902787Y3016199D02*
G01*
X15861792Y3015691D01*
X15856813Y3010712D01*
X15856813Y2895701D01*
X15861792Y2890672D01*
X15989807Y2890672D01*
X15994786Y2895701D01*
X15994786Y3010712D01*
X15989807Y3015691D01*
X15947796Y3015183D01*
X15947796Y2971190D01*
X15902787Y2971190D01*
G37*
G36*
X15861792Y3230676D02*
G01*
X15856813Y3225698D01*
X15856813Y3110687D01*
X15861792Y3105708D01*
X15902787Y3106216D01*
X15902787Y3150209D01*
X15947796Y3150209D01*
X15947796Y3105708D01*
X15989807Y3105708D01*
X15994786Y3110687D01*
X15994786Y3225698D01*
X15989807Y3230676D01*
G37*
G36*
X17742001Y3967886D02*
G01*
X17736972Y3962908D01*
X17736972Y3834892D01*
X17742001Y3829913D01*
X17857012Y3829913D01*
X17861991Y3834892D01*
X17861483Y3876903D01*
X17817490Y3876903D01*
X17817490Y3921912D01*
X17862499Y3921912D01*
X17861991Y3962908D01*
X17857012Y3967886D01*
G37*
G36*
X17956987Y3967886D02*
G01*
X17952008Y3962908D01*
X17952516Y3921912D01*
X17996509Y3921912D01*
X17996509Y3876903D01*
X17952008Y3876903D01*
X17952008Y3834892D01*
X17956987Y3829913D01*
X18071998Y3829913D01*
X18076976Y3834892D01*
X18076976Y3962908D01*
X18071998Y3967886D01*
G37*
G36*
X25141174Y3744264D02*
G01*
X25136144Y3739235D01*
X25136144Y3611219D01*
X25141174Y3606241D01*
X25256185Y3606241D01*
X25261163Y3611219D01*
X25260655Y3653231D01*
X25216662Y3653231D01*
X25216662Y3698240D01*
X25261671Y3698240D01*
X25261163Y3739235D01*
X25256185Y3744264D01*
G37*
G36*
X25356159Y3744264D02*
G01*
X25351181Y3739235D01*
X25351638Y3698240D01*
X25395682Y3698240D01*
X25395682Y3653231D01*
X25351181Y3653231D01*
X25351181Y3611219D01*
X25356159Y3606241D01*
X25471170Y3606241D01*
X25476149Y3611219D01*
X25476149Y3739235D01*
X25471170Y3744264D01*
G37*
G36*
X25372669Y6710375D02*
G01*
X25367640Y6705396D01*
X25367640Y6577380D01*
X25372669Y6572402D01*
X25487630Y6572402D01*
X25492659Y6577380D01*
X25492151Y6619392D01*
X25448158Y6619392D01*
X25448158Y6664401D01*
X25493167Y6664401D01*
X25492659Y6705396D01*
X25487630Y6710375D01*
G37*
G36*
X25587655Y6710375D02*
G01*
X25582626Y6705396D01*
X25583134Y6664401D01*
X25627126Y6664401D01*
X25627126Y6619392D01*
X25582626Y6619392D01*
X25582626Y6577380D01*
X25587655Y6572402D01*
X25702666Y6572402D01*
X25707644Y6577380D01*
X25707644Y6705396D01*
X25702666Y6710375D01*
G37*
G36*
X13032587Y4834077D02*
G01*
X13028574Y4830064D01*
X13028574Y4779975D01*
X13032587Y4776012D01*
X13078612Y4776012D01*
X13082625Y4779975D01*
X13082625Y4830064D01*
X13078612Y4834077D01*
G37*
G36*
X13032587Y4748987D02*
G01*
X13028574Y4745024D01*
X13028574Y4694936D01*
X13032587Y4690922D01*
X13078612Y4690922D01*
X13082625Y4694936D01*
X13082625Y4745024D01*
X13078612Y4748987D01*
G37*
G36*
X15226385Y1497482D02*
G01*
X15222372Y1493520D01*
X15222372Y1447495D01*
X15226385Y1443482D01*
X15276423Y1443482D01*
X15280436Y1447495D01*
X15280436Y1493520D01*
X15276423Y1497482D01*
G37*
G36*
X15141295Y1497482D02*
G01*
X15137282Y1493520D01*
X15137282Y1447495D01*
X15141295Y1443482D01*
X15191384Y1443482D01*
X15195346Y1447495D01*
X15195346Y1493520D01*
X15191384Y1497482D01*
G37*
G36*
X15226385Y1687982D02*
G01*
X15222372Y1684020D01*
X15222372Y1637995D01*
X15226385Y1633982D01*
X15276423Y1633982D01*
X15280436Y1637995D01*
X15280436Y1684020D01*
X15276423Y1687982D01*
G37*
G36*
X15141295Y1687982D02*
G01*
X15137282Y1684020D01*
X15137282Y1637995D01*
X15141295Y1633982D01*
X15191384Y1633982D01*
X15195346Y1637995D01*
X15195346Y1684020D01*
X15191384Y1687982D01*
G37*
G36*
X13320623Y8533638D02*
G01*
X13316610Y8529624D01*
X13316610Y8483600D01*
X13320623Y8479637D01*
X13370661Y8479637D01*
X13374674Y8483600D01*
X13374674Y8529624D01*
X13370661Y8533638D01*
G37*
G36*
X13405662Y8533638D02*
G01*
X13401649Y8529624D01*
X13401649Y8483600D01*
X13405662Y8479637D01*
X13455751Y8479637D01*
X13459713Y8483600D01*
X13459713Y8529624D01*
X13455751Y8533638D01*
G37*
G36*
X13056971Y8331504D02*
G01*
X13052958Y8327491D01*
X13052958Y8277402D01*
X13056971Y8273440D01*
X13102996Y8273440D01*
X13106958Y8277402D01*
X13106958Y8327491D01*
X13102996Y8331504D01*
G37*
G36*
X13056971Y8416544D02*
G01*
X13052958Y8412530D01*
X13052958Y8362492D01*
X13056971Y8358479D01*
X13102996Y8358479D01*
X13106958Y8362492D01*
X13106958Y8412530D01*
X13102996Y8416544D01*
G37*
G36*
X29155136Y8637625D02*
G01*
X29151122Y8633612D01*
X29151122Y8587587D01*
X29155136Y8583574D01*
X29205174Y8583574D01*
X29209187Y8587587D01*
X29209187Y8633612D01*
X29205174Y8637625D01*
G37*
G36*
X29240226Y8637625D02*
G01*
X29236212Y8633612D01*
X29236212Y8587587D01*
X29240226Y8583574D01*
X29290264Y8583574D01*
X29294277Y8587587D01*
X29294277Y8633612D01*
X29290264Y8637625D01*
G37*
G36*
X865733Y3306470D02*
G01*
X865733Y3181502D01*
X1110742Y3181502D01*
X1110742Y3306470D01*
G37*
G36*
X865733Y4006494D02*
G01*
X865733Y3881475D01*
X1110742Y3881475D01*
X1110742Y4006494D01*
G37*
G36*
X865733Y3556508D02*
G01*
X865733Y3431489D01*
X1110742Y3431489D01*
X1110742Y3556508D01*
G37*
G36*
X865733Y3756507D02*
G01*
X865733Y3631488D01*
X1110742Y3631488D01*
X1110742Y3756507D01*
G37*
G36*
X755751Y4451502D02*
G01*
X747776Y4451096D01*
X739902Y4449927D01*
X732180Y4447946D01*
X724662Y4445203D01*
X717499Y4441748D01*
X710692Y4437583D01*
X704342Y4432757D01*
X698500Y4427321D01*
X693216Y4421378D01*
X688543Y4414875D01*
X684580Y4407966D01*
X681278Y4400702D01*
X678738Y4393133D01*
X676960Y4385360D01*
X676351Y4381449D01*
X675792Y4373473D01*
X675995Y4365498D01*
X676960Y4357573D01*
X678738Y4349800D01*
X681278Y4342282D01*
X684580Y4334967D01*
X688543Y4328058D01*
X693216Y4321606D01*
X698500Y4315612D01*
X704342Y4310227D01*
X710692Y4305401D01*
X717499Y4301236D01*
X724662Y4297781D01*
X732180Y4295038D01*
X739902Y4293057D01*
X747776Y4291888D01*
X755751Y4291482D01*
X859739Y4291584D01*
X867664Y4292396D01*
X871626Y4293057D01*
X879348Y4295038D01*
X886815Y4297781D01*
X894029Y4301236D01*
X900836Y4305401D01*
X907186Y4310227D01*
X913028Y4315612D01*
X918311Y4321606D01*
X922934Y4328058D01*
X926947Y4334967D01*
X930249Y4342282D01*
X932738Y4349800D01*
X933754Y4353661D01*
X935126Y4361535D01*
X935736Y4369511D01*
X935532Y4377486D01*
X934516Y4385360D01*
X933754Y4389272D01*
X931570Y4396943D01*
X930249Y4400702D01*
X926947Y4407966D01*
X922934Y4414875D01*
X918311Y4421378D01*
X913028Y4427321D01*
X907186Y4432757D01*
X900836Y4437583D01*
X894029Y4441748D01*
X886815Y4445203D01*
X879348Y4447946D01*
X871626Y4449927D01*
X863701Y4451096D01*
X855776Y4451502D01*
G37*
G36*
X755751Y2896514D02*
G01*
X747776Y2896108D01*
X739902Y2894888D01*
X732180Y2892958D01*
X724662Y2890215D01*
X717499Y2886760D01*
X710692Y2882595D01*
X704342Y2877769D01*
X698500Y2872384D01*
X693216Y2866390D01*
X688543Y2859887D01*
X684580Y2852978D01*
X681278Y2845714D01*
X678738Y2838145D01*
X676960Y2830372D01*
X676351Y2826461D01*
X675792Y2818485D01*
X675995Y2810510D01*
X676960Y2802585D01*
X678738Y2794812D01*
X681278Y2787294D01*
X684580Y2779979D01*
X688543Y2773121D01*
X693216Y2766618D01*
X698500Y2760624D01*
X704342Y2755239D01*
X710692Y2750413D01*
X717499Y2746248D01*
X724662Y2742793D01*
X732180Y2740050D01*
X739902Y2738069D01*
X747776Y2736900D01*
X755751Y2736494D01*
X859739Y2736596D01*
X867664Y2737408D01*
X871626Y2738069D01*
X879348Y2740050D01*
X886815Y2742793D01*
X894029Y2746248D01*
X900836Y2750413D01*
X907186Y2755239D01*
X913028Y2760624D01*
X918311Y2766618D01*
X922934Y2773121D01*
X926947Y2779979D01*
X930249Y2787294D01*
X932738Y2794812D01*
X933754Y2798673D01*
X935126Y2806547D01*
X935736Y2814523D01*
X935532Y2822498D01*
X934516Y2830372D01*
X933754Y2834284D01*
X931570Y2841955D01*
X930249Y2845714D01*
X926947Y2852978D01*
X922934Y2859887D01*
X918311Y2866390D01*
X913028Y2872384D01*
X907186Y2877769D01*
X900836Y2882595D01*
X894029Y2886760D01*
X886815Y2890215D01*
X879348Y2892958D01*
X871626Y2894888D01*
X863701Y2896108D01*
X855776Y2896514D01*
G37*
G36*
X205740Y4451502D02*
G01*
X197764Y4451096D01*
X189890Y4449927D01*
X182168Y4447946D01*
X174650Y4445203D01*
X167487Y4441748D01*
X160680Y4437583D01*
X154330Y4432757D01*
X148488Y4427321D01*
X143205Y4421378D01*
X138531Y4414875D01*
X134569Y4407966D01*
X131267Y4400702D01*
X128727Y4393133D01*
X126949Y4385360D01*
X126339Y4381449D01*
X125780Y4373473D01*
X125983Y4365498D01*
X126949Y4357573D01*
X128727Y4349800D01*
X131267Y4342282D01*
X134569Y4334967D01*
X138531Y4328058D01*
X143205Y4321606D01*
X148488Y4315612D01*
X154330Y4310227D01*
X160680Y4305401D01*
X167487Y4301236D01*
X174650Y4297781D01*
X182168Y4295038D01*
X189890Y4293057D01*
X197764Y4291888D01*
X205740Y4291482D01*
X309727Y4291584D01*
X317652Y4292396D01*
X321614Y4293057D01*
X329336Y4295038D01*
X336804Y4297781D01*
X344017Y4301236D01*
X350824Y4305401D01*
X357174Y4310227D01*
X363016Y4315612D01*
X368300Y4321606D01*
X372922Y4328058D01*
X376936Y4334967D01*
X380238Y4342282D01*
X382727Y4349800D01*
X383743Y4353661D01*
X385114Y4361535D01*
X385724Y4369511D01*
X385521Y4377486D01*
X384505Y4385360D01*
X383743Y4389272D01*
X381558Y4396943D01*
X380238Y4400702D01*
X376936Y4407966D01*
X372922Y4414875D01*
X368300Y4421378D01*
X363016Y4427321D01*
X357174Y4432757D01*
X350824Y4437583D01*
X344017Y4441748D01*
X336804Y4445203D01*
X329336Y4447946D01*
X321614Y4449927D01*
X313690Y4451096D01*
X305765Y4451502D01*
G37*
G36*
X205740Y2896514D02*
G01*
X197764Y2896108D01*
X189890Y2894888D01*
X182168Y2892958D01*
X174650Y2890215D01*
X167487Y2886760D01*
X160680Y2882595D01*
X154330Y2877769D01*
X148488Y2872384D01*
X143205Y2866390D01*
X138531Y2859887D01*
X134569Y2852978D01*
X131267Y2845714D01*
X128727Y2838145D01*
X126949Y2830372D01*
X126339Y2826461D01*
X125780Y2818485D01*
X125983Y2810510D01*
X126949Y2802585D01*
X128727Y2794812D01*
X131267Y2787294D01*
X134569Y2779979D01*
X138531Y2773121D01*
X143205Y2766618D01*
X148488Y2760624D01*
X154330Y2755239D01*
X160680Y2750413D01*
X167487Y2746248D01*
X174650Y2742793D01*
X182168Y2740050D01*
X189890Y2738069D01*
X197764Y2736900D01*
X205740Y2736494D01*
X309727Y2736596D01*
X317652Y2737408D01*
X321614Y2738069D01*
X329336Y2740050D01*
X336804Y2742793D01*
X344017Y2746248D01*
X350824Y2750413D01*
X357174Y2755239D01*
X363016Y2760624D01*
X368300Y2766618D01*
X372922Y2773121D01*
X376936Y2779979D01*
X380238Y2787294D01*
X382727Y2794812D01*
X383743Y2798673D01*
X385114Y2806547D01*
X385724Y2814523D01*
X385521Y2822498D01*
X384505Y2830372D01*
X383743Y2834284D01*
X381558Y2841955D01*
X380238Y2845714D01*
X376936Y2852978D01*
X372922Y2859887D01*
X368300Y2866390D01*
X363016Y2872384D01*
X357174Y2877769D01*
X350824Y2882595D01*
X344017Y2886760D01*
X336804Y2890215D01*
X329336Y2892958D01*
X321614Y2894888D01*
X313690Y2896108D01*
X305765Y2896514D01*
G37*
G36*
X29610253Y6673596D02*
G01*
X29610253Y6548628D01*
X29855261Y6548628D01*
X29855261Y6673596D01*
G37*
G36*
X29610253Y5973622D02*
G01*
X29610253Y5848604D01*
X29855261Y5848604D01*
X29855261Y5973622D01*
G37*
G36*
X29610253Y6423609D02*
G01*
X29610253Y6298590D01*
X29855261Y6298590D01*
X29855261Y6423609D01*
G37*
G36*
X29610253Y6223609D02*
G01*
X29610253Y6098590D01*
X29855261Y6098590D01*
X29855261Y6223609D01*
G37*
G36*
X29865218Y5563616D02*
G01*
X29857293Y5563209D01*
X29849368Y5562041D01*
X29841647Y5560060D01*
X29834179Y5557316D01*
X29826965Y5553862D01*
X29820158Y5549696D01*
X29813808Y5544870D01*
X29807966Y5539486D01*
X29802683Y5533491D01*
X29798060Y5526989D01*
X29794047Y5520080D01*
X29790796Y5512816D01*
X29788256Y5505246D01*
X29787240Y5501386D01*
X29785868Y5493562D01*
X29785259Y5485587D01*
X29785462Y5477611D01*
X29786478Y5469737D01*
X29788256Y5461914D01*
X29790796Y5454396D01*
X29794047Y5447131D01*
X29798060Y5440222D01*
X29802683Y5433720D01*
X29807966Y5427726D01*
X29813808Y5422341D01*
X29820158Y5417515D01*
X29826965Y5413349D01*
X29834179Y5409895D01*
X29841647Y5407152D01*
X29849368Y5405170D01*
X29857293Y5404002D01*
X29865218Y5403596D01*
X29969206Y5403697D01*
X29977181Y5404510D01*
X29985004Y5406085D01*
X29992624Y5408422D01*
X29999939Y5411520D01*
X30006950Y5415330D01*
X30013554Y5419852D01*
X30019650Y5424982D01*
X30025238Y5430672D01*
X30030216Y5436920D01*
X30034534Y5443626D01*
X30038141Y5450687D01*
X30041088Y5458104D01*
X30043221Y5465826D01*
X30044644Y5473649D01*
X30045202Y5481624D01*
X30044999Y5489600D01*
X30044644Y5493562D01*
X30043221Y5501386D01*
X30041088Y5509107D01*
X30038141Y5516524D01*
X30034534Y5523585D01*
X30030216Y5530291D01*
X30025238Y5536539D01*
X30019650Y5542229D01*
X30013554Y5547360D01*
X30006950Y5551881D01*
X29999939Y5555691D01*
X29992624Y5558790D01*
X29985004Y5561126D01*
X29977181Y5562701D01*
X29969206Y5563514D01*
G37*
G36*
X29865218Y7118603D02*
G01*
X29857293Y7118197D01*
X29849368Y7117029D01*
X29841647Y7115048D01*
X29834179Y7112304D01*
X29826965Y7108850D01*
X29820158Y7104684D01*
X29813808Y7099858D01*
X29807966Y7094474D01*
X29802683Y7088479D01*
X29798060Y7081977D01*
X29794047Y7075068D01*
X29790796Y7067803D01*
X29788256Y7060285D01*
X29786478Y7052462D01*
X29785462Y7044588D01*
X29785259Y7036612D01*
X29785868Y7028637D01*
X29787240Y7020814D01*
X29789424Y7013092D01*
X29792320Y7005675D01*
X29795977Y6998614D01*
X29800296Y6991908D01*
X29805274Y6985660D01*
X29810811Y6979970D01*
X29816958Y6974840D01*
X29823511Y6970318D01*
X29830522Y6966508D01*
X29837888Y6963409D01*
X29845508Y6961073D01*
X29849368Y6960158D01*
X29857293Y6958990D01*
X29865218Y6958584D01*
X29969206Y6958685D01*
X29977181Y6959498D01*
X29985004Y6961073D01*
X29992624Y6963409D01*
X29999939Y6966508D01*
X30006950Y6970318D01*
X30013554Y6974840D01*
X30019650Y6979970D01*
X30025238Y6985660D01*
X30030216Y6991908D01*
X30034534Y6998614D01*
X30038141Y7005675D01*
X30041088Y7013092D01*
X30043221Y7020814D01*
X30044644Y7028637D01*
X30045202Y7036612D01*
X30044999Y7044588D01*
X30044644Y7048550D01*
X30043221Y7056374D01*
X30041088Y7064095D01*
X30038141Y7071512D01*
X30034534Y7078573D01*
X30030216Y7085279D01*
X30025238Y7091527D01*
X30019650Y7097217D01*
X30013554Y7102348D01*
X30006950Y7106869D01*
X29999939Y7110679D01*
X29992624Y7113778D01*
X29985004Y7116114D01*
X29977181Y7117689D01*
X29969206Y7118502D01*
G37*
G36*
X30415280Y5563616D02*
G01*
X30407305Y5563209D01*
X30399380Y5562041D01*
X30391658Y5560060D01*
X30384191Y5557316D01*
X30376977Y5553862D01*
X30370170Y5549696D01*
X30363820Y5544870D01*
X30357978Y5539486D01*
X30352695Y5533491D01*
X30348072Y5526989D01*
X30344059Y5520080D01*
X30340808Y5512816D01*
X30338268Y5505246D01*
X30337252Y5501386D01*
X30335880Y5493562D01*
X30335270Y5485587D01*
X30335474Y5477611D01*
X30336489Y5469737D01*
X30338268Y5461914D01*
X30340808Y5454396D01*
X30344059Y5447131D01*
X30348072Y5440222D01*
X30352695Y5433720D01*
X30357978Y5427726D01*
X30363820Y5422341D01*
X30370170Y5417515D01*
X30376977Y5413349D01*
X30384191Y5409895D01*
X30391658Y5407152D01*
X30399380Y5405170D01*
X30407305Y5404002D01*
X30415280Y5403596D01*
X30519268Y5403697D01*
X30527193Y5404510D01*
X30535016Y5406085D01*
X30542636Y5408422D01*
X30549951Y5411520D01*
X30556962Y5415330D01*
X30563565Y5419852D01*
X30569662Y5424982D01*
X30575250Y5430672D01*
X30580228Y5436920D01*
X30584546Y5443626D01*
X30588153Y5450687D01*
X30591099Y5458104D01*
X30593233Y5465826D01*
X30594655Y5473649D01*
X30595214Y5481624D01*
X30595011Y5489600D01*
X30594655Y5493562D01*
X30593233Y5501386D01*
X30591099Y5509107D01*
X30588153Y5516524D01*
X30584546Y5523585D01*
X30580228Y5530291D01*
X30575250Y5536539D01*
X30569662Y5542229D01*
X30563565Y5547360D01*
X30556962Y5551881D01*
X30549951Y5555691D01*
X30542636Y5558790D01*
X30535016Y5561126D01*
X30527193Y5562701D01*
X30519268Y5563514D01*
G37*
G36*
X30415280Y7118603D02*
G01*
X30407305Y7118197D01*
X30399380Y7117029D01*
X30391658Y7115048D01*
X30384191Y7112304D01*
X30376977Y7108850D01*
X30370170Y7104684D01*
X30363820Y7099858D01*
X30357978Y7094474D01*
X30352695Y7088479D01*
X30348072Y7081977D01*
X30344059Y7075068D01*
X30340808Y7067803D01*
X30338268Y7060285D01*
X30336489Y7052462D01*
X30335474Y7044588D01*
X30335270Y7036612D01*
X30335880Y7028637D01*
X30337252Y7020814D01*
X30339436Y7013092D01*
X30342332Y7005675D01*
X30345989Y6998614D01*
X30350307Y6991908D01*
X30355286Y6985660D01*
X30360823Y6979970D01*
X30366970Y6974840D01*
X30373523Y6970318D01*
X30380533Y6966508D01*
X30387899Y6963409D01*
X30395519Y6961073D01*
X30399380Y6960158D01*
X30407305Y6958990D01*
X30415280Y6958584D01*
X30519268Y6958685D01*
X30527193Y6959498D01*
X30535016Y6961073D01*
X30542636Y6963409D01*
X30549951Y6966508D01*
X30556962Y6970318D01*
X30563565Y6974840D01*
X30569662Y6979970D01*
X30575250Y6985660D01*
X30580228Y6991908D01*
X30584546Y6998614D01*
X30588153Y7005675D01*
X30591099Y7013092D01*
X30593233Y7020814D01*
X30594655Y7028637D01*
X30595214Y7036612D01*
X30595011Y7044588D01*
X30594655Y7048550D01*
X30593233Y7056374D01*
X30591099Y7064095D01*
X30588153Y7071512D01*
X30584546Y7078573D01*
X30580228Y7085279D01*
X30575250Y7091527D01*
X30569662Y7097217D01*
X30563565Y7102348D01*
X30556962Y7106869D01*
X30549951Y7110679D01*
X30542636Y7113778D01*
X30535016Y7116114D01*
X30527193Y7117689D01*
X30519268Y7118502D01*
G37*
G36*
X819759Y7693456D02*
G01*
X819759Y7568488D01*
X1064768Y7568488D01*
X1064768Y7693456D01*
G37*
G36*
X819759Y8393480D02*
G01*
X819759Y8268462D01*
X1064768Y8268462D01*
X1064768Y8393480D01*
G37*
G36*
X819759Y7943494D02*
G01*
X819759Y7818475D01*
X1064768Y7818475D01*
X1064768Y7943494D01*
G37*
G36*
X819759Y8143494D02*
G01*
X819759Y8018475D01*
X1064768Y8018475D01*
X1064768Y8143494D01*
G37*
G36*
X709777Y8838488D02*
G01*
X701802Y8838082D01*
X693877Y8836914D01*
X686155Y8834932D01*
X678688Y8832189D01*
X671474Y8828735D01*
X664667Y8824569D01*
X658317Y8819743D01*
X652475Y8814358D01*
X647192Y8808364D01*
X642569Y8801862D01*
X638556Y8794953D01*
X635304Y8787688D01*
X632764Y8780170D01*
X630986Y8772347D01*
X629970Y8764473D01*
X629767Y8756497D01*
X630377Y8748522D01*
X631748Y8740698D01*
X633933Y8732977D01*
X636828Y8725560D01*
X640486Y8718499D01*
X644804Y8711793D01*
X649782Y8705545D01*
X655320Y8699855D01*
X661466Y8694724D01*
X668020Y8690203D01*
X675030Y8686393D01*
X682396Y8683294D01*
X690016Y8680958D01*
X693877Y8680043D01*
X701802Y8678875D01*
X709777Y8678468D01*
X813765Y8678570D01*
X821690Y8679383D01*
X829513Y8680958D01*
X837133Y8683294D01*
X844448Y8686393D01*
X851458Y8690203D01*
X858062Y8694724D01*
X864158Y8699855D01*
X869746Y8705545D01*
X874725Y8711793D01*
X879043Y8718499D01*
X882700Y8725560D01*
X885596Y8732977D01*
X887730Y8740698D01*
X889152Y8748522D01*
X889711Y8756497D01*
X889508Y8764473D01*
X889152Y8768435D01*
X887730Y8776258D01*
X885596Y8783980D01*
X882700Y8791397D01*
X879043Y8798458D01*
X874725Y8805164D01*
X869746Y8811412D01*
X864158Y8817102D01*
X858062Y8822232D01*
X851458Y8826754D01*
X844448Y8830564D01*
X837133Y8833662D01*
X829513Y8835999D01*
X821690Y8837574D01*
X813765Y8838387D01*
G37*
G36*
X709777Y7283500D02*
G01*
X701802Y7283094D01*
X693877Y7281925D01*
X686155Y7279944D01*
X678688Y7277201D01*
X671474Y7273747D01*
X664667Y7269581D01*
X658317Y7264755D01*
X652475Y7259370D01*
X647192Y7253376D01*
X642569Y7246874D01*
X638556Y7239965D01*
X635304Y7232700D01*
X632764Y7225131D01*
X631748Y7221270D01*
X630377Y7213447D01*
X629767Y7205472D01*
X629970Y7197496D01*
X630986Y7189622D01*
X632764Y7181799D01*
X635304Y7174280D01*
X638556Y7167016D01*
X642569Y7160107D01*
X647192Y7153605D01*
X652475Y7147610D01*
X658317Y7142225D01*
X664667Y7137400D01*
X671474Y7133234D01*
X678688Y7129780D01*
X686155Y7127036D01*
X693877Y7125055D01*
X701802Y7123887D01*
X709777Y7123480D01*
X813765Y7123582D01*
X821690Y7124395D01*
X829513Y7125970D01*
X837133Y7128306D01*
X844448Y7131405D01*
X851458Y7135215D01*
X858062Y7139736D01*
X864158Y7144867D01*
X869746Y7150557D01*
X874725Y7156805D01*
X879043Y7163511D01*
X882700Y7170572D01*
X885596Y7177989D01*
X887730Y7185710D01*
X889152Y7193534D01*
X889711Y7201509D01*
X889508Y7209485D01*
X889152Y7213447D01*
X887730Y7221270D01*
X885596Y7228992D01*
X882700Y7236409D01*
X879043Y7243470D01*
X874725Y7250175D01*
X869746Y7256424D01*
X864158Y7262114D01*
X858062Y7267244D01*
X851458Y7271766D01*
X844448Y7275575D01*
X837133Y7278674D01*
X829513Y7281011D01*
X821690Y7282586D01*
X813765Y7283399D01*
G37*
G36*
X159766Y8838488D02*
G01*
X151790Y8838082D01*
X143865Y8836914D01*
X136144Y8834932D01*
X128676Y8832189D01*
X121462Y8828735D01*
X114655Y8824569D01*
X108305Y8819743D01*
X102463Y8814358D01*
X97180Y8808364D01*
X92557Y8801862D01*
X88544Y8794953D01*
X85293Y8787688D01*
X82753Y8780170D01*
X80975Y8772347D01*
X79959Y8764473D01*
X79756Y8756497D01*
X80365Y8748522D01*
X81737Y8740698D01*
X83921Y8732977D01*
X86817Y8725560D01*
X90474Y8718499D01*
X94792Y8711793D01*
X99771Y8705545D01*
X105308Y8699855D01*
X111455Y8694724D01*
X118008Y8690203D01*
X125018Y8686393D01*
X132384Y8683294D01*
X140004Y8680958D01*
X143865Y8680043D01*
X151790Y8678875D01*
X159766Y8678468D01*
X263753Y8678570D01*
X271678Y8679383D01*
X279501Y8680958D01*
X287121Y8683294D01*
X294436Y8686393D01*
X301447Y8690203D01*
X308051Y8694724D01*
X314147Y8699855D01*
X319735Y8705545D01*
X324713Y8711793D01*
X329031Y8718499D01*
X332689Y8725560D01*
X335584Y8732977D01*
X337718Y8740698D01*
X339140Y8748522D01*
X339699Y8756497D01*
X339496Y8764473D01*
X339140Y8768435D01*
X337718Y8776258D01*
X335584Y8783980D01*
X332689Y8791397D01*
X329031Y8798458D01*
X324713Y8805164D01*
X319735Y8811412D01*
X314147Y8817102D01*
X308051Y8822232D01*
X301447Y8826754D01*
X294436Y8830564D01*
X287121Y8833662D01*
X279501Y8835999D01*
X271678Y8837574D01*
X263753Y8838387D01*
G37*
G36*
X159766Y7283500D02*
G01*
X151790Y7283094D01*
X143865Y7281925D01*
X136144Y7279944D01*
X128676Y7277201D01*
X121462Y7273747D01*
X114655Y7269581D01*
X108305Y7264755D01*
X102463Y7259370D01*
X97180Y7253376D01*
X92557Y7246874D01*
X88544Y7239965D01*
X85293Y7232700D01*
X82753Y7225131D01*
X81737Y7221270D01*
X80365Y7213447D01*
X79756Y7205472D01*
X79959Y7197496D01*
X80975Y7189622D01*
X82753Y7181799D01*
X85293Y7174280D01*
X88544Y7167016D01*
X92557Y7160107D01*
X97180Y7153605D01*
X102463Y7147610D01*
X108305Y7142225D01*
X114655Y7137400D01*
X121462Y7133234D01*
X128676Y7129780D01*
X136144Y7127036D01*
X143865Y7125055D01*
X151790Y7123887D01*
X159766Y7123480D01*
X263753Y7123582D01*
X271678Y7124395D01*
X279501Y7125970D01*
X287121Y7128306D01*
X294436Y7131405D01*
X301447Y7135215D01*
X308051Y7139736D01*
X314147Y7144867D01*
X319735Y7150557D01*
X324713Y7156805D01*
X329031Y7163511D01*
X332689Y7170572D01*
X335584Y7177989D01*
X337718Y7185710D01*
X339140Y7193534D01*
X339699Y7201509D01*
X339496Y7209485D01*
X339140Y7213447D01*
X337718Y7221270D01*
X335584Y7228992D01*
X332689Y7236409D01*
X329031Y7243470D01*
X324713Y7250175D01*
X319735Y7256424D01*
X314147Y7262114D01*
X308051Y7267244D01*
X301447Y7271766D01*
X294436Y7275575D01*
X287121Y7278674D01*
X279501Y7281011D01*
X271678Y7282586D01*
X263753Y7283399D01*
G37*
G36*
X29610253Y4273296D02*
G01*
X29610253Y4148328D01*
X29855261Y4148328D01*
X29855261Y4273296D01*
G37*
G36*
X29610253Y3573322D02*
G01*
X29610253Y3448304D01*
X29855261Y3448304D01*
X29855261Y3573322D01*
G37*
G36*
X29610253Y4023309D02*
G01*
X29610253Y3898290D01*
X29855261Y3898290D01*
X29855261Y4023309D01*
G37*
G36*
X29610253Y3823309D02*
G01*
X29610253Y3698290D01*
X29855261Y3698290D01*
X29855261Y3823309D01*
G37*
G36*
X29865218Y3163316D02*
G01*
X29857293Y3162909D01*
X29849368Y3161741D01*
X29841647Y3159760D01*
X29834179Y3157016D01*
X29826965Y3153562D01*
X29820158Y3149396D01*
X29813808Y3144570D01*
X29807966Y3139186D01*
X29802683Y3133191D01*
X29798060Y3126689D01*
X29794047Y3119780D01*
X29790796Y3112516D01*
X29788256Y3104946D01*
X29787240Y3101086D01*
X29785868Y3093262D01*
X29785259Y3085287D01*
X29785462Y3077311D01*
X29786478Y3069437D01*
X29788256Y3061614D01*
X29790796Y3054096D01*
X29794047Y3046831D01*
X29798060Y3039922D01*
X29802683Y3033420D01*
X29807966Y3027426D01*
X29813808Y3022041D01*
X29820158Y3017215D01*
X29826965Y3013049D01*
X29834179Y3009595D01*
X29841647Y3006852D01*
X29849368Y3004870D01*
X29857293Y3003702D01*
X29865218Y3003296D01*
X29969206Y3003397D01*
X29977181Y3004210D01*
X29985004Y3005785D01*
X29992624Y3008122D01*
X29999939Y3011220D01*
X30006950Y3015030D01*
X30013554Y3019552D01*
X30019650Y3024682D01*
X30025238Y3030372D01*
X30030216Y3036620D01*
X30034534Y3043326D01*
X30038141Y3050387D01*
X30041088Y3057804D01*
X30043221Y3065526D01*
X30044644Y3073349D01*
X30045202Y3081324D01*
X30044999Y3089300D01*
X30044644Y3093262D01*
X30043221Y3101086D01*
X30041088Y3108807D01*
X30038141Y3116224D01*
X30034534Y3123285D01*
X30030216Y3129991D01*
X30025238Y3136239D01*
X30019650Y3141929D01*
X30013554Y3147060D01*
X30006950Y3151581D01*
X29999939Y3155391D01*
X29992624Y3158490D01*
X29985004Y3160826D01*
X29977181Y3162401D01*
X29969206Y3163214D01*
G37*
G36*
X29865218Y4718304D02*
G01*
X29857293Y4717897D01*
X29849368Y4716729D01*
X29841647Y4714748D01*
X29834179Y4712004D01*
X29826965Y4708550D01*
X29820158Y4704384D01*
X29813808Y4699558D01*
X29807966Y4694174D01*
X29802683Y4688179D01*
X29798060Y4681677D01*
X29794047Y4674768D01*
X29790796Y4667504D01*
X29788256Y4659985D01*
X29786478Y4652162D01*
X29785462Y4644288D01*
X29785259Y4636312D01*
X29785868Y4628337D01*
X29787240Y4620514D01*
X29789424Y4612792D01*
X29792320Y4605375D01*
X29795977Y4598314D01*
X29800296Y4591608D01*
X29805274Y4585360D01*
X29810811Y4579670D01*
X29816958Y4574540D01*
X29823511Y4570018D01*
X29830522Y4566208D01*
X29837888Y4563110D01*
X29845508Y4560773D01*
X29849368Y4559858D01*
X29857293Y4558690D01*
X29865218Y4558284D01*
X29969206Y4558385D01*
X29977181Y4559198D01*
X29985004Y4560773D01*
X29992624Y4563110D01*
X29999939Y4566208D01*
X30006950Y4570018D01*
X30013554Y4574540D01*
X30019650Y4579670D01*
X30025238Y4585360D01*
X30030216Y4591608D01*
X30034534Y4598314D01*
X30038141Y4605375D01*
X30041088Y4612792D01*
X30043221Y4620514D01*
X30044644Y4628337D01*
X30045202Y4636312D01*
X30044999Y4644288D01*
X30044644Y4648250D01*
X30043221Y4656074D01*
X30041088Y4663795D01*
X30038141Y4671212D01*
X30034534Y4678273D01*
X30030216Y4684979D01*
X30025238Y4691227D01*
X30019650Y4696917D01*
X30013554Y4702048D01*
X30006950Y4706569D01*
X29999939Y4710379D01*
X29992624Y4713478D01*
X29985004Y4715814D01*
X29977181Y4717389D01*
X29969206Y4718202D01*
G37*
G36*
X30415280Y3163316D02*
G01*
X30407305Y3162909D01*
X30399380Y3161741D01*
X30391658Y3159760D01*
X30384191Y3157016D01*
X30376977Y3153562D01*
X30370170Y3149396D01*
X30363820Y3144570D01*
X30357978Y3139186D01*
X30352695Y3133191D01*
X30348072Y3126689D01*
X30344059Y3119780D01*
X30340808Y3112516D01*
X30338268Y3104946D01*
X30337252Y3101086D01*
X30335880Y3093262D01*
X30335270Y3085287D01*
X30335474Y3077311D01*
X30336489Y3069437D01*
X30338268Y3061614D01*
X30340808Y3054096D01*
X30344059Y3046831D01*
X30348072Y3039922D01*
X30352695Y3033420D01*
X30357978Y3027426D01*
X30363820Y3022041D01*
X30370170Y3017215D01*
X30376977Y3013049D01*
X30384191Y3009595D01*
X30391658Y3006852D01*
X30399380Y3004870D01*
X30407305Y3003702D01*
X30415280Y3003296D01*
X30519268Y3003397D01*
X30527193Y3004210D01*
X30535016Y3005785D01*
X30542636Y3008122D01*
X30549951Y3011220D01*
X30556962Y3015030D01*
X30563565Y3019552D01*
X30569662Y3024682D01*
X30575250Y3030372D01*
X30580228Y3036620D01*
X30584546Y3043326D01*
X30588153Y3050387D01*
X30591099Y3057804D01*
X30593233Y3065526D01*
X30594655Y3073349D01*
X30595214Y3081324D01*
X30595011Y3089300D01*
X30594655Y3093262D01*
X30593233Y3101086D01*
X30591099Y3108807D01*
X30588153Y3116224D01*
X30584546Y3123285D01*
X30580228Y3129991D01*
X30575250Y3136239D01*
X30569662Y3141929D01*
X30563565Y3147060D01*
X30556962Y3151581D01*
X30549951Y3155391D01*
X30542636Y3158490D01*
X30535016Y3160826D01*
X30527193Y3162401D01*
X30519268Y3163214D01*
G37*
G36*
X30415280Y4718304D02*
G01*
X30407305Y4717897D01*
X30399380Y4716729D01*
X30391658Y4714748D01*
X30384191Y4712004D01*
X30376977Y4708550D01*
X30370170Y4704384D01*
X30363820Y4699558D01*
X30357978Y4694174D01*
X30352695Y4688179D01*
X30348072Y4681677D01*
X30344059Y4674768D01*
X30340808Y4667504D01*
X30338268Y4659985D01*
X30336489Y4652162D01*
X30335474Y4644288D01*
X30335270Y4636312D01*
X30335880Y4628337D01*
X30337252Y4620514D01*
X30339436Y4612792D01*
X30342332Y4605375D01*
X30345989Y4598314D01*
X30350307Y4591608D01*
X30355286Y4585360D01*
X30360823Y4579670D01*
X30366970Y4574540D01*
X30373523Y4570018D01*
X30380533Y4566208D01*
X30387899Y4563110D01*
X30395519Y4560773D01*
X30399380Y4559858D01*
X30407305Y4558690D01*
X30415280Y4558284D01*
X30519268Y4558385D01*
X30527193Y4559198D01*
X30535016Y4560773D01*
X30542636Y4563110D01*
X30549951Y4566208D01*
X30556962Y4570018D01*
X30563565Y4574540D01*
X30569662Y4579670D01*
X30575250Y4585360D01*
X30580228Y4591608D01*
X30584546Y4598314D01*
X30588153Y4605375D01*
X30591099Y4612792D01*
X30593233Y4620514D01*
X30594655Y4628337D01*
X30595214Y4636312D01*
X30595011Y4644288D01*
X30594655Y4648250D01*
X30593233Y4656074D01*
X30591099Y4663795D01*
X30588153Y4671212D01*
X30584546Y4678273D01*
X30580228Y4684979D01*
X30575250Y4691227D01*
X30569662Y4696917D01*
X30563565Y4702048D01*
X30556962Y4706569D01*
X30549951Y4710379D01*
X30542636Y4713478D01*
X30535016Y4715814D01*
X30527193Y4717389D01*
X30519268Y4718202D01*
G37*
G36*
X1047496Y5179009D02*
G01*
X1047496Y5151018D01*
X1287526Y5151018D01*
X1287526Y5179009D01*
G37*
G36*
X1047496Y5229047D02*
G01*
X1047496Y5201005D01*
X1287526Y5201005D01*
X1287526Y5229047D01*
G37*
G36*
X1047496Y5279034D02*
G01*
X1047496Y5250992D01*
X1287526Y5250992D01*
X1287526Y5279034D01*
G37*
G36*
X1047496Y5329021D02*
G01*
X1047496Y5301030D01*
X1287526Y5301030D01*
X1287526Y5329021D01*
G37*
G36*
X1047496Y5379008D02*
G01*
X1047496Y5351018D01*
X1287526Y5351018D01*
X1287526Y5379008D01*
G37*
G36*
X1047496Y5429046D02*
G01*
X1047496Y5401005D01*
X1287526Y5401005D01*
X1287526Y5429046D01*
G37*
G36*
X1047496Y5479034D02*
G01*
X1047496Y5450992D01*
X1287526Y5450992D01*
X1287526Y5479034D01*
G37*
G36*
X1047496Y5529021D02*
G01*
X1047496Y5501030D01*
X1287526Y5501030D01*
X1287526Y5529021D01*
G37*
G36*
X1047496Y5579008D02*
G01*
X1047496Y5551017D01*
X1287526Y5551017D01*
X1287526Y5579008D01*
G37*
G36*
X1047496Y5629046D02*
G01*
X1047496Y5601004D01*
X1287526Y5601004D01*
X1287526Y5629046D01*
G37*
G36*
X1047496Y5679033D02*
G01*
X1047496Y5650992D01*
X1287526Y5650992D01*
X1287526Y5679033D01*
G37*
G36*
X1047496Y5729020D02*
G01*
X1047496Y5701030D01*
X1287526Y5701030D01*
X1287526Y5729020D01*
G37*
G36*
X1047496Y5779008D02*
G01*
X1047496Y5751017D01*
X1287526Y5751017D01*
X1287526Y5779008D01*
G37*
G36*
X1047496Y5828995D02*
G01*
X1047496Y5801004D01*
X1287526Y5801004D01*
X1287526Y5828995D01*
G37*
G36*
X1047496Y5879033D02*
G01*
X1047496Y5850991D01*
X1287526Y5850991D01*
X1287526Y5879033D01*
G37*
G36*
X1047496Y5929020D02*
G01*
X1047496Y5900978D01*
X1287526Y5900978D01*
X1287526Y5929020D01*
G37*
G36*
X1047496Y5979007D02*
G01*
X1047496Y5951016D01*
X1287526Y5951016D01*
X1287526Y5979007D01*
G37*
G36*
X1047496Y6028994D02*
G01*
X1047496Y6001004D01*
X1287526Y6001004D01*
X1287526Y6028994D01*
G37*
G36*
X1047496Y6079032D02*
G01*
X1047496Y6050991D01*
X1287526Y6050991D01*
X1287526Y6079032D01*
G37*
G36*
X1047496Y6129020D02*
G01*
X1047496Y6100978D01*
X1287526Y6100978D01*
X1287526Y6129020D01*
G37*
G36*
X862482Y4964988D02*
G01*
X855014Y4964633D01*
X847648Y4963515D01*
X840384Y4961686D01*
X833374Y4959096D01*
X826617Y4955844D01*
X820267Y4951984D01*
X814273Y4947462D01*
X808786Y4942382D01*
X803859Y4936744D01*
X799490Y4930698D01*
X795782Y4924196D01*
X792683Y4917389D01*
X790295Y4910328D01*
X788619Y4903012D01*
X787704Y4895596D01*
X787501Y4888128D01*
X788060Y4880660D01*
X789381Y4873294D01*
X791413Y4866132D01*
X794156Y4859172D01*
X797560Y4852517D01*
X801624Y4846218D01*
X806246Y4840376D01*
X811479Y4834991D01*
X817219Y4830216D01*
X823417Y4826000D01*
X829970Y4822444D01*
X836828Y4819497D01*
X843991Y4817313D01*
X851306Y4815840D01*
X858774Y4815078D01*
X952500Y4814976D01*
X959967Y4815382D01*
X967384Y4816500D01*
X974598Y4818329D01*
X981659Y4820869D01*
X988364Y4824120D01*
X994765Y4828032D01*
X1000709Y4832553D01*
X1006195Y4837633D01*
X1011123Y4843221D01*
X1015492Y4849317D01*
X1019251Y4855768D01*
X1022299Y4862576D01*
X1024686Y4869688D01*
X1026363Y4876952D01*
X1027277Y4884369D01*
X1027480Y4891887D01*
X1026921Y4899304D01*
X1025601Y4906670D01*
X1023619Y4913884D01*
X1020876Y4920843D01*
X1017473Y4927498D01*
X1013409Y4933797D01*
X1008735Y4939639D01*
X1003503Y4944973D01*
X997762Y4949799D01*
X991616Y4954016D01*
X985062Y4957572D01*
X978153Y4960467D01*
X974598Y4961686D01*
X967384Y4963515D01*
X959967Y4964633D01*
X952500Y4964988D01*
G37*
G36*
X862482Y6615023D02*
G01*
X855014Y6614617D01*
X847648Y6613499D01*
X840384Y6611670D01*
X833374Y6609130D01*
X826617Y6605879D01*
X820267Y6601968D01*
X814273Y6597446D01*
X808786Y6592366D01*
X803859Y6586778D01*
X799490Y6580682D01*
X795782Y6574231D01*
X792683Y6567424D01*
X790295Y6560312D01*
X788619Y6553047D01*
X787704Y6545630D01*
X787501Y6538112D01*
X788060Y6530695D01*
X789381Y6523329D01*
X791413Y6516116D01*
X794156Y6509156D01*
X797560Y6502501D01*
X801624Y6496202D01*
X806246Y6490360D01*
X811479Y6485026D01*
X817219Y6480200D01*
X823417Y6475984D01*
X829970Y6472428D01*
X836828Y6469532D01*
X840384Y6468313D01*
X847648Y6466484D01*
X855014Y6465366D01*
X862482Y6465011D01*
X956259Y6465112D01*
X963676Y6465824D01*
X970991Y6467348D01*
X974598Y6468313D01*
X981659Y6470904D01*
X988364Y6474155D01*
X994765Y6478016D01*
X1000709Y6482537D01*
X1006195Y6487617D01*
X1011123Y6493256D01*
X1015492Y6499301D01*
X1019251Y6505803D01*
X1022299Y6512610D01*
X1023619Y6516116D01*
X1025601Y6523329D01*
X1026921Y6530695D01*
X1027480Y6538112D01*
X1027277Y6545630D01*
X1026363Y6553047D01*
X1024686Y6560312D01*
X1022299Y6567424D01*
X1019251Y6574231D01*
X1015492Y6580682D01*
X1011123Y6586778D01*
X1006195Y6592366D01*
X1000709Y6597446D01*
X994765Y6601968D01*
X988364Y6605879D01*
X981659Y6609130D01*
X974598Y6611670D01*
X967384Y6613499D01*
X959967Y6614617D01*
X952500Y6615023D01*
G37*
G36*
X204520Y6615023D02*
G01*
X197053Y6614617D01*
X189636Y6613499D01*
X182372Y6611670D01*
X175361Y6609130D01*
X168656Y6605879D01*
X162255Y6601968D01*
X156311Y6597446D01*
X153466Y6595008D01*
X148285Y6589623D01*
X143611Y6583781D01*
X139547Y6577482D01*
X136144Y6570827D01*
X133400Y6563868D01*
X131368Y6556705D01*
X130098Y6549339D01*
X129692Y6545630D01*
X129539Y6538112D01*
X130098Y6530695D01*
X131368Y6523329D01*
X133400Y6516116D01*
X136144Y6509156D01*
X139547Y6502501D01*
X143611Y6496202D01*
X148285Y6490360D01*
X153466Y6485026D01*
X159207Y6480200D01*
X165404Y6475984D01*
X171958Y6472428D01*
X178866Y6469532D01*
X182372Y6468313D01*
X189636Y6466484D01*
X197053Y6465366D01*
X204520Y6465011D01*
X258216Y6465112D01*
X265684Y6465824D01*
X272999Y6467348D01*
X276606Y6468313D01*
X283616Y6470904D01*
X290372Y6474155D01*
X296773Y6478016D01*
X302717Y6482537D01*
X308203Y6487617D01*
X313131Y6493256D01*
X317500Y6499301D01*
X321259Y6505803D01*
X324307Y6512610D01*
X326694Y6519672D01*
X328371Y6526987D01*
X329285Y6534404D01*
X329488Y6541871D01*
X328930Y6549339D01*
X327609Y6556705D01*
X325577Y6563868D01*
X322884Y6570827D01*
X319430Y6577482D01*
X315417Y6583781D01*
X310743Y6589623D01*
X305511Y6595008D01*
X299770Y6599783D01*
X293624Y6604000D01*
X287020Y6607556D01*
X280162Y6610502D01*
X272999Y6612686D01*
X265684Y6614159D01*
X258216Y6614922D01*
G37*
G36*
X204520Y4964988D02*
G01*
X197053Y4964633D01*
X189636Y4963515D01*
X182372Y4961686D01*
X175361Y4959096D01*
X168656Y4955844D01*
X162255Y4951984D01*
X156311Y4947462D01*
X150825Y4942382D01*
X145846Y4936744D01*
X141478Y4930698D01*
X137769Y4924196D01*
X134670Y4917389D01*
X132283Y4910328D01*
X130657Y4903012D01*
X129692Y4895596D01*
X129539Y4888128D01*
X129692Y4884369D01*
X130657Y4876952D01*
X132283Y4869688D01*
X134670Y4862576D01*
X137769Y4855768D01*
X141478Y4849317D01*
X145846Y4843221D01*
X150825Y4837633D01*
X153466Y4834991D01*
X159207Y4830216D01*
X165404Y4826000D01*
X171958Y4822444D01*
X178866Y4819497D01*
X185978Y4817313D01*
X193344Y4815840D01*
X200761Y4815078D01*
X254508Y4814976D01*
X261975Y4815382D01*
X269341Y4816500D01*
X276606Y4818329D01*
X283616Y4820869D01*
X290372Y4824120D01*
X296773Y4828032D01*
X302717Y4832553D01*
X308203Y4837633D01*
X313131Y4843221D01*
X317500Y4849317D01*
X321259Y4855768D01*
X324307Y4862576D01*
X326694Y4869688D01*
X328371Y4876952D01*
X329285Y4884369D01*
X329488Y4891887D01*
X328930Y4899304D01*
X327609Y4906670D01*
X325577Y4913884D01*
X322884Y4920843D01*
X319430Y4927498D01*
X315417Y4933797D01*
X310743Y4939639D01*
X305511Y4944973D01*
X299770Y4949799D01*
X293624Y4954016D01*
X287020Y4957572D01*
X280162Y4960467D01*
X276606Y4961686D01*
X269341Y4963515D01*
X261975Y4964633D01*
X254508Y4964988D01*
G37*
G36*
X13919962Y7098995D02*
G01*
X13914983Y7093966D01*
X13915491Y7052005D01*
X13959484Y7052005D01*
X13959484Y7006996D01*
X13914475Y7006996D01*
X13914983Y6966000D01*
X13919962Y6960971D01*
X14034973Y6960971D01*
X14039951Y6966000D01*
X14039951Y7093966D01*
X14034973Y7098995D01*
G37*
G36*
X13704976Y7098995D02*
G01*
X13699947Y7093966D01*
X13699947Y6966000D01*
X13704976Y6960971D01*
X13819987Y6960971D01*
X13824966Y6966000D01*
X13824457Y7006996D01*
X13780465Y7006996D01*
X13780465Y7052005D01*
X13824966Y7052005D01*
X13824966Y7093966D01*
X13819987Y7098995D01*
G37*
G36*
X13274954Y8818981D02*
G01*
X13269976Y8814003D01*
X13269976Y8685987D01*
X13274954Y8680958D01*
X13389965Y8680958D01*
X13394994Y8685987D01*
X13394486Y8727998D01*
X13350494Y8727998D01*
X13350494Y8772956D01*
X13395451Y8772956D01*
X13394994Y8814003D01*
X13389965Y8818981D01*
G37*
G36*
X13489990Y8818981D02*
G01*
X13484961Y8814003D01*
X13485469Y8772956D01*
X13529462Y8772956D01*
X13529462Y8727998D01*
X13484961Y8727998D01*
X13484961Y8685987D01*
X13489990Y8680958D01*
X13604951Y8680958D01*
X13609980Y8685987D01*
X13609980Y8814003D01*
X13604951Y8818981D01*
G37*
G36*
X13994993Y8238998D02*
G01*
X13989964Y8233968D01*
X13990472Y8192008D01*
X14034465Y8192008D01*
X14034465Y8146999D01*
X13989456Y8146999D01*
X13989964Y8106003D01*
X13994993Y8100974D01*
X14109954Y8100974D01*
X14114983Y8106003D01*
X14114983Y8233968D01*
X14109954Y8238998D01*
G37*
G36*
X13779957Y8238998D02*
G01*
X13774978Y8233968D01*
X13774978Y8106003D01*
X13779957Y8100974D01*
X13894968Y8100974D01*
X13899997Y8106003D01*
X13899489Y8146999D01*
X13855496Y8146999D01*
X13855496Y8192008D01*
X13899997Y8192008D01*
X13899997Y8233968D01*
X13894968Y8238998D01*
G37*
D10*
G01*
X5779988Y5350603D03*
G01*
X5779988Y4669375D03*
D11*
G01*
X12232513Y2048733D03*
G01*
X12207493Y1273754D03*
G01*
X12182500Y2048733D03*
G01*
X12157506Y1273754D03*
G01*
X12132513Y2048733D03*
G01*
X12107519Y1273754D03*
G01*
X12082500Y2048733D03*
G01*
X12057506Y1273754D03*
G01*
X12032513Y2048733D03*
G01*
X12007519Y1273754D03*
G01*
X11982500Y2048733D03*
G01*
X11957507Y1273754D03*
G01*
X11932513Y2048733D03*
G01*
X11907520Y1273754D03*
G01*
X11882500Y2048733D03*
G01*
X11857507Y1273754D03*
G01*
X11832513Y2048733D03*
G01*
X11807520Y1273754D03*
G01*
X11782501Y2048733D03*
G01*
X11757507Y1273754D03*
G01*
X11732513Y2048733D03*
G01*
X11707520Y1273754D03*
G01*
X11682501Y2048733D03*
G01*
X11657507Y1273754D03*
G01*
X11632514Y2048733D03*
G01*
X11607520Y1273754D03*
G01*
X11582501Y2048733D03*
G01*
X11557508Y1273754D03*
G01*
X11532514Y2048733D03*
G01*
X11507520Y1273754D03*
G01*
X11482501Y2048733D03*
G01*
X11457508Y1273754D03*
G01*
X11432514Y2048733D03*
G01*
X11407520Y1273754D03*
G01*
X11382502Y2048733D03*
G01*
X11357508Y1273754D03*
G01*
X11332514Y2048733D03*
G01*
X11307521Y1273754D03*
G01*
X11282502Y2048733D03*
G01*
X11257508Y1273754D03*
G01*
X11232515Y2048733D03*
G01*
X11207521Y1273754D03*
G01*
X11182502Y2048733D03*
G01*
X11157508Y1273754D03*
G01*
X11132515Y2048733D03*
G01*
X11107521Y1273754D03*
G01*
X11082502Y2048733D03*
G01*
X11057509Y1273754D03*
G01*
X11032515Y2048733D03*
G01*
X11007521Y1273754D03*
G01*
X10982502Y2048733D03*
G01*
X10957509Y1273754D03*
G01*
X10932515Y2048733D03*
G01*
X10907496Y1273754D03*
G01*
X10882502Y2048733D03*
G01*
X10857509Y1273754D03*
G01*
X10832515Y2048733D03*
G01*
X10807496Y1273754D03*
G01*
X10782503Y2048733D03*
G01*
X10757509Y1273754D03*
G01*
X10732515Y2048733D03*
G01*
X10707497Y1273754D03*
G01*
X10682503Y2048733D03*
G01*
X10657509Y1273754D03*
G01*
X10632516Y2048733D03*
G01*
X10607497Y1273754D03*
G01*
X10582503Y2048733D03*
G01*
X10557509Y1273754D03*
G01*
X10532516Y2048733D03*
G01*
X10507497Y1273754D03*
G01*
X10482503Y2048733D03*
G01*
X10457510Y1273754D03*
G01*
X10432516Y2048733D03*
G01*
X10407497Y1273754D03*
G01*
X10382504Y2048733D03*
G01*
X10357510Y1273754D03*
G01*
X10332516Y2048733D03*
G01*
X10307497Y1273754D03*
G01*
X10282504Y2048733D03*
G01*
X10257510Y1273754D03*
G01*
X10232516Y2048733D03*
G01*
X10207523Y1273754D03*
G01*
X10182504Y2048733D03*
G01*
X10157510Y1273754D03*
G01*
X10132517Y2048733D03*
G01*
X10107498Y1273754D03*
G01*
X10082504Y2048733D03*
G01*
X10057511Y1273754D03*
G01*
X10032517Y2048733D03*
G01*
X10007498Y1273754D03*
G01*
X9982504Y2048733D03*
G01*
X9957511Y1273754D03*
G01*
X9932517Y2048733D03*
G01*
X9907498Y1273754D03*
G01*
X9882504Y2048733D03*
G01*
X9857511Y1273754D03*
G01*
X9832517Y2048733D03*
G01*
X9807498Y1273754D03*
G01*
X9782505Y2048733D03*
G01*
X9757511Y1273754D03*
G01*
X9732518Y2048733D03*
G01*
X9707499Y1273754D03*
G01*
X9682505Y2048733D03*
G01*
X9657511Y1273754D03*
G01*
X9632518Y2048733D03*
G01*
X9607499Y1273754D03*
G01*
X9582505Y2048733D03*
G01*
X9557511Y1273754D03*
G01*
X9532518Y2048733D03*
G01*
X9507499Y1273754D03*
G01*
X9482505Y2048733D03*
G01*
X9457512Y1273754D03*
G01*
X9432518Y2048733D03*
G01*
X9407499Y1273754D03*
G01*
X9382506Y2048733D03*
G01*
X9357512Y1273754D03*
G01*
X9132493Y2048733D03*
G01*
X9107500Y1273754D03*
G01*
X9082506Y2048733D03*
G01*
X9057513Y1273754D03*
G01*
X9032493Y2048733D03*
G01*
X9007500Y1273754D03*
G01*
X8982506Y2048733D03*
G01*
X8957513Y1273754D03*
G01*
X8932494Y2048733D03*
G01*
X8907500Y1273754D03*
G01*
X8882506Y2048733D03*
G01*
X8857513Y1273754D03*
G01*
X8832494Y2048733D03*
G01*
X8807500Y1273754D03*
G01*
X8782507Y2048733D03*
G01*
X8757513Y1273754D03*
G01*
X8732494Y2048733D03*
G01*
X8707500Y1273754D03*
G01*
X8682507Y2048733D03*
G01*
X8657513Y1273754D03*
G01*
X8632494Y2048733D03*
G01*
X8607501Y1273754D03*
G01*
X8582507Y2048733D03*
G01*
X8557513Y1273754D03*
G01*
X8532495Y2048733D03*
G01*
X8507501Y1273754D03*
G01*
X8482507Y2048733D03*
G01*
X8457514Y1273754D03*
G01*
X8432495Y2048733D03*
G01*
X8407501Y1273754D03*
G01*
X8382508Y2048733D03*
G01*
X8357514Y1273754D03*
G01*
X8332495Y2048733D03*
G01*
X8307501Y1273754D03*
G01*
X8282508Y2048733D03*
G01*
X8257514Y1273754D03*
G01*
X8232495Y2048733D03*
G01*
X8207502Y1273754D03*
G01*
X8182508Y2048733D03*
G01*
X8157514Y1273754D03*
G01*
X8132495Y2048733D03*
G01*
X8107502Y1273754D03*
G01*
X8082508Y2048733D03*
G01*
X8057515Y1273754D03*
G01*
X8032495Y2048733D03*
G01*
X8007502Y1273754D03*
G01*
X7982508Y2048733D03*
G01*
X7957515Y1273754D03*
G01*
X7932496Y2048733D03*
G01*
X7907502Y1273754D03*
G01*
X7882509Y2048733D03*
G01*
X7857515Y1273754D03*
G01*
X7832496Y2048733D03*
G01*
X7807502Y1273754D03*
G01*
X7782509Y2048733D03*
G01*
X7757515Y1273754D03*
G01*
X7732496Y2048733D03*
G01*
X7707502Y1273754D03*
G01*
X7682509Y2048733D03*
G01*
X7657515Y1273754D03*
G01*
X7632496Y2048733D03*
G01*
X7607503Y1273754D03*
G01*
X7582509Y2048733D03*
G01*
X7557515Y1273754D03*
G01*
X7532497Y2048733D03*
G01*
X7507503Y1273754D03*
G01*
X7482509Y2048733D03*
G01*
X7457516Y1273754D03*
G01*
X7432497Y2048733D03*
G01*
X7407503Y1273754D03*
G01*
X7382509Y2048733D03*
G01*
X7357490Y1273754D03*
G01*
X7332497Y2048733D03*
G01*
X7307503Y1273754D03*
G01*
X7282510Y2048733D03*
G01*
X7257491Y1273754D03*
G01*
X7232497Y2048733D03*
G01*
X7207504Y1273754D03*
G01*
X7182510Y2048733D03*
G01*
X7157491Y1273754D03*
G01*
X7132497Y2048733D03*
G01*
X7107504Y1273754D03*
G01*
X7082510Y2048733D03*
G01*
X7057491Y1273754D03*
G01*
X7032497Y2048733D03*
G01*
X7007504Y1273754D03*
G01*
X6982510Y2048733D03*
G01*
X6957491Y1273754D03*
G01*
X6932498Y2048733D03*
G01*
X6907504Y1273754D03*
G01*
X6882511Y2048733D03*
G01*
X6857491Y1273754D03*
G01*
X6832498Y2048733D03*
G01*
X6807504Y1273754D03*
G01*
X6782511Y2048733D03*
G01*
X6757492Y1273754D03*
G01*
X6732498Y2048733D03*
G01*
X6707504Y1273754D03*
G01*
X6682511Y2048733D03*
G01*
X6657492Y1273754D03*
G01*
X6632498Y2048733D03*
G01*
X6607505Y1273754D03*
G01*
X6582511Y2048733D03*
G01*
X6557492Y1273754D03*
G01*
X6532499Y2048733D03*
G01*
X6507505Y1273754D03*
G01*
X6482511Y2048733D03*
G01*
X6457492Y1273754D03*
G01*
X6432499Y2048733D03*
G01*
X6407505Y1273754D03*
G01*
X6382511Y2048733D03*
G01*
X6357493Y1273754D03*
G01*
X6332499Y2048733D03*
G01*
X6307505Y1273754D03*
G01*
X6282512Y2048733D03*
G01*
X6257493Y1273754D03*
G01*
X6232499Y2048733D03*
G01*
X6207506Y1273754D03*
G01*
X6182512Y2048733D03*
G01*
X6157493Y1273754D03*
G01*
X6132499Y2048733D03*
G01*
X6107506Y1273754D03*
G01*
X6082512Y2048733D03*
G01*
X6057493Y1273754D03*
G01*
X6032500Y2048733D03*
G01*
X6007506Y1273754D03*
G01*
X5982512Y2048733D03*
G01*
X5957493Y1273754D03*
G01*
X5932500Y2048733D03*
G01*
X5907506Y1273754D03*
G01*
X5882513Y2048733D03*
G01*
X5857493Y1273754D03*
G01*
X5832500Y2048733D03*
G01*
X5807506Y1273754D03*
G01*
X5782513Y2048733D03*
G01*
X5757494Y1273754D03*
G01*
X5732500Y2048733D03*
G01*
X5707506Y1273754D03*
G01*
X5682513Y2048733D03*
G01*
X5657494Y1273754D03*
G01*
X5632500Y2048733D03*
G01*
X5607507Y1273754D03*
G01*
X5582513Y2048733D03*
G01*
X5557494Y1273754D03*
D12*
G01*
X12274981Y2796255D03*
G01*
X5514975Y2796255D03*
D13*
G01*
X15374950Y3889984D03*
G01*
X17444948Y3889984D03*
D14*
G01*
X15484957Y3812489D03*
G01*
X15509951Y4567504D03*
G01*
X15534970Y3812489D03*
G01*
X15559963Y4567504D03*
G01*
X15584957Y3812489D03*
G01*
X15609950Y4567504D03*
G01*
X15634970Y3812489D03*
G01*
X15659963Y4567504D03*
G01*
X15684957Y3812489D03*
G01*
X15709950Y4567504D03*
G01*
X15734969Y3812489D03*
G01*
X15759963Y4567504D03*
G01*
X15784956Y3812489D03*
G01*
X15809950Y4567504D03*
G01*
X15834969Y3812489D03*
G01*
X15859963Y4567504D03*
G01*
X15884956Y3812489D03*
G01*
X15909950Y4567504D03*
G01*
X15934969Y3812489D03*
G01*
X15959963Y4567504D03*
G01*
X15984956Y3812489D03*
G01*
X16009950Y4567504D03*
G01*
X16034969Y3812489D03*
G01*
X16059962Y4567504D03*
G01*
X16084956Y3812489D03*
G01*
X16109950Y4567504D03*
G01*
X16134968Y3812489D03*
G01*
X16159962Y4567504D03*
G01*
X16184956Y3812489D03*
G01*
X16209949Y4567504D03*
G01*
X16234968Y3812489D03*
G01*
X16259962Y4567504D03*
G01*
X16284956Y3812489D03*
G01*
X16309949Y4567504D03*
G01*
X16334968Y3812489D03*
G01*
X16359962Y4567504D03*
G01*
X16384955Y3812489D03*
G01*
X16409949Y4567504D03*
G01*
X16434968Y3812489D03*
G01*
X16459961Y4567504D03*
G01*
X16484955Y3812489D03*
G01*
X16509949Y4567504D03*
G01*
X16534968Y3812489D03*
G01*
X16559961Y4567504D03*
G01*
X16784954Y3812489D03*
G01*
X16809948Y4567504D03*
G01*
X16834967Y3812489D03*
G01*
X16859961Y4567504D03*
G01*
X16884954Y3812489D03*
G01*
X16909948Y4567504D03*
G01*
X16934967Y3812489D03*
G01*
X16959961Y4567504D03*
G01*
X16984954Y3812489D03*
G01*
X17009948Y4567504D03*
G01*
X17034967Y3812489D03*
G01*
X17059960Y4567504D03*
G01*
X17084954Y3812489D03*
G01*
X17109948Y4567504D03*
G01*
X17134966Y3812489D03*
G01*
X17159960Y4567504D03*
G01*
X17184954Y3812489D03*
G01*
X17209947Y4567504D03*
G01*
X17234966Y3812489D03*
G01*
X17259960Y4567504D03*
G01*
X17284954Y3812489D03*
G01*
X17309947Y4567504D03*
G01*
X17334966Y3812489D03*
D15*
G01*
X26866341Y5365064D03*
G01*
X26866341Y7435062D03*
D16*
G01*
X26943837Y5475071D03*
G01*
X26188847Y5500065D03*
G01*
X26943837Y5525084D03*
G01*
X26188847Y5550077D03*
G01*
X26943837Y5575071D03*
G01*
X26188847Y5600064D03*
G01*
X26943837Y5625084D03*
G01*
X26188847Y5650077D03*
G01*
X26943862Y5675071D03*
G01*
X26188847Y5900064D03*
G01*
X26943837Y5925083D03*
G01*
X26188847Y5950077D03*
G01*
X26943837Y5975070D03*
G01*
X26188847Y6000089D03*
G01*
X26943837Y6025083D03*
G01*
X26188847Y6050076D03*
G01*
X26943837Y6075070D03*
G01*
X26188847Y6100063D03*
G01*
X26943837Y6125057D03*
G01*
X26188847Y6150076D03*
G01*
X26943837Y6175070D03*
G01*
X26188847Y6200063D03*
G01*
X26943837Y6225057D03*
G01*
X26188847Y6250076D03*
G01*
X26943837Y6275070D03*
G01*
X26188847Y6300063D03*
G01*
X26943837Y6325057D03*
G01*
X26188847Y6350076D03*
G01*
X26943837Y6375069D03*
G01*
X26188847Y6400063D03*
G01*
X26943837Y6425056D03*
G01*
X26188847Y6450076D03*
G01*
X26943837Y6475069D03*
G01*
X26188847Y6500088D03*
G01*
X26943837Y6525056D03*
G01*
X26188847Y6550075D03*
G01*
X26943837Y6575069D03*
G01*
X26188847Y6600088D03*
G01*
X26943837Y6625056D03*
G01*
X26188847Y6650075D03*
G01*
X26943837Y6675069D03*
G01*
X26188847Y6700088D03*
G01*
X26943837Y6725056D03*
G01*
X26188847Y6750075D03*
G01*
X26943837Y6775069D03*
G01*
X26188847Y6800087D03*
G01*
X26943837Y6825056D03*
G01*
X26188847Y6850075D03*
G01*
X26943837Y6875068D03*
G01*
X26188847Y6900087D03*
G01*
X26943837Y6925055D03*
G01*
X26188847Y6950075D03*
G01*
X26943837Y6975068D03*
G01*
X26188847Y7000087D03*
G01*
X26943837Y7025055D03*
G01*
X26188847Y7050074D03*
G01*
X26943837Y7075068D03*
G01*
X26188847Y7100062D03*
G01*
X26943837Y7125080D03*
G01*
X26188847Y7150074D03*
G01*
X26943837Y7175068D03*
G01*
X26188847Y7200061D03*
G01*
X26943837Y7225080D03*
G01*
X26188847Y7250074D03*
G01*
X26943837Y7275068D03*
G01*
X26188847Y7300061D03*
G01*
X26943837Y7325080D03*
D15*
G01*
X26749933Y2474981D03*
G01*
X26749933Y4544979D03*
D16*
G01*
X26827454Y2584988D03*
G01*
X26072439Y2609982D03*
G01*
X26827454Y2634975D03*
G01*
X26072439Y2659994D03*
G01*
X26827454Y2684988D03*
G01*
X26072439Y2709981D03*
G01*
X26827454Y2734975D03*
G01*
X26072439Y2759994D03*
G01*
X26827454Y2784988D03*
G01*
X26072439Y3009981D03*
G01*
X26827454Y3034974D03*
G01*
X26072439Y3059993D03*
G01*
X26827454Y3084987D03*
G01*
X26072439Y3110006D03*
G01*
X26827454Y3134974D03*
G01*
X26072439Y3159993D03*
G01*
X26827454Y3184987D03*
G01*
X26072439Y3209980D03*
G01*
X26827454Y3234974D03*
G01*
X26072439Y3259993D03*
G01*
X26827454Y3284961D03*
G01*
X26072439Y3309980D03*
G01*
X26827454Y3334974D03*
G01*
X26072439Y3359993D03*
G01*
X26827454Y3384961D03*
G01*
X26072439Y3409980D03*
G01*
X26827454Y3434974D03*
G01*
X26072439Y3459993D03*
G01*
X26827454Y3484961D03*
G01*
X26072439Y3509980D03*
G01*
X26827454Y3534973D03*
G01*
X26072439Y3559992D03*
G01*
X26827454Y3584961D03*
G01*
X26072439Y3610005D03*
G01*
X26827454Y3634973D03*
G01*
X26072439Y3659992D03*
G01*
X26827454Y3684960D03*
G01*
X26072439Y3710005D03*
G01*
X26827454Y3734973D03*
G01*
X26072439Y3759992D03*
G01*
X26827454Y3784960D03*
G01*
X26072439Y3810005D03*
G01*
X26827454Y3834973D03*
G01*
X26072439Y3859992D03*
G01*
X26827454Y3884960D03*
G01*
X26072439Y3910004D03*
G01*
X26827454Y3934973D03*
G01*
X26072439Y3959992D03*
G01*
X26827454Y3984960D03*
G01*
X26072439Y4010004D03*
G01*
X26827454Y4034972D03*
G01*
X26072439Y4059991D03*
G01*
X26827454Y4084960D03*
G01*
X26072439Y4110004D03*
G01*
X26827454Y4134972D03*
G01*
X26072439Y4159991D03*
G01*
X26827454Y4184985D03*
G01*
X26072439Y4209978D03*
G01*
X26827454Y4234972D03*
G01*
X26072439Y4259991D03*
G01*
X26827454Y4284985D03*
G01*
X26072439Y4309978D03*
G01*
X26827454Y4334972D03*
G01*
X26072439Y4359991D03*
G01*
X26827454Y4384984D03*
G01*
X26072439Y4409978D03*
G01*
X26827454Y4434972D03*
D17*
G01*
X28494888Y711200D03*
G01*
X28578911Y711200D03*
G01*
X28502711Y1028700D03*
G01*
X28418688Y1028700D03*
G01*
X27725954Y7162088D03*
G01*
X27641956Y7162088D03*
G01*
X27725954Y7035088D03*
G01*
X27641956Y7035088D03*
G01*
X2409088Y1612900D03*
G01*
X2493111Y1612900D03*
G01*
X2251811Y1612900D03*
G01*
X2167788Y1612900D03*
G01*
X25630454Y7301788D03*
G01*
X25546456Y7301788D03*
G01*
X25630454Y7162088D03*
G01*
X25546456Y7162088D03*
G01*
X25630454Y7022388D03*
G01*
X25546456Y7022388D03*
G01*
X25630454Y6882688D03*
G01*
X25546456Y6882688D03*
G01*
X27725954Y6908088D03*
G01*
X27641956Y6908088D03*
G01*
X27725954Y6781088D03*
G01*
X27641956Y6781088D03*
G01*
X27725954Y6654088D03*
G01*
X27641956Y6654088D03*
G01*
X27725954Y6527088D03*
G01*
X27641956Y6527088D03*
G01*
X27725954Y6273088D03*
G01*
X27641956Y6273088D03*
G01*
X27725954Y6412788D03*
G01*
X27641956Y6412788D03*
G01*
X27795347Y3504590D03*
G01*
X27711349Y3504590D03*
G01*
X27795347Y3377590D03*
G01*
X27711349Y3377590D03*
G01*
X25398958Y4399127D03*
G01*
X25314960Y4399127D03*
G01*
X27795347Y3631590D03*
G01*
X27711349Y3631590D03*
G01*
X27795347Y3745890D03*
G01*
X27711349Y3745890D03*
G01*
X25398958Y4259427D03*
G01*
X25314960Y4259427D03*
G01*
X25398958Y4119727D03*
G01*
X25314960Y4119727D03*
G01*
X25398958Y3980027D03*
G01*
X25314960Y3980027D03*
G01*
X17999811Y4546600D03*
G01*
X17915788Y4546600D03*
G01*
X17999811Y4406900D03*
G01*
X17915788Y4406900D03*
G01*
X17999811Y4279900D03*
G01*
X17915788Y4279900D03*
G01*
X17999811Y4152900D03*
G01*
X17915788Y4152900D03*
D18*
G01*
X16560800Y3039211D03*
G01*
X16560800Y2955188D03*
G01*
X16433800Y3039211D03*
G01*
X16433800Y2955188D03*
D17*
G01*
X14785873Y2067407D03*
G01*
X14869871Y2067407D03*
D18*
G01*
X14053159Y1817293D03*
G01*
X14053159Y1733295D03*
D17*
G01*
X13985773Y1610207D03*
G01*
X14069771Y1610207D03*
G01*
X1520088Y5054600D03*
G01*
X1604111Y5054600D03*
G01*
X1520088Y5181600D03*
G01*
X1604111Y5181600D03*
G01*
X2307488Y5638800D03*
G01*
X2391511Y5638800D03*
G01*
X1520088Y5308600D03*
G01*
X1604111Y5308600D03*
G01*
X2307488Y5892800D03*
G01*
X2391511Y5892800D03*
G01*
X2307488Y5765800D03*
G01*
X2391511Y5765800D03*
G01*
X1520088Y5435600D03*
G01*
X1604111Y5435600D03*
G01*
X2307488Y6032500D03*
G01*
X2391511Y6032500D03*
G01*
X1558188Y5943600D03*
G01*
X1642211Y5943600D03*
G01*
X1558188Y6083300D03*
G01*
X1642211Y6083300D03*
D18*
G01*
X4774996Y4127982D03*
G01*
X4774996Y4211980D03*
G01*
X5115001Y5642990D03*
G01*
X5115001Y5726988D03*
G01*
X5259984Y5642990D03*
G01*
X5259984Y5726988D03*
D17*
G01*
X4527981Y5644997D03*
G01*
X4611979Y5644997D03*
G01*
X4747996Y5639993D03*
G01*
X4831994Y5639993D03*
D18*
G01*
X12744965Y6632986D03*
G01*
X12744965Y6716984D03*
D17*
G01*
X13767970Y7234994D03*
G01*
X13851968Y7234994D03*
D18*
G01*
X13114964Y8747980D03*
G01*
X13114964Y8831978D03*
G01*
X12879964Y6632983D03*
G01*
X12879964Y6716981D03*
D17*
G01*
X13767970Y7364996D03*
G01*
X13851968Y7364996D03*
G01*
X13332973Y8059994D03*
G01*
X13416970Y8059994D03*
G01*
X13341169Y8346627D03*
G01*
X13425167Y8346627D03*
G01*
X13841973Y7619974D03*
G01*
X13757976Y7619974D03*
G01*
X13846975Y7764975D03*
G01*
X13762977Y7764975D03*
D18*
G01*
X2768600Y6536588D03*
G01*
X2768600Y6620611D03*
D20*
G01*
X1662785Y3688994D03*
G01*
X1662785Y3593998D03*
G01*
X1662785Y3499002D03*
G01*
X1892604Y3499002D03*
G01*
X1892604Y3593998D03*
G01*
X1892604Y3688994D03*
G01*
X28413329Y249986D03*
G01*
X28413329Y344982D03*
G01*
X28413329Y439978D03*
G01*
X28183509Y439978D03*
G01*
X28183509Y344982D03*
G01*
X28183509Y249986D03*
G01*
X1574190Y1390395D03*
G01*
X1574190Y1295400D03*
G01*
X1574190Y1200404D03*
G01*
X1804009Y1200404D03*
G01*
X1804009Y1295400D03*
G01*
X1804009Y1390395D03*
G01*
X28994709Y6166104D03*
G01*
X28994709Y6261100D03*
G01*
X28994709Y6356095D03*
G01*
X28764890Y6356095D03*
G01*
X28764890Y6261100D03*
G01*
X28764890Y6166104D03*
G01*
X1435684Y8057972D03*
G01*
X1435684Y7962976D03*
G01*
X1435684Y7867980D03*
G01*
X1665503Y7867980D03*
G01*
X1665503Y7962976D03*
G01*
X1665503Y8057972D03*
G01*
X29147109Y3765804D03*
G01*
X29147109Y3860800D03*
G01*
X29147109Y3955795D03*
G01*
X28917290Y3955795D03*
G01*
X28917290Y3860800D03*
G01*
X28917290Y3765804D03*
D21*
G01*
X28525800Y1242695D03*
G01*
X28575787Y1242695D03*
D22*
G01*
X28625800Y1242695D03*
D21*
G01*
X28675787Y1242695D03*
G01*
X28725799Y1242695D03*
G01*
X28525800Y1322704D03*
G01*
X28575787Y1322704D03*
D22*
G01*
X28625800Y1322704D03*
D21*
G01*
X28675787Y1322704D03*
G01*
X28725799Y1322704D03*
G01*
X2220899Y1360804D03*
G01*
X2170912Y1360804D03*
D22*
G01*
X2120900Y1360804D03*
D21*
G01*
X2070912Y1360804D03*
G01*
X2020900Y1360804D03*
G01*
X2220899Y1280795D03*
G01*
X2170912Y1280795D03*
D22*
G01*
X2120900Y1280795D03*
D21*
G01*
X2070912Y1280795D03*
G01*
X2020900Y1280795D03*
D23*
G01*
X5439976Y7964980D03*
G01*
X5439976Y7774988D03*
G01*
X5639976Y7869984D03*
G01*
X13781100Y4362195D03*
G01*
X13781100Y4172204D03*
G01*
X13981099Y4267200D03*
D24*
G01*
X29692600Y8609406D03*
D25*
G01*
X29692601Y8713397D03*
D26*
G01*
X13399211Y4362195D03*
G01*
X13169214Y4267200D03*
G01*
X13399211Y4172204D03*
D27*
G01*
X4115003Y1119987D03*
G01*
X4115003Y1719986D03*
G01*
X4484979Y1119987D03*
G01*
X4484979Y1719986D03*
D28*
G01*
X14378279Y2296007D03*
G01*
X14058265Y2296007D03*
D29*
G01*
X14918965Y1478494D03*
D30*
G01*
X14558973Y1478494D03*
D31*
G01*
X14916466Y1848468D03*
D32*
G01*
X14561473Y1848491D03*
D33*
G01*
X14543963Y1783486D03*
G01*
X14543963Y1743455D03*
G01*
X14543963Y1703476D03*
G01*
X14543963Y1663445D03*
G01*
X14543963Y1623466D03*
G01*
X14543963Y1583486D03*
G01*
X14543963Y1543481D03*
D34*
G01*
X14838959Y1473504D03*
G01*
X14638959Y1473504D03*
G01*
X14678964Y1473504D03*
G01*
X14718969Y1473504D03*
G01*
X14758949Y1473504D03*
D35*
G01*
X14693950Y1833498D03*
G01*
X14738959Y1833498D03*
G01*
X14783993Y1833498D03*
G01*
X14828951Y1833498D03*
D36*
G01*
X14648992Y1835988D03*
D33*
G01*
X14933955Y1783486D03*
G01*
X14933955Y1743455D03*
G01*
X14933955Y1703476D03*
G01*
X14933955Y1663445D03*
D37*
G01*
X14929967Y1623440D03*
D38*
G01*
X14931466Y1583486D03*
D39*
G01*
X14928951Y1543481D03*
D34*
G01*
X14798954Y1473504D03*
D40*
G01*
X4412513Y4753406D03*
G01*
X4477511Y4753406D03*
G01*
X4542510Y4753406D03*
G01*
X4607509Y4753406D03*
G01*
X4672507Y4753406D03*
G01*
X4737506Y4753406D03*
G01*
X4802530Y4753406D03*
G01*
X4867529Y4753406D03*
G01*
X4932527Y4753406D03*
G01*
X4997526Y4753406D03*
G01*
X5062524Y4753406D03*
G01*
X5127523Y4753406D03*
G01*
X5192522Y4753406D03*
G01*
X5257520Y4753406D03*
G01*
X4412513Y5326557D03*
G01*
X4477511Y5326557D03*
G01*
X4542510Y5326557D03*
G01*
X4607509Y5326557D03*
G01*
X4672507Y5326557D03*
G01*
X4737506Y5326557D03*
G01*
X4802530Y5326557D03*
G01*
X4867529Y5326557D03*
G01*
X4932527Y5326557D03*
G01*
X4997526Y5326557D03*
G01*
X5062524Y5326557D03*
G01*
X5127523Y5326557D03*
G01*
X5192522Y5326557D03*
G01*
X5257520Y5326557D03*
D41*
G01*
X4834991Y5039969D03*
D42*
G01*
X12779964Y6999986D03*
G01*
X12829976Y6999986D03*
G01*
X12879964Y6999986D03*
G01*
X12929976Y6999986D03*
G01*
X12979963Y6999986D03*
G01*
X13029976Y6999986D03*
G01*
X13079963Y6999986D03*
G01*
X13129976Y6999986D03*
G01*
X13179963Y6999986D03*
G01*
X13229976Y6999986D03*
G01*
X13279963Y6999986D03*
G01*
X13329975Y6999986D03*
D43*
G01*
X13479962Y7149972D03*
G01*
X13479962Y7199985D03*
G01*
X13479962Y7249972D03*
G01*
X13479962Y7299985D03*
G01*
X13479962Y7349972D03*
G01*
X13479962Y7399985D03*
G01*
X13479962Y7449972D03*
G01*
X13479962Y7499985D03*
G01*
X13479962Y7549972D03*
G01*
X13479962Y7599984D03*
G01*
X13479962Y7649971D03*
G01*
X13479962Y7699984D03*
D42*
G01*
X13329975Y7849971D03*
G01*
X13279963Y7849971D03*
G01*
X13229976Y7849971D03*
G01*
X13179963Y7849971D03*
G01*
X13129976Y7849971D03*
G01*
X13079963Y7849971D03*
G01*
X13029976Y7849971D03*
G01*
X12979963Y7849971D03*
G01*
X12929976Y7849971D03*
G01*
X12879964Y7849971D03*
G01*
X12829976Y7849971D03*
G01*
X12779964Y7849971D03*
D43*
G01*
X12629977Y7699984D03*
G01*
X12629977Y7649971D03*
G01*
X12629977Y7599984D03*
G01*
X12629977Y7549972D03*
G01*
X12629977Y7499985D03*
G01*
X12629977Y7449972D03*
G01*
X12629977Y7399985D03*
G01*
X12629977Y7349972D03*
G01*
X12629977Y7299985D03*
G01*
X12629977Y7249972D03*
G01*
X12629977Y7199985D03*
G01*
X12629977Y7149972D03*
M02*
