G04 Layer: BottomLayer*
G04 EasyEDA v6.5.57, 2026-07-26 20:50:06*
G04 f01cf997b2ac4535b0a7ee46c1186d17,c5fbdd24a08247c7b54e1019145e24f9,10*
G04 Gerber Generator version 0.2*
G04 Scale: 100 percent, Rotated: No, Reflected: No *
G04 Dimensions in millimeters *
G04 leading zeros omitted , absolute positions ,4 integer and 5 decimal *
%FSLAX45Y45*%
%MOMM*%

%AMMACRO1*21,1,$1,$2,0,0,$3*%
%AMMACRO2*4,1,6,-0.4,-0.3,-0.4,0.3,0,0.3,0,-0.075,0.4,-0.075,0.4,-0.3,-0.4,-0.3,0*%
%AMMACRO3*4,1,6,-0.4,0.3,-0.4,-0.3,0,-0.3,0,0.075,0.4,0.075,0.4,0.3,-0.4,0.3,0*%
%AMMACRO4*4,1,6,0.4,0.3,0.4,-0.3,0,-0.3,0,0.075,-0.4,0.075,-0.4,0.3,0.4,0.3,0*%
%AMMACRO5*4,1,6,0.4,-0.3,0.4,0.3,0,0.3,0,-0.075,-0.4,-0.075,-0.4,-0.3,0.4,-0.3,0*%
%ADD10C,0.1990*%
%ADD11C,0.4540*%
%ADD12C,0.2500*%
%ADD13C,0.1470*%
%ADD14C,0.3000*%
%ADD15C,0.2000*%
%ADD16C,0.1450*%
%ADD17C,0.0144*%
%ADD18C,0.4000*%
%ADD19C,0.7000*%
%ADD20C,0.4490*%
%ADD21C,0.3030*%
%ADD22C,0.1500*%
%ADD23C,0.2960*%
%ADD24C,0.8570*%
%ADD25C,0.5000*%
%ADD26C,1.0000*%
%ADD27C,0.9000*%
%ADD28C,0.2560*%
%ADD29C,0.4530*%
%ADD30C,0.0900*%
%ADD31MACRO1,1.2X2X0.0000*%
%ADD32MACRO1,0.5X0.54X0.0000*%
%ADD33MACRO1,0.5X0.54X90.0000*%
%ADD34MACRO1,1.35X1.41X90.0000*%
%ADD35MACRO1,0.864X0.8065X90.0000*%
%ADD36MACRO1,0.54X0.5656X90.0000*%
%ADD37MACRO1,1.5X0.6X0.0000*%
%ADD38MACRO1,3.3X2.1X-90.0000*%
%ADD39MACRO1,0.4X2.1X0.0000*%
%ADD40MACRO1,0.6X0.25X-90.0000*%
%ADD41MACRO1,0.25X1.7X0.0000*%
%ADD42MACRO1,0.8X0.25X0.0000*%
%ADD43MACRO1,0.6X0.25X0.0000*%
%ADD44R,1.3770X1.1325*%
%ADD45MACRO1,1.377X1.1325X0.0000*%
%ADD46MACRO1,1.377X1.1325X90.0000*%
%ADD47MACRO1,0.5X0.54X-90.0000*%
%ADD48R,1.3500X1.4100*%
%ADD49MACRO1,1.35X1.41X0.0000*%
%ADD50MACRO1,0.58X1.2X0.0000*%
%ADD51MACRO1,4.4X3.8X0.0000*%
%ADD52MACRO2*%
%ADD53MACRO1,0.725X0.25X0.0000*%
%ADD54MACRO3*%
%ADD55MACRO1,0.25X0.625X0.0000*%
%ADD56MACRO4*%
%ADD57MACRO5*%
%ADD58MACRO1,0.25X0.675X0.0000*%
%ADD59MACRO1,0.25X0.6X0.0000*%
%ADD60MACRO1,0.375X1.435X0.0000*%
%ADD61MACRO1,0.54X0.54X0.0000*%
%ADD62O,1.999996X0.999998*%
%ADD63C,2.0000*%
%ADD64R,1.8000X1.8000*%
%ADD65C,1.8000*%
%ADD66O,2.499995X1.199998*%
%ADD67O,2.599995X1.599997*%
%ADD68O,2.399995X1.499997*%
%ADD69O,1.999996X1.499997*%
%ADD70C,0.5000*%
%ADD71C,0.6200*%
%ADD72C,0.4500*%
%ADD73C,0.4500*%
%ADD74C,0.7000*%
%ADD75C,1.2000*%
%ADD76C,1.5000*%
%ADD77C,0.6000*%
%ADD78C,0.5500*%

%LPD*%
D10*
X28472536Y8128000D02*
G01*
X28519942Y8175406D01*
X28519942Y8314982D01*
X28449940Y8384984D01*
X28039943Y8384984D01*
X27866416Y8211456D01*
X27866416Y8116798D01*
X14434972Y1574998D02*
G01*
X14384972Y1624998D01*
X14384972Y1855025D01*
D11*
X27567890Y8115300D02*
G01*
X27569922Y7955026D01*
X27724861Y7800086D01*
X27759913Y7800086D01*
X27560600Y8432800D02*
G01*
X27567788Y8425611D01*
X27567788Y8115300D01*
X27804618Y7325105D02*
G01*
X27759913Y7369810D01*
X27759913Y7800086D01*
X27871674Y7911845D01*
X27874468Y7911845D01*
D12*
X23816411Y6807200D02*
G01*
X23827966Y6795645D01*
X23827966Y6669986D01*
X23534877Y7199884D02*
G01*
X23816309Y6917689D01*
D13*
X22999445Y7882305D02*
G01*
X23002125Y7884985D01*
X23509952Y7884985D01*
X24066754Y7319594D02*
G01*
X24069951Y7316396D01*
X24069951Y7184984D01*
X24029987Y7145020D01*
X23940008Y7145020D01*
X23895888Y6440093D02*
G01*
X23920780Y6464985D01*
X24169951Y6464985D01*
X22999954Y7332294D02*
G01*
X22999954Y7164984D01*
D14*
X28693618Y5246598D02*
G01*
X28783635Y5156580D01*
X28812591Y5156580D01*
X28837991Y6705980D02*
G01*
X28809035Y6705980D01*
X28719018Y6795998D01*
X24331599Y6032500D02*
G01*
X24334086Y6034986D01*
X24649950Y6034986D01*
X24709950Y6094986D01*
X24709950Y6114986D01*
X23894643Y6311087D02*
G01*
X23894643Y6261100D01*
D15*
X14219971Y7179985D02*
G01*
X14219971Y7339985D01*
X14134972Y7424983D01*
X13749972Y7424983D01*
X13509972Y7184984D01*
X13509972Y6859986D01*
X13389973Y6769986D01*
X13179973Y6879986D01*
X1309997Y6257485D02*
G01*
X1442499Y6389987D01*
X1919996Y6389987D01*
X2069995Y6239987D01*
X2069995Y6239987D01*
X2074997Y6234986D01*
X2074997Y6174986D01*
X2044997Y6144986D01*
X1974997Y6144986D01*
X1934997Y6184986D01*
X1934997Y6194986D01*
X1734820Y1572260D02*
G01*
X1734820Y1668779D01*
X2053625Y1996549D01*
X2219985Y1845000D01*
X2219985Y1810004D01*
D16*
X5579988Y2269995D02*
G01*
X5569988Y2279995D01*
X5569988Y3334992D01*
X6614985Y4379988D01*
X6614985Y4819990D01*
X6854985Y5059989D01*
X12399975Y5059989D01*
X12754975Y4704989D01*
X12879974Y4704989D01*
D18*
X30086300Y8305292D02*
G01*
X30309820Y8305037D01*
X30389829Y8225028D01*
X30389829Y8009889D01*
X30304993Y7925054D01*
X30135068Y7925054D01*
X30086300Y7973568D01*
X30086300Y8001508D01*
D12*
X28904943Y774997D02*
G01*
X28909942Y779995D01*
X28909942Y1084996D01*
X28909942Y1859996D01*
X28909942Y2649994D01*
X28909942Y3219993D01*
X29054940Y3364992D01*
X29309941Y3364992D01*
X28649942Y349999D02*
G01*
X28699942Y399999D01*
X28699942Y649998D01*
X28824941Y774997D01*
X28904943Y774997D01*
D19*
X14454886Y1785112D02*
G01*
X14384972Y1855025D01*
X14384972Y2049995D01*
X14504972Y2169995D01*
X14929970Y2169995D01*
X15144970Y1954994D01*
X15909968Y1954994D01*
X16449967Y2494993D01*
X17149965Y2494993D01*
X17614966Y2959994D01*
X17614966Y3714991D01*
X17614966Y3949992D01*
X17939966Y4274992D01*
X18614964Y4274992D01*
X21099957Y6759986D01*
X22664955Y6759986D01*
X22664927Y6759955D02*
G01*
X22765004Y6860031D01*
X22765004Y7880095D01*
X22910038Y8024876D01*
X24109934Y8024876D01*
X24180038Y7955026D01*
X24219916Y7955026D01*
D20*
X23415104Y5745144D02*
G01*
X23424954Y5735294D01*
X23424954Y5254988D01*
X19404965Y1234998D01*
X12924975Y1234998D01*
X12843537Y1316436D01*
D21*
X22559954Y3334992D02*
G01*
X24164952Y4939990D01*
X25604950Y4939990D01*
X25799950Y4744989D01*
X27479945Y4744989D01*
X28054942Y4169991D01*
X28859942Y4169991D01*
X28964940Y4274990D01*
X28964940Y4454982D01*
X17704965Y3664991D02*
G01*
X18034965Y3334992D01*
X21124959Y3334992D01*
D22*
X28719018Y6795998D02*
G01*
X28719942Y6796923D01*
X28719942Y6959986D01*
X28791001Y6871004D02*
G01*
X28789942Y6872063D01*
X28789942Y6959986D01*
X5859988Y7879984D02*
G01*
X6194986Y7879984D01*
X6409987Y7664983D01*
X6409987Y4604992D01*
X5154988Y3349993D01*
X5154988Y1439999D01*
X5304990Y1289997D01*
X7759984Y1289997D01*
X7789984Y1319997D01*
X8334984Y1344996D01*
X8404984Y1414995D01*
X8404984Y1449997D01*
D23*
X1544998Y1873323D02*
G01*
X1578328Y1839998D01*
X1689999Y1839998D01*
X1734995Y1794997D01*
X1734995Y1554993D01*
X1710004Y1530002D01*
X1710004Y1340002D01*
D24*
X2159995Y3874990D02*
G01*
X2159995Y2569994D01*
X1829996Y2239995D01*
X1544998Y1954997D01*
X1544998Y1744995D01*
X2067049Y8400034D02*
G01*
X2339995Y8127088D01*
X2339995Y7674983D01*
X2339995Y4054990D01*
X2159995Y3874990D01*
X1529996Y3874990D01*
X27602179Y7543800D02*
G01*
X27469845Y7545070D01*
X26830020Y8184895D01*
X22964902Y8184895D01*
X22960075Y8180070D01*
X20079970Y8180070D01*
X20074890Y8184895D01*
X15644875Y8184895D01*
X15640050Y8180070D01*
X12269977Y8180070D01*
X12254991Y8195055D01*
X5985002Y8195055D01*
X5780024Y8400034D01*
X1474978Y8400034D01*
D20*
X12843532Y1316433D02*
G01*
X12844970Y1317873D01*
X12844970Y1524998D01*
X12849969Y1529996D01*
X12849969Y2954995D01*
X13069976Y3175002D01*
X13069976Y3789984D01*
X12843537Y1316436D02*
G01*
X12709977Y1449997D01*
X12099975Y1449997D01*
X22956672Y5454987D02*
G01*
X22960736Y5459051D01*
X22960736Y5969000D01*
X23579955Y5889990D02*
G01*
X23484954Y5794989D01*
X23464949Y5794989D01*
X23124939Y5454980D01*
X23043235Y5454980D01*
X23648416Y6261100D02*
G01*
X23650956Y6094729D01*
X23650905Y6094603D02*
G01*
X23650905Y5960940D01*
X23579952Y5889988D01*
X23773409Y6261100D02*
G01*
X23773409Y6094603D01*
X28054947Y6434975D02*
G01*
X28049943Y6429971D01*
X28049943Y6154986D01*
X28049943Y6084989D01*
X27929944Y5964989D01*
X27919941Y5954986D01*
X27349945Y5954986D01*
X27344946Y5949988D01*
X26609946Y5949988D01*
X26394945Y5734987D01*
X25384950Y5734987D01*
X25169949Y5949988D01*
X25169949Y6329987D01*
X25169949Y6499987D01*
X28626691Y7969984D02*
G01*
X28699942Y8043235D01*
X28699942Y8344982D01*
X28479943Y8564981D01*
X27414946Y8564981D01*
X27239945Y8389980D01*
X27239945Y8049983D01*
X27602205Y7687724D01*
X27602205Y7543800D01*
X29138981Y6464300D02*
G01*
X29143294Y6459987D01*
X29374942Y6459987D01*
X29404939Y6489984D01*
X29404939Y6514985D01*
X28398223Y7969984D02*
G01*
X28659942Y7969984D01*
X28739942Y7889984D01*
X28739942Y7679984D01*
X28739942Y7584983D01*
D25*
X29401287Y5154988D02*
G01*
X29414942Y5141333D01*
X29414942Y5059989D01*
X29138981Y5156200D02*
G01*
X29140193Y5154988D01*
X29474939Y5154988D01*
X29699940Y5379989D01*
X29699940Y5649988D01*
X29209136Y5308600D02*
G01*
X29214942Y5314406D01*
X29214942Y5619988D01*
X28986190Y5848741D01*
X28284424Y5848741D01*
X27686000Y4929123D02*
G01*
X27465020Y4929886D01*
X27359863Y5035042D01*
X27359863Y5290057D01*
X27614879Y5545073D01*
X28195015Y5545073D01*
X28284424Y5634481D01*
X28284424Y6045200D01*
D26*
X29946854Y7992110D02*
G01*
X29960061Y7979155D01*
X29960061Y7404862D01*
X29679900Y7124954D01*
X28859988Y7124954D01*
X28659836Y7325105D01*
X27385009Y7325105D01*
X26849832Y7860029D01*
X24344884Y7860029D01*
X24249931Y7954982D01*
X24219951Y7954982D01*
X24134574Y7869605D01*
X23685245Y7869605D01*
D25*
X28284500Y6045200D02*
G01*
X28224944Y6104755D01*
X28224944Y6939986D01*
X28219943Y6944987D01*
X28219943Y7144984D01*
X28047386Y7317541D01*
X28047386Y7325105D01*
X28509020Y6805980D02*
G01*
X28504944Y6810057D01*
X28504944Y7144984D01*
X28324822Y7325105D01*
X28295473Y7325105D01*
X29209136Y6819900D02*
G01*
X29203192Y6825843D01*
X29203192Y7124954D01*
D14*
X23773406Y6094605D02*
G01*
X23773406Y5978420D01*
X23749965Y5954979D01*
X23754953Y5949990D01*
X23754953Y5949988D01*
X23723401Y5981545D01*
X23723401Y6094605D01*
X23527156Y6211087D02*
G01*
X23526056Y6209987D01*
X23404954Y6209987D01*
X23900891Y6361099D02*
G01*
X23991067Y6361099D01*
X24024953Y6394985D01*
X23685754Y7319594D02*
G01*
X23684951Y7318791D01*
X23684951Y7174984D01*
D18*
X24318899Y6261100D02*
G01*
X24314952Y6265047D01*
X24314952Y7064984D01*
X24324952Y7074984D01*
X24324952Y7764983D01*
X24319951Y7769984D01*
X24319951Y7904982D01*
X24244950Y7979984D01*
X24174950Y7979984D01*
X24064572Y7869605D01*
X23685245Y7869605D01*
D14*
X23605998Y6425184D02*
G01*
X23604981Y6480047D01*
X23519891Y6564884D01*
X23519891Y6768084D01*
X23686008Y6428739D02*
G01*
X23684991Y6534912D01*
X23634954Y6584950D01*
X23634954Y6659879D01*
X23911963Y6669986D02*
G01*
X24079951Y6669986D01*
X23269953Y6894984D02*
G01*
X23312940Y6851997D01*
X23519952Y6851997D01*
X23380954Y7332294D02*
G01*
X23379953Y7331293D01*
X23379953Y7064984D01*
X23126954Y7332294D02*
G01*
X23380954Y7332294D01*
X23685906Y6428841D02*
G01*
X23685906Y6384033D01*
X23710900Y6359039D01*
X23710900Y6261100D01*
X23827966Y6669986D02*
G01*
X23815878Y6657898D01*
X23815878Y6425107D01*
X23732388Y6807200D02*
G01*
X23735893Y6803694D01*
X23735893Y6428841D01*
X23939754Y7319518D02*
G01*
X23940008Y7145020D01*
X23816309Y7021321D01*
X23816309Y6998715D01*
X23812754Y7319594D02*
G01*
X23816411Y7315936D01*
X23816411Y6807200D01*
X24126190Y5816600D02*
G01*
X24126190Y6032500D01*
X24131524Y6032500D01*
D25*
X24210111Y5816600D02*
G01*
X24216723Y5809988D01*
X24309951Y5809988D01*
X24331599Y5831636D01*
X24331599Y6032500D01*
X22697277Y5969000D02*
G01*
X22699954Y5971677D01*
X22699954Y6154986D01*
X22810063Y5969000D02*
G01*
X22810063Y6273800D01*
X22578999Y5969000D02*
G01*
X22810063Y5969000D01*
X22377400Y6442811D02*
G01*
X22381311Y6438900D01*
X22810063Y6438900D01*
X22377400Y6358889D02*
G01*
X22378924Y5969000D01*
D15*
X22960838Y5969000D02*
G01*
X23279861Y5970015D01*
X23471124Y6161023D01*
X23520908Y6161023D01*
X22901909Y6121400D02*
G01*
X23224998Y6119876D01*
X23365968Y6261100D01*
X23527258Y6261100D01*
X22960838Y6273800D02*
G01*
X23275036Y6275070D01*
X23311104Y6311137D01*
X23527258Y6311137D01*
X22960838Y6438900D02*
G01*
X23180040Y6439915D01*
X23259953Y6359987D01*
X23281131Y6361176D01*
X23520908Y6361176D01*
X24118900Y6261100D02*
G01*
X24131600Y6248400D01*
X24131600Y6032500D01*
X23894643Y6261100D02*
G01*
X24118900Y6261100D01*
D25*
X29052418Y5156200D02*
G01*
X29058463Y5150154D01*
X29058463Y4991100D01*
X28635579Y5096586D02*
G01*
X28679942Y5052222D01*
X28679942Y4829990D01*
X28644951Y4794999D01*
X28644951Y4454982D01*
X28585591Y5041595D02*
G01*
X28525927Y5101259D01*
X28525927Y5141899D01*
X28232100Y4941900D02*
G01*
X28165188Y4874988D01*
X27979944Y4874988D01*
X27978100Y5050688D02*
G01*
X27979944Y5048844D01*
X27979944Y4874988D01*
D27*
X28232100Y5141899D02*
G01*
X27698700Y5141899D01*
X27686000Y5129199D01*
D26*
X28540608Y5156580D02*
G01*
X28525927Y5141899D01*
X28425927Y5141899D01*
X28540608Y5156580D02*
G01*
X28513435Y5183753D01*
X28467781Y5183753D01*
X28540608Y5256580D02*
G01*
X28425927Y5141899D01*
X28232100Y5141899D01*
D15*
X28693618Y5246598D02*
G01*
X28694941Y5247921D01*
X28694941Y5419989D01*
X28765601Y5321604D02*
G01*
X28764943Y5322262D01*
X28764943Y5419989D01*
X28812591Y5206593D02*
G01*
X29002024Y5206593D01*
X29052418Y5156200D01*
X28812490Y5256529D02*
G01*
X28895040Y5255005D01*
X28948634Y5308600D01*
X29058361Y5308600D01*
X28342488Y6794500D02*
G01*
X28339943Y6791954D01*
X28339943Y6689986D01*
X28369943Y6659986D01*
X28389943Y6659986D01*
D25*
X28426511Y6794500D02*
G01*
X28465018Y6755993D01*
X28566008Y6755993D01*
X28426511Y6794500D02*
G01*
X28437992Y6805980D01*
X28566008Y6805980D01*
X28566109Y6805929D02*
G01*
X28564840Y6599936D01*
X28573984Y6591045D01*
X28601670Y6591045D01*
X28374848Y6435089D02*
G01*
X28610052Y6435089D01*
X28660852Y6486144D01*
X28660852Y6645910D01*
D15*
X29138981Y6464300D02*
G01*
X29239941Y6363340D01*
X29239941Y6289987D01*
X29209941Y6259987D01*
X29144942Y6259987D01*
X29058463Y6642100D02*
G01*
X29052418Y6636054D01*
X29052418Y6464300D01*
X28837890Y6755892D02*
G01*
X28883863Y6755892D01*
X28929838Y6709918D01*
X28934943Y6679986D01*
X29058361Y6642100D01*
X28837991Y6805980D02*
G01*
X28851910Y6819900D01*
X29058463Y6819900D01*
X28897300Y7988300D02*
G01*
X28895616Y7989984D01*
X28759942Y7989984D01*
D28*
X29497299Y8188299D02*
G01*
X29512386Y8203387D01*
X30086300Y8203387D01*
D15*
X29718000Y7908188D02*
G01*
X29721205Y7904982D01*
X29859940Y7904982D01*
X29497299Y7888300D02*
G01*
X29517187Y7908188D01*
X29718000Y7908188D01*
X28459836Y7823200D02*
G01*
X28459943Y7823093D01*
X28459943Y7674983D01*
X28101391Y8026780D02*
G01*
X28056740Y8026780D01*
X28014942Y7984982D01*
X27829408Y8026780D02*
G01*
X27834945Y8021243D01*
X27834945Y7819984D01*
X27854945Y7799984D01*
X27869944Y7799984D01*
X27884945Y7814985D01*
X27884945Y7854983D01*
X27874391Y7865536D01*
X27874391Y7911795D01*
D26*
X27829408Y8126780D02*
G01*
X27829408Y8026780D01*
D15*
X27922220Y7543800D02*
G01*
X27924252Y7966710D01*
X28054401Y8191804D02*
G01*
X28054945Y8192348D01*
X28054945Y8299983D01*
X27760599Y8432800D02*
G01*
X27759944Y8432144D01*
X27759944Y8274984D01*
X27651811Y8115300D02*
G01*
X27654945Y8112165D01*
X27654945Y7994982D01*
X28101290Y8126729D02*
G01*
X28321761Y8128000D01*
X28101391Y8076793D02*
G01*
X28153133Y8076793D01*
X28189943Y8039983D01*
X28189943Y7984982D01*
X28204942Y7969984D01*
X28311660Y7969984D01*
X28311602Y7970012D02*
G01*
X28309061Y7823200D01*
X28897325Y7788402D02*
G01*
X28895040Y7424928D01*
X28941268Y7378700D01*
X29079190Y7378700D01*
X29163009Y7378700D02*
G01*
X29165041Y7515097D01*
D29*
X13764973Y7889984D02*
G01*
X13769972Y7884985D01*
X14144972Y7884985D01*
X14262983Y7766974D01*
X14619970Y7766974D01*
D26*
X30086300Y8001406D02*
G01*
X30077105Y7992211D01*
X29718000Y7992211D01*
X29497299Y7988300D02*
G01*
X29501213Y7992214D01*
X29718000Y7992214D01*
D28*
X30086300Y8103387D02*
G01*
X30071212Y8088299D01*
X29497299Y8088299D01*
D30*
X1384300Y1676400D02*
G01*
X1384300Y1237693D01*
X1552996Y1068997D01*
X2148497Y1068997D01*
X2247900Y1168400D01*
D31*
G01*
X28054945Y6434985D03*
G01*
X28374944Y6434985D03*
G01*
X28964943Y4454989D03*
G01*
X28644943Y4454989D03*
D32*
G01*
X29079099Y7378700D03*
G01*
X29163100Y7378700D03*
D33*
G01*
X29718000Y7992200D03*
G01*
X29718000Y7908199D03*
D32*
G01*
X27567799Y8115300D03*
G01*
X27651800Y8115300D03*
G01*
X28426500Y6794500D03*
G01*
X28342499Y6794500D03*
D34*
G01*
X27560597Y8432800D03*
G01*
X27760602Y8432800D03*
G01*
X28284497Y6045200D03*
G01*
X28484502Y6045200D03*
D35*
G01*
X28321875Y8128000D03*
G01*
X28472524Y8128000D03*
G01*
X28309175Y7823200D03*
G01*
X28459824Y7823200D03*
D36*
G01*
X28311659Y7969984D03*
G01*
X28398224Y7969984D03*
D37*
G01*
X29497299Y7788300D03*
G01*
X29497301Y7888300D03*
G01*
X29497304Y7988302D03*
G01*
X29497301Y8088299D03*
G01*
X29497299Y8188299D03*
G01*
X28897300Y8188299D03*
G01*
X28897300Y8088299D03*
G01*
X28897300Y7988300D03*
G01*
X28897300Y7888300D03*
G01*
X28897300Y7788300D03*
D38*
G01*
X29197300Y7988300D03*
D39*
G01*
X27866403Y8116798D03*
D40*
G01*
X28054413Y8191804D03*
D39*
G01*
X27982405Y8116798D03*
D40*
G01*
X28054413Y7911795D03*
D41*
G01*
X27924390Y7966784D03*
D40*
G01*
X27874403Y7911795D03*
D42*
G01*
X27829395Y8126779D03*
G01*
X27829395Y8076793D03*
G01*
X27829395Y8026779D03*
D43*
G01*
X28101404Y7976792D03*
G01*
X28101404Y8026779D03*
G01*
X28101404Y8076793D03*
G01*
X28101404Y8126779D03*
D39*
G01*
X28603003Y6795998D03*
D40*
G01*
X28791013Y6871004D03*
D39*
G01*
X28719005Y6795998D03*
D40*
G01*
X28791013Y6590995D03*
D41*
G01*
X28660990Y6645984D03*
D40*
G01*
X28611003Y6590995D03*
D42*
G01*
X28565995Y6805979D03*
G01*
X28565995Y6755993D03*
G01*
X28565995Y6705979D03*
D43*
G01*
X28838004Y6655992D03*
G01*
X28838004Y6705979D03*
G01*
X28838004Y6755993D03*
G01*
X28838004Y6805979D03*
D39*
G01*
X28577603Y5246598D03*
D40*
G01*
X28765613Y5321604D03*
D39*
G01*
X28693605Y5246598D03*
D40*
G01*
X28765613Y5041595D03*
D41*
G01*
X28635590Y5096584D03*
D40*
G01*
X28585603Y5041595D03*
D42*
G01*
X28540595Y5256579D03*
G01*
X28540595Y5206593D03*
G01*
X28540595Y5156579D03*
D43*
G01*
X28812604Y5106592D03*
G01*
X28812604Y5156579D03*
G01*
X28812604Y5206593D03*
G01*
X28812604Y5256579D03*
D31*
G01*
X27602200Y7543800D03*
G01*
X27922199Y7543800D03*
D35*
G01*
X29058475Y6819900D03*
G01*
X29209124Y6819900D03*
D44*
G01*
X27686000Y4929200D03*
D45*
G01*
X27686000Y5129204D03*
D46*
G01*
X24118895Y6261100D03*
G01*
X24318904Y6261100D03*
G01*
X22378995Y5969000D03*
G01*
X22579004Y5969000D03*
D32*
G01*
X24126099Y5816600D03*
G01*
X24210100Y5816600D03*
G01*
X23732399Y6807200D03*
G01*
X23816400Y6807200D03*
D47*
G01*
X23519952Y6767986D03*
G01*
X23519952Y6851986D03*
D32*
G01*
X22902000Y6121400D03*
G01*
X22817999Y6121400D03*
D33*
G01*
X22377400Y6442800D03*
G01*
X22377400Y6358799D03*
G01*
X27978100Y5134700D03*
G01*
X27978100Y5050699D03*
D34*
G01*
X24131597Y6032500D03*
G01*
X24331602Y6032500D03*
D48*
G01*
X28232100Y5141899D03*
D49*
G01*
X28232100Y4941897D03*
D50*
G01*
X23685745Y7319599D03*
G01*
X23812745Y7319599D03*
G01*
X23939745Y7319599D03*
G01*
X24066745Y7319599D03*
G01*
X24066237Y7869598D03*
G01*
X23939237Y7869598D03*
G01*
X23812237Y7869598D03*
G01*
X23685252Y7869598D03*
D51*
G01*
X23876000Y7659199D03*
D50*
G01*
X22999945Y7332299D03*
G01*
X23126945Y7332299D03*
G01*
X23253945Y7332299D03*
G01*
X23380945Y7332299D03*
G01*
X23380437Y7882298D03*
G01*
X23253437Y7882298D03*
G01*
X23126437Y7882298D03*
G01*
X22999452Y7882298D03*
D51*
G01*
X23190200Y7671899D03*
D35*
G01*
X22810075Y5969000D03*
G01*
X22960724Y5969000D03*
G01*
X22810075Y6273800D03*
G01*
X22960724Y6273800D03*
G01*
X22810075Y6438900D03*
G01*
X22960724Y6438900D03*
G01*
X29058475Y6642100D03*
G01*
X29209124Y6642100D03*
G01*
X29058475Y5308600D03*
G01*
X29209124Y5308600D03*
G01*
X29058475Y4991100D03*
G01*
X29209124Y4991100D03*
D36*
G01*
X22956671Y5454987D03*
G01*
X23043236Y5454987D03*
G01*
X29052417Y5156200D03*
G01*
X29138982Y5156200D03*
G01*
X29052417Y6464300D03*
G01*
X29138982Y6464300D03*
D52*
G01*
X23895895Y6428846D03*
D43*
G01*
X23900899Y6361097D03*
D53*
G01*
X23894652Y6311097D03*
G01*
X23894652Y6261097D03*
G01*
X23894652Y6211097D03*
D43*
G01*
X23900897Y6161097D03*
D54*
G01*
X23895895Y6093348D03*
D55*
G01*
X23823406Y6094600D03*
G01*
X23773406Y6094600D03*
G01*
X23723406Y6094600D03*
G01*
X23650906Y6094600D03*
G01*
X23600907Y6094600D03*
D56*
G01*
X23525899Y6093353D03*
D43*
G01*
X23520897Y6161097D03*
D53*
G01*
X23527151Y6211097D03*
G01*
X23527151Y6261097D03*
G01*
X23527151Y6311097D03*
D43*
G01*
X23520897Y6361097D03*
D57*
G01*
X23525899Y6428846D03*
D58*
G01*
X23605886Y6425096D03*
D59*
G01*
X23685901Y6428849D03*
G01*
X23735903Y6428849D03*
D58*
G01*
X23815888Y6425096D03*
D60*
G01*
X23773396Y6261097D03*
G01*
X23710897Y6261097D03*
G01*
X23648398Y6261097D03*
D61*
G01*
X23911952Y6669986D03*
G01*
X23827953Y6669986D03*
D62*
G01*
X30659603Y8585377D03*
G01*
X30659603Y7721396D03*
G01*
X30289601Y8585377D03*
G01*
X30289601Y7721396D03*
D63*
G01*
X13055600Y5181600D03*
G01*
X13309600Y5181600D03*
G01*
X13563600Y5181600D03*
G01*
X13817600Y5181600D03*
D64*
G01*
X6001994Y6054979D03*
D65*
G01*
X5747994Y6054979D03*
D64*
G01*
X4034993Y5621985D03*
D65*
G01*
X4034993Y5367985D03*
D64*
G01*
X25257937Y8789974D03*
D65*
G01*
X25511937Y8789974D03*
D64*
G01*
X14619970Y6847974D03*
D65*
G01*
X14619970Y7101974D03*
D64*
G01*
X14619970Y7512974D03*
D65*
G01*
X14619970Y7766974D03*
D64*
G01*
X16271976Y7764983D03*
D65*
G01*
X16017976Y7764983D03*
G01*
X2739212Y7772400D03*
G01*
X4779213Y7772400D03*
D66*
G01*
X29549953Y440004D03*
G01*
X29549953Y1720011D03*
G01*
X1159687Y1922703D03*
G01*
X1159687Y642696D03*
D67*
G01*
X805764Y2816504D03*
G01*
X805764Y4371492D03*
G01*
X255752Y4371492D03*
G01*
X255752Y2816504D03*
G01*
X29915256Y7038594D03*
G01*
X29915256Y5483605D03*
G01*
X30465268Y5483605D03*
G01*
X30465268Y7038594D03*
G01*
X759764Y7203490D03*
G01*
X759764Y8758478D03*
G01*
X209753Y8758478D03*
G01*
X209753Y7203490D03*
G01*
X29915256Y4638294D03*
G01*
X29915256Y3083305D03*
G01*
X30465268Y3083305D03*
G01*
X30465268Y4638294D03*
D68*
G01*
X907516Y4889982D03*
G01*
X907516Y6539992D03*
D69*
G01*
X229514Y6539992D03*
G01*
X229514Y4889982D03*
D70*
G01*
X5015026Y4919979D03*
G01*
X4775022Y5039969D03*
G01*
X4895011Y4919979D03*
G01*
X4775022Y4919979D03*
G01*
X4775022Y5159984D03*
G01*
X4655007Y4919979D03*
G01*
X4655007Y5039969D03*
G01*
X4655007Y5159984D03*
G01*
X4895011Y5039969D03*
G01*
X5012816Y5039969D03*
G01*
X4895011Y5159984D03*
G01*
X5015026Y5159984D03*
D71*
G01*
X1384300Y1676400D03*
G01*
X2247900Y1168400D03*
G01*
X29210000Y1179499D03*
G01*
X29210000Y979500D03*
G01*
X28793719Y230682D03*
G01*
X28768319Y439978D03*
G01*
X30086300Y8001406D03*
G01*
X30086300Y8103387D03*
G01*
X30086300Y8203387D03*
G01*
X30086300Y8305393D03*
G01*
X25314960Y4549978D03*
G01*
X25524942Y7504988D03*
G01*
X15621000Y5295900D03*
D72*
G01*
X1956993Y7867980D03*
G01*
X1956993Y8057972D03*
D73*
G01*
X2411984Y1811985D03*
G01*
X2286000Y1803400D03*
G01*
X1981200Y1447800D03*
G01*
X1943100Y1295400D03*
G01*
X2171700Y1765300D03*
G01*
X1981200Y1765300D03*
G01*
X1996490Y3499002D03*
G01*
X1991588Y3688994D03*
G01*
X28675787Y1040003D03*
G01*
X28790950Y1035989D03*
G01*
X28373933Y821004D03*
G01*
X28372511Y711200D03*
G01*
X7479995Y1924989D03*
G01*
X7409992Y1849983D03*
G01*
X7554975Y1694992D03*
G01*
X7354976Y1734997D03*
G01*
X6074994Y1719986D03*
G01*
X6029985Y1664995D03*
G01*
X5954979Y1584985D03*
G01*
X5929985Y1529994D03*
G01*
X7394981Y1475003D03*
G01*
X7354493Y1424990D03*
G01*
X1405001Y5904992D03*
G01*
X1373504Y5996304D03*
G01*
X10554970Y1364995D03*
G01*
X10504500Y1419987D03*
G01*
X5855995Y1007998D03*
G01*
X5904991Y1154988D03*
G01*
X28129941Y3504590D03*
G01*
X28129941Y3377590D03*
G01*
X6179997Y1029995D03*
G01*
X6204991Y1119987D03*
G01*
X28129941Y3631590D03*
G01*
X28125267Y3745890D03*
G01*
X28074950Y1299997D03*
G01*
X28074950Y1380007D03*
G01*
X5979998Y2189987D03*
G01*
X5864986Y2194991D03*
G01*
X6364986Y1110005D03*
G01*
X6354495Y1180007D03*
G01*
X27864943Y6273088D03*
G01*
X27864943Y6412788D03*
G01*
X27864943Y6527088D03*
G01*
X27864943Y6654088D03*
G01*
X27864943Y6781088D03*
G01*
X27864943Y6908088D03*
G01*
X27864943Y7035088D03*
G01*
X27864943Y7162088D03*
G01*
X6454495Y1134998D03*
G01*
X6504508Y1170000D03*
G01*
X6604508Y1170000D03*
G01*
X6654495Y1134998D03*
G01*
X6754495Y1129995D03*
G01*
X6814997Y1129995D03*
G01*
X6889978Y1170000D03*
G01*
X6954977Y1164132D03*
G01*
X16560800Y2710332D03*
G01*
X16433800Y2704998D03*
G01*
X7104506Y1159992D03*
G01*
X7034987Y1154988D03*
G01*
X7204506Y1149985D03*
G01*
X7269988Y1149985D03*
G01*
X26679956Y599998D03*
G01*
X26726946Y645998D03*
G01*
X27131949Y3984980D03*
G01*
X27084959Y4045000D03*
G01*
X7704505Y1170000D03*
G01*
X7734985Y1075004D03*
G01*
X27879954Y6057188D03*
G01*
X27879954Y5815888D03*
G01*
X7999984Y1084996D03*
G01*
X16179800Y5579998D03*
G01*
X8154517Y1175004D03*
G01*
X25089942Y3218027D03*
G01*
X16458387Y4804994D03*
G01*
X16354958Y4799990D03*
G01*
X8254974Y1184986D03*
D71*
G01*
X7869986Y3404996D03*
G01*
X7929981Y3354984D03*
D73*
G01*
X7929981Y2194991D03*
G01*
X7929499Y2129993D03*
G01*
X28809950Y3955795D03*
G01*
X28809950Y3765804D03*
G01*
X7629499Y2149982D03*
G01*
X7554975Y2145004D03*
G01*
X28649955Y6356095D03*
G01*
X28657041Y6166104D03*
G01*
X7349997Y2145004D03*
G01*
X7254976Y2145004D03*
G01*
X26829943Y7159980D03*
G01*
X26829943Y7234986D03*
G01*
X6954977Y2199995D03*
G01*
X6979996Y2140000D03*
G01*
X26529944Y6709994D03*
G01*
X26531950Y6792976D03*
G01*
X6874992Y2210003D03*
G01*
X6885000Y2140000D03*
G01*
X26574953Y6294983D03*
G01*
X26502868Y6307073D03*
G01*
X6764985Y2189987D03*
G01*
X26394943Y5989980D03*
G01*
X26474953Y5994984D03*
G01*
X6594983Y2199995D03*
G01*
X6589979Y2134996D03*
G01*
X26244956Y3359988D03*
G01*
X26355954Y3339998D03*
G01*
X6439992Y2210003D03*
G01*
X6432499Y2140000D03*
G01*
X25901904Y2840989D03*
G01*
X25897941Y2918993D03*
G01*
X6324981Y2199995D03*
G01*
X6282512Y2134996D03*
G01*
X7982508Y2319985D03*
G01*
X7564983Y1919986D03*
G01*
X7682509Y1910003D03*
G01*
X7832496Y1905000D03*
G01*
X7982508Y1899996D03*
G01*
X8282508Y1899996D03*
G01*
X8432495Y1899996D03*
G01*
X8932494Y1899996D03*
G01*
X9682505Y1902942D03*
G01*
X9982504Y1899996D03*
G01*
X10282504Y1899996D03*
G01*
X10432516Y1894992D03*
G01*
X10582503Y1889988D03*
G01*
X10732515Y1884984D03*
G01*
X11032515Y1884984D03*
G01*
X10882502Y1880006D03*
G01*
X11482501Y1884984D03*
G01*
X11632514Y1880006D03*
G01*
X11782501Y1875002D03*
G01*
X11932513Y1875002D03*
G01*
X11957507Y1448943D03*
G01*
X11807520Y1449984D03*
G01*
X11657507Y1449984D03*
G01*
X11507520Y1444244D03*
G01*
X11357508Y1440002D03*
G01*
X11207521Y1433906D03*
G01*
X11057509Y1424482D03*
G01*
X10907496Y1424990D03*
G01*
X10757509Y1419987D03*
G01*
X10607497Y1419987D03*
G01*
X10454980Y1479997D03*
G01*
X10254980Y1484995D03*
G01*
X9904981Y1489997D03*
G01*
X9509980Y1484995D03*
G01*
X7894980Y1114983D03*
G01*
X7789976Y1140002D03*
G01*
X7594981Y1110005D03*
G01*
X7457516Y1094994D03*
G01*
X7339990Y1089990D03*
G01*
X6859981Y1070000D03*
G01*
X6685000Y1034999D03*
G01*
X6534988Y1049985D03*
G01*
X6379997Y1049985D03*
G01*
X6269990Y1075004D03*
G01*
X6050000Y1114983D03*
G01*
X5957493Y1075004D03*
G01*
X16234968Y3664991D03*
G01*
X17929961Y4684979D03*
G01*
X8224977Y1134998D03*
G01*
X6733997Y2127986D03*
G01*
X15484957Y3619982D03*
G01*
X15534970Y3680002D03*
G01*
X15584957Y3610000D03*
G01*
X15939973Y3669995D03*
G01*
X15999968Y3619982D03*
G01*
X16384955Y3674998D03*
G01*
X17159960Y3645001D03*
G01*
X17404968Y4129989D03*
G01*
X13814983Y4794986D03*
G01*
X15114981Y3549980D03*
G01*
X15069972Y3519982D03*
G01*
X8294979Y2194991D03*
G01*
X8332495Y2129993D03*
G01*
X4544999Y3964990D03*
G01*
X4774996Y3959987D03*
G01*
X5129987Y3849979D03*
G01*
X5374995Y3919981D03*
D63*
G01*
X5779998Y4374997D03*
D70*
G01*
X4299991Y5367985D03*
G01*
X4715002Y5489981D03*
G01*
X4672507Y4604994D03*
G01*
X4412513Y4604994D03*
G01*
X5257520Y4609998D03*
G01*
X4997526Y5444997D03*
G01*
X5064988Y4604994D03*
G01*
X9474982Y1899996D03*
G01*
X4994991Y4254990D03*
G01*
X9414992Y1789988D03*
G01*
X4804991Y4424989D03*
G01*
X4744991Y4529990D03*
G01*
X4869990Y4629990D03*
D71*
G01*
X9934981Y2304996D03*
G01*
X9739980Y2269995D03*
G01*
X9834981Y2369995D03*
G01*
X5254990Y7964980D03*
G01*
X4119991Y2044994D03*
G01*
X5159989Y1284996D03*
D73*
G01*
X8404984Y1449997D03*
G01*
X13764973Y7889984D03*
G01*
X13984970Y8889982D03*
G01*
X14219971Y7179985D03*
G01*
X14234972Y6639986D03*
G01*
X13479962Y7449972D03*
G01*
X12744975Y6529986D03*
G01*
X12889974Y6524985D03*
G01*
X13179973Y6879986D03*
G01*
X13079973Y7164984D03*
G01*
X12839974Y7329985D03*
G01*
X13049973Y7319985D03*
G01*
X13259973Y7314986D03*
G01*
X13254974Y7499985D03*
G01*
X13054975Y7509984D03*
G01*
X12844975Y7514983D03*
G01*
X13279973Y7669984D03*
G01*
X14174972Y7619984D03*
G01*
X12634975Y6824985D03*
G01*
X14444972Y6454985D03*
G01*
X14369971Y7519984D03*
G01*
X13279973Y6879986D03*
G01*
X13129973Y6824985D03*
G01*
X10234929Y2290063D03*
G01*
X12979974Y6869986D03*
G01*
X10184980Y2384993D03*
G01*
X12769974Y6264986D03*
G01*
X10134981Y2274994D03*
G01*
X12819974Y6454985D03*
G01*
X10079979Y2204994D03*
G01*
X10999977Y4804989D03*
G01*
X10034981Y2274994D03*
G01*
X14464972Y1449997D03*
G01*
X14239971Y1549996D03*
G01*
X8184984Y1924994D03*
G01*
X8229983Y1869996D03*
G01*
X14694971Y1949996D03*
G01*
X14164972Y1814995D03*
G01*
X14674971Y1649996D03*
G01*
X14664969Y1554995D03*
G01*
X14789970Y1539996D03*
G01*
X14624972Y1679996D03*
G01*
X14829970Y1654995D03*
G01*
X14719970Y1599996D03*
G01*
X14619970Y1604995D03*
G01*
X14679970Y1744995D03*
G01*
X14584972Y2034994D03*
G01*
X28849942Y8614984D03*
G01*
X29929940Y8714981D03*
G01*
X5659988Y1124999D03*
G01*
X14734971Y4484989D03*
G01*
X25369949Y6109987D03*
G01*
X8084985Y2209995D03*
G01*
X14379971Y3874990D03*
G01*
X15129969Y2144994D03*
G01*
X15139969Y2254994D03*
G01*
X8434984Y2729994D03*
G01*
X8529982Y2739994D03*
G01*
X7099985Y2204994D03*
G01*
X7184986Y2124994D03*
G01*
X29165041Y7515097D03*
G01*
X27654945Y7994982D03*
G01*
X27759944Y8274984D03*
G01*
X28054945Y8299983D03*
G01*
X27982418Y8116798D03*
G01*
X28014942Y7984982D03*
G01*
X28459943Y7674983D03*
G01*
X29859940Y7904982D03*
G01*
X30079939Y7879984D03*
G01*
X30089939Y8429983D03*
G01*
X29197300Y7988300D03*
G01*
X28759942Y7989984D03*
G01*
X29209136Y6642100D03*
G01*
X29144942Y6259987D03*
G01*
X28659942Y6259987D03*
G01*
X28484499Y6045200D03*
G01*
X28389943Y6659986D03*
G01*
X29209136Y4991100D03*
G01*
X28764943Y5419989D03*
G01*
X28694941Y5419989D03*
D26*
G01*
X27979944Y4874988D03*
G01*
X22699954Y6154986D03*
G01*
X23379953Y7064984D03*
G01*
X23269953Y6894984D03*
G01*
X24079951Y6669986D03*
G01*
X23634954Y6659986D03*
D70*
G01*
X23684951Y7174984D03*
G01*
X24024953Y6394985D03*
G01*
X23404954Y6209987D03*
G01*
X23749952Y5954986D03*
D74*
G01*
X29699940Y5649988D03*
G01*
X28904943Y774997D03*
G01*
X28914943Y3859992D03*
G01*
X29414942Y5059989D03*
G01*
X29684941Y6829986D03*
G01*
X28739942Y7584983D03*
G01*
X29404939Y6514985D03*
G01*
X25169949Y6499987D03*
G01*
X12099975Y1449997D03*
G01*
X12843537Y1316436D03*
G01*
X13069973Y3789992D03*
D75*
G01*
X1474978Y8400034D03*
G01*
X1529996Y3874990D03*
G01*
X1544998Y1744995D03*
D70*
G01*
X1709996Y1339997D03*
G01*
X5859988Y7879984D03*
G01*
X26794947Y7324984D03*
G01*
X27114947Y7164984D03*
G01*
X27104947Y6974984D03*
G01*
X26769946Y6834985D03*
G01*
X26744947Y6669986D03*
G01*
X27119945Y6494985D03*
G01*
X27109948Y6399987D03*
G01*
X27124947Y6189987D03*
G01*
X27104947Y6099987D03*
G01*
X27059945Y5799988D03*
G01*
X26379947Y5614987D03*
G01*
X27089945Y5374987D03*
G01*
X26994944Y2479995D03*
G01*
X26959946Y2584993D03*
G01*
X27024947Y2634993D03*
G01*
X26949946Y2684993D03*
G01*
X26979946Y3334992D03*
G01*
X27009945Y3194992D03*
G01*
X27059945Y4429991D03*
G01*
X26964947Y4384989D03*
G01*
X26984947Y4234990D03*
G01*
X27034947Y4114990D03*
G01*
X27134947Y3884990D03*
G01*
X27094947Y3814991D03*
G01*
X27074947Y3604994D03*
G01*
X27064944Y2994992D03*
G01*
X27059945Y5574990D03*
G01*
X27179945Y5459989D03*
G01*
X27064944Y5474987D03*
G01*
X27034947Y2734993D03*
G01*
X379999Y344998D03*
G01*
X1349997Y979998D03*
G01*
X1339997Y1284996D03*
G01*
X379999Y2189995D03*
G01*
X1244998Y3244992D03*
G01*
X1989996Y3594991D03*
G01*
X974999Y5214988D03*
G01*
X974999Y5359989D03*
G01*
X974999Y5514990D03*
G01*
X974999Y5659988D03*
G01*
X979998Y5814987D03*
G01*
X979998Y5919988D03*
G01*
X979998Y6059987D03*
G01*
X1254998Y7504983D03*
G01*
X1784997Y7959984D03*
G01*
X5709988Y2154994D03*
G01*
X6084989Y2229995D03*
G01*
X6184988Y2179995D03*
G01*
X6469987Y2314994D03*
G01*
X6644987Y2269995D03*
D73*
G01*
X6774987Y2274994D03*
G01*
X7259985Y1944994D03*
G01*
X11184976Y1884994D03*
G01*
X11334978Y1919996D03*
G01*
X8909982Y1489997D03*
G01*
X8204984Y1439997D03*
G01*
X8054985Y1444995D03*
G01*
X7004987Y1424995D03*
G01*
X5749988Y1134996D03*
G01*
X28789942Y6959986D03*
G01*
X28719942Y6959986D03*
D70*
G01*
X17704965Y3664991D03*
G01*
X21124959Y3334992D03*
G01*
X22559954Y3334992D03*
G01*
X14454886Y1785112D03*
D76*
G01*
X30329939Y144998D03*
G01*
X30334940Y2034994D03*
D77*
G01*
X29259941Y1379997D03*
G01*
X29359941Y1079997D03*
G01*
X28539942Y1654995D03*
G01*
X28649942Y349999D03*
G01*
X28298419Y344995D03*
G01*
X29309941Y3364992D03*
G01*
X29589940Y4499990D03*
D73*
G01*
X2219995Y1809996D03*
D77*
G01*
X26414948Y3484991D03*
G01*
X7424986Y2209995D03*
G01*
X7084987Y2324994D03*
G01*
X5579988Y2269995D03*
G01*
X12879974Y4704989D03*
G01*
X5274990Y2789994D03*
D73*
G01*
X7959984Y1169997D03*
G01*
X1309997Y6257485D03*
G01*
X1934997Y6194986D03*
G01*
X14124973Y8014982D03*
G01*
X13554974Y8344982D03*
G01*
X13034972Y8911970D03*
G01*
X5255008Y7599934D03*
D78*
G01*
X27014947Y4544989D03*
G01*
X14474972Y2494993D03*
G01*
X13949972Y1464995D03*
G01*
X24709950Y6114986D03*
G01*
X1969998Y5954986D03*
G01*
X5454990Y5714987D03*
G01*
X7154986Y1544995D03*
G01*
X13954973Y7359985D03*
G01*
X15799968Y1474995D03*
G01*
X15254970Y1824995D03*
G01*
X13599972Y7974982D03*
G01*
X6334988Y1729996D03*
G01*
X1674997Y984996D03*
G01*
X15374950Y3889984D03*
D73*
G01*
X2119995Y1164996D03*
G01*
X22999954Y7164984D03*
G01*
X24169951Y6464985D03*
G01*
X23509952Y7884985D03*
G01*
X23534954Y7199985D03*
G01*
X15104971Y1979996D03*
G01*
X14434972Y1574998D03*
G01*
X8359983Y1514995D03*
M02*
