G04 Layer: BottomSolderMaskLayer*
G04 EasyEDA v6.5.57, 2026-07-26 20:50:06*
G04 f01cf997b2ac4535b0a7ee46c1186d17,c5fbdd24a08247c7b54e1019145e24f9,10*
G04 Gerber Generator version 0.2*
G04 Scale: 100 percent, Rotated: No, Reflected: No *
G04 Dimensions in millimeters *
G04 leading zeros omitted , absolute positions ,4 integer and 5 decimal *
%FSLAX45Y45*%
%MOMM*%

%AMMACRO1*4,1,8,-0.6211,-1.0508,-0.6508,-1.021,-0.6508,1.0211,-0.6211,1.0508,0.621,1.0508,0.6508,1.0211,0.6508,-1.021,0.621,-1.0508,-0.6211,-1.0508,0*%
%AMMACRO2*4,1,8,-0.9211,-0.9508,-0.9508,-0.921,-0.9508,0.9211,-0.9211,0.9508,0.921,0.9508,0.9508,0.9211,0.9508,-0.921,0.921,-0.9508,-0.9211,-0.9508,0*%
%AMMACRO3*4,1,8,-0.2711,-0.3208,-0.3008,-0.291,-0.3008,0.2911,-0.2711,0.3208,0.271,0.3208,0.3008,0.2911,0.3008,-0.291,0.271,-0.3208,-0.2711,-0.3208,0*%
%AMMACRO4*4,1,8,-0.2911,-0.3008,-0.3208,-0.271,-0.3208,0.2711,-0.2911,0.3008,0.291,0.3008,0.3208,0.2711,0.3208,-0.271,0.291,-0.3008,-0.2911,-0.3008,0*%
%AMMACRO5*4,1,8,-0.7261,-0.7258,-0.7558,-0.696,-0.7558,0.6961,-0.7261,0.7258,0.726,0.7258,0.7558,0.6961,0.7558,-0.696,0.726,-0.7258,-0.7261,-0.7258,0*%
%AMMACRO6*4,1,8,-0.4243,-0.4828,-0.454,-0.453,-0.454,0.4531,-0.4243,0.4828,0.4243,0.4828,0.454,0.4531,0.454,-0.453,0.4243,-0.4828,-0.4243,-0.4828,0*%
%AMMACRO7*4,1,8,-0.3039,-0.3208,-0.3336,-0.291,-0.3336,0.2911,-0.3039,0.3208,0.3038,0.3208,0.3336,0.2911,0.3336,-0.291,0.3038,-0.3208,-0.3039,-0.3208,0*%
%AMMACRO8*4,1,8,-0.7707,-0.35,-0.8,-0.3207,-0.8,0.3207,-0.7707,0.35,0.7707,0.35,0.8,0.3207,0.8,-0.3207,0.7707,-0.35,-0.7707,-0.35,0*%
%AMMACRO9*4,1,8,-1.0707,-1.7,-1.1,-1.6707,-1.1,1.6707,-1.0707,1.7,1.0707,1.7,1.1,1.6707,1.1,-1.6707,1.0707,-1.7,-1.0707,-1.7,0*%
%AMMACRO10*4,1,8,-0.2207,-1.1,-0.25,-1.0707,-0.25,1.0707,-0.2207,1.1,0.2207,1.1,0.25,1.0707,0.25,-1.0707,0.2207,-1.1,-0.2207,-1.1,0*%
%AMMACRO11*4,1,8,-0.1457,-0.35,-0.175,-0.3207,-0.175,0.3207,-0.1457,0.35,0.1457,0.35,0.175,0.3207,0.175,-0.3207,0.1457,-0.35,-0.1457,-0.35,0*%
%AMMACRO12*4,1,8,-0.1457,-0.9,-0.175,-0.8707,-0.175,0.8707,-0.1457,0.9,0.1457,0.9,0.175,0.8707,0.175,-0.8707,0.1457,-0.9,-0.1457,-0.9,0*%
%AMMACRO13*4,1,8,-0.4207,-0.175,-0.45,-0.1457,-0.45,0.1457,-0.4207,0.175,0.4207,0.175,0.45,0.1457,0.45,-0.1457,0.4207,-0.175,-0.4207,-0.175,0*%
%AMMACRO14*4,1,8,-0.3207,-0.175,-0.35,-0.1457,-0.35,0.1457,-0.3207,0.175,0.3207,0.175,0.35,0.1457,0.35,-0.1457,0.3207,-0.175,-0.3207,-0.175,0*%
%AMMACRO15*4,1,8,-0.7095,-0.6171,-0.7393,-0.5873,-0.7393,0.5873,-0.7095,0.6171,0.7095,0.6171,0.7393,0.5873,0.7393,-0.5873,0.7095,-0.6171,-0.7095,-0.6171,0*%
%AMMACRO16*4,1,8,-0.5873,-0.7393,-0.6171,-0.7095,-0.6171,0.7095,-0.5873,0.7393,0.5873,0.7393,0.6171,0.7095,0.6171,-0.7095,0.5873,-0.7393,-0.5873,-0.7393,0*%
%AMMACRO17*4,1,8,-0.6961,-0.7558,-0.7258,-0.726,-0.7258,0.7261,-0.6961,0.7558,0.696,0.7558,0.7258,0.7261,0.7258,-0.726,0.696,-0.7558,-0.6961,-0.7558,0*%
%AMMACRO18*4,1,8,-0.3111,-0.6508,-0.3408,-0.621,-0.3408,0.6211,-0.3111,0.6508,0.311,0.6508,0.3408,0.6211,0.3408,-0.621,0.311,-0.6508,-0.3111,-0.6508,0*%
%AMMACRO19*4,1,8,-2.2211,-1.9508,-2.2508,-1.921,-2.2508,1.9211,-2.2211,1.9508,2.221,1.9508,2.2508,1.9211,2.2508,-1.921,2.221,-1.9508,-2.2211,-1.9508,0*%
%AMMACRO20*4,1,8,-0.3208,-0.175,-0.35,-0.1457,-0.35,0.1457,-0.3208,0.175,0.3207,0.175,0.35,0.1457,0.35,-0.1457,0.3207,-0.175,-0.3208,-0.175,0*%
%AMMACRO21*4,1,8,-0.3832,-0.175,-0.4125,-0.1457,-0.4125,0.1457,-0.3832,0.175,0.3832,0.175,0.4125,0.1457,0.4125,-0.1457,0.3832,-0.175,-0.3832,-0.175,0*%
%AMMACRO22*4,1,8,-0.1457,-0.3625,-0.175,-0.3332,-0.175,0.3332,-0.1457,0.3625,0.1457,0.3625,0.175,0.3332,0.175,-0.3332,0.1457,-0.3625,-0.1457,-0.3625,0*%
%AMMACRO23*4,1,8,-0.1457,-0.3875,-0.175,-0.3582,-0.175,0.3582,-0.1457,0.3875,0.1457,0.3875,0.175,0.3582,0.175,-0.3582,0.1457,-0.3875,-0.1457,-0.3875,0*%
%AMMACRO24*4,1,8,-0.2082,-0.7675,-0.2375,-0.7382,-0.2375,0.7382,-0.2082,0.7675,0.2082,0.7675,0.2375,0.7382,0.2375,-0.7382,0.2082,-0.7675,-0.2082,-0.7675,0*%
%AMMACRO25*4,1,8,-0.291,-0.3208,-0.3208,-0.291,-0.3208,0.2911,-0.291,0.3208,0.291,0.3208,0.3208,0.2911,0.3208,-0.291,0.291,-0.3208,-0.291,-0.3208,0*%
%AMMACRO26*4,1,8,-0.2911,-0.3208,-0.3208,-0.291,-0.3208,0.2911,-0.2911,0.3208,0.291,0.3208,0.3208,0.2911,0.3208,-0.291,0.291,-0.3208,-0.2911,-0.3208,0*%
%ADD10MACRO1*%
%ADD11O,2.101596X1.101598*%
%ADD12C,2.1016*%
%ADD13MACRO2*%
%ADD14C,1.9016*%
%ADD15O,2.601595X1.301598*%
%ADD16O,2.701595X1.701597*%
%ADD17O,0.0105X1.701597*%
%ADD18O,2.501595X1.601597*%
%ADD19O,2.101596X1.601597*%
%ADD20MACRO3*%
%ADD21MACRO4*%
%ADD22MACRO5*%
%ADD23MACRO6*%
%ADD24MACRO7*%
%ADD25MACRO8*%
%ADD26MACRO9*%
%ADD27MACRO10*%
%ADD28MACRO11*%
%ADD29MACRO12*%
%ADD30MACRO13*%
%ADD31MACRO14*%
%ADD32MACRO15*%
%ADD33MACRO16*%
%ADD34MACRO17*%
%ADD35MACRO18*%
%ADD36MACRO19*%
%ADD37MACRO20*%
%ADD38MACRO21*%
%ADD39MACRO22*%
%ADD40MACRO23*%
%ADD41MACRO24*%
%ADD42MACRO25*%
%ADD43MACRO26*%

%LPD*%
D10*
G01*
X28054945Y6434985D03*
G01*
X28374944Y6434985D03*
G01*
X28964943Y4454989D03*
G01*
X28644943Y4454989D03*
D11*
G01*
X30659603Y8585377D03*
G01*
X30659603Y7721396D03*
G01*
X30289601Y8585377D03*
G01*
X30289601Y7721396D03*
D12*
G01*
X13055600Y5181600D03*
G01*
X13309600Y5181600D03*
G01*
X13563600Y5181600D03*
G01*
X13817600Y5181600D03*
D13*
G01*
X6001989Y6054986D03*
D14*
G01*
X5747994Y6054979D03*
D13*
G01*
X4034990Y5621987D03*
D14*
G01*
X4034993Y5367985D03*
D13*
G01*
X25257950Y8789982D03*
D14*
G01*
X25511937Y8789974D03*
D13*
G01*
X14619970Y6847984D03*
D14*
G01*
X14619970Y7101974D03*
D13*
G01*
X14619970Y7512984D03*
D14*
G01*
X14619970Y7766974D03*
D13*
G01*
X16271968Y7764983D03*
D14*
G01*
X16017976Y7764983D03*
G01*
X2739212Y7772400D03*
G01*
X4779213Y7772400D03*
D15*
G01*
X29549953Y440004D03*
G01*
X29549953Y1720011D03*
G01*
X1159687Y1922703D03*
G01*
X1159687Y642696D03*
D16*
G01*
X805764Y2816504D03*
G01*
X805764Y4371492D03*
G01*
X255752Y4371492D03*
G01*
X255752Y2816504D03*
G01*
X29915256Y7038594D03*
G01*
X29915256Y5483605D03*
G01*
X30465268Y5483605D03*
G01*
X30465268Y7038594D03*
G01*
X759764Y7203490D03*
G01*
X759764Y8758478D03*
G01*
X209753Y8758478D03*
G01*
X209753Y7203490D03*
G01*
X29915256Y4638294D03*
G01*
X29915256Y3083305D03*
G01*
X30465268Y3083305D03*
G01*
X30465268Y4638294D03*
D18*
G01*
X907516Y4889982D03*
G01*
X907516Y6539992D03*
D19*
G01*
X229514Y6539992D03*
G01*
X229514Y4889982D03*
D20*
G01*
X29079099Y7378700D03*
G01*
X29163100Y7378700D03*
D21*
G01*
X29718000Y7992200D03*
G01*
X29718000Y7908199D03*
D20*
G01*
X27567799Y8115300D03*
G01*
X27651800Y8115300D03*
G01*
X28426500Y6794500D03*
G01*
X28342499Y6794500D03*
D22*
G01*
X27560597Y8432800D03*
G01*
X27760602Y8432800D03*
G01*
X28284497Y6045200D03*
G01*
X28484502Y6045200D03*
D23*
G01*
X28321875Y8128000D03*
G01*
X28472524Y8128000D03*
G01*
X28309175Y7823200D03*
G01*
X28459824Y7823200D03*
D24*
G01*
X28311659Y7969984D03*
G01*
X28398224Y7969984D03*
D25*
G01*
X29497299Y7788300D03*
G01*
X29497301Y7888300D03*
G01*
X29497304Y7988302D03*
G01*
X29497301Y8088299D03*
G01*
X29497299Y8188299D03*
G01*
X28897300Y8188299D03*
G01*
X28897300Y8088299D03*
G01*
X28897300Y7988300D03*
G01*
X28897300Y7888300D03*
G01*
X28897300Y7788300D03*
D26*
G01*
X29197300Y7988300D03*
D27*
G01*
X27866403Y8116798D03*
D28*
G01*
X28054413Y8191804D03*
D27*
G01*
X27982405Y8116798D03*
D28*
G01*
X28054413Y7911795D03*
D29*
G01*
X27924390Y7966784D03*
D28*
G01*
X27874403Y7911795D03*
D30*
G01*
X27829395Y8126779D03*
G01*
X27829395Y8076793D03*
G01*
X27829395Y8026779D03*
D31*
G01*
X28101404Y7976792D03*
G01*
X28101404Y8026779D03*
G01*
X28101404Y8076793D03*
G01*
X28101404Y8126779D03*
D27*
G01*
X28603003Y6795998D03*
D28*
G01*
X28791013Y6871004D03*
D27*
G01*
X28719005Y6795998D03*
D28*
G01*
X28791013Y6590995D03*
D29*
G01*
X28660990Y6645984D03*
D28*
G01*
X28611003Y6590995D03*
D30*
G01*
X28565995Y6805979D03*
G01*
X28565995Y6755993D03*
G01*
X28565995Y6705979D03*
D31*
G01*
X28838004Y6655992D03*
G01*
X28838004Y6705979D03*
G01*
X28838004Y6755993D03*
G01*
X28838004Y6805979D03*
D27*
G01*
X28577603Y5246598D03*
D28*
G01*
X28765613Y5321604D03*
D27*
G01*
X28693605Y5246598D03*
D28*
G01*
X28765613Y5041595D03*
D29*
G01*
X28635590Y5096584D03*
D28*
G01*
X28585603Y5041595D03*
D30*
G01*
X28540595Y5256579D03*
G01*
X28540595Y5206593D03*
G01*
X28540595Y5156579D03*
D31*
G01*
X28812604Y5106592D03*
G01*
X28812604Y5156579D03*
G01*
X28812604Y5206593D03*
G01*
X28812604Y5256579D03*
D10*
G01*
X27602200Y7543800D03*
G01*
X27922199Y7543800D03*
D23*
G01*
X29058475Y6819900D03*
G01*
X29209124Y6819900D03*
D32*
G01*
X27686000Y4929195D03*
G01*
X27686000Y5129204D03*
D33*
G01*
X24118895Y6261100D03*
G01*
X24318904Y6261100D03*
G01*
X22378995Y5969000D03*
G01*
X22579004Y5969000D03*
D20*
G01*
X24126099Y5816600D03*
G01*
X24210100Y5816600D03*
G01*
X23732399Y6807200D03*
G01*
X23816400Y6807200D03*
D21*
G01*
X23519952Y6767986D03*
G01*
X23519952Y6851986D03*
D20*
G01*
X22902000Y6121400D03*
G01*
X22817999Y6121400D03*
D21*
G01*
X22377400Y6442800D03*
G01*
X22377400Y6358799D03*
G01*
X27978100Y5134700D03*
G01*
X27978100Y5050699D03*
D22*
G01*
X24131597Y6032500D03*
G01*
X24331602Y6032500D03*
D34*
G01*
X28232100Y5141902D03*
G01*
X28232100Y4941897D03*
D35*
G01*
X23685745Y7319599D03*
G01*
X23812745Y7319599D03*
G01*
X23939745Y7319599D03*
G01*
X24066745Y7319599D03*
G01*
X24066237Y7869598D03*
G01*
X23939237Y7869598D03*
G01*
X23812237Y7869598D03*
G01*
X23685252Y7869598D03*
D36*
G01*
X23876000Y7659199D03*
D35*
G01*
X22999945Y7332299D03*
G01*
X23126945Y7332299D03*
G01*
X23253945Y7332299D03*
G01*
X23380945Y7332299D03*
G01*
X23380437Y7882298D03*
G01*
X23253437Y7882298D03*
G01*
X23126437Y7882298D03*
G01*
X22999452Y7882298D03*
D36*
G01*
X23190200Y7671899D03*
D23*
G01*
X22810075Y5969000D03*
G01*
X22960724Y5969000D03*
G01*
X22810075Y6273800D03*
G01*
X22960724Y6273800D03*
G01*
X22810075Y6438900D03*
G01*
X22960724Y6438900D03*
G01*
X29058475Y6642100D03*
G01*
X29209124Y6642100D03*
G01*
X29058475Y5308600D03*
G01*
X29209124Y5308600D03*
G01*
X29058475Y4991100D03*
G01*
X29209124Y4991100D03*
D24*
G01*
X22956671Y5454987D03*
G01*
X23043236Y5454987D03*
G01*
X29052417Y5156200D03*
G01*
X29138982Y5156200D03*
G01*
X29052417Y6464300D03*
G01*
X29138982Y6464300D03*
G36*
X23855895Y6393845D02*
G01*
X23855405Y6393868D01*
X23854920Y6393942D01*
X23854443Y6394061D01*
X23853980Y6394226D01*
X23853538Y6394434D01*
X23853117Y6394688D01*
X23852723Y6394980D01*
X23852360Y6395311D01*
X23852030Y6395674D01*
X23851737Y6396067D01*
X23851483Y6396489D01*
X23851275Y6396931D01*
X23851110Y6397393D01*
X23850991Y6397871D01*
X23850917Y6398356D01*
X23850894Y6398846D01*
X23850894Y6458846D01*
X23850917Y6459336D01*
X23850991Y6459821D01*
X23851110Y6460299D01*
X23851275Y6460761D01*
X23851483Y6461203D01*
X23851737Y6461625D01*
X23852030Y6462019D01*
X23852360Y6462382D01*
X23852723Y6462712D01*
X23853117Y6463004D01*
X23853538Y6463258D01*
X23853980Y6463466D01*
X23854443Y6463631D01*
X23854920Y6463751D01*
X23855405Y6463825D01*
X23855895Y6463847D01*
X23895895Y6463847D01*
X23896386Y6463825D01*
X23896871Y6463751D01*
X23897348Y6463631D01*
X23897810Y6463466D01*
X23898252Y6463258D01*
X23898674Y6463004D01*
X23899068Y6462712D01*
X23899431Y6462382D01*
X23899761Y6462019D01*
X23900053Y6461625D01*
X23900307Y6461203D01*
X23900516Y6460761D01*
X23900681Y6460299D01*
X23900800Y6459821D01*
X23900874Y6459336D01*
X23900897Y6458846D01*
X23900897Y6426347D01*
X23935895Y6426347D01*
X23936385Y6426324D01*
X23936871Y6426250D01*
X23937348Y6426131D01*
X23937810Y6425966D01*
X23938252Y6425758D01*
X23938674Y6425504D01*
X23939068Y6425211D01*
X23939431Y6424881D01*
X23939761Y6424518D01*
X23940053Y6424124D01*
X23940307Y6423703D01*
X23940516Y6423261D01*
X23940681Y6422798D01*
X23940800Y6422321D01*
X23940874Y6421836D01*
X23940897Y6421346D01*
X23940897Y6398846D01*
X23940874Y6398356D01*
X23940800Y6397871D01*
X23940681Y6397393D01*
X23940516Y6396931D01*
X23940307Y6396489D01*
X23940053Y6396067D01*
X23939761Y6395674D01*
X23939431Y6395311D01*
X23939068Y6394980D01*
X23938674Y6394688D01*
X23938252Y6394434D01*
X23937810Y6394226D01*
X23937348Y6394061D01*
X23936871Y6393942D01*
X23936385Y6393868D01*
X23935895Y6393845D01*
G37*
D37*
G01*
X23900899Y6361097D03*
D38*
G01*
X23894652Y6311097D03*
G01*
X23894652Y6261097D03*
G01*
X23894652Y6211097D03*
D37*
G01*
X23900897Y6161097D03*
G36*
X23855895Y6058347D02*
G01*
X23855405Y6058369D01*
X23854920Y6058443D01*
X23854443Y6058562D01*
X23853980Y6058728D01*
X23853538Y6058936D01*
X23853117Y6059190D01*
X23852723Y6059482D01*
X23852360Y6059812D01*
X23852030Y6060175D01*
X23851737Y6060569D01*
X23851483Y6060991D01*
X23851275Y6061433D01*
X23851110Y6061895D01*
X23850991Y6062372D01*
X23850917Y6062858D01*
X23850894Y6063348D01*
X23850894Y6123348D01*
X23850917Y6123838D01*
X23850991Y6124323D01*
X23851110Y6124801D01*
X23851275Y6125263D01*
X23851483Y6125705D01*
X23851737Y6126126D01*
X23852030Y6126520D01*
X23852360Y6126883D01*
X23852723Y6127214D01*
X23853117Y6127506D01*
X23853538Y6127760D01*
X23853980Y6127968D01*
X23854443Y6128133D01*
X23854920Y6128252D01*
X23855405Y6128326D01*
X23855895Y6128349D01*
X23935895Y6128349D01*
X23936385Y6128326D01*
X23936871Y6128252D01*
X23937348Y6128133D01*
X23937810Y6127968D01*
X23938252Y6127760D01*
X23938674Y6127506D01*
X23939068Y6127214D01*
X23939431Y6126883D01*
X23939761Y6126520D01*
X23940053Y6126126D01*
X23940307Y6125705D01*
X23940516Y6125263D01*
X23940681Y6124801D01*
X23940800Y6124323D01*
X23940874Y6123838D01*
X23940897Y6123348D01*
X23940897Y6100848D01*
X23940874Y6100358D01*
X23940800Y6099873D01*
X23940681Y6099395D01*
X23940516Y6098933D01*
X23940307Y6098491D01*
X23940053Y6098070D01*
X23939761Y6097676D01*
X23939431Y6097313D01*
X23939068Y6096982D01*
X23938674Y6096690D01*
X23938252Y6096436D01*
X23937810Y6096228D01*
X23937348Y6096063D01*
X23936871Y6095944D01*
X23936385Y6095870D01*
X23935895Y6095847D01*
X23900897Y6095847D01*
X23900897Y6063348D01*
X23900874Y6062858D01*
X23900800Y6062372D01*
X23900681Y6061895D01*
X23900516Y6061433D01*
X23900307Y6060991D01*
X23900053Y6060569D01*
X23899761Y6060175D01*
X23899431Y6059812D01*
X23899068Y6059482D01*
X23898674Y6059190D01*
X23898252Y6058936D01*
X23897810Y6058728D01*
X23897348Y6058562D01*
X23896871Y6058443D01*
X23896386Y6058369D01*
X23895895Y6058347D01*
G37*
D39*
G01*
X23823406Y6094600D03*
G01*
X23773406Y6094600D03*
G01*
X23723406Y6094600D03*
G01*
X23650906Y6094600D03*
G01*
X23600907Y6094600D03*
G36*
X23525899Y6058352D02*
G01*
X23525408Y6058374D01*
X23524923Y6058448D01*
X23524446Y6058568D01*
X23523983Y6058733D01*
X23523541Y6058941D01*
X23523120Y6059195D01*
X23522726Y6059487D01*
X23522363Y6059817D01*
X23522033Y6060180D01*
X23521741Y6060574D01*
X23521487Y6060996D01*
X23521278Y6061438D01*
X23521113Y6061900D01*
X23520994Y6062378D01*
X23520920Y6062863D01*
X23520897Y6063353D01*
X23520897Y6095852D01*
X23485899Y6095852D01*
X23485408Y6095875D01*
X23484923Y6095949D01*
X23484446Y6096068D01*
X23483984Y6096233D01*
X23483542Y6096441D01*
X23483120Y6096695D01*
X23482726Y6096988D01*
X23482363Y6097318D01*
X23482033Y6097681D01*
X23481741Y6098075D01*
X23481487Y6098496D01*
X23481278Y6098938D01*
X23481113Y6099401D01*
X23480994Y6099878D01*
X23480920Y6100363D01*
X23480897Y6100853D01*
X23480897Y6123353D01*
X23480920Y6123843D01*
X23480994Y6124328D01*
X23481113Y6124806D01*
X23481278Y6125268D01*
X23481487Y6125710D01*
X23481741Y6126132D01*
X23482033Y6126525D01*
X23482363Y6126888D01*
X23482726Y6127219D01*
X23483120Y6127511D01*
X23483542Y6127765D01*
X23483984Y6127973D01*
X23484446Y6128138D01*
X23484923Y6128257D01*
X23485408Y6128331D01*
X23485899Y6128354D01*
X23565899Y6128354D01*
X23566389Y6128331D01*
X23566874Y6128257D01*
X23567351Y6128138D01*
X23567814Y6127973D01*
X23568256Y6127765D01*
X23568677Y6127511D01*
X23569071Y6127219D01*
X23569434Y6126888D01*
X23569764Y6126525D01*
X23570056Y6126132D01*
X23570311Y6125710D01*
X23570519Y6125268D01*
X23570684Y6124806D01*
X23570803Y6124328D01*
X23570877Y6123843D01*
X23570900Y6123353D01*
X23570900Y6063353D01*
X23570877Y6062863D01*
X23570803Y6062378D01*
X23570684Y6061900D01*
X23570519Y6061438D01*
X23570311Y6060996D01*
X23570056Y6060574D01*
X23569764Y6060180D01*
X23569434Y6059817D01*
X23569071Y6059487D01*
X23568677Y6059195D01*
X23568256Y6058941D01*
X23567814Y6058733D01*
X23567351Y6058568D01*
X23566874Y6058448D01*
X23566389Y6058374D01*
X23565899Y6058352D01*
G37*
D31*
G01*
X23520897Y6161097D03*
D38*
G01*
X23527151Y6211097D03*
G01*
X23527151Y6261097D03*
G01*
X23527151Y6311097D03*
D31*
G01*
X23520897Y6361097D03*
G36*
X23485899Y6393845D02*
G01*
X23485408Y6393868D01*
X23484923Y6393942D01*
X23484446Y6394061D01*
X23483984Y6394226D01*
X23483542Y6394434D01*
X23483120Y6394688D01*
X23482726Y6394980D01*
X23482363Y6395311D01*
X23482033Y6395674D01*
X23481741Y6396067D01*
X23481487Y6396489D01*
X23481278Y6396931D01*
X23481113Y6397393D01*
X23480994Y6397871D01*
X23480920Y6398356D01*
X23480897Y6398846D01*
X23480897Y6421346D01*
X23480920Y6421836D01*
X23480994Y6422321D01*
X23481113Y6422798D01*
X23481278Y6423261D01*
X23481487Y6423703D01*
X23481741Y6424124D01*
X23482033Y6424518D01*
X23482363Y6424881D01*
X23482726Y6425211D01*
X23483120Y6425504D01*
X23483542Y6425758D01*
X23483984Y6425966D01*
X23484446Y6426131D01*
X23484923Y6426250D01*
X23485408Y6426324D01*
X23485899Y6426347D01*
X23520897Y6426347D01*
X23520897Y6458846D01*
X23520920Y6459336D01*
X23520994Y6459821D01*
X23521113Y6460299D01*
X23521278Y6460761D01*
X23521487Y6461203D01*
X23521741Y6461625D01*
X23522033Y6462019D01*
X23522363Y6462382D01*
X23522726Y6462712D01*
X23523120Y6463004D01*
X23523541Y6463258D01*
X23523983Y6463466D01*
X23524446Y6463631D01*
X23524923Y6463751D01*
X23525408Y6463825D01*
X23525899Y6463847D01*
X23565899Y6463847D01*
X23566389Y6463825D01*
X23566874Y6463751D01*
X23567351Y6463631D01*
X23567814Y6463466D01*
X23568256Y6463258D01*
X23568677Y6463004D01*
X23569071Y6462712D01*
X23569434Y6462382D01*
X23569764Y6462019D01*
X23570056Y6461625D01*
X23570311Y6461203D01*
X23570519Y6460761D01*
X23570684Y6460299D01*
X23570803Y6459821D01*
X23570877Y6459336D01*
X23570900Y6458846D01*
X23570900Y6398846D01*
X23570877Y6398356D01*
X23570803Y6397871D01*
X23570684Y6397393D01*
X23570519Y6396931D01*
X23570311Y6396489D01*
X23570056Y6396067D01*
X23569764Y6395674D01*
X23569434Y6395311D01*
X23569071Y6394980D01*
X23568677Y6394688D01*
X23568256Y6394434D01*
X23567814Y6394226D01*
X23567351Y6394061D01*
X23566874Y6393942D01*
X23566389Y6393868D01*
X23565899Y6393845D01*
G37*
D40*
G01*
X23605886Y6425096D03*
D28*
G01*
X23685901Y6428849D03*
G01*
X23735903Y6428849D03*
D40*
G01*
X23815888Y6425096D03*
D41*
G01*
X23773396Y6261097D03*
G01*
X23710897Y6261097D03*
G01*
X23648398Y6261097D03*
D42*
G01*
X23911952Y6669986D03*
D43*
G01*
X23827953Y6669986D03*
M02*
