G04 Layer: BottomPasteMaskLayer*
G04 EasyEDA v6.5.57, 2026-07-26 20:50:06*
G04 f01cf997b2ac4535b0a7ee46c1186d17,c5fbdd24a08247c7b54e1019145e24f9,10*
G04 Gerber Generator version 0.2*
G04 Scale: 100 percent, Rotated: No, Reflected: No *
G04 Dimensions in millimeters *
G04 leading zeros omitted , absolute positions ,4 integer and 5 decimal *
%FSLAX45Y45*%
%MOMM*%

%AMMACRO1*21,1,$1,$2,0,0,$3*%
%AMMACRO2*4,1,6,-0.4,-0.3,-0.4,0.3,0,0.3,0,-0.075,0.4,-0.075,0.4,-0.3,-0.4,-0.3,0*%
%AMMACRO3*4,1,6,-0.4,0.3,-0.4,-0.3,0,-0.3,0,0.075,0.4,0.075,0.4,0.3,-0.4,0.3,0*%
%AMMACRO4*4,1,6,0.4,0.3,0.4,-0.3,0,-0.3,0,0.075,-0.4,0.075,-0.4,0.3,0.4,0.3,0*%
%AMMACRO5*4,1,6,0.4,-0.3,0.4,0.3,0,0.3,0,-0.075,-0.4,-0.075,-0.4,-0.3,0.4,-0.3,0*%
%ADD10MACRO1,1.2X2X0.0000*%
%ADD11MACRO1,0.5X0.54X0.0000*%
%ADD12MACRO1,0.5X0.54X90.0000*%
%ADD13MACRO1,1.5X0.6X0.0000*%
%ADD14MACRO1,3.3X2.1X-90.0000*%
%ADD15MACRO1,0.5X0.54X-90.0000*%
%ADD16MACRO2*%
%ADD17C,0.0171*%
%ADD18MACRO1,0.6X0.25X0.0000*%
%ADD19MACRO1,0.725X0.25X0.0000*%
%ADD20MACRO3*%
%ADD21MACRO1,0.25X0.625X0.0000*%
%ADD22MACRO4*%
%ADD23MACRO5*%
%ADD24MACRO1,0.25X0.675X0.0000*%
%ADD25MACRO1,0.25X0.6X0.0000*%
%ADD26MACRO1,0.375X1.435X0.0000*%
%ADD27MACRO1,0.54X0.54X0.0000*%

%LPD*%
G36*
X27711095Y8501786D02*
G01*
X27706116Y8496808D01*
X27705608Y8455812D01*
X27750617Y8455812D01*
X27750617Y8410803D01*
X27706574Y8410803D01*
X27706116Y8368792D01*
X27711095Y8363813D01*
X27826106Y8363813D01*
X27831084Y8368792D01*
X27831084Y8496808D01*
X27826106Y8501786D01*
G37*
G36*
X27495093Y8501786D02*
G01*
X27490115Y8496808D01*
X27490115Y8368792D01*
X27495093Y8363813D01*
X27610104Y8363813D01*
X27615083Y8368792D01*
X27615591Y8409787D01*
X27570582Y8409787D01*
X27570582Y8454796D01*
X27614626Y8454796D01*
X27615083Y8496808D01*
X27610104Y8501786D01*
G37*
G36*
X28434995Y6114186D02*
G01*
X28430016Y6109208D01*
X28429508Y6068212D01*
X28474517Y6068212D01*
X28474517Y6023203D01*
X28430474Y6023203D01*
X28430016Y5981192D01*
X28434995Y5976213D01*
X28550006Y5976213D01*
X28554984Y5981192D01*
X28554984Y6109208D01*
X28550006Y6114186D01*
G37*
G36*
X28218993Y6114186D02*
G01*
X28214015Y6109208D01*
X28214015Y5981192D01*
X28218993Y5976213D01*
X28334004Y5976213D01*
X28338983Y5981192D01*
X28339491Y6022187D01*
X28294482Y6022187D01*
X28294482Y6067196D01*
X28338526Y6067196D01*
X28338983Y6109208D01*
X28334004Y6114186D01*
G37*
G36*
X28277718Y8173008D02*
G01*
X28272689Y8167979D01*
X28272689Y8088020D01*
X28277718Y8082991D01*
X28357677Y8082991D01*
X28362706Y8088020D01*
X28362706Y8112201D01*
X28325724Y8112201D01*
X28325724Y8145221D01*
X28362706Y8145221D01*
X28362706Y8167979D01*
X28357677Y8173008D01*
G37*
G36*
X28436722Y8173008D02*
G01*
X28431693Y8167979D01*
X28431693Y8143798D01*
X28468675Y8143798D01*
X28468675Y8110778D01*
X28431693Y8110778D01*
X28431693Y8088020D01*
X28436722Y8082991D01*
X28516681Y8082991D01*
X28521710Y8088020D01*
X28521710Y8167979D01*
X28516681Y8173008D01*
G37*
G36*
X28265018Y7868208D02*
G01*
X28259989Y7863179D01*
X28259989Y7783220D01*
X28265018Y7778191D01*
X28344977Y7778191D01*
X28350006Y7783220D01*
X28350006Y7807401D01*
X28313024Y7807401D01*
X28313024Y7840421D01*
X28350006Y7840421D01*
X28350006Y7863179D01*
X28344977Y7868208D01*
G37*
G36*
X28424022Y7868208D02*
G01*
X28418993Y7863179D01*
X28418993Y7838998D01*
X28455975Y7838998D01*
X28455975Y7805978D01*
X28418993Y7805978D01*
X28418993Y7783220D01*
X28424022Y7778191D01*
X28503981Y7778191D01*
X28509010Y7783220D01*
X28509010Y7863179D01*
X28503981Y7868208D01*
G37*
G36*
X28287370Y7996986D02*
G01*
X28283357Y7992973D01*
X28283357Y7946999D01*
X28287370Y7942986D01*
X28337459Y7942986D01*
X28341421Y7946999D01*
X28341421Y7992973D01*
X28337459Y7996986D01*
G37*
G36*
X28372460Y7996986D02*
G01*
X28368447Y7992973D01*
X28368447Y7946999D01*
X28372460Y7942986D01*
X28422498Y7942986D01*
X28426511Y7946999D01*
X28426511Y7992973D01*
X28422498Y7996986D01*
G37*
G36*
X27846375Y8221776D02*
G01*
X27846375Y8139277D01*
X27789377Y8139277D01*
X27789377Y8114284D01*
X27846375Y8114284D01*
X27846375Y8089290D01*
X27789377Y8089290D01*
X27789377Y8064296D01*
X27846375Y8064296D01*
X27846375Y8039201D01*
X27789377Y8039201D01*
X27789377Y8014309D01*
X27846375Y8014309D01*
X27846375Y8011820D01*
X27886406Y8011820D01*
X27886406Y8221776D01*
G37*
G36*
X27962402Y8221776D02*
G01*
X27962402Y8011820D01*
X28002382Y8011820D01*
X28002382Y8221776D01*
G37*
G36*
X27861920Y7941818D02*
G01*
X27861920Y7881823D01*
X27886914Y7881823D01*
X27886914Y7941818D01*
G37*
G36*
X28041904Y7941818D02*
G01*
X28041904Y7881823D01*
X28066898Y7881823D01*
X28066898Y7941818D01*
G37*
G36*
X28071419Y7989316D02*
G01*
X28071419Y7964271D01*
X28131414Y7964271D01*
X28131414Y7989316D01*
G37*
G36*
X28071419Y8039303D02*
G01*
X28071419Y8014309D01*
X28131414Y8014309D01*
X28131414Y8039303D01*
G37*
G36*
X28071419Y8089290D02*
G01*
X28071419Y8064296D01*
X28131414Y8064296D01*
X28131414Y8089290D01*
G37*
G36*
X28071419Y8139277D02*
G01*
X28071419Y8114284D01*
X28131414Y8114284D01*
X28131414Y8139277D01*
G37*
G36*
X28041904Y8221776D02*
G01*
X28041904Y8161781D01*
X28066898Y8161781D01*
X28066898Y8221776D01*
G37*
G36*
X27911907Y8051800D02*
G01*
X27911907Y7881924D01*
X27936901Y7881924D01*
X27936901Y8051800D01*
G37*
G36*
X28582975Y6900976D02*
G01*
X28582975Y6818477D01*
X28525977Y6818477D01*
X28525977Y6793484D01*
X28582975Y6793484D01*
X28582975Y6768490D01*
X28525977Y6768490D01*
X28525977Y6743496D01*
X28582975Y6743496D01*
X28582975Y6718401D01*
X28525977Y6718401D01*
X28525977Y6693509D01*
X28582975Y6693509D01*
X28582975Y6691020D01*
X28623006Y6691020D01*
X28623006Y6900976D01*
G37*
G36*
X28699002Y6900976D02*
G01*
X28699002Y6691020D01*
X28738982Y6691020D01*
X28738982Y6900976D01*
G37*
G36*
X28598520Y6621018D02*
G01*
X28598520Y6561023D01*
X28623514Y6561023D01*
X28623514Y6621018D01*
G37*
G36*
X28778504Y6621018D02*
G01*
X28778504Y6561023D01*
X28803498Y6561023D01*
X28803498Y6621018D01*
G37*
G36*
X28808019Y6668516D02*
G01*
X28808019Y6643471D01*
X28868014Y6643471D01*
X28868014Y6668516D01*
G37*
G36*
X28808019Y6718503D02*
G01*
X28808019Y6693509D01*
X28868014Y6693509D01*
X28868014Y6718503D01*
G37*
G36*
X28808019Y6768490D02*
G01*
X28808019Y6743496D01*
X28868014Y6743496D01*
X28868014Y6768490D01*
G37*
G36*
X28808019Y6818477D02*
G01*
X28808019Y6793484D01*
X28868014Y6793484D01*
X28868014Y6818477D01*
G37*
G36*
X28778504Y6900976D02*
G01*
X28778504Y6840981D01*
X28803498Y6840981D01*
X28803498Y6900976D01*
G37*
G36*
X28648507Y6731000D02*
G01*
X28648507Y6561124D01*
X28673501Y6561124D01*
X28673501Y6731000D01*
G37*
G36*
X28557575Y5351576D02*
G01*
X28557575Y5269077D01*
X28500577Y5269077D01*
X28500577Y5244084D01*
X28557575Y5244084D01*
X28557575Y5219090D01*
X28500577Y5219090D01*
X28500577Y5194096D01*
X28557575Y5194096D01*
X28557575Y5169001D01*
X28500577Y5169001D01*
X28500577Y5144109D01*
X28557575Y5144109D01*
X28557575Y5141620D01*
X28597606Y5141620D01*
X28597606Y5351576D01*
G37*
G36*
X28673602Y5351576D02*
G01*
X28673602Y5141620D01*
X28713582Y5141620D01*
X28713582Y5351576D01*
G37*
G36*
X28573120Y5071618D02*
G01*
X28573120Y5011623D01*
X28598114Y5011623D01*
X28598114Y5071618D01*
G37*
G36*
X28753104Y5071618D02*
G01*
X28753104Y5011623D01*
X28778098Y5011623D01*
X28778098Y5071618D01*
G37*
G36*
X28782619Y5119116D02*
G01*
X28782619Y5094071D01*
X28842614Y5094071D01*
X28842614Y5119116D01*
G37*
G36*
X28782619Y5169103D02*
G01*
X28782619Y5144109D01*
X28842614Y5144109D01*
X28842614Y5169103D01*
G37*
G36*
X28782619Y5219090D02*
G01*
X28782619Y5194096D01*
X28842614Y5194096D01*
X28842614Y5219090D01*
G37*
G36*
X28782619Y5269077D02*
G01*
X28782619Y5244084D01*
X28842614Y5244084D01*
X28842614Y5269077D01*
G37*
G36*
X28753104Y5351576D02*
G01*
X28753104Y5291582D01*
X28778098Y5291582D01*
X28778098Y5351576D01*
G37*
G36*
X28623107Y5181600D02*
G01*
X28623107Y5011724D01*
X28648101Y5011724D01*
X28648101Y5181600D01*
G37*
G36*
X29014318Y6864908D02*
G01*
X29009289Y6859879D01*
X29009289Y6779920D01*
X29014318Y6774891D01*
X29094277Y6774891D01*
X29099306Y6779920D01*
X29099306Y6804101D01*
X29062324Y6804101D01*
X29062324Y6837121D01*
X29099306Y6837121D01*
X29099306Y6859879D01*
X29094277Y6864908D01*
G37*
G36*
X29173322Y6864908D02*
G01*
X29168293Y6859879D01*
X29168293Y6835698D01*
X29205275Y6835698D01*
X29205275Y6802678D01*
X29168293Y6802678D01*
X29168293Y6779920D01*
X29173322Y6774891D01*
X29253281Y6774891D01*
X29258310Y6779920D01*
X29258310Y6859879D01*
X29253281Y6864908D01*
G37*
G36*
X27621992Y5199227D02*
G01*
X27617013Y5194198D01*
X27617013Y5079187D01*
X27621992Y5074208D01*
X27662987Y5073700D01*
X27662987Y5118709D01*
X27707996Y5118709D01*
X27707996Y5074716D01*
X27750008Y5074208D01*
X27754986Y5079187D01*
X27754986Y5194198D01*
X27750008Y5199227D01*
G37*
G36*
X27621992Y4984191D02*
G01*
X27617013Y4979212D01*
X27617013Y4864201D01*
X27621992Y4859223D01*
X27750008Y4859223D01*
X27754986Y4864201D01*
X27754986Y4979212D01*
X27750008Y4984191D01*
X27707996Y4984191D01*
X27707996Y4939690D01*
X27662987Y4939690D01*
X27662987Y4983683D01*
G37*
G36*
X24268887Y6330086D02*
G01*
X24263908Y6325108D01*
X24263400Y6284112D01*
X24308409Y6284112D01*
X24308409Y6239103D01*
X24264416Y6239103D01*
X24263908Y6197092D01*
X24268887Y6192113D01*
X24383898Y6192113D01*
X24388927Y6197092D01*
X24388927Y6325108D01*
X24383898Y6330086D01*
G37*
G36*
X24053901Y6330086D02*
G01*
X24048923Y6325108D01*
X24048923Y6197092D01*
X24053901Y6192113D01*
X24168912Y6192113D01*
X24173891Y6197092D01*
X24173891Y6239103D01*
X24129390Y6239103D01*
X24129390Y6284112D01*
X24173383Y6284112D01*
X24173891Y6325108D01*
X24168912Y6330086D01*
G37*
G36*
X22528987Y6037986D02*
G01*
X22524008Y6033008D01*
X22523500Y5992012D01*
X22568509Y5992012D01*
X22568509Y5947003D01*
X22524516Y5947003D01*
X22524008Y5904992D01*
X22528987Y5900013D01*
X22643998Y5900013D01*
X22649027Y5904992D01*
X22649027Y6033008D01*
X22643998Y6037986D01*
G37*
G36*
X22314001Y6037986D02*
G01*
X22309023Y6033008D01*
X22309023Y5904992D01*
X22314001Y5900013D01*
X22429012Y5900013D01*
X22433991Y5904992D01*
X22433991Y5947003D01*
X22389490Y5947003D01*
X22389490Y5992012D01*
X22433483Y5992012D01*
X22433991Y6033008D01*
X22429012Y6037986D01*
G37*
G36*
X24282095Y6101486D02*
G01*
X24277116Y6096508D01*
X24276608Y6055512D01*
X24321617Y6055512D01*
X24321617Y6010503D01*
X24277574Y6010503D01*
X24277116Y5968492D01*
X24282095Y5963513D01*
X24397106Y5963513D01*
X24402084Y5968492D01*
X24402084Y6096508D01*
X24397106Y6101486D01*
G37*
G36*
X24066093Y6101486D02*
G01*
X24061115Y6096508D01*
X24061115Y5968492D01*
X24066093Y5963513D01*
X24181104Y5963513D01*
X24186083Y5968492D01*
X24186591Y6009487D01*
X24141582Y6009487D01*
X24141582Y6054496D01*
X24185626Y6054496D01*
X24186083Y6096508D01*
X24181104Y6101486D01*
G37*
G36*
X28255112Y4996891D02*
G01*
X28255112Y4951882D01*
X28210103Y4951882D01*
X28210103Y4995926D01*
X28168092Y4996383D01*
X28163113Y4991404D01*
X28163113Y4876393D01*
X28168092Y4871415D01*
X28296108Y4871415D01*
X28301086Y4876393D01*
X28301086Y4991404D01*
X28296108Y4996383D01*
G37*
G36*
X28168092Y5212384D02*
G01*
X28163113Y5207406D01*
X28163113Y5092395D01*
X28168092Y5087416D01*
X28209087Y5086908D01*
X28209087Y5131917D01*
X28254096Y5131917D01*
X28254096Y5087874D01*
X28296108Y5087416D01*
X28301086Y5092395D01*
X28301086Y5207406D01*
X28296108Y5212384D01*
G37*
G36*
X23656747Y7379614D02*
G01*
X23656747Y7259624D01*
X23714760Y7259624D01*
X23714760Y7379614D01*
G37*
G36*
X23783747Y7379614D02*
G01*
X23783747Y7259624D01*
X23841760Y7259624D01*
X23841760Y7379614D01*
G37*
G36*
X23910747Y7379614D02*
G01*
X23910747Y7259624D01*
X23968760Y7259624D01*
X23968760Y7379614D01*
G37*
G36*
X24037747Y7379614D02*
G01*
X24037747Y7259624D01*
X24095760Y7259624D01*
X24095760Y7379614D01*
G37*
G36*
X23656239Y7929575D02*
G01*
X23656239Y7849209D01*
X23655985Y7849209D01*
X23655985Y7469225D01*
X24096014Y7469225D01*
X24096014Y7849209D01*
X24095252Y7849209D01*
X24095252Y7929575D01*
X24037239Y7929575D01*
X24037239Y7849209D01*
X23968252Y7849209D01*
X23968252Y7929575D01*
X23910239Y7929575D01*
X23910239Y7849209D01*
X23841252Y7849209D01*
X23841252Y7929575D01*
X23783239Y7929575D01*
X23783239Y7849209D01*
X23714252Y7849209D01*
X23714252Y7929575D01*
G37*
G36*
X22970947Y7392314D02*
G01*
X22970947Y7272324D01*
X23028960Y7272324D01*
X23028960Y7392314D01*
G37*
G36*
X23097947Y7392314D02*
G01*
X23097947Y7272324D01*
X23155960Y7272324D01*
X23155960Y7392314D01*
G37*
G36*
X23224947Y7392314D02*
G01*
X23224947Y7272324D01*
X23282960Y7272324D01*
X23282960Y7392314D01*
G37*
G36*
X23351947Y7392314D02*
G01*
X23351947Y7272324D01*
X23409960Y7272324D01*
X23409960Y7392314D01*
G37*
G36*
X22970439Y7942275D02*
G01*
X22970439Y7861909D01*
X22970185Y7861909D01*
X22970185Y7481925D01*
X23410214Y7481925D01*
X23410214Y7861909D01*
X23409452Y7861909D01*
X23409452Y7942275D01*
X23351439Y7942275D01*
X23351439Y7861909D01*
X23282452Y7861909D01*
X23282452Y7942275D01*
X23224439Y7942275D01*
X23224439Y7861909D01*
X23155452Y7861909D01*
X23155452Y7942275D01*
X23097439Y7942275D01*
X23097439Y7861909D01*
X23028452Y7861909D01*
X23028452Y7942275D01*
G37*
G36*
X22765918Y6014008D02*
G01*
X22760889Y6008979D01*
X22760889Y5929020D01*
X22765918Y5923991D01*
X22845877Y5923991D01*
X22850906Y5929020D01*
X22850906Y5953201D01*
X22813924Y5953201D01*
X22813924Y5986221D01*
X22850906Y5986221D01*
X22850906Y6008979D01*
X22845877Y6014008D01*
G37*
G36*
X22924922Y6014008D02*
G01*
X22919893Y6008979D01*
X22919893Y5984798D01*
X22956875Y5984798D01*
X22956875Y5951778D01*
X22919893Y5951778D01*
X22919893Y5929020D01*
X22924922Y5923991D01*
X23004881Y5923991D01*
X23009910Y5929020D01*
X23009910Y6008979D01*
X23004881Y6014008D01*
G37*
G36*
X22765918Y6318808D02*
G01*
X22760889Y6313779D01*
X22760889Y6233820D01*
X22765918Y6228791D01*
X22845877Y6228791D01*
X22850906Y6233820D01*
X22850906Y6258001D01*
X22813924Y6258001D01*
X22813924Y6291021D01*
X22850906Y6291021D01*
X22850906Y6313779D01*
X22845877Y6318808D01*
G37*
G36*
X22924922Y6318808D02*
G01*
X22919893Y6313779D01*
X22919893Y6289598D01*
X22956875Y6289598D01*
X22956875Y6256578D01*
X22919893Y6256578D01*
X22919893Y6233820D01*
X22924922Y6228791D01*
X23004881Y6228791D01*
X23009910Y6233820D01*
X23009910Y6313779D01*
X23004881Y6318808D01*
G37*
G36*
X22765918Y6483908D02*
G01*
X22760889Y6478879D01*
X22760889Y6398920D01*
X22765918Y6393891D01*
X22845877Y6393891D01*
X22850906Y6398920D01*
X22850906Y6423101D01*
X22813924Y6423101D01*
X22813924Y6456121D01*
X22850906Y6456121D01*
X22850906Y6478879D01*
X22845877Y6483908D01*
G37*
G36*
X22924922Y6483908D02*
G01*
X22919893Y6478879D01*
X22919893Y6454698D01*
X22956875Y6454698D01*
X22956875Y6421678D01*
X22919893Y6421678D01*
X22919893Y6398920D01*
X22924922Y6393891D01*
X23004881Y6393891D01*
X23009910Y6398920D01*
X23009910Y6478879D01*
X23004881Y6483908D01*
G37*
G36*
X29014318Y6687108D02*
G01*
X29009289Y6682079D01*
X29009289Y6602120D01*
X29014318Y6597091D01*
X29094277Y6597091D01*
X29099306Y6602120D01*
X29099306Y6626301D01*
X29062324Y6626301D01*
X29062324Y6659321D01*
X29099306Y6659321D01*
X29099306Y6682079D01*
X29094277Y6687108D01*
G37*
G36*
X29173322Y6687108D02*
G01*
X29168293Y6682079D01*
X29168293Y6657898D01*
X29205275Y6657898D01*
X29205275Y6624878D01*
X29168293Y6624878D01*
X29168293Y6602120D01*
X29173322Y6597091D01*
X29253281Y6597091D01*
X29258310Y6602120D01*
X29258310Y6682079D01*
X29253281Y6687108D01*
G37*
G36*
X29014318Y5353608D02*
G01*
X29009289Y5348579D01*
X29009289Y5268620D01*
X29014318Y5263591D01*
X29094277Y5263591D01*
X29099306Y5268620D01*
X29099306Y5292801D01*
X29062324Y5292801D01*
X29062324Y5325821D01*
X29099306Y5325821D01*
X29099306Y5348579D01*
X29094277Y5353608D01*
G37*
G36*
X29173322Y5353608D02*
G01*
X29168293Y5348579D01*
X29168293Y5324398D01*
X29205275Y5324398D01*
X29205275Y5291378D01*
X29168293Y5291378D01*
X29168293Y5268620D01*
X29173322Y5263591D01*
X29253281Y5263591D01*
X29258310Y5268620D01*
X29258310Y5348579D01*
X29253281Y5353608D01*
G37*
G36*
X29014318Y5036108D02*
G01*
X29009289Y5031079D01*
X29009289Y4951120D01*
X29014318Y4946091D01*
X29094277Y4946091D01*
X29099306Y4951120D01*
X29099306Y4975301D01*
X29062324Y4975301D01*
X29062324Y5008321D01*
X29099306Y5008321D01*
X29099306Y5031079D01*
X29094277Y5036108D01*
G37*
G36*
X29173322Y5036108D02*
G01*
X29168293Y5031079D01*
X29168293Y5006898D01*
X29205275Y5006898D01*
X29205275Y4973878D01*
X29168293Y4973878D01*
X29168293Y4951120D01*
X29173322Y4946091D01*
X29253281Y4946091D01*
X29258310Y4951120D01*
X29258310Y5031079D01*
X29253281Y5036108D01*
G37*
G36*
X22932390Y5481980D02*
G01*
X22928376Y5477967D01*
X22928376Y5431993D01*
X22932390Y5427980D01*
X22982428Y5427980D01*
X22986441Y5431993D01*
X22986441Y5477967D01*
X22982428Y5481980D01*
G37*
G36*
X23017429Y5481980D02*
G01*
X23013466Y5477967D01*
X23013466Y5431993D01*
X23017429Y5427980D01*
X23067518Y5427980D01*
X23071531Y5431993D01*
X23071531Y5477967D01*
X23067518Y5481980D01*
G37*
G36*
X29028136Y5183225D02*
G01*
X29024122Y5179212D01*
X29024122Y5133187D01*
X29028136Y5129174D01*
X29078174Y5129174D01*
X29082187Y5133187D01*
X29082187Y5179212D01*
X29078174Y5183225D01*
G37*
G36*
X29113226Y5183225D02*
G01*
X29109212Y5179212D01*
X29109212Y5133187D01*
X29113226Y5129174D01*
X29163264Y5129174D01*
X29167277Y5133187D01*
X29167277Y5179212D01*
X29163264Y5183225D01*
G37*
G36*
X29028136Y6491325D02*
G01*
X29024122Y6487312D01*
X29024122Y6441287D01*
X29028136Y6437274D01*
X29078174Y6437274D01*
X29082187Y6441287D01*
X29082187Y6487312D01*
X29078174Y6491325D01*
G37*
G36*
X29113226Y6491325D02*
G01*
X29109212Y6487312D01*
X29109212Y6441287D01*
X29113226Y6437274D01*
X29163264Y6437274D01*
X29167277Y6441287D01*
X29167277Y6487312D01*
X29163264Y6491325D01*
G37*
D10*
G01*
X28054945Y6434985D03*
G01*
X28374944Y6434985D03*
G01*
X28964943Y4454989D03*
G01*
X28644943Y4454989D03*
D11*
G01*
X29079099Y7378700D03*
G01*
X29163100Y7378700D03*
D12*
G01*
X29718000Y7992200D03*
G01*
X29718000Y7908199D03*
D11*
G01*
X27567799Y8115300D03*
G01*
X27651800Y8115300D03*
G01*
X28426500Y6794500D03*
G01*
X28342499Y6794500D03*
D13*
G01*
X29497299Y7788300D03*
G01*
X29497301Y7888300D03*
G01*
X29497304Y7988302D03*
G01*
X29497301Y8088299D03*
G01*
X29497299Y8188299D03*
G01*
X28897300Y8188299D03*
G01*
X28897300Y8088299D03*
G01*
X28897300Y7988300D03*
G01*
X28897300Y7888300D03*
G01*
X28897300Y7788300D03*
D14*
G01*
X29197300Y7988300D03*
D10*
G01*
X27602200Y7543800D03*
G01*
X27922199Y7543800D03*
D11*
G01*
X24126099Y5816600D03*
G01*
X24210100Y5816600D03*
G01*
X23732399Y6807200D03*
G01*
X23816400Y6807200D03*
D15*
G01*
X23519952Y6767986D03*
G01*
X23519952Y6851986D03*
D11*
G01*
X22902000Y6121400D03*
G01*
X22817999Y6121400D03*
D12*
G01*
X22377400Y6442800D03*
G01*
X22377400Y6358799D03*
G01*
X27978100Y5134700D03*
G01*
X27978100Y5050699D03*
D16*
G01*
X23895895Y6428846D03*
D18*
G01*
X23900899Y6361097D03*
D19*
G01*
X23894652Y6311097D03*
G01*
X23894652Y6261097D03*
G01*
X23894652Y6211097D03*
D18*
G01*
X23900897Y6161097D03*
D20*
G01*
X23895895Y6093348D03*
D21*
G01*
X23823406Y6094600D03*
G01*
X23773406Y6094600D03*
G01*
X23723406Y6094600D03*
G01*
X23650906Y6094600D03*
G01*
X23600907Y6094600D03*
D22*
G01*
X23525899Y6093353D03*
D18*
G01*
X23520897Y6161097D03*
D19*
G01*
X23527151Y6211097D03*
G01*
X23527151Y6261097D03*
G01*
X23527151Y6311097D03*
D18*
G01*
X23520897Y6361097D03*
D23*
G01*
X23525899Y6428846D03*
D24*
G01*
X23605886Y6425096D03*
D25*
G01*
X23685901Y6428849D03*
G01*
X23735903Y6428849D03*
D24*
G01*
X23815888Y6425096D03*
D26*
G01*
X23773396Y6261097D03*
G01*
X23710897Y6261097D03*
G01*
X23648398Y6261097D03*
D27*
G01*
X23911952Y6669986D03*
G01*
X23827953Y6669986D03*
M02*
